%TF.GenerationSoftware,KiCad,Pcbnew,9.0.5*%
%TF.CreationDate,2025-10-30T22:03:55+01:00*%
%TF.ProjectId,36mm PCB,33366d6d-2050-4434-922e-6b696361645f,rev?*%
%TF.SameCoordinates,Original*%
%TF.FileFunction,Paste,Bot*%
%TF.FilePolarity,Positive*%
%FSLAX46Y46*%
G04 Gerber Fmt 4.6, Leading zero omitted, Abs format (unit mm)*
G04 Created by KiCad (PCBNEW 9.0.5) date 2025-10-30 22:03:55*
%MOMM*%
%LPD*%
G01*
G04 APERTURE LIST*
G04 Aperture macros list*
%AMRoundRect*
0 Rectangle with rounded corners*
0 $1 Rounding radius*
0 $2 $3 $4 $5 $6 $7 $8 $9 X,Y pos of 4 corners*
0 Add a 4 corners polygon primitive as box body*
4,1,4,$2,$3,$4,$5,$6,$7,$8,$9,$2,$3,0*
0 Add four circle primitives for the rounded corners*
1,1,$1+$1,$2,$3*
1,1,$1+$1,$4,$5*
1,1,$1+$1,$6,$7*
1,1,$1+$1,$8,$9*
0 Add four rect primitives between the rounded corners*
20,1,$1+$1,$2,$3,$4,$5,0*
20,1,$1+$1,$4,$5,$6,$7,0*
20,1,$1+$1,$6,$7,$8,$9,0*
20,1,$1+$1,$8,$9,$2,$3,0*%
%AMRotRect*
0 Rectangle, with rotation*
0 The origin of the aperture is its center*
0 $1 length*
0 $2 width*
0 $3 Rotation angle, in degrees counterclockwise*
0 Add horizontal line*
21,1,$1,$2,0,0,$3*%
%AMFreePoly0*
4,1,6,0.130000,-0.115000,-0.020000,-0.275000,-0.130000,-0.275000,-0.130000,0.115000,0.130000,0.115000,0.130000,-0.115000,0.130000,-0.115000,$1*%
%AMFreePoly1*
4,1,6,0.130000,-0.275000,0.020000,-0.275000,-0.130000,-0.115000,-0.130000,0.115000,0.130000,0.115000,0.130000,-0.275000,0.130000,-0.275000,$1*%
G04 Aperture macros list end*
%ADD10RoundRect,0.079500X-0.100500X0.079500X-0.100500X-0.079500X0.100500X-0.079500X0.100500X0.079500X0*%
%ADD11RoundRect,0.079500X-0.079500X-0.100500X0.079500X-0.100500X0.079500X0.100500X-0.079500X0.100500X0*%
%ADD12C,1.000000*%
%ADD13RoundRect,0.079500X0.079500X0.100500X-0.079500X0.100500X-0.079500X-0.100500X0.079500X-0.100500X0*%
%ADD14R,0.280000X0.792000*%
%ADD15R,0.250000X0.792000*%
%ADD16R,0.800000X0.250000*%
%ADD17RoundRect,0.140000X0.170000X-0.140000X0.170000X0.140000X-0.170000X0.140000X-0.170000X-0.140000X0*%
%ADD18RoundRect,0.079500X-0.114525X-0.057486X0.029578X-0.124682X0.114525X0.057486X-0.029578X0.124682X0*%
%ADD19RoundRect,0.079500X-0.057486X0.114525X-0.124682X-0.029578X0.057486X-0.114525X0.124682X0.029578X0*%
%ADD20RoundRect,0.140000X-0.170000X0.140000X-0.170000X-0.140000X0.170000X-0.140000X0.170000X0.140000X0*%
%ADD21RoundRect,0.147500X0.147500X0.172500X-0.147500X0.172500X-0.147500X-0.172500X0.147500X-0.172500X0*%
%ADD22R,0.700000X0.300000*%
%ADD23R,1.000000X1.700000*%
%ADD24RoundRect,0.079500X0.057486X-0.114525X0.124682X0.029578X-0.057486X0.114525X-0.124682X-0.029578X0*%
%ADD25RoundRect,0.140000X0.140000X0.170000X-0.140000X0.170000X-0.140000X-0.170000X0.140000X-0.170000X0*%
%ADD26RoundRect,0.050000X-0.300560X0.029815X0.216036X-0.211077X0.300560X-0.029815X-0.216036X0.211077X0*%
%ADD27C,0.215000*%
%ADD28C,0.173000*%
%ADD29FreePoly0,90.000000*%
%ADD30FreePoly1,90.000000*%
%ADD31FreePoly0,270.000000*%
%ADD32FreePoly1,270.000000*%
%ADD33RotRect,0.520000X0.520000X225.000000*%
%ADD34RoundRect,0.079500X0.100500X-0.079500X0.100500X0.079500X-0.100500X0.079500X-0.100500X-0.079500X0*%
%ADD35R,0.325000X0.300000*%
%ADD36R,0.300000X0.325000*%
%ADD37R,0.350000X0.500000*%
%ADD38R,0.900000X0.440000*%
%ADD39R,0.300000X0.340000*%
G04 APERTURE END LIST*
D10*
%TO.C,C13*%
X159080000Y-105355000D03*
X159080000Y-106045000D03*
%TD*%
D11*
%TO.C,C4*%
X146205000Y-100560000D03*
X146895000Y-100560000D03*
%TD*%
%TO.C,R18*%
X163155000Y-96830000D03*
X163845000Y-96830000D03*
%TD*%
D12*
%TO.C,TP17*%
X155890000Y-105660000D03*
%TD*%
D10*
%TO.C,C11*%
X148300000Y-100835000D03*
X148300000Y-101525000D03*
%TD*%
D13*
%TO.C,R13*%
X157955000Y-100900000D03*
X157265000Y-100900000D03*
%TD*%
D14*
%TO.C,IC8*%
X146180000Y-103291000D03*
D15*
X145680000Y-103291000D03*
X145180000Y-103291000D03*
X144680000Y-103291000D03*
D16*
X144480000Y-102550000D03*
D15*
X144680000Y-101809000D03*
X145180000Y-101809000D03*
X145680000Y-101809000D03*
X146180000Y-101809000D03*
D16*
X146380000Y-102550000D03*
%TD*%
D13*
%TO.C,R14*%
X156555000Y-100900000D03*
X155865000Y-100900000D03*
%TD*%
D17*
%TO.C,C29*%
X158820000Y-98280000D03*
X158820000Y-97320000D03*
%TD*%
D18*
%TO.C,CSPT1*%
X164747324Y-97604197D03*
X165372676Y-97895803D03*
%TD*%
D13*
%TO.C,C38*%
X159355000Y-100900000D03*
X158665000Y-100900000D03*
%TD*%
%TO.C,R5*%
X151215000Y-103680000D03*
X150525000Y-103680000D03*
%TD*%
D12*
%TO.C,TP20*%
X159280000Y-101790000D03*
%TD*%
D19*
%TO.C,R16*%
X164550565Y-100947342D03*
X164258959Y-101572694D03*
%TD*%
D20*
%TO.C,C24*%
X158390000Y-99140000D03*
X158390000Y-100100000D03*
%TD*%
D17*
%TO.C,C22*%
X163260000Y-96049999D03*
X163260000Y-95090001D03*
%TD*%
D12*
%TO.C,TP18*%
X155900000Y-104430000D03*
%TD*%
D21*
%TO.C,D2*%
X157845000Y-104450000D03*
X156875000Y-104450000D03*
%TD*%
D22*
%TO.C,IC3*%
X144800000Y-99950000D03*
X144800000Y-99450000D03*
X144800000Y-98950000D03*
X144800000Y-98450000D03*
X146900000Y-98450000D03*
X146900000Y-98950000D03*
X146900000Y-99450000D03*
X146900000Y-99950000D03*
D23*
X145850000Y-99200000D03*
%TD*%
D10*
%TO.C,R31*%
X156980000Y-105355000D03*
X156980000Y-106045000D03*
%TD*%
D24*
%TO.C,R15*%
X163628959Y-101282694D03*
X163920565Y-100657342D03*
%TD*%
D19*
%TO.C,C20*%
X165180565Y-101247342D03*
X164888959Y-101872694D03*
%TD*%
D10*
%TO.C,R10*%
X151220000Y-104525000D03*
X151220000Y-105215000D03*
%TD*%
D20*
%TO.C,C2*%
X161930000Y-99420000D03*
X161930000Y-100380000D03*
%TD*%
D25*
%TO.C,C19*%
X158980000Y-103520000D03*
X158020000Y-103520000D03*
%TD*%
D13*
%TO.C,C10*%
X152765000Y-105560000D03*
X152075000Y-105560000D03*
%TD*%
D12*
%TO.C,TP16*%
X152150000Y-100000000D03*
%TD*%
D13*
%TO.C,R17*%
X162445000Y-95010000D03*
X161755000Y-95010000D03*
%TD*%
D26*
%TO.C,TPS3424A11C13ADRLR1*%
X164402368Y-99986994D03*
X164613677Y-99533839D03*
X164824987Y-99080686D03*
X165036297Y-98627533D03*
X166377632Y-99253006D03*
X166166323Y-99706161D03*
X165955013Y-100159314D03*
X165743703Y-100612467D03*
%TD*%
D12*
%TO.C,TP19*%
X158010000Y-102460000D03*
%TD*%
%TO.C,J3*%
X166612885Y-96788273D03*
X164347115Y-95731727D03*
%TD*%
D27*
%TO.C,IC2*%
X148610000Y-103100000D03*
X148610000Y-102700000D03*
X148610000Y-102300000D03*
X148210000Y-103100000D03*
X148210000Y-102700000D03*
X148210000Y-102300000D03*
X147810000Y-103100000D03*
X147810000Y-102700000D03*
X147810000Y-102300000D03*
%TD*%
D20*
%TO.C,C35*%
X156430000Y-102050000D03*
X156430000Y-103010000D03*
%TD*%
D28*
%TO.C,IC7*%
X157210000Y-99430000D03*
X156810000Y-99430000D03*
X157210000Y-99830000D03*
X156810000Y-99830000D03*
%TD*%
D10*
%TO.C,C12*%
X159780000Y-105795000D03*
X159780000Y-106485000D03*
%TD*%
D11*
%TO.C,C14*%
X158995000Y-102710000D03*
X159685000Y-102710000D03*
%TD*%
D29*
%TO.C,LDLN025PU2*%
X159785000Y-98215000D03*
D30*
X159785000Y-97565000D03*
D31*
X160755000Y-97565000D03*
D32*
X160755000Y-98215000D03*
D33*
X160270000Y-97890000D03*
%TD*%
D11*
%TO.C,R11*%
X153985000Y-103870000D03*
X154675000Y-103870000D03*
%TD*%
D10*
%TO.C,R4*%
X149390000Y-101775000D03*
X149390000Y-102465000D03*
%TD*%
D13*
%TO.C,R9*%
X153165000Y-102740000D03*
X152475000Y-102740000D03*
%TD*%
D34*
%TO.C,C36*%
X158380000Y-106495000D03*
X158380000Y-105805000D03*
%TD*%
D29*
%TO.C,LDLN025PU1*%
X162445000Y-98585000D03*
D30*
X162445000Y-97935001D03*
D31*
X163415000Y-97935000D03*
D32*
X163415000Y-98584999D03*
D33*
X162930000Y-98260000D03*
%TD*%
D20*
%TO.C,C30*%
X161590000Y-97590000D03*
X161590000Y-98550000D03*
%TD*%
D34*
%TO.C,R29*%
X153950000Y-103165000D03*
X153950000Y-102475000D03*
%TD*%
D18*
%TO.C,CLPT1*%
X166007325Y-98194197D03*
X166632675Y-98485803D03*
%TD*%
D13*
%TO.C,C9*%
X148365000Y-103870000D03*
X147675000Y-103870000D03*
%TD*%
D34*
%TO.C,R3*%
X149390000Y-103865000D03*
X149390000Y-103175000D03*
%TD*%
D35*
%TO.C,U1*%
X151850000Y-104440000D03*
X151850000Y-103940000D03*
D36*
X152100000Y-103415000D03*
X152600000Y-103415000D03*
X153100000Y-103415000D03*
D35*
X153350000Y-103940000D03*
X153350000Y-104440000D03*
D36*
X153100000Y-104965000D03*
X152600000Y-104965000D03*
X152100000Y-104965000D03*
%TD*%
D24*
%TO.C,R27*%
X162574197Y-101902676D03*
X162865803Y-101277324D03*
%TD*%
D37*
%TO.C,Q7*%
X162525000Y-96760000D03*
X161875000Y-96760000D03*
D38*
X162200000Y-96070000D03*
D39*
X162200000Y-95680000D03*
%TD*%
D10*
%TO.C,R32*%
X147600000Y-99845000D03*
X147600000Y-100535000D03*
%TD*%
%TO.C,C37*%
X157680000Y-105275000D03*
X157680000Y-105965000D03*
%TD*%
D20*
%TO.C,C1*%
X162840000Y-99420000D03*
X162840000Y-100380000D03*
%TD*%
D11*
%TO.C,C23*%
X156445000Y-98360000D03*
X157135000Y-98360000D03*
%TD*%
D13*
%TO.C,C3*%
X145495000Y-100560000D03*
X144805000Y-100560000D03*
%TD*%
D34*
%TO.C,R28*%
X154660000Y-103165000D03*
X154660000Y-102475000D03*
%TD*%
D19*
%TO.C,C21*%
X164495803Y-98257324D03*
X164204197Y-98882676D03*
%TD*%
D12*
%TO.C,TP21*%
X159440000Y-104500000D03*
%TD*%
D10*
%TO.C,C27*%
X157240000Y-102385000D03*
X157240000Y-103075000D03*
%TD*%
M02*
