%TF.GenerationSoftware,KiCad,Pcbnew,9.0.5*%
%TF.CreationDate,2025-10-30T22:03:55+01:00*%
%TF.ProjectId,36mm PCB,33366d6d-2050-4434-922e-6b696361645f,rev?*%
%TF.SameCoordinates,Original*%
%TF.FileFunction,Copper,L6,Bot*%
%TF.FilePolarity,Positive*%
%FSLAX46Y46*%
G04 Gerber Fmt 4.6, Leading zero omitted, Abs format (unit mm)*
G04 Created by KiCad (PCBNEW 9.0.5) date 2025-10-30 22:03:55*
%MOMM*%
%LPD*%
G01*
G04 APERTURE LIST*
G04 Aperture macros list*
%AMRoundRect*
0 Rectangle with rounded corners*
0 $1 Rounding radius*
0 $2 $3 $4 $5 $6 $7 $8 $9 X,Y pos of 4 corners*
0 Add a 4 corners polygon primitive as box body*
4,1,4,$2,$3,$4,$5,$6,$7,$8,$9,$2,$3,0*
0 Add four circle primitives for the rounded corners*
1,1,$1+$1,$2,$3*
1,1,$1+$1,$4,$5*
1,1,$1+$1,$6,$7*
1,1,$1+$1,$8,$9*
0 Add four rect primitives between the rounded corners*
20,1,$1+$1,$2,$3,$4,$5,0*
20,1,$1+$1,$4,$5,$6,$7,0*
20,1,$1+$1,$6,$7,$8,$9,0*
20,1,$1+$1,$8,$9,$2,$3,0*%
%AMRotRect*
0 Rectangle, with rotation*
0 The origin of the aperture is its center*
0 $1 length*
0 $2 width*
0 $3 Rotation angle, in degrees counterclockwise*
0 Add horizontal line*
21,1,$1,$2,0,0,$3*%
%AMFreePoly0*
4,1,6,0.130000,-0.115000,-0.020000,-0.275000,-0.130000,-0.275000,-0.130000,0.115000,0.130000,0.115000,0.130000,-0.115000,0.130000,-0.115000,$1*%
%AMFreePoly1*
4,1,6,0.130000,-0.275000,0.020000,-0.275000,-0.130000,-0.115000,-0.130000,0.115000,0.130000,0.115000,0.130000,-0.275000,0.130000,-0.275000,$1*%
G04 Aperture macros list end*
%TA.AperFunction,ComponentPad*%
%ADD10R,1.000000X0.800000*%
%TD*%
%TA.AperFunction,SMDPad,CuDef*%
%ADD11RoundRect,0.100000X-0.100000X0.130000X-0.100000X-0.130000X0.100000X-0.130000X0.100000X0.130000X0*%
%TD*%
%TA.AperFunction,SMDPad,CuDef*%
%ADD12RoundRect,0.100000X-0.130000X-0.100000X0.130000X-0.100000X0.130000X0.100000X-0.130000X0.100000X0*%
%TD*%
%TA.AperFunction,SMDPad,CuDef*%
%ADD13C,1.000000*%
%TD*%
%TA.AperFunction,SMDPad,CuDef*%
%ADD14RoundRect,0.100000X0.130000X0.100000X-0.130000X0.100000X-0.130000X-0.100000X0.130000X-0.100000X0*%
%TD*%
%TA.AperFunction,SMDPad,CuDef*%
%ADD15R,0.280000X0.792000*%
%TD*%
%TA.AperFunction,SMDPad,CuDef*%
%ADD16R,0.250000X0.792000*%
%TD*%
%TA.AperFunction,SMDPad,CuDef*%
%ADD17R,0.800000X0.250000*%
%TD*%
%TA.AperFunction,SMDPad,CuDef*%
%ADD18RoundRect,0.140000X0.170000X-0.140000X0.170000X0.140000X-0.170000X0.140000X-0.170000X-0.140000X0*%
%TD*%
%TA.AperFunction,SMDPad,CuDef*%
%ADD19RoundRect,0.100000X-0.160082X-0.035690X0.075558X-0.145571X0.160082X0.035690X-0.075558X0.145571X0*%
%TD*%
%TA.AperFunction,SMDPad,CuDef*%
%ADD20RoundRect,0.100000X-0.035690X0.160082X-0.145571X-0.075558X0.035690X-0.160082X0.145571X0.075558X0*%
%TD*%
%TA.AperFunction,SMDPad,CuDef*%
%ADD21RoundRect,0.140000X-0.170000X0.140000X-0.170000X-0.140000X0.170000X-0.140000X0.170000X0.140000X0*%
%TD*%
%TA.AperFunction,SMDPad,CuDef*%
%ADD22RoundRect,0.147500X0.147500X0.172500X-0.147500X0.172500X-0.147500X-0.172500X0.147500X-0.172500X0*%
%TD*%
%TA.AperFunction,SMDPad,CuDef*%
%ADD23R,0.700000X0.300000*%
%TD*%
%TA.AperFunction,SMDPad,CuDef*%
%ADD24R,1.000000X1.700000*%
%TD*%
%TA.AperFunction,SMDPad,CuDef*%
%ADD25RoundRect,0.100000X0.035690X-0.160082X0.145571X0.075558X-0.035690X0.160082X-0.145571X-0.075558X0*%
%TD*%
%TA.AperFunction,SMDPad,CuDef*%
%ADD26RoundRect,0.140000X0.140000X0.170000X-0.140000X0.170000X-0.140000X-0.170000X0.140000X-0.170000X0*%
%TD*%
%TA.AperFunction,SMDPad,CuDef*%
%ADD27RoundRect,0.050000X-0.300560X0.029815X0.216036X-0.211077X0.300560X-0.029815X-0.216036X0.211077X0*%
%TD*%
%TA.AperFunction,SMDPad,CuDef*%
%ADD28C,0.215000*%
%TD*%
%TA.AperFunction,SMDPad,CuDef*%
%ADD29C,0.173000*%
%TD*%
%TA.AperFunction,SMDPad,CuDef*%
%ADD30FreePoly0,90.000000*%
%TD*%
%TA.AperFunction,SMDPad,CuDef*%
%ADD31FreePoly1,90.000000*%
%TD*%
%TA.AperFunction,SMDPad,CuDef*%
%ADD32FreePoly0,270.000000*%
%TD*%
%TA.AperFunction,SMDPad,CuDef*%
%ADD33FreePoly1,270.000000*%
%TD*%
%TA.AperFunction,SMDPad,CuDef*%
%ADD34RotRect,0.520000X0.520000X225.000000*%
%TD*%
%TA.AperFunction,SMDPad,CuDef*%
%ADD35RoundRect,0.100000X0.100000X-0.130000X0.100000X0.130000X-0.100000X0.130000X-0.100000X-0.130000X0*%
%TD*%
%TA.AperFunction,SMDPad,CuDef*%
%ADD36R,0.325000X0.300000*%
%TD*%
%TA.AperFunction,SMDPad,CuDef*%
%ADD37R,0.300000X0.325000*%
%TD*%
%TA.AperFunction,SMDPad,CuDef*%
%ADD38R,0.350000X0.500000*%
%TD*%
%TA.AperFunction,SMDPad,CuDef*%
%ADD39R,0.900000X0.440000*%
%TD*%
%TA.AperFunction,SMDPad,CuDef*%
%ADD40R,0.300000X0.340000*%
%TD*%
%TA.AperFunction,ViaPad*%
%ADD41C,0.400000*%
%TD*%
%TA.AperFunction,Conductor*%
%ADD42C,0.100000*%
%TD*%
G04 APERTURE END LIST*
D10*
%TO.P,J2,1,Pin_1*%
%TO.N,+3V0*%
X165480000Y-95070000D03*
%TO.P,J2,2,Pin_2*%
%TO.N,GND*%
X167080000Y-95070000D03*
%TD*%
D11*
%TO.P,C13,1*%
%TO.N,GND*%
X159080000Y-105380000D03*
%TO.P,C13,2*%
%TO.N,+3.3V*%
X159080000Y-106020000D03*
%TD*%
D12*
%TO.P,C4,1*%
%TO.N,GND*%
X146230000Y-100560000D03*
%TO.P,C4,2*%
%TO.N,+3.3V*%
X146870000Y-100560000D03*
%TD*%
%TO.P,R18,1*%
%TO.N,/Power/Charge +*%
X163180000Y-96830000D03*
%TO.P,R18,2*%
%TO.N,GND*%
X163820000Y-96830000D03*
%TD*%
D13*
%TO.P,TP17,1,1*%
%TO.N,/SWDIO*%
X155890000Y-105660000D03*
%TD*%
D11*
%TO.P,C11,1*%
%TO.N,GND*%
X148300000Y-100860000D03*
%TO.P,C11,2*%
%TO.N,+3.3V*%
X148300000Y-101500000D03*
%TD*%
D14*
%TO.P,R13,1*%
%TO.N,+3.3V*%
X157930000Y-100900000D03*
%TO.P,R13,2*%
%TO.N,/I2C_SCL*%
X157290000Y-100900000D03*
%TD*%
D15*
%TO.P,IC8,1,1D+*%
%TO.N,Net-(IC8-1D+)*%
X146180000Y-103291000D03*
D16*
%TO.P,IC8,2,1D-*%
%TO.N,Net-(IC8-1D-)*%
X145680000Y-103291000D03*
%TO.P,IC8,3,2D+*%
%TO.N,/Dial/MOT1*%
X145180000Y-103291000D03*
%TO.P,IC8,4,2D-*%
%TO.N,/Dial/MOT2*%
X144680000Y-103291000D03*
D17*
%TO.P,IC8,5,GND*%
%TO.N,GND*%
X144480000Y-102550000D03*
D16*
%TO.P,IC8,6,~{OE}*%
X144680000Y-101809000D03*
%TO.P,IC8,7,D-*%
%TO.N,/Dial/OUT2*%
X145180000Y-101809000D03*
%TO.P,IC8,8,D+*%
%TO.N,/Dial/OUT1*%
X145680000Y-101809000D03*
%TO.P,IC8,9,S*%
%TO.N,/Select dial*%
X146180000Y-101809000D03*
D17*
%TO.P,IC8,10,VCC*%
%TO.N,+3.3V*%
X146380000Y-102550000D03*
%TD*%
D14*
%TO.P,R14,1*%
%TO.N,/I2C_SDA*%
X156530000Y-100900000D03*
%TO.P,R14,2*%
%TO.N,+3.3V*%
X155890000Y-100900000D03*
%TD*%
D18*
%TO.P,C29,1*%
%TO.N,+1V8*%
X158820000Y-98280000D03*
%TO.P,C29,2*%
%TO.N,GND*%
X158820000Y-97320000D03*
%TD*%
D19*
%TO.P,CSPT1,1*%
%TO.N,GND*%
X164769982Y-97614763D03*
%TO.P,CSPT1,2*%
%TO.N,Net-(TPS3424A11C13ADRLR1-SPT)*%
X165350018Y-97885237D03*
%TD*%
D14*
%TO.P,C38,1*%
%TO.N,GND*%
X159330000Y-100900000D03*
%TO.P,C38,2*%
%TO.N,Net-(D1-VCAP)*%
X158690000Y-100900000D03*
%TD*%
%TO.P,R5,1*%
%TO.N,/I2C_SCL*%
X151190000Y-103680000D03*
%TO.P,R5,2*%
%TO.N,+3.3V*%
X150550000Y-103680000D03*
%TD*%
D13*
%TO.P,TP20,1,1*%
%TO.N,+3.3V*%
X159280000Y-101790000D03*
%TD*%
D20*
%TO.P,R16,1*%
%TO.N,+3V0*%
X164539999Y-100970000D03*
%TO.P,R16,2*%
%TO.N,Net-(C20-Pad2)*%
X164269525Y-101550036D03*
%TD*%
D21*
%TO.P,C24,1*%
%TO.N,+3.3V*%
X158390000Y-99140000D03*
%TO.P,C24,2*%
%TO.N,GND*%
X158390000Y-100100000D03*
%TD*%
D18*
%TO.P,C22,1*%
%TO.N,/Power/Charge +*%
X163260000Y-96049999D03*
%TO.P,C22,2*%
%TO.N,GND*%
X163260000Y-95090001D03*
%TD*%
D13*
%TO.P,TP18,1,1*%
%TO.N,/SWCLK*%
X155900000Y-104430000D03*
%TD*%
D22*
%TO.P,D2,1,K*%
%TO.N,GND*%
X157845000Y-104450000D03*
%TO.P,D2,2,A*%
%TO.N,Net-(D2-A)*%
X156875000Y-104450000D03*
%TD*%
D23*
%TO.P,IC3,1,VM*%
%TO.N,+3.3V*%
X144800000Y-99950000D03*
%TO.P,IC3,2,OUT1*%
%TO.N,/Dial/OUT1*%
X144800000Y-99450000D03*
%TO.P,IC3,3,OUT2*%
%TO.N,/Dial/OUT2*%
X144800000Y-98950000D03*
%TO.P,IC3,4,GND*%
%TO.N,GND*%
X144800000Y-98450000D03*
%TO.P,IC3,5,IN2*%
%TO.N,/H_Tim2*%
X146900000Y-98450000D03*
%TO.P,IC3,6,IN1*%
%TO.N,/H_Tim1*%
X146900000Y-98950000D03*
%TO.P,IC3,7,NSLEEP*%
%TO.N,/H_on_GPIO*%
X146900000Y-99450000D03*
%TO.P,IC3,8,VCC*%
%TO.N,+3.3V*%
X146900000Y-99950000D03*
D24*
%TO.P,IC3,9,EP*%
%TO.N,GND*%
X145850000Y-99200000D03*
%TD*%
D11*
%TO.P,R31,1*%
%TO.N,Net-(D2-A)*%
X156980000Y-105380000D03*
%TO.P,R31,2*%
%TO.N,/DEBLED*%
X156980000Y-106020000D03*
%TD*%
D25*
%TO.P,R15,1*%
%TO.N,Net-(C20-Pad2)*%
X163639524Y-101260036D03*
%TO.P,R15,2*%
%TO.N,Net-(TPS3424A11C13ADRLR1-PB)*%
X163910000Y-100680000D03*
%TD*%
D20*
%TO.P,C20,1*%
%TO.N,GND*%
X165170000Y-101270000D03*
%TO.P,C20,2*%
%TO.N,Net-(C20-Pad2)*%
X164899524Y-101850036D03*
%TD*%
D11*
%TO.P,R10,1*%
%TO.N,+3.3V*%
X151220000Y-104550000D03*
%TO.P,R10,2*%
%TO.N,/Peripherals/VDDIO*%
X151220000Y-105190000D03*
%TD*%
D21*
%TO.P,C2,1*%
%TO.N,+3.3V*%
X161930000Y-99420000D03*
%TO.P,C2,2*%
%TO.N,GND*%
X161930000Y-100380000D03*
%TD*%
D26*
%TO.P,C19,1*%
%TO.N,+3.3V*%
X158980000Y-103520000D03*
%TO.P,C19,2*%
%TO.N,GND*%
X158020000Y-103520000D03*
%TD*%
D14*
%TO.P,C10,1*%
%TO.N,GND*%
X152740000Y-105560000D03*
%TO.P,C10,2*%
%TO.N,/Peripherals/VDDIO*%
X152100000Y-105560000D03*
%TD*%
D13*
%TO.P,TP16,1,1*%
%TO.N,/Dial/VDD PROG*%
X152150000Y-100000000D03*
%TD*%
D14*
%TO.P,R17,1*%
%TO.N,Net-(Q7-D_1)*%
X162420000Y-95010000D03*
%TO.P,R17,2*%
%TO.N,Net-(IC5-PROG)*%
X161780000Y-95010000D03*
%TD*%
D27*
%TO.P,TPS3424A11C13ADRLR1,1,PB*%
%TO.N,Net-(TPS3424A11C13ADRLR1-PB)*%
X164402368Y-99986994D03*
%TO.P,TPS3424A11C13ADRLR1,2,GND*%
%TO.N,GND*%
X164613677Y-99533839D03*
%TO.P,TPS3424A11C13ADRLR1,3,VDD*%
%TO.N,+3V0*%
X164824987Y-99080686D03*
%TO.P,TPS3424A11C13ADRLR1,4,SPT*%
%TO.N,Net-(TPS3424A11C13ADRLR1-SPT)*%
X165036297Y-98627533D03*
%TO.P,TPS3424A11C13ADRLR1,5,LPT*%
%TO.N,Net-(TPS3424A11C13ADRLR1-LPT)*%
X166377632Y-99253006D03*
%TO.P,TPS3424A11C13ADRLR1,6,RESET/~RESET~*%
%TO.N,Net-(LDLN025PU1-EN)*%
X166166323Y-99706161D03*
%TO.P,TPS3424A11C13ADRLR1,7,~INT~*%
%TO.N,Net-(TPS3424A11C13ADRLR1-~INT~)*%
X165955013Y-100159314D03*
%TO.P,TPS3424A11C13ADRLR1,8,kill*%
%TO.N,Net-(TPS3424A11C13ADRLR1-kill)*%
X165743703Y-100612467D03*
%TD*%
D13*
%TO.P,TP19,1,1*%
%TO.N,/NRST*%
X158010000Y-102460000D03*
%TD*%
%TO.P,J3,1,Pin_1*%
%TO.N,GND*%
X166612885Y-96788273D03*
%TO.P,J3,2,Pin_2*%
%TO.N,/Power/Charge +*%
X164347115Y-95731727D03*
%TD*%
D28*
%TO.P,IC2,A1,INT*%
%TO.N,unconnected-(IC2-INT-PadA1)*%
X148610000Y-103100000D03*
%TO.P,IC2,A2,SDA*%
%TO.N,/I2C_SDA*%
X148610000Y-102700000D03*
%TO.P,IC2,A3,SCK*%
%TO.N,/I2C_SCL*%
X148610000Y-102300000D03*
%TO.P,IC2,B1,GND*%
%TO.N,GND*%
X148210000Y-103100000D03*
%TO.P,IC2,B2,ADSEL*%
X148210000Y-102700000D03*
%TO.P,IC2,B3,VDDIO*%
%TO.N,+3.3V*%
X148210000Y-102300000D03*
%TO.P,IC2,C1,VDD*%
X147810000Y-103100000D03*
%TO.P,IC2,C2,CRST*%
%TO.N,Net-(IC2-CRST)*%
X147810000Y-102700000D03*
%TO.P,IC2,C3,BYPASS*%
%TO.N,GND*%
X147810000Y-102300000D03*
%TD*%
D21*
%TO.P,C35,1*%
%TO.N,+3.3V*%
X156430000Y-102050000D03*
%TO.P,C35,2*%
%TO.N,GND*%
X156430000Y-103010000D03*
%TD*%
D29*
%TO.P,IC7,A1,VCC*%
%TO.N,+3.3V*%
X157210000Y-99430000D03*
%TO.P,IC7,A2,VSS*%
%TO.N,GND*%
X156810000Y-99430000D03*
%TO.P,IC7,B1,SCL*%
%TO.N,/I2C_SCL*%
X157210000Y-99830000D03*
%TO.P,IC7,B2,SDA*%
%TO.N,/I2C_SDA*%
X156810000Y-99830000D03*
%TD*%
D11*
%TO.P,C12,1*%
%TO.N,GND*%
X159780000Y-105820000D03*
%TO.P,C12,2*%
%TO.N,+3.3V*%
X159780000Y-106460000D03*
%TD*%
D12*
%TO.P,C14,1*%
%TO.N,GND*%
X159020000Y-102710000D03*
%TO.P,C14,2*%
%TO.N,+3.3V*%
X159660000Y-102710000D03*
%TD*%
D30*
%TO.P,LDLN025PU2,1,Vout*%
%TO.N,+1V8*%
X159785000Y-98215000D03*
D31*
%TO.P,LDLN025PU2,2,GND*%
%TO.N,GND*%
X159785000Y-97565000D03*
D32*
%TO.P,LDLN025PU2,3,EN*%
%TO.N,+3V0*%
X160755000Y-97565000D03*
D33*
%TO.P,LDLN025PU2,4,Vin_*%
X160755000Y-98215000D03*
D34*
%TO.P,LDLN025PU2,5,GND*%
%TO.N,GND*%
X160270000Y-97890000D03*
%TD*%
D12*
%TO.P,R11,1*%
%TO.N,Net-(U1-INT)*%
X154010000Y-103870000D03*
%TO.P,R11,2*%
%TO.N,/BMP581_INT*%
X154650000Y-103870000D03*
%TD*%
D11*
%TO.P,R4,1*%
%TO.N,+3.3V*%
X149390000Y-101800000D03*
%TO.P,R4,2*%
%TO.N,/I2C_SCL*%
X149390000Y-102440000D03*
%TD*%
D14*
%TO.P,R9,1*%
%TO.N,+3.3V*%
X153140000Y-102740000D03*
%TO.P,R9,2*%
%TO.N,/I2C_SDA*%
X152500000Y-102740000D03*
%TD*%
D35*
%TO.P,C36,1*%
%TO.N,+3.3V*%
X158380000Y-106470000D03*
%TO.P,C36,2*%
%TO.N,GND*%
X158380000Y-105830000D03*
%TD*%
D30*
%TO.P,LDLN025PU1,1,Vout*%
%TO.N,+3.3V*%
X162445000Y-98585000D03*
D31*
%TO.P,LDLN025PU1,2,GND*%
%TO.N,GND*%
X162445000Y-97935001D03*
D32*
%TO.P,LDLN025PU1,3,EN*%
%TO.N,Net-(LDLN025PU1-EN)*%
X163415000Y-97935000D03*
D33*
%TO.P,LDLN025PU1,4,Vin_*%
%TO.N,+3V0*%
X163415000Y-98584999D03*
D34*
%TO.P,LDLN025PU1,5,GND*%
%TO.N,GND*%
X162930000Y-98260000D03*
%TD*%
D21*
%TO.P,C30,1*%
%TO.N,+3V0*%
X161590000Y-97590000D03*
%TO.P,C30,2*%
%TO.N,GND*%
X161590000Y-98550000D03*
%TD*%
D35*
%TO.P,R29,1*%
%TO.N,Net-(U1-CSB)*%
X153950000Y-103140000D03*
%TO.P,R29,2*%
%TO.N,+3.3V*%
X153950000Y-102500000D03*
%TD*%
D19*
%TO.P,CLPT1,1*%
%TO.N,GND*%
X166029982Y-98204762D03*
%TO.P,CLPT1,2*%
%TO.N,Net-(TPS3424A11C13ADRLR1-LPT)*%
X166610018Y-98475238D03*
%TD*%
D14*
%TO.P,C9,1*%
%TO.N,GND*%
X148340000Y-103870000D03*
%TO.P,C9,2*%
%TO.N,+3.3V*%
X147700000Y-103870000D03*
%TD*%
D35*
%TO.P,R3,1*%
%TO.N,+3.3V*%
X149390000Y-103840000D03*
%TO.P,R3,2*%
%TO.N,/I2C_SDA*%
X149390000Y-103200000D03*
%TD*%
D36*
%TO.P,U1,1,VDDIO*%
%TO.N,/Peripherals/VDDIO*%
X151850000Y-104440000D03*
%TO.P,U1,2,SCK*%
%TO.N,/I2C_SCL*%
X151850000Y-103940000D03*
D37*
%TO.P,U1,3,VSS_1*%
%TO.N,GND*%
X152100000Y-103415000D03*
%TO.P,U1,4,SDI*%
%TO.N,/I2C_SDA*%
X152600000Y-103415000D03*
%TO.P,U1,5,SDO*%
%TO.N,GND*%
X153100000Y-103415000D03*
D36*
%TO.P,U1,6,CSB*%
%TO.N,Net-(U1-CSB)*%
X153350000Y-103940000D03*
%TO.P,U1,7,INT*%
%TO.N,Net-(U1-INT)*%
X153350000Y-104440000D03*
D37*
%TO.P,U1,8,VSS_2*%
%TO.N,GND*%
X153100000Y-104965000D03*
%TO.P,U1,9,VSS_3*%
X152600000Y-104965000D03*
%TO.P,U1,10,VDD*%
%TO.N,/Peripherals/VDDIO*%
X152100000Y-104965000D03*
%TD*%
D25*
%TO.P,R27,1*%
%TO.N,/Button press*%
X162584762Y-101880018D03*
%TO.P,R27,2*%
%TO.N,Net-(TPS3424A11C13ADRLR1-PB)*%
X162855238Y-101299982D03*
%TD*%
D38*
%TO.P,Q7,1,G*%
%TO.N,/Power/Charge +*%
X162525000Y-96760000D03*
%TO.P,Q7,2,S*%
%TO.N,GND*%
X161875000Y-96760000D03*
D39*
%TO.P,Q7,3,D_1*%
%TO.N,Net-(Q7-D_1)*%
X162200000Y-96070000D03*
D40*
%TO.P,Q7,4,D_2*%
X162200000Y-95680000D03*
%TD*%
D11*
%TO.P,R32,1*%
%TO.N,GND*%
X147600000Y-99870000D03*
%TO.P,R32,2*%
%TO.N,/Select dial*%
X147600000Y-100510000D03*
%TD*%
%TO.P,C37,1*%
%TO.N,GND*%
X157680000Y-105300000D03*
%TO.P,C37,2*%
%TO.N,+3.3V*%
X157680000Y-105940000D03*
%TD*%
D21*
%TO.P,C1,1*%
%TO.N,+3V0*%
X162840000Y-99420000D03*
%TO.P,C1,2*%
%TO.N,GND*%
X162840000Y-100380000D03*
%TD*%
D12*
%TO.P,C23,1*%
%TO.N,GND*%
X156470000Y-98360000D03*
%TO.P,C23,2*%
%TO.N,+3.3V*%
X157110000Y-98360000D03*
%TD*%
D14*
%TO.P,C3,1*%
%TO.N,GND*%
X145470000Y-100560000D03*
%TO.P,C3,2*%
%TO.N,+3.3V*%
X144830000Y-100560000D03*
%TD*%
D35*
%TO.P,R28,1*%
%TO.N,Net-(U1-CSB)*%
X154660000Y-103140000D03*
%TO.P,R28,2*%
%TO.N,GND*%
X154660000Y-102500000D03*
%TD*%
D20*
%TO.P,C21,1*%
%TO.N,GND*%
X164485237Y-98279982D03*
%TO.P,C21,2*%
%TO.N,+3V0*%
X164214763Y-98860018D03*
%TD*%
D13*
%TO.P,TP21,1,1*%
%TO.N,GND*%
X159440000Y-104500000D03*
%TD*%
D11*
%TO.P,C27,1*%
%TO.N,/NRST*%
X157240000Y-102410000D03*
%TO.P,C27,2*%
%TO.N,GND*%
X157240000Y-103050000D03*
%TD*%
D41*
%TO.N,GND*%
X151930000Y-102770000D03*
X151930000Y-102240000D03*
X151565954Y-98778557D03*
X150965954Y-98778557D03*
X162430000Y-100380000D03*
X160780000Y-96750000D03*
X164310000Y-97410000D03*
X158560000Y-105090000D03*
X158540000Y-104260000D03*
X157320000Y-103720000D03*
X156580000Y-103720000D03*
X157845000Y-104450000D03*
X145850000Y-99200000D03*
X159940000Y-98810000D03*
X162830000Y-103070000D03*
X140174791Y-100282707D03*
X145556824Y-106363784D03*
X167832791Y-96464370D03*
X163260000Y-95090001D03*
X167948428Y-95649789D03*
X167671581Y-97271170D03*
X151709590Y-108543764D03*
X148510174Y-107801021D03*
X168010000Y-94840000D03*
X146993070Y-107165478D03*
X158111156Y-96180002D03*
X166583318Y-100370140D03*
X155511928Y-97669994D03*
X165740000Y-98810000D03*
X166920316Y-99619575D03*
X158020000Y-103520000D03*
X154994071Y-108554639D03*
X167214622Y-98851267D03*
X156031544Y-97369993D03*
X159670000Y-97080000D03*
X156430000Y-103010000D03*
X158967765Y-107541734D03*
X141908027Y-103072657D03*
X142435781Y-103703838D03*
X146263680Y-106784815D03*
X156359200Y-107521581D03*
X165327473Y-102491993D03*
X158630771Y-96480002D03*
X155809089Y-108442121D03*
X164831647Y-103148553D03*
X157590386Y-96469999D03*
X140962929Y-101726437D03*
X153400000Y-107370000D03*
X157070770Y-96770000D03*
X143593376Y-104872382D03*
X149293098Y-108053893D03*
X150895336Y-108425853D03*
X156616499Y-108284001D03*
X140548570Y-101015648D03*
X139842771Y-99529927D03*
X152529183Y-108615753D03*
X162526202Y-104986315D03*
X166204694Y-101100590D03*
X142998156Y-104304378D03*
X152740000Y-107370000D03*
X150088989Y-108262390D03*
X157413754Y-108080779D03*
X158198335Y-107833096D03*
X144219560Y-105406055D03*
X139540000Y-98780000D03*
X154174020Y-108621199D03*
X167465307Y-98067640D03*
X147742691Y-107504570D03*
X153351525Y-108641592D03*
X159150385Y-96780000D03*
X156551154Y-97070001D03*
X153382512Y-103412512D03*
X144800000Y-98450000D03*
X147660000Y-101350000D03*
X165785638Y-101808620D03*
X141416558Y-102412829D03*
X144480000Y-102550000D03*
X144874732Y-105903713D03*
%TO.N,+3.3V*%
X148840000Y-101780000D03*
X144800000Y-99950000D03*
X150710000Y-104170000D03*
X159135000Y-106470000D03*
X146380000Y-102550000D03*
X160190000Y-102420000D03*
X154370000Y-101860000D03*
X158135000Y-106870000D03*
X146900000Y-99950000D03*
X161930000Y-99420000D03*
X157690000Y-100210000D03*
X158392122Y-98953911D03*
X156135000Y-101870000D03*
%TO.N,Net-(C20-Pad2)*%
X163380000Y-102070000D03*
%TO.N,+3V0*%
X161580000Y-97590000D03*
X155450000Y-101500000D03*
X162840000Y-99420000D03*
%TO.N,/Peripherals/VDDIO*%
X152070847Y-104384273D03*
%TO.N,Net-(IC2-CRST)*%
X146710000Y-101360000D03*
%TO.N,/Power/Charge +*%
X164393692Y-96037382D03*
X146555002Y-97999998D03*
%TO.N,/NRST*%
X157635000Y-101470000D03*
%TO.N,+1V8*%
X152774641Y-104064641D03*
X158830000Y-98250000D03*
%TO.N,Net-(D1-VCAP)*%
X158135000Y-101670000D03*
%TO.N,/I2C_SCL*%
X149897012Y-103110719D03*
X157135000Y-101870000D03*
%TO.N,/SWDIO*%
X155190000Y-104920000D03*
%TO.N,/H_Tim2*%
X155580000Y-102420000D03*
X148983266Y-98778557D03*
%TO.N,/Button press*%
X162070000Y-102220000D03*
X160180000Y-105420000D03*
%TO.N,/DEBLED*%
X157635000Y-106470000D03*
%TO.N,/H_on_GPIO*%
X156630000Y-106470000D03*
X147700000Y-99201000D03*
%TO.N,/H_Tim1*%
X148534974Y-98999999D03*
X155190000Y-102920000D03*
%TO.N,/Select dial*%
X156130000Y-106870000D03*
X148460000Y-100294323D03*
%TO.N,/I2C_SDA*%
X156640000Y-101470000D03*
X153149592Y-102240000D03*
X150000000Y-103600000D03*
%TO.N,/PCF_Reset*%
X157135000Y-106870000D03*
X156370000Y-99680000D03*
%TO.N,/SWCLK*%
X155580000Y-104420000D03*
%TO.N,/BMP581_INT*%
X155580000Y-103420000D03*
%TO.N,/Dial/MOT1*%
X152329119Y-100779693D03*
X143400000Y-98351003D03*
X148847277Y-100973924D03*
%TO.N,/Dial/VDD PROG*%
X151256277Y-99961251D03*
%TO.N,/Dial/MOT2*%
X143160000Y-98870000D03*
X151657420Y-99369628D03*
%TO.N,Net-(IC1-RESET)*%
X154540000Y-99499999D03*
X152950000Y-99210000D03*
%TO.N,/Power/STAT*%
X148074517Y-99549495D03*
X161190000Y-94830000D03*
%TO.N,Net-(IC5-PROG)*%
X161190000Y-96340000D03*
%TO.N,Net-(IC8-1D-)*%
X142482000Y-101340000D03*
%TO.N,Net-(IC8-1D+)*%
X141982169Y-101326916D03*
%TO.N,Net-(LDLN025PU1-EN)*%
X162040000Y-101570000D03*
X163720000Y-97940000D03*
X166044763Y-99650018D03*
%TO.N,Net-(TPS3424A11C13ADRLR1-~INT~)*%
X166074763Y-100210018D03*
X161120000Y-103880000D03*
%TO.N,Net-(TPS3424A11C13ADRLR1-kill)*%
X162600000Y-102490000D03*
X165624763Y-100560018D03*
%TD*%
D42*
%TO.N,/I2C_SCL*%
X150007108Y-103110719D02*
X149897012Y-103110719D01*
X150226389Y-103330000D02*
X150007108Y-103110719D01*
X150312262Y-103330000D02*
X150226389Y-103330000D01*
X150931000Y-103473262D02*
X150786738Y-103329000D01*
X150786738Y-103329000D02*
X150313262Y-103329000D01*
X150313262Y-103329000D02*
X150312262Y-103330000D01*
X150931000Y-103481000D02*
X150931000Y-103473262D01*
X151130000Y-103680000D02*
X150931000Y-103481000D01*
X151190000Y-103680000D02*
X151130000Y-103680000D01*
X151730000Y-103940000D02*
X151470000Y-103680000D01*
X151850000Y-103940000D02*
X151730000Y-103940000D01*
X151470000Y-103680000D02*
X151190000Y-103680000D01*
X149390000Y-102603707D02*
X149897012Y-103110719D01*
X149390000Y-102440000D02*
X149390000Y-102603707D01*
X149879448Y-102973018D02*
X149888738Y-102963728D01*
%TO.N,/I2C_SDA*%
X149790000Y-103600000D02*
X149390000Y-103200000D01*
X150000000Y-103600000D02*
X149790000Y-103600000D01*
%TO.N,/Dial/MOT1*%
X151530000Y-100400000D02*
X150830000Y-100400000D01*
X149950000Y-100850000D02*
X148971201Y-100850000D01*
X148971201Y-100850000D02*
X148847277Y-100973924D01*
X151910000Y-100780000D02*
X151530000Y-100400000D01*
X150830000Y-100400000D02*
X149950000Y-100850000D01*
X152329119Y-100779693D02*
X152328812Y-100780000D01*
X152328812Y-100780000D02*
X151910000Y-100780000D01*
%TO.N,/I2C_SDA*%
X156810000Y-100200000D02*
X156810000Y-99830000D01*
X156530000Y-100480000D02*
X156810000Y-100200000D01*
X156530000Y-100900000D02*
X156530000Y-100480000D01*
%TO.N,/I2C_SCL*%
X157210000Y-100820000D02*
X157210000Y-99830000D01*
X157290000Y-100900000D02*
X157210000Y-100820000D01*
%TO.N,/H_on_GPIO*%
X147285758Y-99450000D02*
X146900000Y-99450000D01*
X147534758Y-99201000D02*
X147285758Y-99450000D01*
X147700000Y-99201000D02*
X147534758Y-99201000D01*
%TO.N,GND*%
X161875000Y-96760000D02*
X162296000Y-97181000D01*
X163469000Y-97181000D02*
X163820000Y-96830000D01*
X162296000Y-97181000D02*
X163469000Y-97181000D01*
%TO.N,/Peripherals/VDDIO*%
X152100000Y-104965000D02*
X152100000Y-105560000D01*
%TO.N,/Power/Charge +*%
X162575000Y-96810000D02*
X162525000Y-96760000D01*
X163160000Y-96810000D02*
X162575000Y-96810000D01*
X163180000Y-96830000D02*
X163160000Y-96810000D01*
%TO.N,Net-(D1-VCAP)*%
X158690000Y-101310000D02*
X158690000Y-100900000D01*
X158330000Y-101670000D02*
X158690000Y-101310000D01*
X158135000Y-101670000D02*
X158330000Y-101670000D01*
%TO.N,/I2C_SCL*%
X149390000Y-102440000D02*
X149350000Y-102400000D01*
X149350000Y-102400000D02*
X149350000Y-102350000D01*
X157290000Y-100900000D02*
X157135000Y-101055000D01*
X148640000Y-102270000D02*
X148610000Y-102300000D01*
X149350000Y-102350000D02*
X149270000Y-102270000D01*
X157135000Y-101055000D02*
X157135000Y-101870000D01*
X149270000Y-102270000D02*
X148640000Y-102270000D01*
%TO.N,/SWDIO*%
X155190000Y-104920000D02*
X155320000Y-104920000D01*
X155880000Y-105650000D02*
X155890000Y-105660000D01*
X155320000Y-104920000D02*
X155880000Y-105480000D01*
X155880000Y-105480000D02*
X155880000Y-105650000D01*
%TO.N,/H_Tim2*%
X148983266Y-98778557D02*
X148854709Y-98650000D01*
X148854709Y-98650000D02*
X147100000Y-98650000D01*
X147100000Y-98650000D02*
X146900000Y-98450000D01*
%TO.N,/Button press*%
X162409982Y-101880018D02*
X162584762Y-101880018D01*
X162070000Y-102220000D02*
X162409982Y-101880018D01*
%TO.N,/DEBLED*%
X157130000Y-106020000D02*
X156980000Y-106020000D01*
X157580000Y-106470000D02*
X157130000Y-106020000D01*
X157635000Y-106470000D02*
X157580000Y-106470000D01*
%TO.N,/H_Tim1*%
X148534974Y-98999999D02*
X148534974Y-98994974D01*
X146999000Y-98851000D02*
X146900000Y-98950000D01*
X148391000Y-98851000D02*
X146999000Y-98851000D01*
X148534974Y-98994974D02*
X148391000Y-98851000D01*
%TO.N,/Select dial*%
X148394323Y-100360000D02*
X147750000Y-100360000D01*
X146410000Y-100940000D02*
X147260000Y-100940000D01*
X146180000Y-101809000D02*
X146180000Y-101170000D01*
X146180000Y-101170000D02*
X146410000Y-100940000D01*
X147260000Y-100940000D02*
X147640000Y-100560000D01*
X148460000Y-100294323D02*
X148394323Y-100360000D01*
X147750000Y-100360000D02*
X147600000Y-100510000D01*
%TO.N,/I2C_SDA*%
X152550000Y-102790000D02*
X152500000Y-102740000D01*
X149350000Y-103045000D02*
X149350000Y-103160000D01*
X148610000Y-102700000D02*
X148640000Y-102670000D01*
X152550000Y-103365000D02*
X152550000Y-102790000D01*
X152590000Y-102240000D02*
X152500000Y-102330000D01*
X148975000Y-102670000D02*
X149350000Y-103045000D01*
X148640000Y-102670000D02*
X148975000Y-102670000D01*
X152600000Y-103415000D02*
X152550000Y-103365000D01*
X153149592Y-102240000D02*
X152590000Y-102240000D01*
X149350000Y-103160000D02*
X149390000Y-103200000D01*
X156640000Y-101010000D02*
X156530000Y-100900000D01*
X152500000Y-102330000D02*
X152500000Y-102740000D01*
X156640000Y-101470000D02*
X156640000Y-101010000D01*
%TO.N,/SWCLK*%
X155890000Y-104420000D02*
X155900000Y-104430000D01*
X155580000Y-104420000D02*
X155890000Y-104420000D01*
%TO.N,/BMP581_INT*%
X155100000Y-103420000D02*
X155580000Y-103420000D01*
X154650000Y-103870000D02*
X155100000Y-103420000D01*
%TO.N,/Dial/MOT1*%
X142832000Y-100662120D02*
X142832000Y-102266000D01*
X142832000Y-102266000D02*
X144404000Y-103838000D01*
X142730000Y-99231305D02*
X143037887Y-99539192D01*
X143160003Y-98351003D02*
X143159000Y-98350000D01*
X145180000Y-103614000D02*
X145180000Y-103291000D01*
X144956000Y-103838000D02*
X145180000Y-103614000D01*
X144404000Y-103838000D02*
X144956000Y-103838000D01*
X143037887Y-100456233D02*
X142832000Y-100662120D01*
X143090000Y-98350000D02*
X142730000Y-98710000D01*
X142730000Y-98710000D02*
X142730000Y-99231305D01*
X143400000Y-98351003D02*
X143160003Y-98351003D01*
X143037887Y-99539192D02*
X143037887Y-100456233D01*
X143159000Y-98350000D02*
X143090000Y-98350000D01*
%TO.N,/Dial/VDD PROG*%
X151256277Y-99961251D02*
X151315026Y-100020000D01*
X152130000Y-100020000D02*
X152150000Y-100000000D01*
X151315026Y-100020000D02*
X152130000Y-100020000D01*
%TO.N,/Dial/MOT2*%
X143238887Y-100539490D02*
X143033000Y-100745376D01*
X143238887Y-98948887D02*
X143238887Y-100539490D01*
X143033000Y-102182744D02*
X144141256Y-103291000D01*
X143160000Y-98870000D02*
X143238887Y-98948887D01*
X143033000Y-100745376D02*
X143033000Y-102182744D01*
X144141256Y-103291000D02*
X144680000Y-103291000D01*
%TO.N,/Dial/OUT2*%
X144100000Y-100810000D02*
X144401000Y-101111000D01*
X144680000Y-98950000D02*
X144670000Y-98960000D01*
X144100000Y-99430000D02*
X144100000Y-100810000D01*
X144800000Y-98950000D02*
X144680000Y-98950000D01*
X144968744Y-101111000D02*
X145180000Y-101322256D01*
X145180000Y-101322256D02*
X145180000Y-101809000D01*
X144401000Y-101111000D02*
X144968744Y-101111000D01*
X144570000Y-98960000D02*
X144100000Y-99430000D01*
X144670000Y-98960000D02*
X144570000Y-98960000D01*
%TO.N,/Dial/OUT1*%
X144680000Y-99450000D02*
X144800000Y-99450000D01*
X144300000Y-99730000D02*
X144570000Y-99460000D01*
X144491000Y-100911000D02*
X144300000Y-100720000D01*
X144670000Y-99460000D02*
X144680000Y-99450000D01*
X145680000Y-101809000D02*
X145680000Y-101538000D01*
X144570000Y-99460000D02*
X144670000Y-99460000D01*
X144300000Y-100720000D02*
X144300000Y-99730000D01*
X145680000Y-101538000D02*
X145053000Y-100911000D01*
X145053000Y-100911000D02*
X144491000Y-100911000D01*
%TO.N,Net-(IC8-1D-)*%
X145202000Y-104040000D02*
X145680000Y-103562000D01*
X142480000Y-102200000D02*
X144320000Y-104040000D01*
X142480000Y-101342000D02*
X142480000Y-102200000D01*
X145680000Y-103562000D02*
X145680000Y-103291000D01*
X142482000Y-101340000D02*
X142480000Y-101342000D01*
X144320000Y-104040000D02*
X145202000Y-104040000D01*
%TO.N,Net-(IC8-1D+)*%
X141982169Y-101326916D02*
X141980000Y-101329085D01*
X141980000Y-101329085D02*
X141980000Y-101990000D01*
X146180000Y-103530000D02*
X146180000Y-103291000D01*
X141980000Y-101990000D02*
X144230000Y-104240000D01*
X145470000Y-104240000D02*
X146180000Y-103530000D01*
X144230000Y-104240000D02*
X145470000Y-104240000D01*
%TO.N,Net-(LDLN025PU1-EN)*%
X163715000Y-97935000D02*
X163720000Y-97940000D01*
X163415000Y-97935000D02*
X163715000Y-97935000D01*
%TO.N,Net-(U1-INT)*%
X154010000Y-104140000D02*
X154010000Y-103870000D01*
X153350000Y-104440000D02*
X153710000Y-104440000D01*
X153710000Y-104440000D02*
X154010000Y-104140000D01*
%TO.N,Net-(U1-CSB)*%
X154150000Y-103140000D02*
X154660000Y-103140000D01*
X153350000Y-103940000D02*
X154150000Y-103140000D01*
%TO.N,Net-(IC2-CRST)*%
X146710000Y-101730000D02*
X147650000Y-102670000D01*
X147650000Y-102670000D02*
X147780000Y-102670000D01*
X146710000Y-101360000D02*
X146710000Y-101730000D01*
X147780000Y-102670000D02*
X147810000Y-102700000D01*
%TD*%
%TA.AperFunction,Conductor*%
%TO.N,GND*%
G36*
X168160554Y-94650185D02*
G01*
X168206309Y-94702989D01*
X168217300Y-94761806D01*
X168186732Y-95279683D01*
X168186198Y-95285987D01*
X168103750Y-96032641D01*
X168102895Y-96038908D01*
X167982485Y-96780349D01*
X167981313Y-96786565D01*
X167823235Y-97520960D01*
X167821746Y-97527108D01*
X167626433Y-98252447D01*
X167626166Y-98252883D01*
X167626174Y-98253395D01*
X167624633Y-98258511D01*
X167392582Y-98972954D01*
X167390475Y-98978919D01*
X167122293Y-99680599D01*
X167119885Y-99686448D01*
X166816270Y-100373535D01*
X166815803Y-100374086D01*
X166813567Y-100379254D01*
X166475296Y-101049989D01*
X166472304Y-101055562D01*
X166100285Y-101708142D01*
X166097013Y-101713556D01*
X165692191Y-102346331D01*
X165688647Y-102351571D01*
X165252085Y-102962871D01*
X165248279Y-102967923D01*
X164781105Y-103556176D01*
X164777046Y-103561027D01*
X164280489Y-104124680D01*
X164276196Y-104129309D01*
X164107516Y-104302152D01*
X163751533Y-104666916D01*
X163747001Y-104671328D01*
X163195610Y-105181474D01*
X163190859Y-105185650D01*
X162614177Y-105667007D01*
X162609219Y-105670936D01*
X162008719Y-106122274D01*
X162003567Y-106125944D01*
X161380848Y-106546060D01*
X161375515Y-106549463D01*
X160732184Y-106937275D01*
X160726686Y-106940401D01*
X160064405Y-107294907D01*
X160058754Y-107297749D01*
X159379273Y-107618013D01*
X159373484Y-107620563D01*
X158678543Y-107905763D01*
X158672631Y-107908015D01*
X157964048Y-108157404D01*
X157958030Y-108159351D01*
X157237659Y-108372280D01*
X157231549Y-108373918D01*
X156501250Y-108549835D01*
X156495065Y-108551159D01*
X155756745Y-108689605D01*
X155750500Y-108690612D01*
X155006082Y-108791226D01*
X154999793Y-108791913D01*
X154251205Y-108854434D01*
X154244890Y-108854799D01*
X153494106Y-108879063D01*
X153487781Y-108879106D01*
X152736740Y-108865052D01*
X152730420Y-108864773D01*
X151981036Y-108812433D01*
X151974740Y-108811831D01*
X151229035Y-108721350D01*
X151222776Y-108720428D01*
X150482637Y-108592031D01*
X150476435Y-108590791D01*
X149743833Y-108424824D01*
X149737701Y-108423270D01*
X149014487Y-108220150D01*
X149008443Y-108218285D01*
X148296541Y-107978554D01*
X148290599Y-107976383D01*
X147591838Y-107700654D01*
X147586016Y-107698183D01*
X146902240Y-107387187D01*
X146896550Y-107384422D01*
X146229506Y-107038950D01*
X146223965Y-107035898D01*
X145575424Y-106656870D01*
X145570046Y-106653540D01*
X144941669Y-106241926D01*
X144936468Y-106238326D01*
X144423925Y-105863892D01*
X144329908Y-105795209D01*
X144324900Y-105791351D01*
X144323546Y-105790252D01*
X143796252Y-105362147D01*
X143741719Y-105317872D01*
X143736911Y-105313761D01*
X143178623Y-104811148D01*
X143174032Y-104806797D01*
X142755888Y-104389833D01*
X142642119Y-104276385D01*
X142637762Y-104271813D01*
X142133567Y-103714940D01*
X142129473Y-103710180D01*
X141654322Y-103128307D01*
X141650451Y-103123310D01*
X141650112Y-103122849D01*
X141205615Y-102517995D01*
X141202024Y-102512838D01*
X140788612Y-101885590D01*
X140785274Y-101880231D01*
X140779550Y-101870500D01*
X140404402Y-101232743D01*
X140401358Y-101227253D01*
X140053992Y-100561165D01*
X140051215Y-100555491D01*
X140050655Y-100554270D01*
X139763459Y-99927525D01*
X141379500Y-99927525D01*
X141379500Y-99954381D01*
X141379500Y-100072475D01*
X141414129Y-100201711D01*
X141417017Y-100212488D01*
X141489488Y-100338011D01*
X141489490Y-100338013D01*
X141489491Y-100338015D01*
X141591985Y-100440509D01*
X141591986Y-100440510D01*
X141591988Y-100440511D01*
X141717511Y-100512982D01*
X141717512Y-100512982D01*
X141717515Y-100512984D01*
X141857525Y-100550500D01*
X141857528Y-100550500D01*
X142002472Y-100550500D01*
X142002475Y-100550500D01*
X142142485Y-100512984D01*
X142268015Y-100440509D01*
X142370509Y-100338015D01*
X142442984Y-100212485D01*
X142480500Y-100072475D01*
X142480500Y-99927525D01*
X142442984Y-99787515D01*
X142442195Y-99786149D01*
X142370511Y-99661988D01*
X142370506Y-99661982D01*
X142268017Y-99559493D01*
X142268011Y-99559488D01*
X142142488Y-99487017D01*
X142142489Y-99487017D01*
X142129550Y-99483550D01*
X142002475Y-99449500D01*
X141857525Y-99449500D01*
X141730450Y-99483550D01*
X141717511Y-99487017D01*
X141591988Y-99559488D01*
X141591982Y-99559493D01*
X141489493Y-99661982D01*
X141489488Y-99661988D01*
X141417017Y-99787511D01*
X141417016Y-99787515D01*
X141379500Y-99927525D01*
X139763459Y-99927525D01*
X139738280Y-99872578D01*
X139735810Y-99866805D01*
X139458098Y-99168799D01*
X139455914Y-99162875D01*
X139455586Y-99161911D01*
X139367943Y-98904056D01*
X139313188Y-98742962D01*
X139310252Y-98673154D01*
X139345522Y-98612840D01*
X139407802Y-98581169D01*
X139430592Y-98579057D01*
X142345486Y-98579057D01*
X142365476Y-98579077D01*
X142365524Y-98579057D01*
X142365578Y-98579057D01*
X142384321Y-98571293D01*
X142402430Y-98563814D01*
X142402431Y-98563812D01*
X142403517Y-98563364D01*
X142404816Y-98562836D01*
X142409460Y-98560979D01*
X142479016Y-98554365D01*
X142541106Y-98586407D01*
X142576016Y-98646930D01*
X142579500Y-98676115D01*
X142579500Y-99261243D01*
X142587279Y-99280020D01*
X142591455Y-99290102D01*
X142602412Y-99316558D01*
X142851068Y-99565213D01*
X142884553Y-99626536D01*
X142887387Y-99652894D01*
X142887387Y-100342531D01*
X142867702Y-100409570D01*
X142851068Y-100430212D01*
X142704414Y-100576865D01*
X142704412Y-100576867D01*
X142704412Y-100576868D01*
X142696827Y-100595182D01*
X142691689Y-100607586D01*
X142691688Y-100607588D01*
X142681500Y-100632182D01*
X142681500Y-100920755D01*
X142661815Y-100987794D01*
X142609011Y-101033549D01*
X142539853Y-101043493D01*
X142525410Y-101040531D01*
X142521562Y-101039500D01*
X142442438Y-101039500D01*
X142392788Y-101052804D01*
X142366010Y-101059979D01*
X142304326Y-101095592D01*
X142236425Y-101112063D01*
X142173795Y-101090385D01*
X142173719Y-101090519D01*
X142173027Y-101090119D01*
X142170399Y-101089210D01*
X142166834Y-101086575D01*
X142166682Y-101086458D01*
X142166680Y-101086456D01*
X142166676Y-101086453D01*
X142166670Y-101086449D01*
X142098164Y-101046898D01*
X142098159Y-101046895D01*
X142070560Y-101039500D01*
X142021731Y-101026416D01*
X141942607Y-101026416D01*
X141915987Y-101033549D01*
X141866178Y-101046895D01*
X141866173Y-101046898D01*
X141797664Y-101086451D01*
X141797656Y-101086457D01*
X141741710Y-101142403D01*
X141741704Y-101142411D01*
X141702151Y-101210920D01*
X141702148Y-101210925D01*
X141694736Y-101238587D01*
X141681669Y-101287354D01*
X141681669Y-101366478D01*
X141690534Y-101399562D01*
X141702148Y-101442906D01*
X141702151Y-101442911D01*
X141741704Y-101511420D01*
X141741710Y-101511428D01*
X141793181Y-101562899D01*
X141826666Y-101624222D01*
X141829500Y-101650580D01*
X141829500Y-102019936D01*
X141837438Y-102039097D01*
X141837441Y-102039105D01*
X141837444Y-102039113D01*
X141852412Y-102075253D01*
X144144749Y-104367588D01*
X144144751Y-104367590D01*
X144187529Y-104385308D01*
X144200064Y-104390500D01*
X144200066Y-104390500D01*
X145499934Y-104390500D01*
X145499936Y-104390500D01*
X145524225Y-104380438D01*
X145524229Y-104380438D01*
X145524229Y-104380437D01*
X145555252Y-104367588D01*
X146099020Y-103823817D01*
X146160343Y-103790333D01*
X146186701Y-103787499D01*
X146329895Y-103787499D01*
X146329898Y-103787499D01*
X146359213Y-103781669D01*
X146392457Y-103759457D01*
X146414669Y-103726213D01*
X146420500Y-103696899D01*
X146420499Y-103303000D01*
X146440183Y-103235963D01*
X146492987Y-103190208D01*
X146562146Y-103180264D01*
X146625701Y-103209289D01*
X146638328Y-103221934D01*
X147393538Y-104096021D01*
X147393548Y-104096032D01*
X147393557Y-104096042D01*
X147393568Y-104096053D01*
X147404240Y-104106747D01*
X147404245Y-104106752D01*
X147416319Y-104117229D01*
X147431033Y-104129997D01*
X147470453Y-104151541D01*
X147488920Y-104156963D01*
X147491769Y-104158867D01*
X147503032Y-104161107D01*
X147537492Y-104171226D01*
X147567216Y-104175500D01*
X147567220Y-104175500D01*
X147815401Y-104175500D01*
X147815411Y-104175500D01*
X147838391Y-104172967D01*
X147845594Y-104171359D01*
X147848367Y-104170774D01*
X147849744Y-104170500D01*
X147849748Y-104170500D01*
X147908231Y-104158867D01*
X147974552Y-104114552D01*
X147990321Y-104090951D01*
X147990382Y-104090898D01*
X147990762Y-104090291D01*
X148018867Y-104048231D01*
X148018867Y-104048229D01*
X148021836Y-104041059D01*
X148021979Y-104040548D01*
X148021981Y-104040547D01*
X148040944Y-103973300D01*
X148044898Y-103943533D01*
X148036037Y-103119445D01*
X148035376Y-103108736D01*
X148032549Y-103083711D01*
X148020311Y-103044993D01*
X147987349Y-102984628D01*
X147986334Y-102982177D01*
X147983845Y-102979688D01*
X147980050Y-102974618D01*
X147975053Y-102966804D01*
X147968899Y-102945671D01*
X147958353Y-102926357D01*
X147959323Y-102912785D01*
X147955519Y-102899720D01*
X147961767Y-102878617D01*
X147963337Y-102856665D01*
X147972476Y-102842446D01*
X147975355Y-102832725D01*
X147980287Y-102828470D01*
X147979549Y-102827977D01*
X147986330Y-102817826D01*
X147986334Y-102817823D01*
X148018000Y-102741374D01*
X148018000Y-102658626D01*
X148018000Y-102658625D01*
X148016804Y-102652613D01*
X148023031Y-102583022D01*
X148065893Y-102527844D01*
X148131783Y-102504599D01*
X148138421Y-102504421D01*
X148159985Y-102504421D01*
X148168626Y-102508000D01*
X148251374Y-102508000D01*
X148260015Y-102504421D01*
X148281578Y-102504421D01*
X148303851Y-102510961D01*
X148326976Y-102513030D01*
X148336748Y-102520620D01*
X148348617Y-102524106D01*
X148363817Y-102541648D01*
X148382154Y-102555892D01*
X148386270Y-102567560D01*
X148394372Y-102576910D01*
X148397676Y-102599888D01*
X148405400Y-102621782D01*
X148403880Y-102643037D01*
X148404316Y-102646068D01*
X148403542Y-102647761D01*
X148403196Y-102652607D01*
X148402000Y-102658621D01*
X148402000Y-102741375D01*
X148433666Y-102817823D01*
X148440451Y-102827977D01*
X148437711Y-102829807D01*
X148461647Y-102873642D01*
X148456663Y-102943334D01*
X148438893Y-102970982D01*
X148440451Y-102972023D01*
X148433666Y-102982176D01*
X148402000Y-103058624D01*
X148402000Y-103141375D01*
X148425264Y-103197538D01*
X148433666Y-103217823D01*
X148492177Y-103276334D01*
X148568626Y-103308000D01*
X148568628Y-103308000D01*
X148634954Y-103308000D01*
X148701993Y-103327685D01*
X148716922Y-103338956D01*
X149007774Y-103595183D01*
X149045065Y-103654268D01*
X149048544Y-103705874D01*
X149044695Y-103732643D01*
X149044500Y-103734000D01*
X149044500Y-103956000D01*
X149045574Y-103971015D01*
X149050597Y-104005950D01*
X149056118Y-104020754D01*
X149058118Y-104029942D01*
X149063718Y-104041129D01*
X149066042Y-104047360D01*
X149066042Y-104047362D01*
X149066267Y-104047965D01*
X149066274Y-104047979D01*
X149066628Y-104048530D01*
X149073195Y-104060062D01*
X149081473Y-104076598D01*
X149087875Y-104083986D01*
X149088208Y-104084372D01*
X149088228Y-104084417D01*
X149098629Y-104098323D01*
X149104046Y-104106752D01*
X149121798Y-104122133D01*
X149121303Y-104122563D01*
X149127231Y-104129404D01*
X149138681Y-104136763D01*
X149148973Y-104145680D01*
X149153294Y-104147653D01*
X149168813Y-104156127D01*
X149177237Y-104161541D01*
X149186842Y-104164361D01*
X149203413Y-104170541D01*
X149212527Y-104174704D01*
X149222436Y-104176128D01*
X149239723Y-104179889D01*
X149244271Y-104181225D01*
X149274000Y-104185500D01*
X149505823Y-104185500D01*
X149561277Y-104198591D01*
X150857827Y-104846866D01*
X150875609Y-104863407D01*
X150896049Y-104876530D01*
X150900734Y-104886777D01*
X150908985Y-104894452D01*
X150915002Y-104917982D01*
X150925102Y-104940072D01*
X150924280Y-104954266D01*
X150926295Y-104962144D01*
X150925118Y-104975366D01*
X150923982Y-104983290D01*
X150923737Y-104983868D01*
X150923023Y-104989982D01*
X150922795Y-104991574D01*
X150922367Y-104992511D01*
X150919028Y-105008910D01*
X150918773Y-105009777D01*
X150918771Y-105009784D01*
X150914500Y-105039496D01*
X150914500Y-105363231D01*
X150914582Y-105367393D01*
X150914965Y-105377132D01*
X150921805Y-105410561D01*
X150921808Y-105410573D01*
X150928536Y-105428216D01*
X150946700Y-105475853D01*
X150982670Y-105523180D01*
X150982671Y-105523181D01*
X150982674Y-105523184D01*
X151017295Y-105548709D01*
X151038907Y-105564643D01*
X151056066Y-105573851D01*
X151065367Y-105578843D01*
X151710909Y-105814276D01*
X151805755Y-105848867D01*
X151813274Y-105851609D01*
X151813277Y-105851610D01*
X151820388Y-105853518D01*
X151831065Y-105856385D01*
X151873551Y-105863891D01*
X151873557Y-105863891D01*
X151873560Y-105863892D01*
X151891899Y-105865500D01*
X151891905Y-105865500D01*
X152206000Y-105865500D01*
X152228427Y-105863089D01*
X152228431Y-105863088D01*
X152228441Y-105863087D01*
X152231701Y-105862559D01*
X152231749Y-105862855D01*
X152243734Y-105861567D01*
X152243688Y-105861097D01*
X152249742Y-105860500D01*
X152249748Y-105860500D01*
X152264568Y-105857552D01*
X152308229Y-105848868D01*
X152308229Y-105848867D01*
X152308231Y-105848867D01*
X152374552Y-105804552D01*
X152418867Y-105738231D01*
X152418867Y-105738229D01*
X152418868Y-105738229D01*
X152429112Y-105686724D01*
X152430500Y-105679748D01*
X152430500Y-105679641D01*
X152431761Y-105662000D01*
X152435500Y-105636000D01*
X152435500Y-105375909D01*
X152434643Y-105362486D01*
X152434600Y-105362147D01*
X152430632Y-105331211D01*
X152430630Y-105331201D01*
X152430629Y-105331199D01*
X152430628Y-105331186D01*
X152428069Y-105317978D01*
X152388201Y-105165151D01*
X152379515Y-105131853D01*
X152375500Y-105100553D01*
X152375500Y-104389833D01*
X152395185Y-104322794D01*
X152447989Y-104277039D01*
X152517147Y-104267095D01*
X152580703Y-104296120D01*
X152587181Y-104302152D01*
X152590130Y-104305101D01*
X152590132Y-104305102D01*
X152590136Y-104305105D01*
X152619748Y-104322201D01*
X152658652Y-104344662D01*
X152735079Y-104365141D01*
X152735081Y-104365141D01*
X152814201Y-104365141D01*
X152814203Y-104365141D01*
X152890630Y-104344662D01*
X152900999Y-104338675D01*
X152968895Y-104322201D01*
X153034923Y-104345051D01*
X153078116Y-104399970D01*
X153087000Y-104446060D01*
X153087000Y-104599894D01*
X153087001Y-104599902D01*
X153092830Y-104629212D01*
X153115042Y-104662457D01*
X153125108Y-104669182D01*
X153148287Y-104684669D01*
X153148290Y-104684669D01*
X153148291Y-104684670D01*
X153158147Y-104686630D01*
X153177601Y-104690500D01*
X153522398Y-104690499D01*
X153551713Y-104684669D01*
X153584957Y-104662457D01*
X153596212Y-104645612D01*
X153649823Y-104600806D01*
X153678149Y-104592320D01*
X153688654Y-104590500D01*
X153739936Y-104590500D01*
X153764080Y-104580499D01*
X153795252Y-104567588D01*
X154137587Y-104225252D01*
X154137589Y-104225245D01*
X154144373Y-104215095D01*
X154146905Y-104216787D01*
X154178771Y-104177230D01*
X154188229Y-104171275D01*
X154205656Y-104161368D01*
X154218231Y-104158867D01*
X154264832Y-104127728D01*
X154268719Y-104125519D01*
X154298541Y-104118494D01*
X154327784Y-104109338D01*
X154332234Y-104110559D01*
X154336727Y-104109501D01*
X154365615Y-104119716D01*
X154395164Y-104127822D01*
X154398890Y-104130216D01*
X154441769Y-104158867D01*
X154441770Y-104158868D01*
X154500247Y-104170499D01*
X154500250Y-104170500D01*
X154500252Y-104170500D01*
X154799750Y-104170500D01*
X154799751Y-104170499D01*
X154818053Y-104166859D01*
X154858229Y-104158868D01*
X154858229Y-104158867D01*
X154858231Y-104158867D01*
X154924552Y-104114552D01*
X154968867Y-104048231D01*
X154968867Y-104048229D01*
X154968868Y-104048229D01*
X154979258Y-103995990D01*
X154980500Y-103989748D01*
X154980500Y-103803701D01*
X154989144Y-103774260D01*
X154995668Y-103744274D01*
X154999422Y-103739258D01*
X155000185Y-103736662D01*
X155016819Y-103716020D01*
X155126020Y-103606819D01*
X155187343Y-103573334D01*
X155213701Y-103570500D01*
X155254167Y-103570500D01*
X155321206Y-103590185D01*
X155341848Y-103606819D01*
X155395489Y-103660460D01*
X155395491Y-103660461D01*
X155395495Y-103660464D01*
X155458607Y-103696901D01*
X155464011Y-103700021D01*
X155515911Y-103713928D01*
X155575570Y-103750293D01*
X155606099Y-103813140D01*
X155597804Y-103882515D01*
X155553318Y-103936393D01*
X155545818Y-103941088D01*
X155531287Y-103949477D01*
X155531282Y-103949481D01*
X155419481Y-104061282D01*
X155419475Y-104061290D01*
X155340426Y-104198209D01*
X155340421Y-104198220D01*
X155326775Y-104249147D01*
X155314390Y-104279049D01*
X155299980Y-104304008D01*
X155299979Y-104304009D01*
X155297302Y-104314000D01*
X155279501Y-104380437D01*
X155279500Y-104380439D01*
X155279500Y-104459562D01*
X155280531Y-104463410D01*
X155280450Y-104466780D01*
X155280561Y-104467619D01*
X155280430Y-104467636D01*
X155278866Y-104533260D01*
X155239702Y-104591121D01*
X155175472Y-104618624D01*
X155160755Y-104619500D01*
X155150438Y-104619500D01*
X155114193Y-104629212D01*
X155074009Y-104639979D01*
X155074004Y-104639982D01*
X155005495Y-104679535D01*
X155005487Y-104679541D01*
X154949541Y-104735487D01*
X154949535Y-104735495D01*
X154909982Y-104804004D01*
X154909979Y-104804009D01*
X154898496Y-104846865D01*
X154889500Y-104880438D01*
X154889500Y-104959562D01*
X154893735Y-104975366D01*
X154909979Y-105035990D01*
X154909982Y-105035995D01*
X154949535Y-105104504D01*
X154949539Y-105104509D01*
X154949540Y-105104511D01*
X155005489Y-105160460D01*
X155005491Y-105160461D01*
X155005495Y-105160464D01*
X155074004Y-105200017D01*
X155074011Y-105200021D01*
X155150438Y-105220500D01*
X155150440Y-105220500D01*
X155235574Y-105220500D01*
X155302613Y-105240185D01*
X155348368Y-105292989D01*
X155358312Y-105362147D01*
X155342962Y-105406496D01*
X155330423Y-105428216D01*
X155289500Y-105580943D01*
X155289500Y-105739057D01*
X155323381Y-105865500D01*
X155330423Y-105891783D01*
X155330426Y-105891790D01*
X155409475Y-106028709D01*
X155409479Y-106028714D01*
X155409480Y-106028716D01*
X155521284Y-106140520D01*
X155521286Y-106140521D01*
X155521290Y-106140524D01*
X155601681Y-106186937D01*
X155658216Y-106219577D01*
X155810943Y-106260500D01*
X155810945Y-106260500D01*
X155969055Y-106260500D01*
X155969057Y-106260500D01*
X156121784Y-106219577D01*
X156179725Y-106186124D01*
X156247625Y-106169652D01*
X156313652Y-106192505D01*
X156356843Y-106247426D01*
X156363484Y-106316979D01*
X156362560Y-106321349D01*
X156358392Y-106339437D01*
X156349979Y-106354011D01*
X156329500Y-106430438D01*
X156329500Y-106464853D01*
X156326335Y-106478592D01*
X156315845Y-106497255D01*
X156309815Y-106517794D01*
X156299070Y-106527103D01*
X156292103Y-106539502D01*
X156273186Y-106549532D01*
X156257011Y-106563549D01*
X156242937Y-106565572D01*
X156230375Y-106572234D01*
X156209043Y-106570446D01*
X156187853Y-106573493D01*
X156173410Y-106570531D01*
X156169562Y-106569500D01*
X156090438Y-106569500D01*
X156052224Y-106579739D01*
X156014009Y-106589979D01*
X156014004Y-106589982D01*
X155945495Y-106629535D01*
X155945487Y-106629541D01*
X155889541Y-106685487D01*
X155889535Y-106685495D01*
X155849982Y-106754004D01*
X155849979Y-106754009D01*
X155839508Y-106793087D01*
X155829500Y-106830438D01*
X155829500Y-106909562D01*
X155840777Y-106951648D01*
X155849979Y-106985990D01*
X155849982Y-106985995D01*
X155889535Y-107054504D01*
X155889539Y-107054509D01*
X155889540Y-107054511D01*
X155945489Y-107110460D01*
X155945491Y-107110461D01*
X155945495Y-107110464D01*
X156014004Y-107150017D01*
X156014011Y-107150021D01*
X156090438Y-107170500D01*
X156090440Y-107170500D01*
X156169560Y-107170500D01*
X156169562Y-107170500D01*
X156245989Y-107150021D01*
X156314511Y-107110460D01*
X156370460Y-107054511D01*
X156410021Y-106985989D01*
X156430500Y-106909562D01*
X156430500Y-106889244D01*
X156450185Y-106822205D01*
X156502989Y-106776450D01*
X156553435Y-106765249D01*
X156570300Y-106765104D01*
X156590438Y-106770500D01*
X156669562Y-106770500D01*
X156693653Y-106764044D01*
X156709435Y-106763909D01*
X156728466Y-106769320D01*
X156748251Y-106769790D01*
X156761387Y-106778680D01*
X156776641Y-106783017D01*
X156789726Y-106797859D01*
X156806115Y-106808950D01*
X156812358Y-106823528D01*
X156822848Y-106835426D01*
X156825832Y-106854988D01*
X156833622Y-106873177D01*
X156834500Y-106887904D01*
X156834500Y-106909562D01*
X156845777Y-106951648D01*
X156854979Y-106985990D01*
X156854982Y-106985995D01*
X156894535Y-107054504D01*
X156894539Y-107054509D01*
X156894540Y-107054511D01*
X156950489Y-107110460D01*
X156950491Y-107110461D01*
X156950495Y-107110464D01*
X157019004Y-107150017D01*
X157019011Y-107150021D01*
X157095438Y-107170500D01*
X157095440Y-107170500D01*
X157174560Y-107170500D01*
X157174562Y-107170500D01*
X157250989Y-107150021D01*
X157319511Y-107110460D01*
X157375460Y-107054511D01*
X157415021Y-106985989D01*
X157435500Y-106909562D01*
X157435500Y-106889244D01*
X157455185Y-106822205D01*
X157507989Y-106776450D01*
X157561286Y-106765257D01*
X157576699Y-106765479D01*
X157595438Y-106770500D01*
X157674562Y-106770500D01*
X157687352Y-106767072D01*
X157704582Y-106767321D01*
X157722146Y-106772754D01*
X157740528Y-106773188D01*
X157754832Y-106782865D01*
X157771331Y-106787969D01*
X157783170Y-106802036D01*
X157798399Y-106812339D01*
X157811098Y-106835220D01*
X157816321Y-106841426D01*
X157816860Y-106845601D01*
X157820385Y-106851953D01*
X157828089Y-106874972D01*
X157832432Y-106901635D01*
X157833439Y-106901503D01*
X157834499Y-106909559D01*
X157854979Y-106985990D01*
X157854982Y-106985995D01*
X157894535Y-107054504D01*
X157894539Y-107054509D01*
X157894540Y-107054511D01*
X157950489Y-107110460D01*
X157950491Y-107110461D01*
X157950495Y-107110464D01*
X158019004Y-107150017D01*
X158019011Y-107150021D01*
X158095438Y-107170500D01*
X158095440Y-107170500D01*
X158174560Y-107170500D01*
X158174562Y-107170500D01*
X158250989Y-107150021D01*
X158319511Y-107110460D01*
X158375460Y-107054511D01*
X158415021Y-106985989D01*
X158415022Y-106985984D01*
X158416896Y-106982739D01*
X158418971Y-106980205D01*
X158419459Y-106978498D01*
X158442362Y-106951653D01*
X158584683Y-106826411D01*
X158648014Y-106796901D01*
X158666600Y-106795500D01*
X159856000Y-106795500D01*
X159878427Y-106793089D01*
X159878431Y-106793088D01*
X159878441Y-106793087D01*
X159881701Y-106792559D01*
X159881749Y-106792855D01*
X159893734Y-106791567D01*
X159893688Y-106791097D01*
X159899742Y-106790500D01*
X159899748Y-106790500D01*
X159914568Y-106787552D01*
X159958229Y-106778868D01*
X159958229Y-106778867D01*
X159958231Y-106778867D01*
X160024552Y-106734552D01*
X160068867Y-106668231D01*
X160068867Y-106668229D01*
X160068868Y-106668229D01*
X160080499Y-106609752D01*
X160080500Y-106609750D01*
X160080500Y-106609641D01*
X160081761Y-106592000D01*
X160085500Y-106566000D01*
X160085500Y-106344000D01*
X160084426Y-106328985D01*
X160079403Y-106294050D01*
X160074848Y-106281839D01*
X160068867Y-106251769D01*
X160024552Y-106185448D01*
X160003382Y-106171302D01*
X160002770Y-106170596D01*
X159991323Y-106163239D01*
X159989339Y-106161520D01*
X159988620Y-106160426D01*
X159984622Y-106157433D01*
X159981031Y-106154321D01*
X159980432Y-106154048D01*
X159967834Y-106147394D01*
X159965408Y-106145928D01*
X159958231Y-106141133D01*
X159957093Y-106140906D01*
X159953906Y-106138981D01*
X159952769Y-106138461D01*
X159950611Y-106137827D01*
X159943708Y-106135800D01*
X159943704Y-106135797D01*
X159943181Y-106135644D01*
X159926846Y-106129573D01*
X159926401Y-106129371D01*
X159926399Y-106129369D01*
X159926161Y-106129260D01*
X159926153Y-106129259D01*
X159917468Y-106125293D01*
X159917469Y-106125293D01*
X159907544Y-106123866D01*
X159890280Y-106120111D01*
X159885728Y-106118775D01*
X159885727Y-106118774D01*
X159885721Y-106118773D01*
X159885717Y-106118772D01*
X159885711Y-106118771D01*
X159856002Y-106114500D01*
X159856000Y-106114500D01*
X159699717Y-106114500D01*
X159632678Y-106094815D01*
X159598021Y-106061450D01*
X159591521Y-106052134D01*
X159423826Y-105811769D01*
X159403536Y-105782687D01*
X159403531Y-105782680D01*
X159390175Y-105767040D01*
X159355520Y-105733679D01*
X159312078Y-105708458D01*
X159245046Y-105688775D01*
X159244712Y-105688727D01*
X159215315Y-105684500D01*
X158946363Y-105684500D01*
X158946354Y-105684500D01*
X158924824Y-105686723D01*
X158924817Y-105686724D01*
X158924810Y-105686725D01*
X158924804Y-105686726D01*
X158898383Y-105692241D01*
X158875192Y-105697082D01*
X158829020Y-105719472D01*
X158775450Y-105764335D01*
X158775448Y-105764338D01*
X158755413Y-105786688D01*
X158755409Y-105786694D01*
X158560349Y-106079283D01*
X158554213Y-106084421D01*
X158550888Y-106091703D01*
X158527812Y-106106532D01*
X158506784Y-106124144D01*
X158497341Y-106126115D01*
X158492110Y-106129477D01*
X158457175Y-106134500D01*
X158312552Y-106134500D01*
X158245513Y-106114815D01*
X158205145Y-106072466D01*
X158007171Y-105729312D01*
X158000577Y-105720500D01*
X157992153Y-105709241D01*
X157992149Y-105709237D01*
X157992146Y-105709233D01*
X157951785Y-105666892D01*
X157951783Y-105666890D01*
X157905146Y-105638459D01*
X157905143Y-105638458D01*
X157885896Y-105632806D01*
X157869740Y-105625254D01*
X157869512Y-105625806D01*
X157858231Y-105621133D01*
X157858229Y-105621132D01*
X157858228Y-105621132D01*
X157799750Y-105609500D01*
X157799748Y-105609500D01*
X157560252Y-105609500D01*
X157560247Y-105609500D01*
X157501770Y-105621131D01*
X157501767Y-105621133D01*
X157473267Y-105640176D01*
X157463225Y-105643320D01*
X157455231Y-105650166D01*
X157430453Y-105653581D01*
X157406590Y-105661053D01*
X157396441Y-105658268D01*
X157386016Y-105659706D01*
X157363327Y-105649184D01*
X157339210Y-105642568D01*
X157332177Y-105634738D01*
X157322630Y-105630311D01*
X157309231Y-105609192D01*
X157292520Y-105590588D01*
X157289844Y-105578636D01*
X157285199Y-105571314D01*
X157283146Y-105548709D01*
X157280380Y-105536350D01*
X157280416Y-105530170D01*
X157280500Y-105529748D01*
X157280500Y-105515767D01*
X157280502Y-105515424D01*
X157280559Y-105515233D01*
X157281533Y-105500173D01*
X157283780Y-105482878D01*
X157282386Y-105380438D01*
X159879500Y-105380438D01*
X159879500Y-105459562D01*
X159885748Y-105482878D01*
X159899979Y-105535990D01*
X159899982Y-105535995D01*
X159939535Y-105604504D01*
X159939539Y-105604509D01*
X159939540Y-105604511D01*
X159995489Y-105660460D01*
X159995491Y-105660461D01*
X159995495Y-105660464D01*
X160044532Y-105688775D01*
X160064011Y-105700021D01*
X160140438Y-105720500D01*
X160140440Y-105720500D01*
X160219560Y-105720500D01*
X160219562Y-105720500D01*
X160295989Y-105700021D01*
X160364511Y-105660460D01*
X160420460Y-105604511D01*
X160460021Y-105535989D01*
X160480500Y-105459562D01*
X160480500Y-105380438D01*
X160460021Y-105304011D01*
X160460017Y-105304004D01*
X160420464Y-105235495D01*
X160420458Y-105235487D01*
X160364512Y-105179541D01*
X160364504Y-105179535D01*
X160295995Y-105139982D01*
X160295990Y-105139979D01*
X160265663Y-105131853D01*
X160219562Y-105119500D01*
X160140438Y-105119500D01*
X160102224Y-105129739D01*
X160064009Y-105139979D01*
X160064004Y-105139982D01*
X159995495Y-105179535D01*
X159995487Y-105179541D01*
X159939541Y-105235487D01*
X159939535Y-105235495D01*
X159899982Y-105304004D01*
X159899979Y-105304009D01*
X159886326Y-105354962D01*
X159879500Y-105380438D01*
X157282386Y-105380438D01*
X157280511Y-105242607D01*
X157280500Y-105240921D01*
X157280500Y-105227679D01*
X157280246Y-105223171D01*
X157270511Y-104507614D01*
X157270500Y-104505927D01*
X157270500Y-104253069D01*
X157270499Y-104253067D01*
X157256112Y-104180739D01*
X157256111Y-104180738D01*
X157256111Y-104180735D01*
X157250919Y-104172965D01*
X157201298Y-104098701D01*
X157119267Y-104043890D01*
X157119260Y-104043887D01*
X157046931Y-104029500D01*
X157046928Y-104029500D01*
X156703072Y-104029500D01*
X156703070Y-104029500D01*
X156630739Y-104043887D01*
X156630731Y-104043890D01*
X156613969Y-104055089D01*
X156613970Y-104055090D01*
X156607517Y-104059401D01*
X156583401Y-104071474D01*
X156563024Y-104089129D01*
X156556569Y-104093443D01*
X156556569Y-104093444D01*
X156553015Y-104095819D01*
X156486338Y-104116701D01*
X156418957Y-104098220D01*
X156387708Y-104066017D01*
X156385470Y-104067735D01*
X156380518Y-104061282D01*
X156268717Y-103949481D01*
X156268709Y-103949475D01*
X156131790Y-103870426D01*
X156131786Y-103870424D01*
X156131784Y-103870423D01*
X155979057Y-103829500D01*
X155894833Y-103829500D01*
X155827794Y-103809815D01*
X155782039Y-103757011D01*
X155772095Y-103687853D01*
X155801120Y-103624297D01*
X155807152Y-103617819D01*
X155809320Y-103615651D01*
X155820460Y-103604511D01*
X155860021Y-103535989D01*
X155880500Y-103459562D01*
X155880500Y-103380438D01*
X155860021Y-103304011D01*
X155860017Y-103304004D01*
X155820464Y-103235495D01*
X155820458Y-103235487D01*
X155764512Y-103179541D01*
X155764504Y-103179535D01*
X155695995Y-103139982D01*
X155695990Y-103139979D01*
X155665883Y-103131912D01*
X155619562Y-103119500D01*
X155609245Y-103119500D01*
X155542206Y-103099815D01*
X155496451Y-103047011D01*
X155485245Y-102995500D01*
X155485245Y-102979173D01*
X155490500Y-102959562D01*
X155490500Y-102880438D01*
X155485245Y-102860826D01*
X155485245Y-102844500D01*
X155490674Y-102826008D01*
X155491134Y-102806740D01*
X155500315Y-102793174D01*
X155504930Y-102777461D01*
X155519493Y-102764841D01*
X155530298Y-102748879D01*
X155545356Y-102742430D01*
X155557734Y-102731706D01*
X155576808Y-102728963D01*
X155594528Y-102721376D01*
X155609245Y-102720500D01*
X155619560Y-102720500D01*
X155619562Y-102720500D01*
X155695989Y-102700021D01*
X155764511Y-102660460D01*
X155820460Y-102604511D01*
X155860021Y-102535989D01*
X155868205Y-102505446D01*
X155904569Y-102445787D01*
X155967416Y-102415258D01*
X156022916Y-102418564D01*
X156066035Y-102431226D01*
X156095759Y-102435500D01*
X156095763Y-102435500D01*
X156316000Y-102435500D01*
X156331015Y-102434426D01*
X156345501Y-102432343D01*
X156349544Y-102431762D01*
X156367191Y-102430500D01*
X156623690Y-102430500D01*
X156623691Y-102430499D01*
X156693834Y-102416547D01*
X156693835Y-102416547D01*
X156693835Y-102416546D01*
X156693839Y-102416546D01*
X156741612Y-102384624D01*
X156808286Y-102363748D01*
X156875666Y-102382232D01*
X156922356Y-102434210D01*
X156934500Y-102487728D01*
X156934500Y-102551524D01*
X156934623Y-102556621D01*
X156935211Y-102568681D01*
X156942726Y-102602963D01*
X156942727Y-102602965D01*
X156968831Y-102667775D01*
X157005675Y-102714425D01*
X157062674Y-102754834D01*
X157089394Y-102768538D01*
X157217384Y-102812535D01*
X157231930Y-102816400D01*
X157266600Y-102823007D01*
X157266609Y-102823006D01*
X157272516Y-102823486D01*
X157274408Y-102823540D01*
X157291986Y-102825000D01*
X157291990Y-102825000D01*
X157331204Y-102825000D01*
X157349348Y-102830327D01*
X157368260Y-102830666D01*
X157396471Y-102844164D01*
X157398243Y-102844685D01*
X157400057Y-102845873D01*
X157411907Y-102853791D01*
X157414885Y-102855781D01*
X157423168Y-102861826D01*
X157432818Y-102869500D01*
X157434860Y-102871123D01*
X157482234Y-102900710D01*
X157503823Y-102910998D01*
X157681351Y-102972023D01*
X157705863Y-102980449D01*
X157727553Y-102990327D01*
X157778216Y-103019577D01*
X157930943Y-103060500D01*
X157930945Y-103060500D01*
X158089055Y-103060500D01*
X158089057Y-103060500D01*
X158241784Y-103019577D01*
X158378716Y-102940520D01*
X158490520Y-102828716D01*
X158569577Y-102691784D01*
X158610500Y-102539057D01*
X158610500Y-102380943D01*
X158610194Y-102379801D01*
X158610217Y-102378801D01*
X158609439Y-102372887D01*
X158610361Y-102372765D01*
X158611853Y-102309954D01*
X158651012Y-102252089D01*
X158715239Y-102224582D01*
X158784142Y-102236164D01*
X158833451Y-102279388D01*
X158850730Y-102305563D01*
X158850732Y-102305565D01*
X158850734Y-102305568D01*
X158895850Y-102352543D01*
X158899127Y-102355955D01*
X158912616Y-102366484D01*
X158922799Y-102374433D01*
X159140562Y-102499113D01*
X159140565Y-102499114D01*
X159155987Y-102506357D01*
X159155994Y-102506361D01*
X159158712Y-102507378D01*
X159164461Y-102509529D01*
X159182117Y-102522777D01*
X159202203Y-102531950D01*
X159209521Y-102543338D01*
X159220348Y-102551461D01*
X159228040Y-102572154D01*
X159239977Y-102590728D01*
X159243150Y-102612800D01*
X159244694Y-102616952D01*
X159245000Y-102625663D01*
X159245000Y-102786752D01*
X159225315Y-102853791D01*
X159172511Y-102899546D01*
X159161049Y-102903736D01*
X159161117Y-102903922D01*
X159156687Y-102905530D01*
X159156686Y-102905531D01*
X159141637Y-102910997D01*
X159126650Y-102916440D01*
X159126649Y-102916440D01*
X158759998Y-103116944D01*
X158759995Y-103116945D01*
X158749195Y-103122850D01*
X158746161Y-103123454D01*
X158737456Y-103129268D01*
X158732632Y-103131907D01*
X158732625Y-103131912D01*
X158712599Y-103142864D01*
X158691982Y-103157609D01*
X158690665Y-103158815D01*
X158690664Y-103158814D01*
X158683702Y-103165186D01*
X158666609Y-103176609D01*
X158659337Y-103187490D01*
X158648362Y-103197538D01*
X158648360Y-103197541D01*
X158619697Y-103242622D01*
X158618905Y-103243867D01*
X158616472Y-103251643D01*
X158613454Y-103256161D01*
X158610649Y-103270259D01*
X158608584Y-103276859D01*
X158608539Y-103277001D01*
X158598046Y-103310551D01*
X158595275Y-103327685D01*
X158593252Y-103340194D01*
X158586994Y-103696901D01*
X158586808Y-103707474D01*
X158589403Y-103732643D01*
X158589406Y-103732662D01*
X158602464Y-103790251D01*
X158602464Y-103790252D01*
X158628094Y-103838768D01*
X158628095Y-103838769D01*
X158675584Y-103889840D01*
X158675674Y-103889936D01*
X158726777Y-103920300D01*
X158794465Y-103937622D01*
X158824320Y-103940851D01*
X159119336Y-103930500D01*
X159143688Y-103930500D01*
X159148903Y-103929462D01*
X159209314Y-103927343D01*
X159222737Y-103926009D01*
X159253963Y-103920873D01*
X159294355Y-103905216D01*
X159352929Y-103867126D01*
X159375517Y-103847340D01*
X159381433Y-103840438D01*
X160819500Y-103840438D01*
X160819500Y-103919562D01*
X160829264Y-103956000D01*
X160839979Y-103995990D01*
X160839982Y-103995995D01*
X160879535Y-104064504D01*
X160879539Y-104064509D01*
X160879540Y-104064511D01*
X160935489Y-104120460D01*
X160935491Y-104120461D01*
X160935495Y-104120464D01*
X160992415Y-104153326D01*
X161004011Y-104160021D01*
X161080438Y-104180500D01*
X161080440Y-104180500D01*
X161159560Y-104180500D01*
X161159562Y-104180500D01*
X161235989Y-104160021D01*
X161304511Y-104120460D01*
X161360460Y-104064511D01*
X161400021Y-103995989D01*
X161420500Y-103919562D01*
X161420500Y-103840438D01*
X161400021Y-103764011D01*
X161393282Y-103752339D01*
X161360464Y-103695495D01*
X161360458Y-103695487D01*
X161304512Y-103639541D01*
X161304504Y-103639535D01*
X161235995Y-103599982D01*
X161235990Y-103599979D01*
X161199438Y-103590185D01*
X161159562Y-103579500D01*
X161080438Y-103579500D01*
X161050952Y-103587401D01*
X161004009Y-103599979D01*
X161004004Y-103599982D01*
X160935495Y-103639535D01*
X160935487Y-103639541D01*
X160879541Y-103695487D01*
X160879535Y-103695495D01*
X160839982Y-103764004D01*
X160839979Y-103764009D01*
X160829906Y-103801603D01*
X160819500Y-103840438D01*
X159381433Y-103840438D01*
X159438157Y-103774260D01*
X159457570Y-103751612D01*
X159783932Y-103370855D01*
X160392001Y-102661441D01*
X160395299Y-102657395D01*
X160402813Y-102647696D01*
X160412060Y-102630425D01*
X160426149Y-102611446D01*
X160425513Y-102610958D01*
X160430458Y-102604513D01*
X160430458Y-102604512D01*
X160430460Y-102604511D01*
X160470021Y-102535989D01*
X160490500Y-102459562D01*
X160490500Y-102380438D01*
X160470021Y-102304011D01*
X160470015Y-102304000D01*
X160430464Y-102235495D01*
X160430458Y-102235487D01*
X160394322Y-102199351D01*
X160384816Y-102188681D01*
X160381687Y-102184732D01*
X160381686Y-102184731D01*
X159905766Y-101734306D01*
X159871228Y-101676341D01*
X159839577Y-101558216D01*
X159834129Y-101548780D01*
X159760524Y-101421290D01*
X159760518Y-101421282D01*
X159648717Y-101309481D01*
X159648709Y-101309475D01*
X159511790Y-101230426D01*
X159511786Y-101230424D01*
X159511784Y-101230423D01*
X159359057Y-101189500D01*
X159200943Y-101189500D01*
X159200941Y-101189500D01*
X159167286Y-101198518D01*
X159097436Y-101196855D01*
X159039574Y-101157692D01*
X159012071Y-101093463D01*
X159013577Y-101054550D01*
X159013925Y-101052804D01*
X159020500Y-101019748D01*
X159020500Y-100780252D01*
X159020500Y-100780249D01*
X159020499Y-100780247D01*
X159008868Y-100721770D01*
X159008867Y-100721769D01*
X158964552Y-100655447D01*
X158898230Y-100611132D01*
X158898229Y-100611131D01*
X158839752Y-100599500D01*
X158839748Y-100599500D01*
X158540252Y-100599500D01*
X158540247Y-100599500D01*
X158481770Y-100611131D01*
X158481770Y-100611132D01*
X158419500Y-100652739D01*
X158391343Y-100661554D01*
X158364114Y-100672898D01*
X158358380Y-100671875D01*
X158352822Y-100673616D01*
X158324371Y-100665810D01*
X158295330Y-100660632D01*
X158291059Y-100656672D01*
X158285442Y-100655131D01*
X158265728Y-100633183D01*
X158244096Y-100613125D01*
X158240970Y-100605620D01*
X158238753Y-100603152D01*
X158230526Y-100580552D01*
X158199204Y-100458795D01*
X158199083Y-100458392D01*
X158198479Y-100456045D01*
X158198534Y-100454401D01*
X158197230Y-100451269D01*
X158194442Y-100443925D01*
X158190401Y-100432174D01*
X158189755Y-100431028D01*
X158183281Y-100417764D01*
X158180859Y-100411948D01*
X158179344Y-100409775D01*
X158155206Y-100375146D01*
X158153469Y-100373535D01*
X158148072Y-100368529D01*
X158132067Y-100350485D01*
X158125908Y-100342005D01*
X158123137Y-100338028D01*
X158106535Y-100313182D01*
X158088015Y-100268462D01*
X158087376Y-100265245D01*
X158085000Y-100241089D01*
X158085000Y-99958909D01*
X158087380Y-99934730D01*
X158088017Y-99931528D01*
X158106533Y-99886821D01*
X158121439Y-99864512D01*
X158133369Y-99846656D01*
X158136726Y-99842114D01*
X158138368Y-99839642D01*
X158138376Y-99839634D01*
X158157487Y-99803777D01*
X158177861Y-99736944D01*
X158182440Y-99707267D01*
X158182842Y-99668220D01*
X158183100Y-99643223D01*
X158185552Y-99635178D01*
X158184355Y-99626853D01*
X158195588Y-99602255D01*
X158203473Y-99576390D01*
X158209886Y-99570947D01*
X158213380Y-99563297D01*
X158236128Y-99548677D01*
X158256746Y-99531181D01*
X158266610Y-99529088D01*
X158272158Y-99525523D01*
X158307093Y-99520500D01*
X158388221Y-99520500D01*
X158390220Y-99520515D01*
X158572299Y-99523453D01*
X158595595Y-99521233D01*
X158595607Y-99521230D01*
X158595610Y-99521230D01*
X158618310Y-99516483D01*
X158649106Y-99510043D01*
X158696599Y-99486509D01*
X158749403Y-99440754D01*
X158775350Y-99400379D01*
X158781538Y-99390751D01*
X158781538Y-99390750D01*
X158781541Y-99390746D01*
X158786473Y-99373947D01*
X158786546Y-99373839D01*
X158786631Y-99373411D01*
X158801226Y-99323707D01*
X158805500Y-99293983D01*
X158805500Y-99201361D01*
X161504500Y-99201361D01*
X161504500Y-99207933D01*
X161504500Y-99575999D01*
X161506910Y-99598426D01*
X161518117Y-99649938D01*
X161541474Y-99696600D01*
X161572608Y-99732530D01*
X161587229Y-99749403D01*
X161637237Y-99781541D01*
X161704276Y-99801226D01*
X161734000Y-99805500D01*
X161734004Y-99805500D01*
X162171598Y-99805500D01*
X162171605Y-99805500D01*
X162200576Y-99801444D01*
X162250320Y-99787238D01*
X162266054Y-99782745D01*
X162266055Y-99782744D01*
X162266060Y-99782743D01*
X162315786Y-99751563D01*
X162315793Y-99751554D01*
X162317963Y-99749724D01*
X162318155Y-99749638D01*
X162318273Y-99749463D01*
X162321122Y-99748217D01*
X162323202Y-99746913D01*
X162323396Y-99747222D01*
X162350175Y-99735513D01*
X162381888Y-99721522D01*
X162382096Y-99721554D01*
X162382290Y-99721470D01*
X162416591Y-99726968D01*
X162450912Y-99732356D01*
X162451140Y-99732507D01*
X162451279Y-99732530D01*
X162480657Y-99752089D01*
X162480926Y-99752330D01*
X162481204Y-99752579D01*
X162493458Y-99765229D01*
X162496662Y-99769045D01*
X162507851Y-99776485D01*
X162517845Y-99785451D01*
X162526104Y-99789396D01*
X162526384Y-99788809D01*
X162537191Y-99795995D01*
X162537531Y-99796221D01*
X162537532Y-99796222D01*
X162546160Y-99801959D01*
X162546162Y-99801960D01*
X162555448Y-99804845D01*
X162555452Y-99804846D01*
X162564017Y-99807507D01*
X162580890Y-99815567D01*
X162599754Y-99818610D01*
X162608135Y-99821214D01*
X162608145Y-99821216D01*
X162612877Y-99822687D01*
X162642538Y-99827427D01*
X162915127Y-99831686D01*
X163127135Y-99834999D01*
X163127135Y-99834998D01*
X163127142Y-99834999D01*
X163152943Y-99832210D01*
X163211875Y-99818350D01*
X163236213Y-99809347D01*
X164327352Y-99244633D01*
X164351153Y-99235285D01*
X164427502Y-99214076D01*
X164452859Y-99214447D01*
X164477947Y-99210759D01*
X164492552Y-99215028D01*
X164497363Y-99215099D01*
X164500961Y-99217486D01*
X164512288Y-99220797D01*
X164869447Y-99384243D01*
X164922215Y-99430038D01*
X164935541Y-99465861D01*
X164937706Y-99465286D01*
X164939656Y-99472625D01*
X164939657Y-99472626D01*
X164945735Y-99495489D01*
X164951316Y-99516483D01*
X164954274Y-99531102D01*
X164954906Y-99535604D01*
X164954341Y-99539438D01*
X164955401Y-99543958D01*
X164955455Y-99545485D01*
X164953441Y-99545556D01*
X164950272Y-99567082D01*
X164947296Y-99598756D01*
X164944740Y-99604670D01*
X164944732Y-99604729D01*
X164944699Y-99604766D01*
X164944492Y-99605246D01*
X164878756Y-99746218D01*
X164847680Y-99787437D01*
X164844777Y-99789959D01*
X164826200Y-99806091D01*
X164826193Y-99806098D01*
X164825731Y-99806643D01*
X164825514Y-99806784D01*
X164822899Y-99809430D01*
X164822335Y-99808872D01*
X164767325Y-99844989D01*
X164697459Y-99845672D01*
X164677269Y-99838002D01*
X164406764Y-99707259D01*
X164328638Y-99669498D01*
X164306901Y-99661792D01*
X164306898Y-99661791D01*
X164306892Y-99661789D01*
X164300748Y-99660343D01*
X164276763Y-99652026D01*
X164236512Y-99633257D01*
X164236509Y-99633256D01*
X164236505Y-99633254D01*
X164193025Y-99622615D01*
X164193023Y-99622615D01*
X164136702Y-99631284D01*
X164133850Y-99631723D01*
X164082665Y-99662783D01*
X164082664Y-99662783D01*
X164082664Y-99662784D01*
X164056193Y-99698885D01*
X163959142Y-99907012D01*
X163957302Y-99912244D01*
X163952492Y-99923965D01*
X163872632Y-100093366D01*
X163828810Y-100143959D01*
X162825561Y-100806582D01*
X162774209Y-100840499D01*
X162766991Y-100845266D01*
X162745452Y-100864153D01*
X162701741Y-100914523D01*
X162701730Y-100914537D01*
X162686075Y-100938507D01*
X162686073Y-100938510D01*
X162528461Y-101271247D01*
X162528459Y-101271252D01*
X162520884Y-101293233D01*
X162520882Y-101293239D01*
X162520882Y-101293241D01*
X162508947Y-101346275D01*
X162508947Y-101346277D01*
X162508194Y-101349624D01*
X162474271Y-101410706D01*
X162412710Y-101443752D01*
X162343055Y-101438269D01*
X162287423Y-101395998D01*
X162281036Y-101386240D01*
X162280458Y-101385487D01*
X162224512Y-101329541D01*
X162224504Y-101329535D01*
X162155995Y-101289982D01*
X162155990Y-101289979D01*
X162123170Y-101281185D01*
X162079562Y-101269500D01*
X162000438Y-101269500D01*
X161962224Y-101279739D01*
X161924009Y-101289979D01*
X161924004Y-101289982D01*
X161855495Y-101329535D01*
X161855487Y-101329541D01*
X161799541Y-101385487D01*
X161799535Y-101385495D01*
X161759982Y-101454004D01*
X161759979Y-101454009D01*
X161754088Y-101475995D01*
X161739500Y-101530438D01*
X161739500Y-101609562D01*
X161744994Y-101630065D01*
X161759979Y-101685990D01*
X161759982Y-101685995D01*
X161799535Y-101754504D01*
X161799539Y-101754509D01*
X161799540Y-101754511D01*
X161855489Y-101810460D01*
X161855492Y-101810462D01*
X161855959Y-101810820D01*
X161856256Y-101811227D01*
X161861236Y-101816207D01*
X161860459Y-101816983D01*
X161897161Y-101867249D01*
X161901315Y-101936995D01*
X161868153Y-101996875D01*
X161829541Y-102035487D01*
X161829535Y-102035495D01*
X161789982Y-102104004D01*
X161789979Y-102104009D01*
X161779603Y-102142733D01*
X161769500Y-102180438D01*
X161769500Y-102259562D01*
X161781410Y-102304009D01*
X161789979Y-102335990D01*
X161789982Y-102335995D01*
X161829535Y-102404504D01*
X161829539Y-102404509D01*
X161829540Y-102404511D01*
X161885489Y-102460460D01*
X161885491Y-102460461D01*
X161885495Y-102460464D01*
X161944391Y-102494467D01*
X161954011Y-102500021D01*
X162030438Y-102520500D01*
X162030440Y-102520500D01*
X162109561Y-102520500D01*
X162109562Y-102520500D01*
X162164735Y-102505716D01*
X162234585Y-102507378D01*
X162292448Y-102546539D01*
X162316604Y-102593395D01*
X162319977Y-102605984D01*
X162319982Y-102605995D01*
X162359535Y-102674504D01*
X162359539Y-102674509D01*
X162359540Y-102674511D01*
X162415489Y-102730460D01*
X162415491Y-102730461D01*
X162415495Y-102730464D01*
X162457701Y-102754831D01*
X162484011Y-102770021D01*
X162560438Y-102790500D01*
X162560440Y-102790500D01*
X162639560Y-102790500D01*
X162639562Y-102790500D01*
X162715989Y-102770021D01*
X162784511Y-102730460D01*
X162840460Y-102674511D01*
X162880021Y-102605989D01*
X162900500Y-102529562D01*
X162900500Y-102529560D01*
X162902603Y-102521712D01*
X162904657Y-102522262D01*
X162928363Y-102468657D01*
X162986683Y-102430179D01*
X163056547Y-102429338D01*
X163076951Y-102437057D01*
X163370471Y-102578757D01*
X163371156Y-102579085D01*
X163372766Y-102579848D01*
X163402203Y-102588831D01*
X163471290Y-102599258D01*
X163501317Y-102599468D01*
X164732540Y-102431226D01*
X165003261Y-102394233D01*
X165003262Y-102394232D01*
X165003275Y-102394231D01*
X165027560Y-102387899D01*
X165082084Y-102366484D01*
X165126047Y-102334005D01*
X165130144Y-102328860D01*
X165169565Y-102279354D01*
X165169566Y-102279351D01*
X165169570Y-102279347D01*
X165184742Y-102253434D01*
X165266245Y-102053382D01*
X165333387Y-101888579D01*
X165333387Y-101888576D01*
X165333391Y-101888568D01*
X165339088Y-101869706D01*
X165339220Y-101869057D01*
X165344948Y-101840772D01*
X165348243Y-101824506D01*
X165346441Y-101775137D01*
X165327615Y-101707851D01*
X165296118Y-101657435D01*
X165296117Y-101657434D01*
X165296116Y-101657432D01*
X165249504Y-101615989D01*
X165243903Y-101611009D01*
X165218851Y-101594453D01*
X165165408Y-101569216D01*
X164987081Y-101485006D01*
X164934866Y-101438580D01*
X164916040Y-101371294D01*
X164936251Y-101305012D01*
X164944138Y-101292952D01*
X165041660Y-101083813D01*
X165087828Y-101031379D01*
X165133537Y-101014280D01*
X165133501Y-101014105D01*
X165134651Y-101013863D01*
X165135184Y-101013664D01*
X165136767Y-101013421D01*
X165158712Y-101007570D01*
X165208227Y-100988455D01*
X165250848Y-100958087D01*
X165295918Y-100904697D01*
X165298490Y-100900580D01*
X165302298Y-100894482D01*
X165311826Y-100879228D01*
X165311835Y-100879205D01*
X165313630Y-100875818D01*
X165362391Y-100825777D01*
X165430465Y-100810041D01*
X165449670Y-100812682D01*
X165468515Y-100816795D01*
X165508774Y-100840039D01*
X165585201Y-100860518D01*
X165664325Y-100860518D01*
X165666335Y-100859979D01*
X165681872Y-100863371D01*
X165691125Y-100868432D01*
X165707831Y-100872136D01*
X165909563Y-100966206D01*
X165909564Y-100966206D01*
X165909566Y-100966207D01*
X165953046Y-100976846D01*
X166012221Y-100967738D01*
X166063406Y-100936678D01*
X166089875Y-100900580D01*
X166186925Y-100692455D01*
X166197564Y-100648976D01*
X166193468Y-100622365D01*
X166202725Y-100553113D01*
X166247953Y-100499857D01*
X166251682Y-100497502D01*
X166274716Y-100483525D01*
X166301185Y-100447427D01*
X166398235Y-100239302D01*
X166408874Y-100195823D01*
X166404778Y-100169212D01*
X166408866Y-100138623D01*
X166410852Y-100107832D01*
X166413454Y-100104304D01*
X166414035Y-100099960D01*
X166434008Y-100076441D01*
X166452329Y-100051606D01*
X166456425Y-100050045D01*
X166459263Y-100046704D01*
X166462992Y-100044349D01*
X166486026Y-100030372D01*
X166512495Y-99994274D01*
X166609545Y-99786149D01*
X166620184Y-99742670D01*
X166616088Y-99716058D01*
X166625343Y-99646805D01*
X166645110Y-99615784D01*
X166657793Y-99601211D01*
X166697335Y-99577217D01*
X166723804Y-99541119D01*
X166739016Y-99508495D01*
X166745282Y-99501218D01*
X166761436Y-99475904D01*
X166762681Y-99473155D01*
X166999185Y-98950875D01*
X166999197Y-98950839D01*
X167006205Y-98929615D01*
X167017247Y-98878464D01*
X167019622Y-98856202D01*
X167019622Y-98841917D01*
X167023846Y-98809829D01*
X167026204Y-98801029D01*
X167028686Y-98791764D01*
X167041070Y-98761863D01*
X167050417Y-98745672D01*
X167070117Y-98719998D01*
X167102007Y-98688109D01*
X167114163Y-98673540D01*
X167139438Y-98637011D01*
X167148787Y-98620502D01*
X167185221Y-98540044D01*
X167190435Y-98525925D01*
X167200271Y-98492029D01*
X167201333Y-98476477D01*
X167203301Y-98467324D01*
X167202822Y-98454679D01*
X167203328Y-98447279D01*
X167203245Y-98446715D01*
X167202015Y-98433379D01*
X167201330Y-98415250D01*
X167198422Y-98405413D01*
X167194655Y-98388298D01*
X167194651Y-98388271D01*
X167193164Y-98378155D01*
X167189098Y-98369328D01*
X167183537Y-98354528D01*
X167183278Y-98354138D01*
X167183273Y-98353826D01*
X167182818Y-98352617D01*
X167181528Y-98348249D01*
X167181526Y-98348246D01*
X167181526Y-98348245D01*
X167178815Y-98344043D01*
X167178815Y-98344042D01*
X167174055Y-98336665D01*
X167168297Y-98324161D01*
X167162406Y-98317406D01*
X167161909Y-98317838D01*
X167154567Y-98306458D01*
X167154566Y-98306457D01*
X167154564Y-98306454D01*
X167150944Y-98300843D01*
X167149301Y-98298295D01*
X167148968Y-98298008D01*
X167142149Y-98292119D01*
X167142069Y-98292050D01*
X167142052Y-98292036D01*
X167141501Y-98291560D01*
X167141478Y-98291525D01*
X167129117Y-98279234D01*
X167122374Y-98271502D01*
X167122371Y-98271500D01*
X167122370Y-98271499D01*
X167114181Y-98266273D01*
X167099859Y-98255607D01*
X167096413Y-98252632D01*
X167071125Y-98236444D01*
X167071123Y-98236443D01*
X167071120Y-98236441D01*
X167071118Y-98236440D01*
X166603528Y-98023899D01*
X166601397Y-98022958D01*
X166601376Y-98022949D01*
X166596379Y-98020809D01*
X166596377Y-98020808D01*
X166596376Y-98020808D01*
X166565073Y-98012786D01*
X166495543Y-98006010D01*
X166495533Y-98006011D01*
X166437149Y-98017146D01*
X166374978Y-98049043D01*
X166331878Y-98089979D01*
X166331878Y-98089980D01*
X166296831Y-98150409D01*
X166296827Y-98150419D01*
X166285615Y-98178265D01*
X166283019Y-98188878D01*
X166274955Y-98211807D01*
X166192669Y-98388271D01*
X166183758Y-98403859D01*
X166183915Y-98403962D01*
X166177033Y-98414445D01*
X166164080Y-98436606D01*
X166164072Y-98436619D01*
X166159066Y-98446305D01*
X166159060Y-98446317D01*
X165896175Y-99026856D01*
X165890151Y-99033852D01*
X165887553Y-99042712D01*
X165867717Y-99059910D01*
X165850589Y-99079806D01*
X165841739Y-99082435D01*
X165834764Y-99088483D01*
X165808779Y-99092227D01*
X165783613Y-99099704D01*
X165772911Y-99097395D01*
X165765608Y-99098448D01*
X165731741Y-99088515D01*
X165530259Y-98996577D01*
X165477440Y-98950839D01*
X165457735Y-98883806D01*
X165468776Y-98832619D01*
X165885296Y-97912805D01*
X165892334Y-97891455D01*
X165903376Y-97840084D01*
X165902445Y-97815487D01*
X165901531Y-97791308D01*
X165901406Y-97788012D01*
X165881603Y-97721008D01*
X165849375Y-97671056D01*
X165796490Y-97625395D01*
X165796487Y-97625393D01*
X165796485Y-97625391D01*
X165771201Y-97609205D01*
X165771189Y-97609199D01*
X165362794Y-97423565D01*
X165362778Y-97423559D01*
X165341309Y-97416464D01*
X165341292Y-97416459D01*
X165289597Y-97405348D01*
X165289594Y-97405348D01*
X165263487Y-97406355D01*
X165237377Y-97407362D01*
X165237376Y-97407362D01*
X165170410Y-97427257D01*
X165170404Y-97427260D01*
X165120499Y-97459555D01*
X165074915Y-97512501D01*
X165074910Y-97512507D01*
X165058758Y-97537818D01*
X164710208Y-98307530D01*
X164708128Y-98311896D01*
X164703439Y-98321259D01*
X164690125Y-98339420D01*
X164632890Y-98462160D01*
X164632108Y-98463723D01*
X164609423Y-98488082D01*
X164587439Y-98513050D01*
X164585715Y-98513541D01*
X164584492Y-98514855D01*
X164552220Y-98523088D01*
X164520245Y-98532202D01*
X164518257Y-98531752D01*
X164516791Y-98532127D01*
X164510206Y-98529934D01*
X164468826Y-98520588D01*
X164391556Y-98484557D01*
X164391538Y-98484549D01*
X164376746Y-98478960D01*
X164376735Y-98478956D01*
X164376733Y-98478956D01*
X164341158Y-98468488D01*
X164339245Y-98468078D01*
X164325683Y-98465171D01*
X163945490Y-98413128D01*
X163881740Y-98384534D01*
X163843569Y-98326012D01*
X163843096Y-98256144D01*
X163880473Y-98197112D01*
X163900304Y-98182888D01*
X163904511Y-98180460D01*
X163960460Y-98124511D01*
X164000021Y-98055989D01*
X164020500Y-97979562D01*
X164020500Y-97900438D01*
X164000021Y-97824011D01*
X163989044Y-97804998D01*
X163960464Y-97755495D01*
X163960458Y-97755487D01*
X163904512Y-97699541D01*
X163904504Y-97699535D01*
X163835995Y-97659982D01*
X163835990Y-97659979D01*
X163810513Y-97653152D01*
X163759562Y-97639500D01*
X163680438Y-97639500D01*
X163642224Y-97649739D01*
X163604009Y-97659979D01*
X163604008Y-97659980D01*
X163564333Y-97682887D01*
X163502333Y-97699500D01*
X163140000Y-97699500D01*
X163135051Y-97700284D01*
X163107401Y-97704663D01*
X163107397Y-97704665D01*
X163054649Y-97742988D01*
X163054648Y-97742989D01*
X163034500Y-97804998D01*
X163034500Y-97915002D01*
X163036385Y-97934856D01*
X163066622Y-97989748D01*
X163067844Y-97991966D01*
X163227844Y-98141966D01*
X163227853Y-98141974D01*
X163237985Y-98150348D01*
X163237989Y-98150351D01*
X163237992Y-98150352D01*
X163243177Y-98153201D01*
X163292454Y-98202734D01*
X163307129Y-98271045D01*
X163282542Y-98336446D01*
X163255594Y-98362744D01*
X163246393Y-98369323D01*
X163227844Y-98378033D01*
X163207365Y-98397231D01*
X163200671Y-98402018D01*
X163199882Y-98402292D01*
X163197246Y-98404382D01*
X163184342Y-98412969D01*
X162995294Y-98582117D01*
X162932208Y-98612149D01*
X162862900Y-98603306D01*
X162820739Y-98572986D01*
X162810997Y-98562239D01*
X162792156Y-98528034D01*
X162713401Y-98454201D01*
X162692561Y-98433361D01*
X162670934Y-98411733D01*
X162670924Y-98411724D01*
X162670919Y-98411719D01*
X162662516Y-98404172D01*
X162656051Y-98398962D01*
X162648476Y-98392858D01*
X162641476Y-98386771D01*
X162632156Y-98378033D01*
X162632153Y-98378031D01*
X162622013Y-98369650D01*
X162622011Y-98369649D01*
X162560001Y-98349500D01*
X162560000Y-98349500D01*
X162552279Y-98349500D01*
X162534638Y-98348238D01*
X162508638Y-98344500D01*
X162361362Y-98344500D01*
X162361346Y-98344500D01*
X162350084Y-98345105D01*
X162350065Y-98345106D01*
X162323731Y-98347938D01*
X162323711Y-98347942D01*
X162316748Y-98350122D01*
X162316652Y-98350153D01*
X162307211Y-98353109D01*
X162297399Y-98354664D01*
X162293727Y-98357331D01*
X162284445Y-98360238D01*
X162282197Y-98361465D01*
X162282192Y-98361467D01*
X162223124Y-98393719D01*
X162223114Y-98393726D01*
X162199091Y-98411709D01*
X162199074Y-98411724D01*
X161936734Y-98674063D01*
X161936723Y-98674075D01*
X161923605Y-98690061D01*
X161923602Y-98690065D01*
X161915660Y-98701952D01*
X161914716Y-98703343D01*
X161907877Y-98713283D01*
X161905612Y-98715070D01*
X161870638Y-98767410D01*
X161870087Y-98768212D01*
X161867697Y-98770154D01*
X161836824Y-98801029D01*
X161785066Y-98835614D01*
X161781254Y-98838620D01*
X161781113Y-98838441D01*
X161771956Y-98845657D01*
X161760070Y-98853599D01*
X161760063Y-98853604D01*
X161744070Y-98866728D01*
X161744067Y-98866730D01*
X161571724Y-99039074D01*
X161571699Y-99039100D01*
X161570933Y-99039953D01*
X161570899Y-99039991D01*
X161564165Y-99047490D01*
X161560252Y-99052345D01*
X161560215Y-99052389D01*
X161547536Y-99068126D01*
X161547532Y-99068131D01*
X161544571Y-99073789D01*
X161544457Y-99073704D01*
X161540703Y-99078720D01*
X161531875Y-99098050D01*
X161530342Y-99100981D01*
X161530330Y-99101007D01*
X161528466Y-99104569D01*
X161526189Y-99110209D01*
X161524014Y-99115268D01*
X161522080Y-99119502D01*
X161517332Y-99141326D01*
X161515139Y-99149914D01*
X161514464Y-99152209D01*
X161514442Y-99152330D01*
X161508773Y-99171640D01*
X161504500Y-99201361D01*
X158805500Y-99201361D01*
X158805500Y-98935638D01*
X158805500Y-98935634D01*
X158802950Y-98916297D01*
X158801896Y-98908298D01*
X158785242Y-98846228D01*
X158785241Y-98846226D01*
X158783976Y-98843226D01*
X158783635Y-98840237D01*
X158783039Y-98838015D01*
X158783371Y-98837925D01*
X158776063Y-98773806D01*
X158806937Y-98711128D01*
X158866797Y-98675092D01*
X158896226Y-98671057D01*
X159214095Y-98665931D01*
X159236982Y-98663040D01*
X159257225Y-98658188D01*
X159289378Y-98650483D01*
X159289383Y-98650481D01*
X159289397Y-98650478D01*
X159311106Y-98642682D01*
X159668629Y-98468077D01*
X159679104Y-98465515D01*
X159685082Y-98461454D01*
X159714674Y-98456812D01*
X159719877Y-98455540D01*
X159721442Y-98455500D01*
X159870638Y-98455500D01*
X159874404Y-98455433D01*
X159883250Y-98455117D01*
X159904895Y-98450811D01*
X159915504Y-98450540D01*
X159916250Y-98450738D01*
X159918672Y-98450500D01*
X160059999Y-98450500D01*
X160060000Y-98450500D01*
X160092601Y-98445336D01*
X160145351Y-98407011D01*
X160149843Y-98393184D01*
X160189279Y-98335511D01*
X160253637Y-98308311D01*
X160322484Y-98320225D01*
X160373960Y-98367468D01*
X160377742Y-98374956D01*
X160417988Y-98430350D01*
X160417989Y-98430351D01*
X160480000Y-98450500D01*
X160615722Y-98450500D01*
X160633362Y-98451761D01*
X160659363Y-98455500D01*
X160659367Y-98455500D01*
X160842275Y-98455500D01*
X160842280Y-98455500D01*
X160865262Y-98452966D01*
X160891737Y-98447056D01*
X160902601Y-98445336D01*
X160903998Y-98444319D01*
X160915024Y-98441859D01*
X160917987Y-98441198D01*
X160917990Y-98441195D01*
X160925737Y-98438347D01*
X160925890Y-98438763D01*
X160934231Y-98435363D01*
X160940001Y-98433656D01*
X161863721Y-97998964D01*
X161888343Y-97982840D01*
X161939859Y-97937681D01*
X161971541Y-97888071D01*
X161982578Y-97850482D01*
X161991223Y-97821043D01*
X161991223Y-97821041D01*
X161991226Y-97821032D01*
X161995500Y-97791308D01*
X161995500Y-97791037D01*
X161995570Y-97790321D01*
X161995816Y-97786889D01*
X161995907Y-97786895D01*
X161997883Y-97766843D01*
X162000141Y-97755495D01*
X162000500Y-97753688D01*
X162000500Y-97426312D01*
X162000500Y-97426309D01*
X162000499Y-97426307D01*
X161986547Y-97356165D01*
X161986546Y-97356164D01*
X161986546Y-97356161D01*
X161933391Y-97276609D01*
X161853839Y-97223454D01*
X161853837Y-97223453D01*
X161853834Y-97223452D01*
X161783691Y-97209500D01*
X161783688Y-97209500D01*
X161396312Y-97209500D01*
X161396311Y-97209500D01*
X161383155Y-97212117D01*
X161358963Y-97214500D01*
X160603997Y-97214500D01*
X160581569Y-97216911D01*
X160581568Y-97216911D01*
X160572168Y-97218956D01*
X160502477Y-97213969D01*
X160446545Y-97172095D01*
X160422131Y-97106630D01*
X160431440Y-97049891D01*
X160484762Y-96922576D01*
X160633219Y-96502398D01*
X160659759Y-96411052D01*
X160697365Y-96352169D01*
X160760838Y-96322963D01*
X160830024Y-96332709D01*
X160882958Y-96378314D01*
X160898608Y-96413555D01*
X160909977Y-96455984D01*
X160909982Y-96455995D01*
X160949535Y-96524504D01*
X160949539Y-96524509D01*
X160949540Y-96524511D01*
X161005489Y-96580460D01*
X161005491Y-96580461D01*
X161005495Y-96580464D01*
X161043246Y-96602259D01*
X161074011Y-96620021D01*
X161150438Y-96640500D01*
X161150440Y-96640500D01*
X161229560Y-96640500D01*
X161229562Y-96640500D01*
X161305989Y-96620021D01*
X161374511Y-96580460D01*
X161430460Y-96524511D01*
X161470021Y-96455989D01*
X161478054Y-96426008D01*
X161514418Y-96366351D01*
X161577265Y-96335822D01*
X161627055Y-96337599D01*
X161667485Y-96347404D01*
X161677543Y-96362457D01*
X161710787Y-96384669D01*
X161740101Y-96390500D01*
X161841803Y-96390499D01*
X161844276Y-96391226D01*
X161874000Y-96395500D01*
X162125500Y-96395500D01*
X162134185Y-96398050D01*
X162143147Y-96396762D01*
X162167187Y-96407740D01*
X162192539Y-96415185D01*
X162198466Y-96422025D01*
X162206703Y-96425787D01*
X162220992Y-96448021D01*
X162238294Y-96467989D01*
X162240581Y-96478503D01*
X162244477Y-96484565D01*
X162249500Y-96519500D01*
X162249500Y-96558614D01*
X162248238Y-96576261D01*
X162244500Y-96602259D01*
X162244500Y-96885999D01*
X162244501Y-96886018D01*
X162246909Y-96908424D01*
X162247441Y-96911702D01*
X162247144Y-96911749D01*
X162249500Y-96933659D01*
X162249500Y-97019893D01*
X162249501Y-97019903D01*
X162255330Y-97049212D01*
X162277542Y-97082457D01*
X162294219Y-97093599D01*
X162310787Y-97104669D01*
X162340101Y-97110500D01*
X162430354Y-97110499D01*
X162448003Y-97111761D01*
X162474000Y-97115500D01*
X162690836Y-97115500D01*
X162700723Y-97115894D01*
X162724749Y-97117817D01*
X162936632Y-97134768D01*
X162936649Y-97134769D01*
X162940851Y-97135021D01*
X162940854Y-97135021D01*
X162940869Y-97135022D01*
X162950753Y-97135417D01*
X162954922Y-97135500D01*
X162954950Y-97135500D01*
X163286000Y-97135500D01*
X163308427Y-97133089D01*
X163308431Y-97133088D01*
X163308441Y-97133087D01*
X163311701Y-97132559D01*
X163311749Y-97132855D01*
X163323734Y-97131567D01*
X163323688Y-97131097D01*
X163329742Y-97130500D01*
X163329748Y-97130500D01*
X163344568Y-97127552D01*
X163388229Y-97118868D01*
X163388229Y-97118867D01*
X163388231Y-97118867D01*
X163454552Y-97074552D01*
X163498867Y-97008231D01*
X163498867Y-97008229D01*
X163498868Y-97008229D01*
X163510499Y-96949752D01*
X163510500Y-96949750D01*
X163510500Y-96949641D01*
X163510561Y-96945744D01*
X163510834Y-96937058D01*
X163511226Y-96935724D01*
X163515500Y-96906000D01*
X163515500Y-96788677D01*
X163515561Y-96786738D01*
X163525873Y-96755307D01*
X163535185Y-96723596D01*
X163536712Y-96722272D01*
X163537343Y-96720350D01*
X163563020Y-96699476D01*
X163587989Y-96677841D01*
X163590695Y-96676644D01*
X163590696Y-96676643D01*
X163590704Y-96676640D01*
X163617885Y-96662969D01*
X163629093Y-96656440D01*
X163629894Y-96655904D01*
X163630006Y-96655869D01*
X163630710Y-96655430D01*
X163630741Y-96655480D01*
X163630747Y-96655477D01*
X163630826Y-96655612D01*
X163696568Y-96635020D01*
X163698795Y-96635000D01*
X163965100Y-96635000D01*
X163971174Y-96635149D01*
X163972347Y-96635206D01*
X163975739Y-96635373D01*
X163980916Y-96635500D01*
X163980937Y-96635500D01*
X164283492Y-96635500D01*
X164283495Y-96635500D01*
X164306950Y-96632860D01*
X164360707Y-96620602D01*
X164407921Y-96596076D01*
X164459799Y-96549274D01*
X164490931Y-96498632D01*
X164509271Y-96431212D01*
X164512949Y-96401410D01*
X164513177Y-96396987D01*
X164514725Y-96397066D01*
X164531327Y-96336026D01*
X164574966Y-96293574D01*
X164578896Y-96291304D01*
X164578899Y-96291304D01*
X164715831Y-96212247D01*
X164827635Y-96100443D01*
X164906692Y-95963511D01*
X164947615Y-95810784D01*
X164947615Y-95694499D01*
X164967300Y-95627460D01*
X165020104Y-95581705D01*
X165071610Y-95570499D01*
X165989898Y-95570499D01*
X166019213Y-95564669D01*
X166052457Y-95542457D01*
X166074669Y-95509213D01*
X166080500Y-95479899D01*
X166080499Y-94754499D01*
X166100183Y-94687461D01*
X166152987Y-94641706D01*
X166204499Y-94630500D01*
X168093515Y-94630500D01*
X168160554Y-94650185D01*
G37*
%TD.AperFunction*%
%TA.AperFunction,Conductor*%
G36*
X153550135Y-103008855D02*
G01*
X153564528Y-103009353D01*
X153581979Y-103021440D01*
X153601722Y-103029244D01*
X153610127Y-103040938D01*
X153621965Y-103049138D01*
X153630110Y-103068741D01*
X153642500Y-103085979D01*
X153647225Y-103109931D01*
X153648775Y-103113659D01*
X153649082Y-103119341D01*
X153649332Y-103120605D01*
X153649500Y-103123832D01*
X153649500Y-103289748D01*
X153661133Y-103348231D01*
X153661184Y-103348308D01*
X153661664Y-103357518D01*
X153645491Y-103425490D01*
X153625513Y-103451645D01*
X153423977Y-103653181D01*
X153362654Y-103686666D01*
X153336297Y-103689500D01*
X153177605Y-103689500D01*
X153177597Y-103689501D01*
X153148287Y-103695330D01*
X153115042Y-103717542D01*
X153086047Y-103760941D01*
X153084029Y-103759593D01*
X153079516Y-103770868D01*
X153064386Y-103781641D01*
X153052724Y-103796102D01*
X153036513Y-103801489D01*
X153022602Y-103811396D01*
X153004048Y-103812279D01*
X152986420Y-103818139D01*
X152969507Y-103813925D01*
X152952812Y-103814721D01*
X152920046Y-103801603D01*
X152891159Y-103784925D01*
X152842943Y-103734358D01*
X152829721Y-103665751D01*
X152842764Y-103629139D01*
X152839996Y-103627993D01*
X152844666Y-103616717D01*
X152844669Y-103616713D01*
X152850500Y-103587399D01*
X152850499Y-103242602D01*
X152849086Y-103235495D01*
X152844670Y-103213290D01*
X152842377Y-103207754D01*
X152841768Y-103202093D01*
X152838605Y-103197359D01*
X152838075Y-103167739D01*
X152834909Y-103138285D01*
X152837457Y-103133193D01*
X152837356Y-103127500D01*
X152852925Y-103102293D01*
X152866185Y-103075806D01*
X152871081Y-103072900D01*
X152874074Y-103068056D01*
X152900796Y-103055270D01*
X152926274Y-103040154D01*
X152933310Y-103039713D01*
X152937101Y-103037900D01*
X152956708Y-103038250D01*
X152972390Y-103037269D01*
X152976780Y-103037820D01*
X152990252Y-103040500D01*
X152998119Y-103040500D01*
X153005811Y-103041466D01*
X153006194Y-103041633D01*
X153008010Y-103041763D01*
X153026453Y-103044414D01*
X153034000Y-103045500D01*
X153315356Y-103045500D01*
X153328563Y-103044670D01*
X153359362Y-103040784D01*
X153372359Y-103038308D01*
X153494704Y-103006937D01*
X153515917Y-103007671D01*
X153536743Y-103003562D01*
X153550135Y-103008855D01*
G37*
%TD.AperFunction*%
%TA.AperFunction,Conductor*%
G36*
X158173604Y-95971950D02*
G01*
X160219646Y-97155447D01*
X160233416Y-97164693D01*
X160242325Y-97171583D01*
X160242327Y-97171585D01*
X160261221Y-97179495D01*
X160272962Y-97186287D01*
X160279514Y-97187154D01*
X160292006Y-97192385D01*
X160292009Y-97192384D01*
X160295136Y-97192809D01*
X160358926Y-97221315D01*
X160397177Y-97279784D01*
X160397745Y-97349652D01*
X160397465Y-97350621D01*
X160378772Y-97414280D01*
X160378772Y-97414283D01*
X160378333Y-97417334D01*
X160375086Y-97431297D01*
X160374500Y-97435001D01*
X160374500Y-97545002D01*
X160376385Y-97564856D01*
X160407841Y-97621961D01*
X160407845Y-97621967D01*
X160485171Y-97694461D01*
X160488043Y-97697242D01*
X160521284Y-97730483D01*
X160547892Y-97770060D01*
X160550307Y-97775799D01*
X160576839Y-97824389D01*
X160591690Y-97892662D01*
X160572167Y-97948932D01*
X160572776Y-97949266D01*
X160570805Y-97952858D01*
X160570593Y-97953471D01*
X160569950Y-97954417D01*
X160550570Y-97989748D01*
X160547797Y-97995897D01*
X160547168Y-97996901D01*
X160546872Y-97997949D01*
X160543074Y-98006374D01*
X160530970Y-98020478D01*
X160517717Y-98043083D01*
X160497084Y-98063716D01*
X160494483Y-98066411D01*
X160488441Y-98072901D01*
X160479218Y-98086702D01*
X160460933Y-98108261D01*
X160407859Y-98158018D01*
X160407841Y-98158037D01*
X160394649Y-98172989D01*
X160394647Y-98172992D01*
X160388762Y-98191105D01*
X160349323Y-98248780D01*
X160284964Y-98275976D01*
X160216118Y-98264060D01*
X160164643Y-98216815D01*
X160162220Y-98212612D01*
X160132158Y-98158037D01*
X160132154Y-98158032D01*
X160043523Y-98074941D01*
X160043522Y-98074940D01*
X160036131Y-98068011D01*
X160032919Y-98063719D01*
X160020919Y-98051719D01*
X160012516Y-98044172D01*
X159999608Y-98033770D01*
X159972156Y-98008034D01*
X159972153Y-98008031D01*
X159962013Y-97999650D01*
X159962011Y-97999649D01*
X159900001Y-97979500D01*
X159900000Y-97979500D01*
X159670000Y-97979500D01*
X159669869Y-97979500D01*
X159644466Y-97976870D01*
X159631757Y-97974210D01*
X159274178Y-97899368D01*
X159274170Y-97899366D01*
X159274157Y-97899364D01*
X159274161Y-97899364D01*
X159263443Y-97897693D01*
X159263436Y-97897692D01*
X159263429Y-97897691D01*
X159263421Y-97897690D01*
X159263412Y-97897689D01*
X159238001Y-97895058D01*
X159227163Y-97894500D01*
X159227162Y-97894500D01*
X158631843Y-97894500D01*
X158619887Y-97895732D01*
X158610319Y-97896718D01*
X158569043Y-97905319D01*
X158560798Y-97907037D01*
X158560797Y-97907037D01*
X158560794Y-97907038D01*
X158514640Y-97929387D01*
X158461040Y-97974210D01*
X158428032Y-98023643D01*
X158428030Y-98023648D01*
X158407174Y-98090325D01*
X158407172Y-98090330D01*
X158402379Y-98119967D01*
X158402378Y-98119976D01*
X158397733Y-98384668D01*
X158376875Y-98451352D01*
X158323276Y-98496173D01*
X158253954Y-98504901D01*
X158217005Y-98492745D01*
X157414989Y-98079943D01*
X157391547Y-98071213D01*
X157391539Y-98071210D01*
X157334810Y-98057468D01*
X157334801Y-98057466D01*
X157334799Y-98057466D01*
X157328589Y-98056724D01*
X157309963Y-98054500D01*
X157309960Y-98054500D01*
X157004000Y-98054500D01*
X156981558Y-98056912D01*
X156978299Y-98057441D01*
X156978250Y-98057144D01*
X156966265Y-98058432D01*
X156966312Y-98058903D01*
X156960247Y-98059500D01*
X156901770Y-98071131D01*
X156901769Y-98071132D01*
X156835447Y-98115447D01*
X156791132Y-98181769D01*
X156791131Y-98181770D01*
X156779500Y-98240247D01*
X156779500Y-98240355D01*
X156778238Y-98258002D01*
X156774500Y-98284000D01*
X156774500Y-98550082D01*
X156774836Y-98558494D01*
X156776411Y-98578197D01*
X156777414Y-98586543D01*
X156909752Y-99408935D01*
X156910000Y-99410411D01*
X156910594Y-99413798D01*
X156920583Y-99443626D01*
X156930255Y-99462536D01*
X156930785Y-99465335D01*
X156932651Y-99467489D01*
X156937246Y-99499452D01*
X156943257Y-99531185D01*
X156942189Y-99533826D01*
X156942595Y-99536647D01*
X156929179Y-99566022D01*
X156917080Y-99595966D01*
X156914753Y-99597611D01*
X156913570Y-99600203D01*
X156886398Y-99617664D01*
X156860035Y-99636310D01*
X156856459Y-99636905D01*
X156854792Y-99637977D01*
X156819857Y-99643000D01*
X156765593Y-99643000D01*
X156698554Y-99623315D01*
X156652799Y-99570511D01*
X156651030Y-99566449D01*
X156650023Y-99564019D01*
X156650021Y-99564011D01*
X156647413Y-99559493D01*
X156610464Y-99495495D01*
X156610458Y-99495487D01*
X156554512Y-99439541D01*
X156554504Y-99439535D01*
X156485995Y-99399982D01*
X156485990Y-99399979D01*
X156460513Y-99393152D01*
X156409562Y-99379500D01*
X156330438Y-99379500D01*
X156292224Y-99389739D01*
X156254009Y-99399979D01*
X156254004Y-99399982D01*
X156185495Y-99439535D01*
X156185487Y-99439541D01*
X156129541Y-99495487D01*
X156129535Y-99495495D01*
X156089982Y-99564004D01*
X156089979Y-99564009D01*
X156077682Y-99609902D01*
X156069500Y-99640438D01*
X156069500Y-99719562D01*
X156083152Y-99770513D01*
X156089979Y-99795990D01*
X156089982Y-99795995D01*
X156129535Y-99864504D01*
X156129539Y-99864509D01*
X156129540Y-99864511D01*
X156185489Y-99920460D01*
X156185491Y-99920461D01*
X156185495Y-99920464D01*
X156239597Y-99951699D01*
X156254011Y-99960021D01*
X156330438Y-99980500D01*
X156330440Y-99980500D01*
X156409560Y-99980500D01*
X156409562Y-99980500D01*
X156485989Y-99960021D01*
X156485992Y-99960018D01*
X156488045Y-99959169D01*
X156489918Y-99958967D01*
X156493839Y-99957917D01*
X156494002Y-99958528D01*
X156520667Y-99955661D01*
X156553147Y-99950991D01*
X156555234Y-99951944D01*
X156557514Y-99951699D01*
X156586852Y-99966383D01*
X156616703Y-99980016D01*
X156617942Y-99981945D01*
X156619994Y-99982972D01*
X156636738Y-100011192D01*
X156654477Y-100038794D01*
X156654912Y-100041820D01*
X156655648Y-100043061D01*
X156659500Y-100073729D01*
X156659500Y-100086297D01*
X156639815Y-100153336D01*
X156623181Y-100173978D01*
X156402411Y-100394747D01*
X156395128Y-100412331D01*
X156395127Y-100412336D01*
X156389345Y-100426297D01*
X156379500Y-100450064D01*
X156379500Y-100515606D01*
X156378104Y-100524832D01*
X156367134Y-100548388D01*
X156359815Y-100573317D01*
X156351661Y-100581617D01*
X156348610Y-100588171D01*
X156339675Y-100593820D01*
X156324392Y-100609379D01*
X156278892Y-100639782D01*
X156212215Y-100660661D01*
X156144835Y-100642177D01*
X156141109Y-100639783D01*
X156098230Y-100611132D01*
X156098229Y-100611131D01*
X156039752Y-100599500D01*
X156039748Y-100599500D01*
X156039641Y-100599500D01*
X156022000Y-100598238D01*
X155996000Y-100594500D01*
X155784000Y-100594500D01*
X155761558Y-100596912D01*
X155758299Y-100597441D01*
X155758250Y-100597144D01*
X155746265Y-100598432D01*
X155746312Y-100598903D01*
X155740247Y-100599500D01*
X155681770Y-100611131D01*
X155681769Y-100611132D01*
X155615447Y-100655447D01*
X155571132Y-100721769D01*
X155571131Y-100721770D01*
X155559500Y-100780247D01*
X155559500Y-100780355D01*
X155558238Y-100798002D01*
X155554500Y-100824000D01*
X155554500Y-101064917D01*
X155554625Y-101066659D01*
X155554571Y-101066905D01*
X155554579Y-101067116D01*
X155554525Y-101067117D01*
X155539771Y-101134931D01*
X155490364Y-101184334D01*
X155430941Y-101199500D01*
X155410438Y-101199500D01*
X155372547Y-101209653D01*
X155334009Y-101219979D01*
X155334004Y-101219982D01*
X155265495Y-101259535D01*
X155265487Y-101259541D01*
X155209541Y-101315487D01*
X155209535Y-101315495D01*
X155169982Y-101384004D01*
X155169979Y-101384009D01*
X155159990Y-101421290D01*
X155149500Y-101460438D01*
X155149500Y-101539562D01*
X155163751Y-101592745D01*
X155169980Y-101615993D01*
X155171463Y-101618561D01*
X155186533Y-101661074D01*
X155288828Y-102304067D01*
X155290302Y-102327595D01*
X155289836Y-102341862D01*
X155279500Y-102380438D01*
X155279500Y-102459562D01*
X155285288Y-102481166D01*
X155284689Y-102499546D01*
X155279278Y-102515971D01*
X155278866Y-102533260D01*
X155268573Y-102548466D01*
X155262828Y-102565907D01*
X155249395Y-102576799D01*
X155239702Y-102591121D01*
X155222821Y-102598349D01*
X155208559Y-102609915D01*
X155191370Y-102611816D01*
X155175472Y-102618624D01*
X155160755Y-102619500D01*
X155150438Y-102619500D01*
X155112224Y-102629739D01*
X155074009Y-102639979D01*
X155074004Y-102639982D01*
X155005495Y-102679535D01*
X155005487Y-102679541D01*
X154949541Y-102735487D01*
X154949537Y-102735492D01*
X154938148Y-102755219D01*
X154887580Y-102803434D01*
X154818973Y-102816655D01*
X154806573Y-102814835D01*
X154779749Y-102809500D01*
X154779748Y-102809500D01*
X154540252Y-102809500D01*
X154540247Y-102809500D01*
X154481770Y-102821131D01*
X154481769Y-102821132D01*
X154423832Y-102859845D01*
X154357154Y-102880723D01*
X154289774Y-102862238D01*
X154243084Y-102810260D01*
X154231908Y-102741290D01*
X154234652Y-102726634D01*
X154237945Y-102713478D01*
X154240790Y-102707781D01*
X154244367Y-102687818D01*
X154245388Y-102683743D01*
X154245680Y-102683244D01*
X154246703Y-102678908D01*
X154247994Y-102674511D01*
X154251226Y-102663508D01*
X154255500Y-102633783D01*
X154255500Y-102383659D01*
X154275185Y-102316620D01*
X154304345Y-102285029D01*
X154521765Y-102119365D01*
X154554511Y-102100460D01*
X154579906Y-102075064D01*
X154627099Y-102039106D01*
X154645569Y-102021060D01*
X154683183Y-101974001D01*
X154705191Y-101923200D01*
X154715171Y-101854047D01*
X154715170Y-101854044D01*
X154715171Y-101854042D01*
X154706744Y-101795208D01*
X154706742Y-101795201D01*
X154690660Y-101759936D01*
X154677752Y-101731631D01*
X154661531Y-101706361D01*
X154572085Y-101603023D01*
X154572079Y-101603017D01*
X154572072Y-101603009D01*
X154561895Y-101592766D01*
X154561860Y-101592733D01*
X154547863Y-101580460D01*
X154536327Y-101570344D01*
X154497630Y-101548781D01*
X154497629Y-101548780D01*
X154497628Y-101548780D01*
X154497620Y-101548777D01*
X154430818Y-101528343D01*
X154371379Y-101527673D01*
X154340028Y-101536496D01*
X154304124Y-101546600D01*
X154304121Y-101546601D01*
X154304115Y-101546603D01*
X154276678Y-101558760D01*
X154276671Y-101558764D01*
X154068938Y-101688985D01*
X153510406Y-102039110D01*
X153510053Y-102039331D01*
X153442796Y-102058259D01*
X153375982Y-102037821D01*
X153356511Y-102021948D01*
X153334104Y-101999541D01*
X153334096Y-101999535D01*
X153265587Y-101959982D01*
X153265582Y-101959979D01*
X153240105Y-101953152D01*
X153189154Y-101939500D01*
X153110030Y-101939500D01*
X153071816Y-101949739D01*
X153033601Y-101959979D01*
X153033596Y-101959982D01*
X152965087Y-101999535D01*
X152965079Y-101999541D01*
X152911440Y-102053181D01*
X152850117Y-102086666D01*
X152823759Y-102089500D01*
X152560064Y-102089500D01*
X152545821Y-102095400D01*
X152525038Y-102104009D01*
X152525035Y-102104010D01*
X152525034Y-102104010D01*
X152504748Y-102112412D01*
X152372412Y-102244747D01*
X152372412Y-102244748D01*
X152367161Y-102257424D01*
X152367160Y-102257428D01*
X152361980Y-102269936D01*
X152349500Y-102300064D01*
X152349500Y-102357172D01*
X152347601Y-102367898D01*
X152336711Y-102389828D01*
X152329815Y-102413317D01*
X152320178Y-102423126D01*
X152316529Y-102430478D01*
X152307879Y-102435648D01*
X152294392Y-102449379D01*
X152225448Y-102495446D01*
X152181132Y-102561769D01*
X152181131Y-102561770D01*
X152169500Y-102620247D01*
X152169500Y-102859752D01*
X152181131Y-102918229D01*
X152181132Y-102918230D01*
X152225447Y-102984552D01*
X152269762Y-103014162D01*
X152291769Y-103028867D01*
X152291771Y-103028867D01*
X152298473Y-103031644D01*
X152352877Y-103075486D01*
X152374941Y-103141780D01*
X152359609Y-103201843D01*
X152360004Y-103202007D01*
X152358868Y-103204748D01*
X152357661Y-103209479D01*
X152355464Y-103212966D01*
X152355329Y-103213291D01*
X152349500Y-103242598D01*
X152349500Y-103548612D01*
X152345081Y-103563659D01*
X152345634Y-103579332D01*
X152335439Y-103596496D01*
X152329815Y-103615651D01*
X152317491Y-103626715D01*
X152309955Y-103639405D01*
X152280954Y-103659521D01*
X152183618Y-103708189D01*
X152114853Y-103720564D01*
X152059278Y-103700385D01*
X152051716Y-103695332D01*
X152051708Y-103695329D01*
X152022401Y-103689500D01*
X152022399Y-103689500D01*
X151743702Y-103689500D01*
X151715358Y-103681177D01*
X151686374Y-103675452D01*
X151680044Y-103670807D01*
X151676663Y-103669815D01*
X151657719Y-103654848D01*
X151656895Y-103654055D01*
X151555252Y-103552412D01*
X151548268Y-103549519D01*
X151534303Y-103536080D01*
X151522214Y-103514917D01*
X151518257Y-103510182D01*
X151515652Y-103511924D01*
X151464552Y-103435447D01*
X151398230Y-103391132D01*
X151398229Y-103391131D01*
X151339752Y-103379500D01*
X151339748Y-103379500D01*
X151101439Y-103379500D01*
X151071998Y-103370855D01*
X151042012Y-103364332D01*
X151036996Y-103360577D01*
X151034400Y-103359815D01*
X151013758Y-103343181D01*
X150961077Y-103290500D01*
X150913198Y-103242620D01*
X150879714Y-103181299D01*
X150884698Y-103111607D01*
X150926570Y-103055674D01*
X150992034Y-103031257D01*
X151023777Y-103033073D01*
X151189100Y-103064141D01*
X151321873Y-103085609D01*
X151334997Y-103089333D01*
X151343805Y-103091086D01*
X151343807Y-103091086D01*
X151345779Y-103091086D01*
X151365566Y-103092675D01*
X151374339Y-103094093D01*
X151382248Y-103091086D01*
X151383789Y-103091086D01*
X151401001Y-103083956D01*
X151424681Y-103074954D01*
X151438445Y-103058067D01*
X151448998Y-103047515D01*
X151451013Y-103042648D01*
X151458709Y-103033208D01*
X151460611Y-103021440D01*
X151461132Y-103018217D01*
X151464298Y-103010577D01*
X151464298Y-102998639D01*
X151467305Y-102980041D01*
X151467303Y-102980037D01*
X151465651Y-102963801D01*
X151466926Y-102963671D01*
X151464298Y-102949356D01*
X151464298Y-102691783D01*
X151464301Y-100846500D01*
X151483986Y-100779463D01*
X151536790Y-100733709D01*
X151605948Y-100723765D01*
X151669504Y-100752790D01*
X151675975Y-100758815D01*
X151824748Y-100907587D01*
X151840950Y-100914297D01*
X151880064Y-100930500D01*
X152011137Y-100930500D01*
X152018617Y-100931413D01*
X152044060Y-100942382D01*
X152070632Y-100950185D01*
X152080383Y-100958043D01*
X152082777Y-100959075D01*
X152084096Y-100961035D01*
X152091274Y-100966819D01*
X152144608Y-101020153D01*
X152144610Y-101020154D01*
X152144614Y-101020157D01*
X152205938Y-101055562D01*
X152213130Y-101059714D01*
X152289557Y-101080193D01*
X152289559Y-101080193D01*
X152368679Y-101080193D01*
X152368681Y-101080193D01*
X152445108Y-101059714D01*
X152513630Y-101020153D01*
X152569579Y-100964204D01*
X152609140Y-100895682D01*
X152629619Y-100819255D01*
X152629619Y-100740131D01*
X152609140Y-100663704D01*
X152605080Y-100656672D01*
X152569583Y-100595188D01*
X152569580Y-100595185D01*
X152569579Y-100595182D01*
X152569576Y-100595179D01*
X152564633Y-100588737D01*
X152567211Y-100586758D01*
X152541012Y-100538777D01*
X152545996Y-100469085D01*
X152574493Y-100424742D01*
X152630520Y-100368716D01*
X152709577Y-100231784D01*
X152750500Y-100079057D01*
X152750500Y-99920943D01*
X152709577Y-99768216D01*
X152637824Y-99643935D01*
X152621351Y-99576034D01*
X152644204Y-99510008D01*
X152699125Y-99466817D01*
X152768679Y-99460176D01*
X152807210Y-99474547D01*
X152834011Y-99490021D01*
X152910438Y-99510500D01*
X152910440Y-99510500D01*
X152989560Y-99510500D01*
X152989562Y-99510500D01*
X153065989Y-99490021D01*
X153117230Y-99460437D01*
X154239500Y-99460437D01*
X154239500Y-99539561D01*
X154247273Y-99568570D01*
X154259979Y-99615989D01*
X154259982Y-99615994D01*
X154299535Y-99684503D01*
X154299539Y-99684508D01*
X154299540Y-99684510D01*
X154355489Y-99740459D01*
X154355491Y-99740460D01*
X154355495Y-99740463D01*
X154405003Y-99769046D01*
X154424011Y-99780020D01*
X154500438Y-99800499D01*
X154500440Y-99800499D01*
X154579560Y-99800499D01*
X154579562Y-99800499D01*
X154655989Y-99780020D01*
X154724511Y-99740459D01*
X154780460Y-99684510D01*
X154820021Y-99615988D01*
X154840500Y-99539561D01*
X154840500Y-99460437D01*
X154820021Y-99384010D01*
X154818116Y-99380710D01*
X154780464Y-99315494D01*
X154780458Y-99315486D01*
X154724512Y-99259540D01*
X154724504Y-99259534D01*
X154655995Y-99219981D01*
X154655990Y-99219978D01*
X154611037Y-99207933D01*
X154579562Y-99199499D01*
X154500438Y-99199499D01*
X154468963Y-99207933D01*
X154424009Y-99219978D01*
X154424004Y-99219981D01*
X154355495Y-99259534D01*
X154355487Y-99259540D01*
X154299541Y-99315486D01*
X154299535Y-99315494D01*
X154259982Y-99384003D01*
X154259979Y-99384008D01*
X154252892Y-99410457D01*
X154239500Y-99460437D01*
X153117230Y-99460437D01*
X153134511Y-99450460D01*
X153190460Y-99394511D01*
X153230021Y-99325989D01*
X153250500Y-99249562D01*
X153250500Y-99170438D01*
X153230021Y-99094011D01*
X153226848Y-99088515D01*
X153190464Y-99025495D01*
X153190458Y-99025487D01*
X153147286Y-98982315D01*
X153113801Y-98920992D01*
X153118785Y-98851300D01*
X153160657Y-98795367D01*
X153172961Y-98787251D01*
X158049522Y-95971899D01*
X158117422Y-95955429D01*
X158173604Y-95971950D01*
G37*
%TD.AperFunction*%
%TA.AperFunction,Conductor*%
G36*
X146462472Y-97499497D02*
G01*
X146508227Y-97552301D01*
X146518171Y-97621459D01*
X146489146Y-97685015D01*
X146442884Y-97718374D01*
X146439006Y-97719979D01*
X146370497Y-97759533D01*
X146370489Y-97759539D01*
X146314543Y-97815485D01*
X146314537Y-97815493D01*
X146274984Y-97884002D01*
X146274981Y-97884007D01*
X146262881Y-97929166D01*
X146254502Y-97960436D01*
X146254502Y-98039560D01*
X146263982Y-98074940D01*
X146274981Y-98115988D01*
X146274984Y-98115993D01*
X146314537Y-98184502D01*
X146314541Y-98184507D01*
X146314542Y-98184509D01*
X146370491Y-98240458D01*
X146370492Y-98240459D01*
X146370494Y-98240460D01*
X146387498Y-98250277D01*
X146435715Y-98300843D01*
X146449500Y-98357665D01*
X146449500Y-98609894D01*
X146449501Y-98609902D01*
X146455330Y-98639212D01*
X146460004Y-98650496D01*
X146456449Y-98651968D01*
X146470795Y-98697805D01*
X146456950Y-98748241D01*
X146460004Y-98749507D01*
X146455329Y-98760791D01*
X146449500Y-98790098D01*
X146449500Y-99109894D01*
X146449501Y-99109902D01*
X146455330Y-99139212D01*
X146460004Y-99150496D01*
X146456449Y-99151968D01*
X146470795Y-99197805D01*
X146456950Y-99248241D01*
X146460004Y-99249507D01*
X146455329Y-99260791D01*
X146449500Y-99290098D01*
X146449500Y-99609894D01*
X146449501Y-99609902D01*
X146455330Y-99639212D01*
X146460004Y-99650496D01*
X146456449Y-99651968D01*
X146470795Y-99697805D01*
X146469740Y-99716283D01*
X146465950Y-99744893D01*
X146455331Y-99760787D01*
X146449500Y-99790101D01*
X146449500Y-99869078D01*
X146448426Y-99877186D01*
X146448317Y-99877429D01*
X146448238Y-99878547D01*
X146444500Y-99904545D01*
X146444500Y-99904551D01*
X146444500Y-100375252D01*
X146444776Y-100380868D01*
X146445008Y-100385598D01*
X146447389Y-100409775D01*
X146447389Y-100409777D01*
X146448910Y-100420024D01*
X146448913Y-100420042D01*
X146452617Y-100438661D01*
X146454984Y-100460864D01*
X146455000Y-100461861D01*
X146455000Y-100636000D01*
X146457411Y-100658427D01*
X146458212Y-100662113D01*
X146458375Y-100672212D01*
X146450515Y-100700660D01*
X146445273Y-100729709D01*
X146441314Y-100733960D01*
X146439768Y-100739558D01*
X146417778Y-100759238D01*
X146397661Y-100780845D01*
X146388530Y-100785415D01*
X146387705Y-100786154D01*
X146386748Y-100786307D01*
X146381848Y-100788760D01*
X146342044Y-100805249D01*
X146342037Y-100805252D01*
X146324751Y-100812411D01*
X146324748Y-100812413D01*
X146052410Y-101084749D01*
X146045780Y-101100756D01*
X146045779Y-101100762D01*
X146039685Y-101115476D01*
X146029500Y-101140064D01*
X146029500Y-101218670D01*
X146028335Y-101227108D01*
X146017353Y-101251515D01*
X146009815Y-101277187D01*
X146003238Y-101282885D01*
X145999666Y-101290825D01*
X145977231Y-101305421D01*
X145957011Y-101322942D01*
X145948396Y-101324180D01*
X145941100Y-101328928D01*
X145914338Y-101329077D01*
X145887853Y-101332886D01*
X145878435Y-101329278D01*
X145871231Y-101329319D01*
X145860107Y-101322258D01*
X145856391Y-101320834D01*
X145855493Y-101323004D01*
X145844208Y-101318329D01*
X145814901Y-101312500D01*
X145814899Y-101312500D01*
X145718702Y-101312500D01*
X145651663Y-101292815D01*
X145631021Y-101276181D01*
X145239493Y-100884653D01*
X145206008Y-100823330D01*
X145210992Y-100753638D01*
X145217395Y-100740849D01*
X145217356Y-100740831D01*
X145221037Y-100732768D01*
X145221041Y-100732763D01*
X145240726Y-100665724D01*
X145245000Y-100636000D01*
X145245000Y-100462850D01*
X145247383Y-100438658D01*
X145250536Y-100422806D01*
X145256733Y-100391653D01*
X145258305Y-100380860D01*
X145260681Y-100355364D01*
X145261130Y-100344465D01*
X145256552Y-99909453D01*
X145255790Y-99897853D01*
X145252503Y-99870767D01*
X145252502Y-99870764D01*
X145252160Y-99867944D01*
X145251763Y-99865776D01*
X145250499Y-99856992D01*
X145250499Y-99790102D01*
X145244669Y-99760787D01*
X145234455Y-99745500D01*
X145230449Y-99717661D01*
X145231579Y-99709792D01*
X145229205Y-99702208D01*
X145236475Y-99675709D01*
X145240092Y-99650532D01*
X145239996Y-99650493D01*
X145240151Y-99650116D01*
X145240384Y-99648501D01*
X145241221Y-99647534D01*
X145244666Y-99639217D01*
X145244669Y-99639213D01*
X145250500Y-99609899D01*
X145250499Y-99290102D01*
X145244669Y-99260787D01*
X145239996Y-99249504D01*
X145243551Y-99248031D01*
X145229205Y-99202208D01*
X145243047Y-99151756D01*
X145239996Y-99150493D01*
X145244666Y-99139217D01*
X145244669Y-99139213D01*
X145250500Y-99109899D01*
X145250499Y-98790102D01*
X145244669Y-98760787D01*
X145236783Y-98748984D01*
X145222457Y-98727542D01*
X145189214Y-98705332D01*
X145189215Y-98705332D01*
X145189213Y-98705331D01*
X145189211Y-98705330D01*
X145189208Y-98705329D01*
X145159901Y-98699500D01*
X144440105Y-98699500D01*
X144440097Y-98699501D01*
X144410787Y-98705330D01*
X144377542Y-98727542D01*
X144355332Y-98760785D01*
X144355329Y-98760791D01*
X144349500Y-98790098D01*
X144349500Y-98916297D01*
X144329815Y-98983336D01*
X144313181Y-99003978D01*
X143972413Y-99344745D01*
X143959987Y-99374747D01*
X143959985Y-99374750D01*
X143949501Y-99400059D01*
X143949500Y-99400065D01*
X143949500Y-100839939D01*
X143954449Y-100851885D01*
X143954450Y-100851887D01*
X143972411Y-100895251D01*
X144315746Y-101238586D01*
X144315748Y-101238587D01*
X144328416Y-101243834D01*
X144371064Y-101261500D01*
X144831633Y-101261500D01*
X144898672Y-101281185D01*
X144944427Y-101333989D01*
X144955036Y-101397648D01*
X144954500Y-101403092D01*
X144954500Y-102214894D01*
X144954501Y-102214902D01*
X144960330Y-102244212D01*
X144982542Y-102277457D01*
X144993136Y-102284535D01*
X145015787Y-102299669D01*
X145015790Y-102299669D01*
X145015791Y-102299670D01*
X145025647Y-102301630D01*
X145045101Y-102305500D01*
X145314898Y-102305499D01*
X145344213Y-102299669D01*
X145361112Y-102288378D01*
X145427790Y-102267502D01*
X145495169Y-102285988D01*
X145498887Y-102288378D01*
X145510628Y-102296222D01*
X145515787Y-102299669D01*
X145515790Y-102299669D01*
X145515791Y-102299670D01*
X145525647Y-102301630D01*
X145545101Y-102305500D01*
X145755499Y-102305499D01*
X145764185Y-102308049D01*
X145773147Y-102306761D01*
X145797184Y-102317738D01*
X145822539Y-102325183D01*
X145828467Y-102332025D01*
X145836703Y-102335786D01*
X145850989Y-102358017D01*
X145868294Y-102377987D01*
X145870581Y-102388502D01*
X145874477Y-102394564D01*
X145879500Y-102429499D01*
X145879500Y-102488013D01*
X145878238Y-102505656D01*
X145874500Y-102531655D01*
X145874500Y-102576274D01*
X145874724Y-102579848D01*
X145875328Y-102589480D01*
X145878526Y-102614844D01*
X145879500Y-102630352D01*
X145879500Y-102670500D01*
X145859815Y-102737539D01*
X145807011Y-102783294D01*
X145755501Y-102794500D01*
X145545105Y-102794500D01*
X145545097Y-102794501D01*
X145515787Y-102800330D01*
X145498883Y-102811624D01*
X145432204Y-102832497D01*
X145364825Y-102814008D01*
X145361112Y-102811622D01*
X145344213Y-102800331D01*
X145344208Y-102800329D01*
X145314901Y-102794500D01*
X145045105Y-102794500D01*
X145045097Y-102794501D01*
X145015787Y-102800330D01*
X144998883Y-102811624D01*
X144932204Y-102832497D01*
X144864825Y-102814008D01*
X144861112Y-102811622D01*
X144844213Y-102800331D01*
X144844208Y-102800329D01*
X144814901Y-102794500D01*
X144545105Y-102794500D01*
X144545097Y-102794501D01*
X144515787Y-102800330D01*
X144482542Y-102822542D01*
X144460332Y-102855785D01*
X144460329Y-102855791D01*
X144454500Y-102885098D01*
X144454500Y-103016500D01*
X144451949Y-103025185D01*
X144453238Y-103034147D01*
X144442259Y-103058187D01*
X144434815Y-103083539D01*
X144427974Y-103089466D01*
X144424213Y-103097703D01*
X144401978Y-103111992D01*
X144382011Y-103129294D01*
X144371496Y-103131581D01*
X144365435Y-103135477D01*
X144330500Y-103140500D01*
X144254957Y-103140500D01*
X144187918Y-103120815D01*
X144167276Y-103104181D01*
X143219819Y-102156723D01*
X143186334Y-102095400D01*
X143183500Y-102069042D01*
X143183500Y-100859077D01*
X143203185Y-100792038D01*
X143219814Y-100771401D01*
X143366474Y-100624742D01*
X143376896Y-100599580D01*
X143389387Y-100569426D01*
X143389387Y-99106915D01*
X143406000Y-99044915D01*
X143409091Y-99039561D01*
X143440021Y-98985989D01*
X143460500Y-98909562D01*
X143460500Y-98830438D01*
X143446093Y-98776671D01*
X143447756Y-98706823D01*
X143486918Y-98648961D01*
X143509218Y-98635551D01*
X143508951Y-98635088D01*
X143584504Y-98591467D01*
X143584503Y-98591467D01*
X143584511Y-98591463D01*
X143640460Y-98535514D01*
X143680021Y-98466992D01*
X143700500Y-98390565D01*
X143700500Y-98311441D01*
X143680021Y-98235014D01*
X143667087Y-98212612D01*
X143640464Y-98166498D01*
X143640458Y-98166490D01*
X143584515Y-98110547D01*
X143584511Y-98110543D01*
X143584506Y-98110540D01*
X143581739Y-98108417D01*
X143579990Y-98106022D01*
X143578764Y-98104796D01*
X143578955Y-98104604D01*
X143540537Y-98051989D01*
X143536382Y-97982243D01*
X143570594Y-97921323D01*
X143632312Y-97888570D01*
X143657226Y-97886041D01*
X145279644Y-97886041D01*
X145299526Y-97886133D01*
X145299751Y-97886041D01*
X145299991Y-97886041D01*
X145318236Y-97878483D01*
X145336534Y-97871003D01*
X145336641Y-97870895D01*
X145336783Y-97870837D01*
X145336923Y-97870743D01*
X145336929Y-97870741D01*
X145350991Y-97856678D01*
X145409875Y-97798335D01*
X145415197Y-97794801D01*
X145429997Y-97779999D01*
X145430000Y-97780000D01*
X145604314Y-97605685D01*
X145683622Y-97527108D01*
X145695110Y-97515726D01*
X145756587Y-97482525D01*
X145782384Y-97479812D01*
X146395433Y-97479812D01*
X146462472Y-97499497D01*
G37*
%TD.AperFunction*%
%TA.AperFunction,Conductor*%
G36*
X148268790Y-100530185D02*
G01*
X148274603Y-100534272D01*
X148331625Y-100567193D01*
X148344011Y-100574344D01*
X148420438Y-100594823D01*
X148420440Y-100594823D01*
X148504684Y-100594823D01*
X148571723Y-100614508D01*
X148617478Y-100667312D01*
X148627422Y-100736470D01*
X148608632Y-100781076D01*
X148610880Y-100782374D01*
X148567259Y-100857928D01*
X148567256Y-100857933D01*
X148546777Y-100934363D01*
X148546777Y-101010500D01*
X148527092Y-101077539D01*
X148474288Y-101123294D01*
X148422777Y-101134500D01*
X148223997Y-101134500D01*
X148201573Y-101136910D01*
X148150061Y-101148117D01*
X148103399Y-101171474D01*
X148050596Y-101217230D01*
X148050595Y-101217231D01*
X148018459Y-101267234D01*
X148018459Y-101267235D01*
X148013408Y-101284432D01*
X148013409Y-101284433D01*
X148011351Y-101291441D01*
X148011133Y-101291769D01*
X148010875Y-101293060D01*
X148009324Y-101298343D01*
X148009322Y-101298344D01*
X147998776Y-101334264D01*
X147998773Y-101334282D01*
X147994500Y-101363994D01*
X147994500Y-102256002D01*
X147996806Y-102277457D01*
X147996911Y-102278427D01*
X147998088Y-102283839D01*
X147999166Y-102288790D01*
X148001751Y-102307304D01*
X148002000Y-102311230D01*
X148002000Y-102341374D01*
X148004256Y-102346822D01*
X148005329Y-102363731D01*
X147999374Y-102390078D01*
X147996966Y-102416982D01*
X147991788Y-102423647D01*
X147989927Y-102431882D01*
X147970669Y-102450830D01*
X147954101Y-102472158D01*
X147946141Y-102474965D01*
X147940124Y-102480887D01*
X147913678Y-102486416D01*
X147888211Y-102495400D01*
X147875173Y-102494467D01*
X147871733Y-102495187D01*
X147868625Y-102493999D01*
X147857391Y-102493196D01*
X147851377Y-102492000D01*
X147851374Y-102492000D01*
X147768626Y-102492000D01*
X147768624Y-102492000D01*
X147763742Y-102492971D01*
X147694151Y-102486742D01*
X147651873Y-102459034D01*
X146931586Y-101738746D01*
X146898101Y-101677423D01*
X146903085Y-101607731D01*
X146931586Y-101563384D01*
X146950460Y-101544511D01*
X146990021Y-101475989D01*
X147010500Y-101399562D01*
X147010500Y-101320438D01*
X146990713Y-101246593D01*
X146992376Y-101176744D01*
X147031538Y-101118881D01*
X147095767Y-101091377D01*
X147110488Y-101090500D01*
X147289934Y-101090500D01*
X147289936Y-101090500D01*
X147312842Y-101081011D01*
X147312848Y-101081010D01*
X147312848Y-101081009D01*
X147314818Y-101080193D01*
X147345252Y-101067588D01*
X147536021Y-100876817D01*
X147597342Y-100843334D01*
X147623701Y-100840500D01*
X147719750Y-100840500D01*
X147719751Y-100840499D01*
X147734568Y-100837552D01*
X147778229Y-100828868D01*
X147778229Y-100828867D01*
X147778231Y-100828867D01*
X147844552Y-100784552D01*
X147888867Y-100718231D01*
X147888867Y-100718229D01*
X147888868Y-100718229D01*
X147900499Y-100659752D01*
X147900500Y-100659750D01*
X147900500Y-100634500D01*
X147903050Y-100625814D01*
X147901762Y-100616853D01*
X147912740Y-100592812D01*
X147920185Y-100567461D01*
X147927025Y-100561533D01*
X147930787Y-100553297D01*
X147953021Y-100539007D01*
X147972989Y-100521706D01*
X147983503Y-100519418D01*
X147989565Y-100515523D01*
X148024500Y-100510500D01*
X148201751Y-100510500D01*
X148268790Y-100530185D01*
G37*
%TD.AperFunction*%
%TA.AperFunction,Conductor*%
G36*
X151693723Y-98598742D02*
G01*
X151739478Y-98651546D01*
X151743206Y-98660647D01*
X151831799Y-98904056D01*
X151836230Y-98973785D01*
X151802260Y-99034840D01*
X151740673Y-99067838D01*
X151699098Y-99069406D01*
X151696986Y-99069128D01*
X151696982Y-99069128D01*
X151617858Y-99069128D01*
X151582061Y-99078720D01*
X151541429Y-99089607D01*
X151541424Y-99089610D01*
X151472915Y-99129163D01*
X151472907Y-99129169D01*
X151416961Y-99185115D01*
X151416955Y-99185123D01*
X151377402Y-99253632D01*
X151377399Y-99253637D01*
X151367628Y-99290105D01*
X151356920Y-99330066D01*
X151356920Y-99409190D01*
X151366147Y-99443626D01*
X151377399Y-99485618D01*
X151378613Y-99488547D01*
X151378900Y-99491216D01*
X151379503Y-99493467D01*
X151379152Y-99493561D01*
X151386082Y-99558016D01*
X151354807Y-99620496D01*
X151294718Y-99656148D01*
X151264052Y-99660000D01*
X150489886Y-99660000D01*
X150422847Y-99640315D01*
X150402205Y-99623681D01*
X150338017Y-99559493D01*
X150338011Y-99559488D01*
X150212488Y-99487017D01*
X150212489Y-99487017D01*
X150199550Y-99483550D01*
X150072475Y-99449500D01*
X149927525Y-99449500D01*
X149800450Y-99483550D01*
X149787511Y-99487017D01*
X149661988Y-99559488D01*
X149661982Y-99559493D01*
X149559493Y-99661982D01*
X149559488Y-99661988D01*
X149487017Y-99787511D01*
X149487016Y-99787515D01*
X149449500Y-99927525D01*
X149449500Y-99927527D01*
X149449500Y-99961041D01*
X149429815Y-100028080D01*
X149377011Y-100073835D01*
X149325832Y-100085041D01*
X148786932Y-100086483D01*
X148728980Y-100086638D01*
X148661889Y-100067134D01*
X148651175Y-100058523D01*
X148650956Y-100058809D01*
X148644504Y-100053858D01*
X148575995Y-100014305D01*
X148575990Y-100014302D01*
X148541636Y-100005097D01*
X148499562Y-99993823D01*
X148420438Y-99993823D01*
X148420437Y-99993823D01*
X148378361Y-100005097D01*
X148378357Y-100005098D01*
X148344011Y-100014302D01*
X148275489Y-100053863D01*
X148270552Y-100058799D01*
X148270551Y-100058800D01*
X148219539Y-100109812D01*
X148208676Y-100128629D01*
X148198785Y-100145762D01*
X148197782Y-100147499D01*
X148147215Y-100195715D01*
X148090394Y-100209500D01*
X147843334Y-100209500D01*
X147790290Y-100193924D01*
X147789511Y-100195806D01*
X147778226Y-100191131D01*
X147719752Y-100179500D01*
X147719748Y-100179500D01*
X147482096Y-100179500D01*
X147475608Y-100177595D01*
X147468954Y-100178802D01*
X147442503Y-100167874D01*
X147415057Y-100159815D01*
X147410629Y-100154705D01*
X147404378Y-100152123D01*
X147388034Y-100128629D01*
X147369302Y-100107011D01*
X147367395Y-100098961D01*
X147364478Y-100094767D01*
X147359785Y-100066821D01*
X147358179Y-100060039D01*
X147358119Y-100058419D01*
X147356552Y-99909453D01*
X147355790Y-99897853D01*
X147352503Y-99870767D01*
X147351088Y-99866480D01*
X147350582Y-99852653D01*
X147350873Y-99851507D01*
X147350499Y-99848114D01*
X147350499Y-99790105D01*
X147350498Y-99790097D01*
X147344669Y-99760787D01*
X147339996Y-99749504D01*
X147343551Y-99748031D01*
X147329205Y-99702208D01*
X147343047Y-99651756D01*
X147339996Y-99650493D01*
X147344664Y-99639220D01*
X147344669Y-99639213D01*
X147346091Y-99632060D01*
X147378475Y-99570151D01*
X147380028Y-99568570D01*
X147443093Y-99505505D01*
X147453188Y-99499992D01*
X147460440Y-99491063D01*
X147483299Y-99483550D01*
X147504416Y-99472020D01*
X147515888Y-99472840D01*
X147526817Y-99469249D01*
X147561895Y-99473155D01*
X147577308Y-99477151D01*
X147584011Y-99481021D01*
X147660438Y-99501500D01*
X147671221Y-99501500D01*
X147686529Y-99505469D01*
X147746482Y-99541348D01*
X147775181Y-99593403D01*
X147785607Y-99632309D01*
X147794496Y-99665485D01*
X147794499Y-99665490D01*
X147834052Y-99733999D01*
X147834056Y-99734004D01*
X147834057Y-99734006D01*
X147890006Y-99789955D01*
X147890008Y-99789956D01*
X147890012Y-99789959D01*
X147944148Y-99821214D01*
X147958528Y-99829516D01*
X148034955Y-99849995D01*
X148034957Y-99849995D01*
X148114078Y-99849995D01*
X148114079Y-99849995D01*
X148190506Y-99829516D01*
X148259028Y-99789955D01*
X148314977Y-99734006D01*
X148354538Y-99665484D01*
X148375017Y-99589057D01*
X148375017Y-99509933D01*
X148360476Y-99455666D01*
X148362137Y-99385817D01*
X148401299Y-99327954D01*
X148465527Y-99300449D01*
X148487284Y-99300579D01*
X148487284Y-99300499D01*
X148574534Y-99300499D01*
X148574536Y-99300499D01*
X148650963Y-99280020D01*
X148719485Y-99240459D01*
X148775434Y-99184510D01*
X148803129Y-99136539D01*
X148853695Y-99088323D01*
X148922302Y-99075099D01*
X148942613Y-99078764D01*
X148943704Y-99079057D01*
X148943706Y-99079057D01*
X149022826Y-99079057D01*
X149022828Y-99079057D01*
X149099255Y-99058578D01*
X149167777Y-99019017D01*
X149223726Y-98963068D01*
X149263287Y-98894546D01*
X149283766Y-98818119D01*
X149283766Y-98738995D01*
X149282735Y-98735147D01*
X149282815Y-98731776D01*
X149282705Y-98730938D01*
X149282835Y-98730920D01*
X149284400Y-98665297D01*
X149323564Y-98607436D01*
X149387794Y-98579933D01*
X149402511Y-98579057D01*
X151626684Y-98579057D01*
X151693723Y-98598742D01*
G37*
%TD.AperFunction*%
%TA.AperFunction,Conductor*%
G36*
X164822539Y-94650185D02*
G01*
X164868294Y-94702989D01*
X164879500Y-94754500D01*
X164879500Y-95130927D01*
X164859815Y-95197966D01*
X164807011Y-95243721D01*
X164737853Y-95253665D01*
X164693501Y-95238314D01*
X164578905Y-95172153D01*
X164578901Y-95172151D01*
X164578899Y-95172150D01*
X164426172Y-95131227D01*
X164268058Y-95131227D01*
X164115331Y-95172150D01*
X164115324Y-95172153D01*
X163978405Y-95251202D01*
X163978397Y-95251208D01*
X163866596Y-95363009D01*
X163866592Y-95363014D01*
X163801294Y-95476115D01*
X163750727Y-95524331D01*
X163714431Y-95536405D01*
X163044141Y-95648902D01*
X163044123Y-95648906D01*
X163031617Y-95651800D01*
X163031607Y-95651802D01*
X163031601Y-95651804D01*
X163031594Y-95651805D01*
X163031579Y-95651810D01*
X163002639Y-95660397D01*
X163002636Y-95660398D01*
X162964996Y-95680586D01*
X162959014Y-95685586D01*
X162894950Y-95713470D01*
X162825980Y-95702291D01*
X162774003Y-95655600D01*
X162755500Y-95590436D01*
X162755500Y-94934000D01*
X162753089Y-94911573D01*
X162750500Y-94899672D01*
X162750500Y-94890252D01*
X162738867Y-94831769D01*
X162722592Y-94807413D01*
X162717253Y-94788950D01*
X162717320Y-94772455D01*
X162712391Y-94756715D01*
X162717459Y-94738239D01*
X162717537Y-94719081D01*
X162726511Y-94705240D01*
X162730875Y-94689334D01*
X162745127Y-94676531D01*
X162755551Y-94660457D01*
X162770582Y-94653666D01*
X162782853Y-94642644D01*
X162807217Y-94637115D01*
X162819224Y-94631691D01*
X162826426Y-94632756D01*
X162836371Y-94630500D01*
X164755500Y-94630500D01*
X164822539Y-94650185D01*
G37*
%TD.AperFunction*%
%TD*%
%TA.AperFunction,Conductor*%
%TO.N,+3V0*%
G36*
X161833039Y-97339685D02*
G01*
X161878794Y-97392489D01*
X161890000Y-97444000D01*
X161890000Y-97791308D01*
X161870315Y-97858347D01*
X161818799Y-97903506D01*
X160895079Y-98338198D01*
X160895035Y-98338204D01*
X160895005Y-98338232D01*
X160842280Y-98350000D01*
X160659363Y-98350000D01*
X160592324Y-98330315D01*
X160546569Y-98277511D01*
X160536625Y-98208353D01*
X160565650Y-98144797D01*
X160571682Y-98138319D01*
X160629999Y-98080001D01*
X160630000Y-98080000D01*
X160630000Y-98079998D01*
X160639403Y-98058117D01*
X160639469Y-98058145D01*
X160639823Y-98057046D01*
X160648709Y-98025532D01*
X160650490Y-98023954D01*
X160651220Y-98021691D01*
X160666055Y-98003767D01*
X160715758Y-97954065D01*
X160732364Y-97929213D01*
X160740165Y-97890000D01*
X160732364Y-97850787D01*
X160732363Y-97850785D01*
X160715761Y-97825937D01*
X160676390Y-97786566D01*
X160642905Y-97725243D01*
X160640689Y-97701728D01*
X160639999Y-97699998D01*
X160516319Y-97576318D01*
X160501615Y-97549390D01*
X160485023Y-97523572D01*
X160484131Y-97517371D01*
X160482834Y-97514995D01*
X160480000Y-97488637D01*
X160480000Y-97444000D01*
X160499685Y-97376961D01*
X160552489Y-97331206D01*
X160604000Y-97320000D01*
X161766000Y-97320000D01*
X161833039Y-97339685D01*
G37*
%TD.AperFunction*%
%TD*%
%TA.AperFunction,Conductor*%
%TO.N,+3V0*%
G36*
X163518371Y-98461145D02*
G01*
X164311377Y-98569697D01*
X164346952Y-98580165D01*
X164454090Y-98630124D01*
X164476123Y-98635515D01*
X164497606Y-98642916D01*
X164603284Y-98690566D01*
X164625627Y-98703601D01*
X164645316Y-98718038D01*
X164480000Y-99089999D01*
X164479999Y-99089999D01*
X164300000Y-99140000D01*
X164299997Y-99140001D01*
X163187722Y-99715652D01*
X163128790Y-99729512D01*
X162644186Y-99721940D01*
X162635443Y-99719223D01*
X162626363Y-99720370D01*
X162602606Y-99709022D01*
X162577462Y-99701210D01*
X162571576Y-99694199D01*
X162563317Y-99690254D01*
X162549465Y-99667861D01*
X162532538Y-99647698D01*
X162530403Y-99637045D01*
X162526561Y-99630834D01*
X162522141Y-99595818D01*
X162523250Y-99531473D01*
X162526273Y-99356165D01*
X162529286Y-99331059D01*
X162532420Y-99317154D01*
X162535000Y-99293964D01*
X162535000Y-99278912D01*
X162537377Y-99254747D01*
X162538015Y-99251537D01*
X162556527Y-99206827D01*
X162561799Y-99198938D01*
X162582785Y-99174918D01*
X162599408Y-99160230D01*
X162642530Y-99110311D01*
X162657998Y-99086591D01*
X162697726Y-99002908D01*
X162727054Y-98963688D01*
X163254694Y-98491589D01*
X163279409Y-98479823D01*
X163302440Y-98465023D01*
X163313988Y-98463362D01*
X163317779Y-98461558D01*
X163337375Y-98460000D01*
X163501555Y-98460000D01*
X163518371Y-98461145D01*
G37*
%TD.AperFunction*%
%TD*%
%TA.AperFunction,Conductor*%
%TO.N,Net-(TPS3424A11C13ADRLR1-LPT)*%
G36*
X166554846Y-98117790D02*
G01*
X166559843Y-98119930D01*
X167027469Y-98332488D01*
X167034253Y-98338345D01*
X167042863Y-98340844D01*
X167060286Y-98360822D01*
X167080354Y-98378149D01*
X167082895Y-98386747D01*
X167088786Y-98393502D01*
X167092642Y-98419727D01*
X167100157Y-98445153D01*
X167097915Y-98455583D01*
X167098951Y-98462628D01*
X167089115Y-98496524D01*
X167052681Y-98576982D01*
X167027406Y-98613511D01*
X166974160Y-98666758D01*
X166974157Y-98666762D01*
X166934604Y-98735271D01*
X166934601Y-98735276D01*
X166914122Y-98811706D01*
X166914122Y-98856202D01*
X166903080Y-98907353D01*
X166665330Y-99432385D01*
X166619744Y-99485335D01*
X166552768Y-99505233D01*
X166501060Y-99494119D01*
X166032722Y-99281237D01*
X165979838Y-99235577D01*
X165960035Y-99168573D01*
X165971075Y-99117207D01*
X166255166Y-98489838D01*
X166268112Y-98467690D01*
X166278909Y-98452966D01*
X166380124Y-98235909D01*
X166388092Y-98203343D01*
X166423141Y-98142909D01*
X166485306Y-98111014D01*
X166554846Y-98117790D01*
G37*
%TD.AperFunction*%
%TD*%
%TA.AperFunction,Conductor*%
%TO.N,/Peripherals/VDDIO*%
G36*
X152213039Y-104209685D02*
G01*
X152258794Y-104262489D01*
X152270000Y-104314000D01*
X152270000Y-105130000D01*
X152325985Y-105344609D01*
X152330000Y-105375909D01*
X152330000Y-105636000D01*
X152310315Y-105703039D01*
X152257511Y-105748794D01*
X152206000Y-105760000D01*
X151891905Y-105760000D01*
X151849419Y-105752494D01*
X151101514Y-105479728D01*
X151045277Y-105438265D01*
X151020384Y-105372981D01*
X151020000Y-105363234D01*
X151020000Y-105039500D01*
X151022082Y-105032409D01*
X151020836Y-105025124D01*
X151031793Y-104999336D01*
X151039685Y-104972461D01*
X151045269Y-104967622D01*
X151048160Y-104960819D01*
X151071322Y-104945047D01*
X151092489Y-104926706D01*
X151101229Y-104924682D01*
X151105912Y-104921494D01*
X151134292Y-104917027D01*
X151140701Y-104915544D01*
X151142354Y-104915500D01*
X151296000Y-104915500D01*
X151311015Y-104914426D01*
X151340156Y-104910235D01*
X151347369Y-104910044D01*
X151347939Y-104910195D01*
X151350668Y-104910000D01*
X151429999Y-104910000D01*
X151430000Y-104910000D01*
X151440583Y-104879519D01*
X151441785Y-104877279D01*
X151441893Y-104875926D01*
X151447836Y-104866000D01*
X151459057Y-104845087D01*
X151466554Y-104835238D01*
X151469398Y-104832775D01*
X151474642Y-104824614D01*
X151477618Y-104820706D01*
X151478488Y-104820065D01*
X151482571Y-104814611D01*
X151485682Y-104811022D01*
X151487649Y-104806713D01*
X151496127Y-104791186D01*
X151501542Y-104782762D01*
X151504363Y-104773153D01*
X151506862Y-104764642D01*
X151514704Y-104747474D01*
X151517387Y-104728797D01*
X151519889Y-104720280D01*
X151519889Y-104720278D01*
X151519892Y-104720269D01*
X151521221Y-104715741D01*
X151521224Y-104715732D01*
X151525500Y-104686000D01*
X151525500Y-104655876D01*
X151532360Y-104615203D01*
X151636944Y-104314000D01*
X151650894Y-104273823D01*
X151691479Y-104216952D01*
X151756369Y-104191049D01*
X151768017Y-104190499D01*
X152022398Y-104190499D01*
X152023395Y-104190499D01*
X152033555Y-104190000D01*
X152146000Y-104190000D01*
X152213039Y-104209685D01*
G37*
%TD.AperFunction*%
%TD*%
%TA.AperFunction,Conductor*%
%TO.N,Net-(C20-Pad2)*%
G36*
X163605850Y-101001138D02*
G01*
X163664863Y-101011278D01*
X163828994Y-101083689D01*
X163833677Y-101085622D01*
X163844790Y-101089900D01*
X163879125Y-101096883D01*
X163895513Y-101097437D01*
X163944270Y-101109238D01*
X164681989Y-101457606D01*
X165173802Y-101689851D01*
X165226017Y-101736277D01*
X165244843Y-101803563D01*
X165235688Y-101848763D01*
X165087039Y-102213629D01*
X165043516Y-102268287D01*
X164988992Y-102289702D01*
X163487034Y-102494939D01*
X163417947Y-102484512D01*
X163416337Y-102483749D01*
X162979484Y-102272854D01*
X162927670Y-102225983D01*
X162909422Y-102158539D01*
X162920682Y-102109495D01*
X163339950Y-101195353D01*
X163349117Y-101183953D01*
X163353117Y-101173109D01*
X163377969Y-101148071D01*
X163521540Y-101039764D01*
X163521542Y-101039761D01*
X163528464Y-101034540D01*
X163528468Y-101034535D01*
X163529886Y-101033466D01*
X163529896Y-101033461D01*
X163529917Y-101033443D01*
X163532104Y-101031793D01*
X163532117Y-101031782D01*
X163532492Y-101031499D01*
X163532519Y-101031481D01*
X163537522Y-101027709D01*
X163537545Y-101027692D01*
X163540170Y-101025712D01*
X163572911Y-101013374D01*
X163605502Y-101001079D01*
X163605529Y-101001083D01*
X163605552Y-101001075D01*
X163605850Y-101001138D01*
G37*
%TD.AperFunction*%
%TD*%
%TA.AperFunction,Conductor*%
%TO.N,+3.3V*%
G36*
X148525655Y-101252461D02*
G01*
X149200000Y-101580000D01*
X149476000Y-101580000D01*
X149484685Y-101582550D01*
X149493647Y-101581262D01*
X149517687Y-101592240D01*
X149543039Y-101599685D01*
X149548966Y-101606525D01*
X149557203Y-101610287D01*
X149571492Y-101632521D01*
X149588794Y-101652489D01*
X149591081Y-101663003D01*
X149594977Y-101669065D01*
X149600000Y-101704000D01*
X149600000Y-101906000D01*
X149580315Y-101973039D01*
X149527511Y-102018794D01*
X149476000Y-102030000D01*
X148489091Y-102030000D01*
X148363040Y-102307312D01*
X148351319Y-102320887D01*
X148343868Y-102337203D01*
X148328960Y-102346783D01*
X148317379Y-102360197D01*
X148300177Y-102365280D01*
X148285090Y-102374977D01*
X148250583Y-102379938D01*
X148250375Y-102380000D01*
X148224000Y-102380000D01*
X148156961Y-102360315D01*
X148111206Y-102307511D01*
X148100000Y-102256000D01*
X148100000Y-101364000D01*
X148119685Y-101296961D01*
X148172489Y-101251206D01*
X148224000Y-101240000D01*
X148471479Y-101240000D01*
X148525655Y-101252461D01*
G37*
%TD.AperFunction*%
%TD*%
%TA.AperFunction,Conductor*%
%TO.N,+1V8*%
G36*
X159252565Y-98002630D02*
G01*
X159669998Y-98090000D01*
X159670000Y-98090000D01*
X159858638Y-98090000D01*
X159888078Y-98098644D01*
X159918065Y-98105168D01*
X159923080Y-98108922D01*
X159925677Y-98109685D01*
X159946319Y-98126319D01*
X159958319Y-98138319D01*
X159991804Y-98199642D01*
X159986820Y-98269334D01*
X159944948Y-98325267D01*
X159879484Y-98349684D01*
X159870638Y-98350000D01*
X159669999Y-98350000D01*
X159264809Y-98547883D01*
X159212394Y-98560445D01*
X158628195Y-98569867D01*
X158560846Y-98551266D01*
X158514246Y-98499207D01*
X158502214Y-98443710D01*
X158506073Y-98223749D01*
X158507862Y-98121825D01*
X158528720Y-98055141D01*
X158582318Y-98010319D01*
X158631843Y-98000000D01*
X159227162Y-98000000D01*
X159252565Y-98002630D01*
G37*
%TD.AperFunction*%
%TD*%
%TA.AperFunction,Conductor*%
%TO.N,+3.3V*%
G36*
X150677000Y-103485666D02*
G01*
X150698838Y-103487135D01*
X150709865Y-103495316D01*
X150723039Y-103499185D01*
X150737369Y-103515723D01*
X150754950Y-103528767D01*
X150765944Y-103548700D01*
X150768794Y-103551989D01*
X150769468Y-103555089D01*
X150771996Y-103559672D01*
X150780000Y-103580855D01*
X150780000Y-103700000D01*
X150835102Y-103726690D01*
X150852569Y-103772917D01*
X150857492Y-103793936D01*
X150858311Y-103793774D01*
X150871131Y-103858229D01*
X150871132Y-103858230D01*
X150915447Y-103924552D01*
X150981769Y-103968867D01*
X150981770Y-103968868D01*
X151040247Y-103980499D01*
X151040250Y-103980500D01*
X151296000Y-103980500D01*
X151363039Y-104000185D01*
X151408794Y-104052989D01*
X151420000Y-104104500D01*
X151420000Y-104686000D01*
X151417449Y-104694685D01*
X151418738Y-104703647D01*
X151407759Y-104727687D01*
X151400315Y-104753039D01*
X151393474Y-104758966D01*
X151389713Y-104767203D01*
X151367478Y-104781492D01*
X151347511Y-104798794D01*
X151336996Y-104801081D01*
X151330935Y-104804977D01*
X151296000Y-104810000D01*
X151049272Y-104810000D01*
X150993818Y-104796909D01*
X149560000Y-104080000D01*
X149274000Y-104080000D01*
X149265314Y-104077449D01*
X149256353Y-104078738D01*
X149232312Y-104067759D01*
X149206961Y-104060315D01*
X149201033Y-104053474D01*
X149192797Y-104049713D01*
X149178507Y-104027478D01*
X149161206Y-104007511D01*
X149158918Y-103996996D01*
X149155023Y-103990935D01*
X149150000Y-103956000D01*
X149150000Y-103734000D01*
X149169685Y-103666961D01*
X149222489Y-103621206D01*
X149274000Y-103610000D01*
X149535799Y-103610000D01*
X149602838Y-103629685D01*
X149623480Y-103646319D01*
X149704748Y-103727587D01*
X149704750Y-103727588D01*
X149714905Y-103734373D01*
X149712580Y-103737851D01*
X149749043Y-103767201D01*
X149754610Y-103775972D01*
X149759540Y-103784511D01*
X149815489Y-103840460D01*
X149815491Y-103840461D01*
X149815495Y-103840464D01*
X149846269Y-103858231D01*
X149884011Y-103880021D01*
X149960438Y-103900500D01*
X149960440Y-103900500D01*
X150039560Y-103900500D01*
X150039562Y-103900500D01*
X150115989Y-103880021D01*
X150184511Y-103840460D01*
X150240460Y-103784511D01*
X150280021Y-103715989D01*
X150300500Y-103639562D01*
X150300500Y-103603500D01*
X150320185Y-103536461D01*
X150372989Y-103490706D01*
X150424500Y-103479500D01*
X150656000Y-103479500D01*
X150677000Y-103485666D01*
G37*
%TD.AperFunction*%
%TD*%
%TA.AperFunction,Conductor*%
%TO.N,+3.3V*%
G36*
X144822574Y-99744514D02*
G01*
X145051384Y-99790276D01*
X145113260Y-99822726D01*
X145147771Y-99883477D01*
X145151058Y-99910563D01*
X145155636Y-100345575D01*
X145153260Y-100371071D01*
X145139500Y-100440247D01*
X145139500Y-100636000D01*
X145119815Y-100703039D01*
X145067011Y-100748794D01*
X145015500Y-100760000D01*
X144604202Y-100760000D01*
X144574759Y-100751354D01*
X144544773Y-100744831D01*
X144539758Y-100741077D01*
X144537163Y-100740315D01*
X144516522Y-100723682D01*
X144486817Y-100693977D01*
X144453333Y-100632653D01*
X144450500Y-100606297D01*
X144450500Y-99904465D01*
X144470185Y-99837426D01*
X144522989Y-99791671D01*
X144553543Y-99782249D01*
X144777308Y-99743890D01*
X144822574Y-99744514D01*
G37*
%TD.AperFunction*%
%TD*%
%TA.AperFunction,Conductor*%
%TO.N,Net-(D2-A)*%
G36*
X157104714Y-104159685D02*
G01*
X157150469Y-104212489D01*
X157161664Y-104262313D01*
X157178290Y-105484313D01*
X157175630Y-105493849D01*
X157177039Y-105503647D01*
X157166399Y-105526943D01*
X157159519Y-105551614D01*
X157152126Y-105558197D01*
X157148014Y-105567203D01*
X157126466Y-105581050D01*
X157107342Y-105598083D01*
X157095997Y-105600631D01*
X157089236Y-105604977D01*
X157054301Y-105610000D01*
X156904000Y-105610000D01*
X156836961Y-105590315D01*
X156791206Y-105537511D01*
X156780000Y-105486000D01*
X156780000Y-105149999D01*
X156779999Y-105149998D01*
X156593663Y-104786642D01*
X156580000Y-104730059D01*
X156580000Y-104264000D01*
X156599685Y-104196961D01*
X156652489Y-104151206D01*
X156704000Y-104140000D01*
X157037675Y-104140000D01*
X157104714Y-104159685D01*
G37*
%TD.AperFunction*%
%TD*%
%TA.AperFunction,Conductor*%
%TO.N,+3.3V*%
G36*
X146922574Y-99744514D02*
G01*
X147151384Y-99790276D01*
X147213260Y-99822726D01*
X147247771Y-99883477D01*
X147251058Y-99910563D01*
X147258680Y-100634695D01*
X147239702Y-100701938D01*
X147187383Y-100748246D01*
X147134687Y-100760000D01*
X146684500Y-100760000D01*
X146617461Y-100740315D01*
X146571706Y-100687511D01*
X146560500Y-100636000D01*
X146560500Y-100440251D01*
X146560499Y-100440248D01*
X146552383Y-100399443D01*
X146550000Y-100375252D01*
X146550000Y-99904551D01*
X146559386Y-99872583D01*
X146567914Y-99840350D01*
X146569196Y-99839177D01*
X146569685Y-99837512D01*
X146594858Y-99815698D01*
X146619465Y-99793187D01*
X146621655Y-99792479D01*
X146622489Y-99791757D01*
X146653045Y-99782335D01*
X146877308Y-99743890D01*
X146922574Y-99744514D01*
G37*
%TD.AperFunction*%
%TD*%
%TA.AperFunction,Conductor*%
%TO.N,+3.3V*%
G36*
X157875421Y-105739685D02*
G01*
X157915788Y-105782033D01*
X158180000Y-106240000D01*
X158579999Y-106240000D01*
X158580000Y-106240000D01*
X158843189Y-105845217D01*
X158896754Y-105800356D01*
X158946363Y-105790000D01*
X159215315Y-105790000D01*
X159282354Y-105809685D01*
X159317010Y-105843048D01*
X159580000Y-106220000D01*
X159856000Y-106220000D01*
X159864685Y-106222550D01*
X159873647Y-106221262D01*
X159897687Y-106232240D01*
X159923039Y-106239685D01*
X159928966Y-106246525D01*
X159937203Y-106250287D01*
X159951492Y-106272521D01*
X159968794Y-106292489D01*
X159971081Y-106303003D01*
X159974977Y-106309065D01*
X159980000Y-106344000D01*
X159980000Y-106566000D01*
X159960315Y-106633039D01*
X159907511Y-106678794D01*
X159856000Y-106690000D01*
X158579999Y-106690000D01*
X158365127Y-106879088D01*
X158340761Y-106890441D01*
X158318144Y-106904977D01*
X158305740Y-106906760D01*
X158301795Y-106908599D01*
X158283209Y-106910000D01*
X158039597Y-106910000D01*
X157972558Y-106890315D01*
X157926803Y-106837511D01*
X157918516Y-106812748D01*
X157891708Y-106691392D01*
X157896468Y-106621689D01*
X157905401Y-106602650D01*
X157915021Y-106585989D01*
X157935500Y-106509562D01*
X157935500Y-106430438D01*
X157915021Y-106354011D01*
X157885572Y-106303003D01*
X157875464Y-106285495D01*
X157875458Y-106285487D01*
X157819512Y-106229541D01*
X157819504Y-106229535D01*
X157750995Y-106189982D01*
X157750990Y-106189979D01*
X157725513Y-106183152D01*
X157674562Y-106169500D01*
X157604000Y-106169500D01*
X157595314Y-106166949D01*
X157586353Y-106168238D01*
X157562312Y-106157259D01*
X157536961Y-106149815D01*
X157531033Y-106142974D01*
X157522797Y-106139213D01*
X157508507Y-106116978D01*
X157491206Y-106097011D01*
X157488918Y-106086496D01*
X157485023Y-106080435D01*
X157480000Y-106045500D01*
X157480000Y-105844000D01*
X157499685Y-105776961D01*
X157552489Y-105731206D01*
X157604000Y-105720000D01*
X157808382Y-105720000D01*
X157875421Y-105739685D01*
G37*
%TD.AperFunction*%
%TD*%
%TA.AperFunction,Conductor*%
%TO.N,+3.3V*%
G36*
X159807664Y-101789685D02*
G01*
X159825861Y-101803940D01*
X160309167Y-102261355D01*
X160326563Y-102291228D01*
X160344163Y-102321078D01*
X160344210Y-102321534D01*
X160344326Y-102321732D01*
X160347839Y-102356180D01*
X160341659Y-102516851D01*
X160319413Y-102583084D01*
X160311899Y-102592783D01*
X159295415Y-103778682D01*
X159236841Y-103816772D01*
X159205615Y-103821908D01*
X158820621Y-103835416D01*
X158752933Y-103818094D01*
X158705354Y-103766927D01*
X158692292Y-103709319D01*
X158698736Y-103342045D01*
X158719594Y-103275362D01*
X158763219Y-103235428D01*
X159177267Y-103009004D01*
X159228231Y-102998867D01*
X159294552Y-102954552D01*
X159304749Y-102939290D01*
X159350000Y-102914545D01*
X159350000Y-102840915D01*
X159350500Y-102830747D01*
X159350500Y-102609986D01*
X159350500Y-102590252D01*
X159350000Y-102587738D01*
X159350000Y-102497458D01*
X159294836Y-102465873D01*
X159294552Y-102465448D01*
X159228231Y-102421133D01*
X159228230Y-102421132D01*
X159228229Y-102421132D01*
X159218687Y-102417179D01*
X159192983Y-102407558D01*
X158975218Y-102282877D01*
X158926821Y-102232485D01*
X158919279Y-102214732D01*
X158824867Y-101933458D01*
X158822195Y-101863640D01*
X158857695Y-101803460D01*
X158920094Y-101772027D01*
X158942421Y-101770000D01*
X159740625Y-101770000D01*
X159807664Y-101789685D01*
G37*
%TD.AperFunction*%
%TD*%
%TA.AperFunction,Conductor*%
%TO.N,+3V0*%
G36*
X164658702Y-98727854D02*
G01*
X165202160Y-98981273D01*
X165245640Y-98991912D01*
X165257504Y-98994815D01*
X165257437Y-98995085D01*
X165289994Y-99002907D01*
X165480856Y-99090000D01*
X165776702Y-99224997D01*
X165829519Y-99270735D01*
X165849224Y-99337769D01*
X165836064Y-99393400D01*
X165831387Y-99402723D01*
X165820151Y-99418048D01*
X165773188Y-99518759D01*
X165772383Y-99520365D01*
X165772116Y-99520650D01*
X165768936Y-99526762D01*
X165764746Y-99534020D01*
X165761737Y-99541285D01*
X165758368Y-99550537D01*
X165723103Y-99626165D01*
X165723099Y-99626177D01*
X165712462Y-99669652D01*
X165711929Y-99681854D01*
X165709293Y-99681738D01*
X165711927Y-99698518D01*
X165702421Y-99732508D01*
X165680900Y-99781288D01*
X165643334Y-99825787D01*
X165644312Y-99826854D01*
X165636023Y-99834449D01*
X165635830Y-99834678D01*
X165635646Y-99834794D01*
X165635311Y-99835101D01*
X165608837Y-99871206D01*
X165608837Y-99871207D01*
X165511793Y-100079319D01*
X165511789Y-100079330D01*
X165501152Y-100122805D01*
X165501152Y-100122806D01*
X165503165Y-100135888D01*
X165500840Y-100153472D01*
X165503562Y-100170808D01*
X165494057Y-100204798D01*
X165485144Y-100225001D01*
X165440075Y-100278391D01*
X165436027Y-100280956D01*
X165424002Y-100288253D01*
X165424001Y-100288254D01*
X165397527Y-100324359D01*
X165397527Y-100324360D01*
X165300483Y-100532472D01*
X165300479Y-100532483D01*
X165289842Y-100575958D01*
X165289841Y-100575962D01*
X165294800Y-100608179D01*
X165292476Y-100625762D01*
X165295198Y-100643102D01*
X165285693Y-100677092D01*
X165215302Y-100836644D01*
X165170232Y-100890034D01*
X165120717Y-100909149D01*
X165064390Y-100917819D01*
X164996201Y-100959197D01*
X164960938Y-101007288D01*
X164848522Y-101248366D01*
X164802350Y-101300805D01*
X164735156Y-101319957D01*
X164683571Y-101308267D01*
X164371823Y-101162342D01*
X164319451Y-101116093D01*
X164300397Y-101048871D01*
X164311861Y-100997953D01*
X164583157Y-100411820D01*
X164629178Y-100359252D01*
X164659874Y-100347719D01*
X164659410Y-100346442D01*
X164670883Y-100342266D01*
X164670884Y-100342265D01*
X164670886Y-100342265D01*
X164722071Y-100311205D01*
X164748540Y-100275107D01*
X164845590Y-100066982D01*
X164856229Y-100023503D01*
X164852133Y-99996891D01*
X164861388Y-99927638D01*
X164906616Y-99874382D01*
X164910277Y-99872069D01*
X164933380Y-99858050D01*
X164959849Y-99821952D01*
X165056899Y-99613827D01*
X165067538Y-99570348D01*
X165058430Y-99511172D01*
X165058429Y-99511170D01*
X165054253Y-99499695D01*
X165055862Y-99499109D01*
X165041616Y-99445521D01*
X165053043Y-99396633D01*
X165070000Y-99360000D01*
X165069998Y-99359999D01*
X165069999Y-99359999D01*
X164480000Y-99090000D01*
X164645315Y-98718038D01*
X164658702Y-98727854D01*
G37*
%TD.AperFunction*%
%TD*%
%TA.AperFunction,Conductor*%
%TO.N,+3.3V*%
G36*
X146761185Y-102416707D02*
G01*
X146796950Y-102428801D01*
X147316031Y-102698324D01*
X147803004Y-102951175D01*
X147804403Y-102952200D01*
X147805290Y-102952393D01*
X147833544Y-102973544D01*
X147894231Y-103034231D01*
X147927716Y-103095554D01*
X147930543Y-103120579D01*
X147939404Y-103944667D01*
X147920441Y-104011914D01*
X147868132Y-104058234D01*
X147815411Y-104070000D01*
X147567216Y-104070000D01*
X147500177Y-104050315D01*
X147473387Y-104027068D01*
X146370000Y-102750000D01*
X146082093Y-102698324D01*
X146052688Y-102683637D01*
X146022797Y-102669987D01*
X146021587Y-102668104D01*
X146019586Y-102667105D01*
X146002790Y-102638856D01*
X145985023Y-102611209D01*
X145984598Y-102608258D01*
X145983879Y-102607048D01*
X145980000Y-102576274D01*
X145980000Y-102531655D01*
X145999685Y-102464616D01*
X146052489Y-102418861D01*
X146079677Y-102410064D01*
X146357205Y-102354558D01*
X146402897Y-102354007D01*
X146761185Y-102416707D01*
G37*
%TD.AperFunction*%
%TD*%
%TA.AperFunction,Conductor*%
%TO.N,+3.3V*%
G36*
X162575677Y-98469685D02*
G01*
X162596319Y-98486319D01*
X162683681Y-98573681D01*
X162698384Y-98600608D01*
X162714977Y-98626427D01*
X162715868Y-98632627D01*
X162717166Y-98635004D01*
X162720000Y-98661362D01*
X162720000Y-98682060D01*
X162708017Y-98735240D01*
X162562693Y-99041345D01*
X162519571Y-99091264D01*
X162496613Y-99106605D01*
X162496608Y-99106609D01*
X162443454Y-99186161D01*
X162443452Y-99186165D01*
X162429500Y-99256307D01*
X162429500Y-99293964D01*
X162417518Y-99347141D01*
X162283620Y-99629183D01*
X162237089Y-99681299D01*
X162171605Y-99700000D01*
X161734000Y-99700000D01*
X161666961Y-99680315D01*
X161621206Y-99627511D01*
X161610000Y-99576000D01*
X161610000Y-99201361D01*
X161618644Y-99171920D01*
X161625168Y-99141934D01*
X161628922Y-99136918D01*
X161629685Y-99134322D01*
X161646314Y-99113685D01*
X161818673Y-98941326D01*
X161844276Y-98924220D01*
X161843683Y-98923332D01*
X161853839Y-98916546D01*
X161933391Y-98863391D01*
X161986546Y-98783839D01*
X161986546Y-98783838D01*
X161993332Y-98773683D01*
X161994220Y-98774276D01*
X162011324Y-98748675D01*
X162273683Y-98486316D01*
X162335004Y-98452834D01*
X162361362Y-98450000D01*
X162508638Y-98450000D01*
X162575677Y-98469685D01*
G37*
%TD.AperFunction*%
%TD*%
%TA.AperFunction,Conductor*%
%TO.N,Net-(TPS3424A11C13ADRLR1-SPT)*%
G36*
X165319130Y-97519606D02*
G01*
X165727544Y-97705249D01*
X165780429Y-97750910D01*
X165800232Y-97817914D01*
X165789190Y-97869285D01*
X165366338Y-98803083D01*
X165320752Y-98856033D01*
X165253776Y-98875931D01*
X165200975Y-98864314D01*
X164794360Y-98674706D01*
X164741921Y-98628534D01*
X164722769Y-98561340D01*
X164733805Y-98511178D01*
X165154864Y-97581338D01*
X165200449Y-97528391D01*
X165267425Y-97508493D01*
X165319130Y-97519606D01*
G37*
%TD.AperFunction*%
%TD*%
%TA.AperFunction,Conductor*%
%TO.N,Net-(TPS3424A11C13ADRLR1-PB)*%
G36*
X164282728Y-99764485D02*
G01*
X164652079Y-99943004D01*
X164658145Y-99948497D01*
X164665981Y-99950866D01*
X164683665Y-99971604D01*
X164703870Y-99989899D01*
X164706004Y-99997801D01*
X164711316Y-100004031D01*
X164714980Y-100031042D01*
X164722086Y-100057352D01*
X164719851Y-100066936D01*
X164720710Y-100073267D01*
X164710498Y-100107051D01*
X164670294Y-100193268D01*
X164624121Y-100245707D01*
X164601533Y-100256937D01*
X164592075Y-100260491D01*
X164592073Y-100260492D01*
X164549799Y-100289758D01*
X164505432Y-100340438D01*
X164503778Y-100342327D01*
X164503777Y-100342328D01*
X164503776Y-100342328D01*
X164487415Y-100367504D01*
X164487411Y-100367511D01*
X164423083Y-100506491D01*
X164401466Y-100538730D01*
X164012542Y-100958040D01*
X163952521Y-100993805D01*
X163882691Y-100991443D01*
X163871578Y-100987165D01*
X163584168Y-100860367D01*
X163474012Y-100943467D01*
X163474009Y-100943469D01*
X163469006Y-100947241D01*
X163465724Y-100949234D01*
X163464929Y-100950317D01*
X163458004Y-100955541D01*
X163458004Y-100955542D01*
X163120459Y-101210182D01*
X162974678Y-101486399D01*
X162970852Y-101490334D01*
X162969304Y-101495600D01*
X162946762Y-101515117D01*
X162925978Y-101536500D01*
X162920632Y-101537742D01*
X162916483Y-101541335D01*
X162886967Y-101545567D01*
X162857922Y-101552318D01*
X162851312Y-101550679D01*
X162847320Y-101551252D01*
X162813460Y-101541296D01*
X162684319Y-101482260D01*
X162631532Y-101436485D01*
X162611873Y-101369438D01*
X162623808Y-101316404D01*
X162781415Y-100983678D01*
X162825137Y-100933296D01*
X163940631Y-100196540D01*
X164116609Y-99823252D01*
X164163001Y-99771008D01*
X164230274Y-99752138D01*
X164282728Y-99764485D01*
G37*
%TD.AperFunction*%
%TD*%
%TA.AperFunction,Conductor*%
%TO.N,/NRST*%
G36*
X157683478Y-101274479D02*
G01*
X157704487Y-101281208D01*
X157726455Y-101283290D01*
X157737112Y-101291658D01*
X157750017Y-101295792D01*
X157764054Y-101312814D01*
X157781408Y-101326440D01*
X157791656Y-101346282D01*
X157794471Y-101349696D01*
X157797604Y-101357799D01*
X157847162Y-101500646D01*
X157850538Y-101570434D01*
X157849787Y-101573380D01*
X157834500Y-101630432D01*
X157834500Y-101630438D01*
X157834500Y-101709562D01*
X157834857Y-101710893D01*
X157854979Y-101785990D01*
X157854982Y-101785995D01*
X157894535Y-101854504D01*
X157894541Y-101854512D01*
X157950489Y-101910460D01*
X157959068Y-101915413D01*
X158000471Y-101958835D01*
X158002188Y-101957742D01*
X158009999Y-101969998D01*
X158010000Y-101970001D01*
X158226561Y-102179999D01*
X158407348Y-102355308D01*
X158441772Y-102416109D01*
X158437861Y-102485869D01*
X158411675Y-102528937D01*
X158054887Y-102911194D01*
X157994754Y-102946772D01*
X157924932Y-102944190D01*
X157923928Y-102943850D01*
X157538119Y-102811228D01*
X157490745Y-102781641D01*
X157484551Y-102775447D01*
X157418230Y-102731132D01*
X157418229Y-102731131D01*
X157359752Y-102719500D01*
X157359748Y-102719500D01*
X157291990Y-102719500D01*
X157288326Y-102718887D01*
X157286350Y-102719372D01*
X157251680Y-102712765D01*
X157123690Y-102668768D01*
X157066691Y-102628359D01*
X157040587Y-102563549D01*
X157040000Y-102551503D01*
X157040000Y-102304000D01*
X157059685Y-102236961D01*
X157112489Y-102191206D01*
X157164000Y-102180000D01*
X157419999Y-102180000D01*
X157420000Y-102180000D01*
X157422943Y-101971038D01*
X157427154Y-101940708D01*
X157435500Y-101909562D01*
X157435500Y-101830438D01*
X157429906Y-101809562D01*
X157425693Y-101775732D01*
X157431075Y-101393635D01*
X157451702Y-101326882D01*
X157505145Y-101281875D01*
X157558086Y-101271421D01*
X157683478Y-101274479D01*
G37*
%TD.AperFunction*%
%TD*%
%TA.AperFunction,Conductor*%
%TO.N,+3.3V*%
G36*
X154466770Y-101649667D02*
G01*
X154492316Y-101672068D01*
X154581762Y-101775406D01*
X154610753Y-101838978D01*
X154600773Y-101908131D01*
X154563159Y-101955190D01*
X154150000Y-102269999D01*
X154150000Y-102633783D01*
X154141973Y-102661118D01*
X154136945Y-102689165D01*
X154132255Y-102694212D01*
X154130315Y-102700822D01*
X154108786Y-102719476D01*
X154089391Y-102740355D01*
X154080362Y-102744106D01*
X154077511Y-102746577D01*
X154056799Y-102753897D01*
X153855105Y-102805614D01*
X153836222Y-102807996D01*
X153836312Y-102808903D01*
X153830247Y-102809500D01*
X153771774Y-102821131D01*
X153760489Y-102825806D01*
X153760354Y-102825480D01*
X153737068Y-102835879D01*
X153346155Y-102936114D01*
X153315356Y-102940000D01*
X153034000Y-102940000D01*
X153025314Y-102937449D01*
X153016353Y-102938738D01*
X152992312Y-102927759D01*
X152966961Y-102920315D01*
X152961033Y-102913474D01*
X152952797Y-102909713D01*
X152938507Y-102887478D01*
X152921206Y-102867511D01*
X152918918Y-102856996D01*
X152915023Y-102850935D01*
X152910000Y-102816000D01*
X152910000Y-102648501D01*
X152929685Y-102581462D01*
X152982489Y-102535707D01*
X153051647Y-102525763D01*
X153066085Y-102528724D01*
X153110030Y-102540500D01*
X153110031Y-102540500D01*
X153189152Y-102540500D01*
X153189154Y-102540500D01*
X153265581Y-102520021D01*
X153334103Y-102480460D01*
X153390052Y-102424511D01*
X153429613Y-102355989D01*
X153450092Y-102279562D01*
X153450092Y-102270052D01*
X153469777Y-102203013D01*
X153508227Y-102164991D01*
X154332703Y-101648155D01*
X154399956Y-101629229D01*
X154466770Y-101649667D01*
G37*
%TD.AperFunction*%
%TD*%
%TA.AperFunction,Conductor*%
%TO.N,/Power/Charge +*%
G36*
X164317745Y-95562086D02*
G01*
X164371609Y-95606589D01*
X164392862Y-95673147D01*
X164392871Y-95673579D01*
X164407470Y-96403520D01*
X164389130Y-96470940D01*
X164337252Y-96517742D01*
X164283495Y-96530000D01*
X163980916Y-96530000D01*
X163970738Y-96529500D01*
X163969748Y-96529500D01*
X163670252Y-96529500D01*
X163670249Y-96529500D01*
X163611769Y-96541132D01*
X163570481Y-96568719D01*
X163543300Y-96582390D01*
X163410001Y-96629999D01*
X163410000Y-96630000D01*
X163410000Y-96906000D01*
X163390315Y-96973039D01*
X163337511Y-97018794D01*
X163286000Y-97030000D01*
X162954950Y-97030000D01*
X162945062Y-97029605D01*
X162700003Y-97010000D01*
X162700000Y-97010000D01*
X162474000Y-97010000D01*
X162406961Y-96990315D01*
X162361206Y-96937511D01*
X162350000Y-96886000D01*
X162350000Y-96602259D01*
X162369685Y-96535220D01*
X162422489Y-96489465D01*
X162438365Y-96483490D01*
X162950000Y-96330000D01*
X162958160Y-95873019D01*
X162979038Y-95806344D01*
X163032650Y-95761539D01*
X163061611Y-95752946D01*
X164248374Y-95553769D01*
X164317745Y-95562086D01*
G37*
%TD.AperFunction*%
%TD*%
%TA.AperFunction,Conductor*%
%TO.N,Net-(IC5-PROG)*%
G36*
X161953039Y-94829685D02*
G01*
X161998794Y-94882489D01*
X162010000Y-94934000D01*
X162010000Y-95178461D01*
X161994932Y-95237705D01*
X161753175Y-95682224D01*
X161739557Y-95702297D01*
X161738388Y-95703701D01*
X161701906Y-95745048D01*
X161696835Y-95751255D01*
X161685506Y-95766251D01*
X161684234Y-95768776D01*
X161679997Y-95773869D01*
X161655332Y-95810785D01*
X161655329Y-95810791D01*
X161649500Y-95840098D01*
X161649500Y-95841314D01*
X161649304Y-95842081D01*
X161648903Y-95846161D01*
X161648282Y-95846099D01*
X161634432Y-95900557D01*
X161425218Y-96285243D01*
X161415637Y-96294855D01*
X161409999Y-96307203D01*
X161391454Y-96319120D01*
X161375896Y-96334732D01*
X161361375Y-96338451D01*
X161351221Y-96344977D01*
X161316286Y-96350000D01*
X161167034Y-96350000D01*
X161099995Y-96330315D01*
X161054240Y-96277511D01*
X161044296Y-96208353D01*
X161050500Y-96183624D01*
X161520319Y-94891624D01*
X161561728Y-94835348D01*
X161626990Y-94810393D01*
X161636853Y-94810000D01*
X161886000Y-94810000D01*
X161953039Y-94829685D01*
G37*
%TD.AperFunction*%
%TD*%
%TA.AperFunction,Conductor*%
%TO.N,+3.3V*%
G36*
X156063039Y-100719685D02*
G01*
X156108794Y-100772489D01*
X156120000Y-100824000D01*
X156120000Y-101100002D01*
X156427893Y-101744650D01*
X156440000Y-101798091D01*
X156440000Y-102206000D01*
X156437449Y-102214685D01*
X156438738Y-102223647D01*
X156427759Y-102247687D01*
X156420315Y-102273039D01*
X156413474Y-102278966D01*
X156409713Y-102287203D01*
X156387478Y-102301492D01*
X156367511Y-102318794D01*
X156356996Y-102321081D01*
X156350935Y-102324977D01*
X156316000Y-102330000D01*
X156095759Y-102330000D01*
X156028720Y-102310315D01*
X155982965Y-102257511D01*
X155971771Y-102204254D01*
X155980000Y-101620000D01*
X155678394Y-101129890D01*
X155673716Y-101113364D01*
X155665023Y-101099837D01*
X155660000Y-101064902D01*
X155660000Y-100824000D01*
X155679685Y-100756961D01*
X155732489Y-100711206D01*
X155784000Y-100700000D01*
X155996000Y-100700000D01*
X156063039Y-100719685D01*
G37*
%TD.AperFunction*%
%TD*%
%TA.AperFunction,Conductor*%
%TO.N,Net-(Q7-D_1)*%
G36*
X162593039Y-94829685D02*
G01*
X162638794Y-94882489D01*
X162650000Y-94934000D01*
X162650000Y-96166000D01*
X162630315Y-96233039D01*
X162577511Y-96278794D01*
X162526000Y-96290000D01*
X161874000Y-96290000D01*
X161806961Y-96270315D01*
X161761206Y-96217511D01*
X161750000Y-96166000D01*
X161750000Y-95896884D01*
X161769685Y-95829845D01*
X161781014Y-95814849D01*
X162050000Y-95510000D01*
X162190000Y-95210000D01*
X162190000Y-94934000D01*
X162192550Y-94925314D01*
X162191262Y-94916353D01*
X162202240Y-94892312D01*
X162209685Y-94866961D01*
X162216525Y-94861033D01*
X162220287Y-94852797D01*
X162242521Y-94838507D01*
X162262489Y-94821206D01*
X162273003Y-94818918D01*
X162279065Y-94815023D01*
X162314000Y-94810000D01*
X162526000Y-94810000D01*
X162593039Y-94829685D01*
G37*
%TD.AperFunction*%
%TD*%
%TA.AperFunction,Conductor*%
%TO.N,+3.3V*%
G36*
X157366708Y-98173747D02*
G01*
X158632748Y-98825385D01*
X158683346Y-98873568D01*
X158700000Y-98935638D01*
X158700000Y-99293983D01*
X158680315Y-99361022D01*
X158627511Y-99406777D01*
X158574000Y-99417967D01*
X158079999Y-99409999D01*
X158079999Y-99410000D01*
X158076946Y-99706180D01*
X158056572Y-99773013D01*
X158051675Y-99779026D01*
X157993454Y-99866161D01*
X157993452Y-99866165D01*
X157979500Y-99936307D01*
X157979500Y-100263692D01*
X157993452Y-100333834D01*
X157993453Y-100333837D01*
X157993454Y-100333839D01*
X158021918Y-100376438D01*
X158046608Y-100413390D01*
X158055247Y-100422029D01*
X158054286Y-100422989D01*
X158063384Y-100433875D01*
X158083463Y-100452498D01*
X158087946Y-100463265D01*
X158090636Y-100466483D01*
X158097031Y-100485080D01*
X158134353Y-100630160D01*
X158149720Y-100689895D01*
X158156090Y-100714654D01*
X158160000Y-100745548D01*
X158160000Y-100980157D01*
X158140315Y-101047196D01*
X158087511Y-101092951D01*
X158035302Y-101104155D01*
X157822252Y-101102955D01*
X157755324Y-101082893D01*
X157709867Y-101029832D01*
X157698957Y-100977631D01*
X157702035Y-100689895D01*
X157702033Y-100689894D01*
X157702034Y-100689894D01*
X157462500Y-100555156D01*
X157413720Y-100505133D01*
X157399298Y-100448296D01*
X157393693Y-99875180D01*
X157397000Y-99867197D01*
X157397000Y-99792803D01*
X157392787Y-99782634D01*
X157392233Y-99725890D01*
X157358917Y-99707538D01*
X157358917Y-99707537D01*
X157343506Y-99699048D01*
X157315927Y-99671469D01*
X157247197Y-99643000D01*
X157241756Y-99643000D01*
X157221864Y-99632043D01*
X157216916Y-99629318D01*
X157186723Y-99605985D01*
X157046323Y-99457785D01*
X157014509Y-99395583D01*
X157013924Y-99392245D01*
X156881575Y-98569786D01*
X156880000Y-98550086D01*
X156880000Y-98284000D01*
X156899685Y-98216961D01*
X156952489Y-98171206D01*
X157004000Y-98160000D01*
X157309960Y-98160000D01*
X157366708Y-98173747D01*
G37*
%TD.AperFunction*%
%TD*%
M02*
