%TF.GenerationSoftware,KiCad,Pcbnew,9.0.5*%
%TF.CreationDate,2025-10-30T22:03:55+01:00*%
%TF.ProjectId,36mm PCB,33366d6d-2050-4434-922e-6b696361645f,rev?*%
%TF.SameCoordinates,Original*%
%TF.FileFunction,Legend,Bot*%
%TF.FilePolarity,Positive*%
%FSLAX46Y46*%
G04 Gerber Fmt 4.6, Leading zero omitted, Abs format (unit mm)*
G04 Created by KiCad (PCBNEW 9.0.5) date 2025-10-30 22:03:55*
%MOMM*%
%LPD*%
G01*
G04 APERTURE LIST*
%ADD10C,0.100000*%
%ADD11C,0.120000*%
%ADD12C,0.200000*%
G04 APERTURE END LIST*
D10*
%TO.C,IC8*%
X144430000Y-101809000D02*
X144430000Y-102250000D01*
X144430000Y-102850000D02*
X144430000Y-103291000D01*
X146130000Y-103850000D02*
X146130000Y-103850000D01*
X146230000Y-103850000D02*
X146230000Y-103850000D01*
X146430000Y-101809000D02*
X146430000Y-102250000D01*
X146430000Y-102850000D02*
X146430000Y-103291000D01*
X146130000Y-103850000D02*
G75*
G02*
X146230000Y-103850000I50000J0D01*
G01*
X146230000Y-103850000D02*
G75*
G02*
X146130000Y-103850000I-50000J0D01*
G01*
D11*
%TO.C,C29*%
X158460000Y-97907836D02*
X158460000Y-97692164D01*
X159180000Y-97907836D02*
X159180000Y-97692164D01*
%TO.C,C24*%
X158030000Y-99512164D02*
X158030000Y-99727836D01*
X158750000Y-99512164D02*
X158750000Y-99727836D01*
%TO.C,C22*%
X162900000Y-95677836D02*
X162900000Y-95462165D01*
X163620000Y-95677835D02*
X163620000Y-95462164D01*
D10*
%TO.C,D2*%
X158500000Y-104450000D02*
G75*
G02*
X158400000Y-104450000I-50000J0D01*
G01*
X158400000Y-104450000D02*
G75*
G02*
X158500000Y-104450000I50000J0D01*
G01*
D12*
%TO.C,IC3*%
X144250000Y-100200000D02*
G75*
G02*
X144050000Y-100200000I-100000J0D01*
G01*
X144050000Y-100200000D02*
G75*
G02*
X144250000Y-100200000I100000J0D01*
G01*
D11*
%TO.C,C2*%
X161569999Y-99792164D02*
X161569999Y-100007837D01*
X162290001Y-99792163D02*
X162290001Y-100007836D01*
%TO.C,C19*%
X158607836Y-103160000D02*
X158392164Y-103160000D01*
X158607836Y-103880000D02*
X158392164Y-103880000D01*
%TO.C,TPS3424A11C13ADRLR1*%
X165488862Y-100946018D02*
X164537240Y-100502269D01*
X166469336Y-98843385D02*
X165291138Y-98293982D01*
X164423597Y-100272737D02*
X164305264Y-100526504D01*
X164169831Y-100154404D01*
X164423597Y-100272737D01*
G36*
X164423597Y-100272737D02*
G01*
X164305264Y-100526504D01*
X164169831Y-100154404D01*
X164423597Y-100272737D01*
G37*
D12*
%TO.C,IC2*%
X147353000Y-101842000D02*
X147353000Y-103557000D01*
X147353000Y-103557000D02*
X148611000Y-103557000D01*
X148611000Y-103557000D02*
X149069000Y-103099000D01*
X149068000Y-101842000D02*
X147353000Y-101842000D01*
X149068000Y-103100000D02*
X149068000Y-101842000D01*
D11*
%TO.C,C35*%
X156070000Y-102422164D02*
X156070000Y-102637836D01*
X156790000Y-102422164D02*
X156790000Y-102637836D01*
D12*
%TO.C,IC7*%
X156374000Y-98994000D02*
X156374000Y-100267000D01*
X156374000Y-100267000D02*
X157647000Y-100267000D01*
X157210000Y-98994000D02*
X156374000Y-98994000D01*
X157647000Y-99431000D02*
X157211000Y-98995000D01*
X157647000Y-100267000D02*
X157647000Y-99431000D01*
X157746000Y-98994000D02*
G75*
G02*
X157546000Y-98994000I-100000J0D01*
G01*
X157546000Y-98994000D02*
G75*
G02*
X157746000Y-98994000I100000J0D01*
G01*
D11*
%TO.C,LDLN025PU2*%
X159770000Y-97170000D02*
X160770000Y-97170000D01*
X160770000Y-98610000D02*
X159770000Y-98610000D01*
X159480000Y-98810000D02*
X159200000Y-98530000D01*
X159480000Y-98530000D01*
X159480000Y-98810000D01*
G36*
X159480000Y-98810000D02*
G01*
X159200000Y-98530000D01*
X159480000Y-98530000D01*
X159480000Y-98810000D01*
G37*
%TO.C,LDLN025PU1*%
X162429998Y-97540001D02*
X163429999Y-97540002D01*
X163430002Y-98979999D02*
X162430001Y-98979998D01*
X162229998Y-98780000D02*
X162230000Y-99060000D01*
X161950001Y-98779998D01*
X162229998Y-98780000D01*
G36*
X162229998Y-98780000D02*
G01*
X162230000Y-99060000D01*
X161950001Y-98779998D01*
X162229998Y-98780000D01*
G37*
%TO.C,C30*%
X161230000Y-97962164D02*
X161230000Y-98177836D01*
X161950000Y-97962164D02*
X161950000Y-98177836D01*
D10*
%TO.C,U1*%
X151725000Y-105015000D02*
X151725000Y-105015000D01*
X151825000Y-105015000D02*
X151825000Y-105015000D01*
X151725000Y-105015000D02*
G75*
G02*
X151825000Y-105015000I50000J0D01*
G01*
X151825000Y-105015000D02*
G75*
G02*
X151725000Y-105015000I-50000J0D01*
G01*
D11*
%TO.C,C1*%
X162479999Y-99792164D02*
X162479999Y-100007837D01*
X163200001Y-99792163D02*
X163200001Y-100007836D01*
%TD*%
M02*
