%TF.GenerationSoftware,KiCad,Pcbnew,9.0.5*%
%TF.CreationDate,2025-10-30T22:03:55+01:00*%
%TF.ProjectId,36mm PCB,33366d6d-2050-4434-922e-6b696361645f,rev?*%
%TF.SameCoordinates,Original*%
%TF.FileFunction,Legend,Top*%
%TF.FilePolarity,Positive*%
%FSLAX46Y46*%
G04 Gerber Fmt 4.6, Leading zero omitted, Abs format (unit mm)*
G04 Created by KiCad (PCBNEW 9.0.5) date 2025-10-30 22:03:55*
%MOMM*%
%LPD*%
G01*
G04 APERTURE LIST*
%ADD10C,0.120000*%
%ADD11C,0.100000*%
%ADD12C,0.200000*%
%ADD13C,0.250000*%
G04 APERTURE END LIST*
D10*
%TO.C,C18*%
X147082164Y-101720000D02*
X147297836Y-101720000D01*
X147082164Y-101000000D02*
X147297836Y-101000000D01*
D11*
%TO.C,L2*%
X141930000Y-99500000D02*
X141930000Y-99200000D01*
X142180000Y-100433013D02*
X142330000Y-100692820D01*
X142430000Y-100000000D02*
G75*
G02*
X141430000Y-100000000I-500000J0D01*
G01*
X141430000Y-100000000D02*
G75*
G02*
X142430000Y-100000000I500000J0D01*
G01*
%TO.C,L3*%
X150000000Y-99500000D02*
X150000000Y-99200000D01*
X150250000Y-100433013D02*
X150400000Y-100692820D01*
X150500000Y-100000000D02*
G75*
G02*
X149500000Y-100000000I-500000J0D01*
G01*
X149500000Y-100000000D02*
G75*
G02*
X150500000Y-100000000I500000J0D01*
G01*
%TO.C,LED1*%
X145480000Y-97780000D02*
X145480000Y-97780000D01*
X145580000Y-97780000D02*
X145580000Y-97780000D01*
X145480000Y-97780000D02*
G75*
G02*
X145580000Y-97780000I50000J0D01*
G01*
X145580000Y-97780000D02*
G75*
G02*
X145480000Y-97780000I-50000J0D01*
G01*
D10*
%TO.C,C15*%
X166540125Y-96350697D02*
X166735590Y-96441844D01*
X166844410Y-95698156D02*
X167039875Y-95789303D01*
D11*
%TO.C,IC4*%
X153680000Y-108352500D02*
X153680000Y-108352500D01*
X153680000Y-108452501D02*
X153680000Y-108452501D01*
X153680000Y-108352500D02*
G75*
G02*
X153680000Y-108452502I-1J-50001D01*
G01*
X153680000Y-108452501D02*
G75*
G02*
X153680000Y-108352501I0J50000D01*
G01*
D10*
%TO.C,L4*%
X160239622Y-99270000D02*
X159440378Y-99270000D01*
X160239622Y-100390000D02*
X159440378Y-100390000D01*
%TO.C,C34*%
X157377836Y-100480000D02*
X157162164Y-100480000D01*
X157377836Y-101200000D02*
X157162164Y-101200000D01*
D12*
%TO.C,ANT1*%
X144812661Y-105437532D02*
X148233461Y-107412532D01*
X148233461Y-107412532D02*
X149483461Y-105247468D01*
X149483461Y-105247468D02*
X146062661Y-103272468D01*
D13*
%TO.C,IC5*%
X164740000Y-96790000D02*
G75*
G02*
X164490000Y-96790000I-125000J0D01*
G01*
X164490000Y-96790000D02*
G75*
G02*
X164740000Y-96790000I125000J0D01*
G01*
D11*
%TO.C,Y1*%
X154907328Y-100239302D02*
X154907328Y-100239302D01*
X154980464Y-100171103D02*
X154980464Y-100171103D01*
X154907328Y-100239302D02*
G75*
G02*
X154980464Y-100171103I36568J34100D01*
G01*
X154980464Y-100171103D02*
G75*
G02*
X154907328Y-100239302I-36569J-34098D01*
G01*
D10*
%TO.C,C25*%
X151710000Y-104007836D02*
X151710000Y-103792164D01*
X152430000Y-104007836D02*
X152430000Y-103792164D01*
D13*
%TO.C,D1*%
X155110000Y-101670000D02*
G75*
G02*
X154860000Y-101670000I-125000J0D01*
G01*
X154860000Y-101670000D02*
G75*
G02*
X155110000Y-101670000I125000J0D01*
G01*
D11*
%TO.C,IC1*%
X153150000Y-99590000D02*
G75*
G02*
X153050000Y-99590000I-50000J0D01*
G01*
X153050000Y-99590000D02*
G75*
G02*
X153150000Y-99590000I50000J0D01*
G01*
%TD*%
M02*
