M48
; DRILL file {KiCad 9.0.5} date 2025-10-30T22:03:53+0100
; FORMAT={-:-/ absolute / metric / decimal}
; #@! TF.CreationDate,2025-10-30T22:03:53+01:00
; #@! TF.GenerationSoftware,Kicad,Pcbnew,9.0.5
; #@! TF.FileFunction,Plated,1,6,PTH
FMAT,2
METRIC
; #@! TA.AperFunction,Plated,PTH,ViaDrill
T1C0.300
; #@! TA.AperFunction,Plated,PTH,ComponentDrill
T2C0.700
%
G90
G05
T1
X139.54Y-98.78
X139.843Y-99.53
X140.175Y-100.283
X140.549Y-101.016
X140.963Y-101.726
X141.417Y-102.413
X141.908Y-103.073
X141.982Y-101.327
X142.436Y-103.704
X142.482Y-101.34
X142.998Y-104.304
X143.16Y-98.87
X143.4Y-98.351
X143.593Y-104.872
X144.22Y-105.406
X144.48Y-102.55
X144.8Y-98.45
X144.8Y-99.95
X144.875Y-105.904
X145.557Y-106.364
X145.85Y-99.2
X146.264Y-106.785
X146.38Y-102.55
X146.555Y-98.0
X146.71Y-101.36
X146.9Y-99.95
X146.993Y-107.165
X147.66Y-101.35
X147.7Y-99.201
X147.743Y-107.505
X148.075Y-99.549
X148.46Y-100.294
X148.51Y-107.801
X148.535Y-99.0
X148.84Y-101.78
X148.847Y-100.974
X148.983Y-98.779
X149.293Y-108.054
X149.897Y-103.111
X150.0Y-103.6
X150.089Y-108.262
X150.71Y-104.17
X150.895Y-108.426
X150.966Y-98.779
X151.256Y-99.961
X151.566Y-98.779
X151.657Y-99.37
X151.71Y-108.544
X151.93Y-102.24
X151.93Y-102.77
X152.071Y-104.384
X152.329Y-100.78
X152.529Y-108.616
X152.74Y-107.37
X152.775Y-104.065
X152.95Y-99.21
X153.15Y-102.24
X153.352Y-108.642
X153.383Y-103.413
X153.4Y-107.37
X154.174Y-108.621
X154.37Y-101.86
X154.54Y-99.5
X154.994Y-108.555
X155.19Y-102.92
X155.19Y-104.92
X155.45Y-101.5
X155.512Y-97.67
X155.58Y-102.42
X155.58Y-103.42
X155.58Y-104.42
X155.809Y-108.442
X156.032Y-97.37
X156.13Y-106.87
X156.135Y-101.87
X156.359Y-107.522
X156.37Y-99.68
X156.43Y-103.01
X156.551Y-97.07
X156.58Y-103.72
X156.616Y-108.284
X156.63Y-106.47
X156.64Y-101.47
X157.071Y-96.77
X157.135Y-101.87
X157.135Y-106.87
X157.32Y-103.72
X157.414Y-108.081
X157.59Y-96.47
X157.635Y-101.47
X157.635Y-106.47
X157.69Y-100.21
X157.845Y-104.45
X158.02Y-103.52
X158.111Y-96.18
X158.135Y-101.67
X158.135Y-106.87
X158.198Y-107.833
X158.392Y-98.954
X158.54Y-104.26
X158.56Y-105.09
X158.631Y-96.48
X158.83Y-98.25
X158.968Y-107.542
X159.135Y-106.47
X159.15Y-96.78
X159.67Y-97.08
X159.94Y-98.81
X160.18Y-105.42
X160.19Y-102.42
X160.78Y-96.75
X161.12Y-103.88
X161.19Y-94.83
X161.19Y-96.34
X161.58Y-97.59
X161.93Y-99.42
X162.04Y-101.57
X162.07Y-102.22
X162.43Y-100.38
X162.526Y-104.986
X162.6Y-102.49
X162.83Y-103.07
X162.84Y-99.42
X163.26Y-95.09
X163.38Y-102.07
X163.72Y-97.94
X164.31Y-97.41
X164.394Y-96.037
X164.832Y-103.149
X165.327Y-102.492
X165.625Y-100.56
X165.74Y-98.81
X165.786Y-101.809
X166.045Y-99.65
X166.075Y-100.21
X166.205Y-101.101
X166.583Y-100.37
X166.92Y-99.62
X167.215Y-98.851
X167.465Y-98.068
X167.672Y-97.271
X167.833Y-96.464
X167.948Y-95.65
X168.01Y-94.84
T2
X165.48Y-95.07
X167.08Y-95.07
M30
