%TF.GenerationSoftware,KiCad,Pcbnew,9.0.5*%
%TF.CreationDate,2025-10-30T22:03:55+01:00*%
%TF.ProjectId,36mm PCB,33366d6d-2050-4434-922e-6b696361645f,rev?*%
%TF.SameCoordinates,Original*%
%TF.FileFunction,Soldermask,Bot*%
%TF.FilePolarity,Negative*%
%FSLAX46Y46*%
G04 Gerber Fmt 4.6, Leading zero omitted, Abs format (unit mm)*
G04 Created by KiCad (PCBNEW 9.0.5) date 2025-10-30 22:03:55*
%MOMM*%
%LPD*%
G01*
G04 APERTURE LIST*
G04 Aperture macros list*
%AMRoundRect*
0 Rectangle with rounded corners*
0 $1 Rounding radius*
0 $2 $3 $4 $5 $6 $7 $8 $9 X,Y pos of 4 corners*
0 Add a 4 corners polygon primitive as box body*
4,1,4,$2,$3,$4,$5,$6,$7,$8,$9,$2,$3,0*
0 Add four circle primitives for the rounded corners*
1,1,$1+$1,$2,$3*
1,1,$1+$1,$4,$5*
1,1,$1+$1,$6,$7*
1,1,$1+$1,$8,$9*
0 Add four rect primitives between the rounded corners*
20,1,$1+$1,$2,$3,$4,$5,0*
20,1,$1+$1,$4,$5,$6,$7,0*
20,1,$1+$1,$6,$7,$8,$9,0*
20,1,$1+$1,$8,$9,$2,$3,0*%
%AMRotRect*
0 Rectangle, with rotation*
0 The origin of the aperture is its center*
0 $1 length*
0 $2 width*
0 $3 Rotation angle, in degrees counterclockwise*
0 Add horizontal line*
21,1,$1,$2,0,0,$3*%
%AMFreePoly0*
4,1,6,0.130000,-0.115000,-0.020000,-0.275000,-0.130000,-0.275000,-0.130000,0.115000,0.130000,0.115000,0.130000,-0.115000,0.130000,-0.115000,$1*%
%AMFreePoly1*
4,1,6,0.130000,-0.275000,0.020000,-0.275000,-0.130000,-0.115000,-0.130000,0.115000,0.130000,0.115000,0.130000,-0.275000,0.130000,-0.275000,$1*%
G04 Aperture macros list end*
%ADD10R,1.000000X0.800000*%
%ADD11RoundRect,0.100000X-0.100000X0.130000X-0.100000X-0.130000X0.100000X-0.130000X0.100000X0.130000X0*%
%ADD12RoundRect,0.100000X-0.130000X-0.100000X0.130000X-0.100000X0.130000X0.100000X-0.130000X0.100000X0*%
%ADD13C,1.000000*%
%ADD14RoundRect,0.100000X0.130000X0.100000X-0.130000X0.100000X-0.130000X-0.100000X0.130000X-0.100000X0*%
%ADD15R,0.280000X0.792000*%
%ADD16R,0.250000X0.792000*%
%ADD17R,0.800000X0.250000*%
%ADD18RoundRect,0.140000X0.170000X-0.140000X0.170000X0.140000X-0.170000X0.140000X-0.170000X-0.140000X0*%
%ADD19RoundRect,0.100000X-0.160082X-0.035690X0.075558X-0.145571X0.160082X0.035690X-0.075558X0.145571X0*%
%ADD20RoundRect,0.100000X-0.035690X0.160082X-0.145571X-0.075558X0.035690X-0.160082X0.145571X0.075558X0*%
%ADD21RoundRect,0.140000X-0.170000X0.140000X-0.170000X-0.140000X0.170000X-0.140000X0.170000X0.140000X0*%
%ADD22RoundRect,0.147500X0.147500X0.172500X-0.147500X0.172500X-0.147500X-0.172500X0.147500X-0.172500X0*%
%ADD23R,0.700000X0.300000*%
%ADD24R,1.000000X1.700000*%
%ADD25RoundRect,0.100000X0.035690X-0.160082X0.145571X0.075558X-0.035690X0.160082X-0.145571X-0.075558X0*%
%ADD26RoundRect,0.140000X0.140000X0.170000X-0.140000X0.170000X-0.140000X-0.170000X0.140000X-0.170000X0*%
%ADD27RoundRect,0.050000X-0.300560X0.029815X0.216036X-0.211077X0.300560X-0.029815X-0.216036X0.211077X0*%
%ADD28C,0.215000*%
%ADD29C,0.173000*%
%ADD30FreePoly0,90.000000*%
%ADD31FreePoly1,90.000000*%
%ADD32FreePoly0,270.000000*%
%ADD33FreePoly1,270.000000*%
%ADD34RotRect,0.520000X0.520000X225.000000*%
%ADD35RoundRect,0.100000X0.100000X-0.130000X0.100000X0.130000X-0.100000X0.130000X-0.100000X-0.130000X0*%
%ADD36R,0.325000X0.300000*%
%ADD37R,0.300000X0.325000*%
%ADD38R,0.350000X0.500000*%
%ADD39R,0.900000X0.440000*%
%ADD40R,0.300000X0.340000*%
G04 APERTURE END LIST*
D10*
%TO.C,J2*%
X165480000Y-95070000D03*
X167080000Y-95070000D03*
%TD*%
D11*
%TO.C,C13*%
X159080000Y-105380000D03*
X159080000Y-106020000D03*
%TD*%
D12*
%TO.C,C4*%
X146230000Y-100560000D03*
X146870000Y-100560000D03*
%TD*%
%TO.C,R18*%
X163180000Y-96830000D03*
X163820000Y-96830000D03*
%TD*%
D13*
%TO.C,TP17*%
X155890000Y-105660000D03*
%TD*%
D11*
%TO.C,C11*%
X148300000Y-100860000D03*
X148300000Y-101500000D03*
%TD*%
D14*
%TO.C,R13*%
X157930000Y-100900000D03*
X157290000Y-100900000D03*
%TD*%
D15*
%TO.C,IC8*%
X146180000Y-103291000D03*
D16*
X145680000Y-103291000D03*
X145180000Y-103291000D03*
X144680000Y-103291000D03*
D17*
X144480000Y-102550000D03*
D16*
X144680000Y-101809000D03*
X145180000Y-101809000D03*
X145680000Y-101809000D03*
X146180000Y-101809000D03*
D17*
X146380000Y-102550000D03*
%TD*%
D14*
%TO.C,R14*%
X156530000Y-100900000D03*
X155890000Y-100900000D03*
%TD*%
D18*
%TO.C,C29*%
X158820000Y-98280000D03*
X158820000Y-97320000D03*
%TD*%
D19*
%TO.C,CSPT1*%
X164769982Y-97614763D03*
X165350018Y-97885237D03*
%TD*%
D14*
%TO.C,C38*%
X159330000Y-100900000D03*
X158690000Y-100900000D03*
%TD*%
%TO.C,R5*%
X151190000Y-103680000D03*
X150550000Y-103680000D03*
%TD*%
D13*
%TO.C,TP20*%
X159280000Y-101790000D03*
%TD*%
D20*
%TO.C,R16*%
X164539999Y-100970000D03*
X164269525Y-101550036D03*
%TD*%
D21*
%TO.C,C24*%
X158390000Y-99140000D03*
X158390000Y-100100000D03*
%TD*%
D18*
%TO.C,C22*%
X163260000Y-96049999D03*
X163260000Y-95090001D03*
%TD*%
D13*
%TO.C,TP18*%
X155900000Y-104430000D03*
%TD*%
D22*
%TO.C,D2*%
X157845000Y-104450000D03*
X156875000Y-104450000D03*
%TD*%
D23*
%TO.C,IC3*%
X144800000Y-99950000D03*
X144800000Y-99450000D03*
X144800000Y-98950000D03*
X144800000Y-98450000D03*
X146900000Y-98450000D03*
X146900000Y-98950000D03*
X146900000Y-99450000D03*
X146900000Y-99950000D03*
D24*
X145850000Y-99200000D03*
%TD*%
D11*
%TO.C,R31*%
X156980000Y-105380000D03*
X156980000Y-106020000D03*
%TD*%
D25*
%TO.C,R15*%
X163639524Y-101260036D03*
X163910000Y-100680000D03*
%TD*%
D20*
%TO.C,C20*%
X165170000Y-101270000D03*
X164899524Y-101850036D03*
%TD*%
D11*
%TO.C,R10*%
X151220000Y-104550000D03*
X151220000Y-105190000D03*
%TD*%
D21*
%TO.C,C2*%
X161930000Y-99420000D03*
X161930000Y-100380000D03*
%TD*%
D26*
%TO.C,C19*%
X158980000Y-103520000D03*
X158020000Y-103520000D03*
%TD*%
D14*
%TO.C,C10*%
X152740000Y-105560000D03*
X152100000Y-105560000D03*
%TD*%
D13*
%TO.C,TP16*%
X152150000Y-100000000D03*
%TD*%
D14*
%TO.C,R17*%
X162420000Y-95010000D03*
X161780000Y-95010000D03*
%TD*%
D27*
%TO.C,TPS3424A11C13ADRLR1*%
X164402368Y-99986994D03*
X164613677Y-99533839D03*
X164824987Y-99080686D03*
X165036297Y-98627533D03*
X166377632Y-99253006D03*
X166166323Y-99706161D03*
X165955013Y-100159314D03*
X165743703Y-100612467D03*
%TD*%
D13*
%TO.C,TP19*%
X158010000Y-102460000D03*
%TD*%
%TO.C,J3*%
X166612885Y-96788273D03*
X164347115Y-95731727D03*
%TD*%
D28*
%TO.C,IC2*%
X148610000Y-103100000D03*
X148610000Y-102700000D03*
X148610000Y-102300000D03*
X148210000Y-103100000D03*
X148210000Y-102700000D03*
X148210000Y-102300000D03*
X147810000Y-103100000D03*
X147810000Y-102700000D03*
X147810000Y-102300000D03*
%TD*%
D21*
%TO.C,C35*%
X156430000Y-102050000D03*
X156430000Y-103010000D03*
%TD*%
D29*
%TO.C,IC7*%
X157210000Y-99430000D03*
X156810000Y-99430000D03*
X157210000Y-99830000D03*
X156810000Y-99830000D03*
%TD*%
D11*
%TO.C,C12*%
X159780000Y-105820000D03*
X159780000Y-106460000D03*
%TD*%
D12*
%TO.C,C14*%
X159020000Y-102710000D03*
X159660000Y-102710000D03*
%TD*%
D30*
%TO.C,LDLN025PU2*%
X159785000Y-98215000D03*
D31*
X159785000Y-97565000D03*
D32*
X160755000Y-97565000D03*
D33*
X160755000Y-98215000D03*
D34*
X160270000Y-97890000D03*
%TD*%
D12*
%TO.C,R11*%
X154010000Y-103870000D03*
X154650000Y-103870000D03*
%TD*%
D11*
%TO.C,R4*%
X149390000Y-101800000D03*
X149390000Y-102440000D03*
%TD*%
D14*
%TO.C,R9*%
X153140000Y-102740000D03*
X152500000Y-102740000D03*
%TD*%
D35*
%TO.C,C36*%
X158380000Y-106470000D03*
X158380000Y-105830000D03*
%TD*%
D30*
%TO.C,LDLN025PU1*%
X162445000Y-98585000D03*
D31*
X162445000Y-97935001D03*
D32*
X163415000Y-97935000D03*
D33*
X163415000Y-98584999D03*
D34*
X162930000Y-98260000D03*
%TD*%
D21*
%TO.C,C30*%
X161590000Y-97590000D03*
X161590000Y-98550000D03*
%TD*%
D35*
%TO.C,R29*%
X153950000Y-103140000D03*
X153950000Y-102500000D03*
%TD*%
D19*
%TO.C,CLPT1*%
X166029982Y-98204762D03*
X166610018Y-98475238D03*
%TD*%
D14*
%TO.C,C9*%
X148340000Y-103870000D03*
X147700000Y-103870000D03*
%TD*%
D35*
%TO.C,R3*%
X149390000Y-103840000D03*
X149390000Y-103200000D03*
%TD*%
D36*
%TO.C,U1*%
X151850000Y-104440000D03*
X151850000Y-103940000D03*
D37*
X152100000Y-103415000D03*
X152600000Y-103415000D03*
X153100000Y-103415000D03*
D36*
X153350000Y-103940000D03*
X153350000Y-104440000D03*
D37*
X153100000Y-104965000D03*
X152600000Y-104965000D03*
X152100000Y-104965000D03*
%TD*%
D25*
%TO.C,R27*%
X162584762Y-101880018D03*
X162855238Y-101299982D03*
%TD*%
D38*
%TO.C,Q7*%
X162525000Y-96760000D03*
X161875000Y-96760000D03*
D39*
X162200000Y-96070000D03*
D40*
X162200000Y-95680000D03*
%TD*%
D11*
%TO.C,R32*%
X147600000Y-99870000D03*
X147600000Y-100510000D03*
%TD*%
%TO.C,C37*%
X157680000Y-105300000D03*
X157680000Y-105940000D03*
%TD*%
D21*
%TO.C,C1*%
X162840000Y-99420000D03*
X162840000Y-100380000D03*
%TD*%
D12*
%TO.C,C23*%
X156470000Y-98360000D03*
X157110000Y-98360000D03*
%TD*%
D14*
%TO.C,C3*%
X145470000Y-100560000D03*
X144830000Y-100560000D03*
%TD*%
D35*
%TO.C,R28*%
X154660000Y-103140000D03*
X154660000Y-102500000D03*
%TD*%
D20*
%TO.C,C21*%
X164485237Y-98279982D03*
X164214763Y-98860018D03*
%TD*%
D13*
%TO.C,TP21*%
X159440000Y-104500000D03*
%TD*%
D11*
%TO.C,C27*%
X157240000Y-102410000D03*
X157240000Y-103050000D03*
%TD*%
M02*
