%TF.GenerationSoftware,KiCad,Pcbnew,9.0.5*%
%TF.CreationDate,2025-10-30T22:03:55+01:00*%
%TF.ProjectId,36mm PCB,33366d6d-2050-4434-922e-6b696361645f,rev?*%
%TF.SameCoordinates,Original*%
%TF.FileFunction,Profile,NP*%
%FSLAX46Y46*%
G04 Gerber Fmt 4.6, Leading zero omitted, Abs format (unit mm)*
G04 Created by KiCad (PCBNEW 9.0.5) date 2025-10-30 22:03:55*
%MOMM*%
%LPD*%
G01*
G04 APERTURE LIST*
%TA.AperFunction,Profile*%
%ADD10C,0.050000*%
%TD*%
G04 APERTURE END LIST*
D10*
X158111627Y-95820000D02*
X152083025Y-99300450D01*
X168331627Y-94530000D02*
G75*
G02*
X139117203Y-98478556I-14941627J499980D01*
G01*
X147362891Y-97379312D02*
X145690000Y-97379312D01*
X142345587Y-98478557D02*
X139117200Y-98478557D01*
X147362891Y-98478557D02*
X151783881Y-98478557D01*
X150450000Y-100000000D02*
G75*
G02*
X149550000Y-100000000I-450000J0D01*
G01*
X149550000Y-100000000D02*
G75*
G02*
X150450000Y-100000000I450000J0D01*
G01*
X152083025Y-99300450D02*
X151783881Y-98478557D01*
X145280000Y-97785541D02*
X145690000Y-97379312D01*
X151363803Y-100684444D02*
X151363798Y-102990586D01*
X142380000Y-100000000D02*
G75*
G02*
X141480000Y-100000000I-450000J0D01*
G01*
X141480000Y-100000000D02*
G75*
G02*
X142380000Y-100000000I450000J0D01*
G01*
X143040000Y-97785541D02*
X145280000Y-97785541D01*
X168331627Y-94530000D02*
X160894149Y-94530000D01*
X160305978Y-97089282D02*
X158111627Y-95820000D01*
X160894149Y-94530000D02*
G75*
G02*
X160305985Y-97089285I-7721949J427400D01*
G01*
X143040000Y-97785541D02*
X142345587Y-98478557D01*
X150426237Y-102802010D02*
G75*
G02*
X149813792Y-102024309I187563J777710D01*
G01*
X147362891Y-98478557D02*
X147362891Y-97379312D01*
X151255357Y-100621833D02*
G75*
G02*
X151093363Y-100711864I-167057J109833D01*
G01*
X149813803Y-102024309D02*
G75*
G02*
X151093364Y-100711924I1312797J9D01*
G01*
X151255357Y-100621833D02*
X151363803Y-100684444D01*
X151363796Y-102990584D02*
G75*
G02*
X150426236Y-102802013I1999004J12363884D01*
G01*
M02*
