%TF.GenerationSoftware,KiCad,Pcbnew,9.0.5*%
%TF.CreationDate,2025-10-30T22:03:55+01:00*%
%TF.ProjectId,36mm PCB,33366d6d-2050-4434-922e-6b696361645f,rev?*%
%TF.SameCoordinates,Original*%
%TF.FileFunction,Copper,L2,Inr*%
%TF.FilePolarity,Positive*%
%FSLAX46Y46*%
G04 Gerber Fmt 4.6, Leading zero omitted, Abs format (unit mm)*
G04 Created by KiCad (PCBNEW 9.0.5) date 2025-10-30 22:03:55*
%MOMM*%
%LPD*%
G01*
G04 APERTURE LIST*
%TA.AperFunction,ComponentPad*%
%ADD10R,1.000000X0.800000*%
%TD*%
%TA.AperFunction,ViaPad*%
%ADD11C,0.400000*%
%TD*%
G04 APERTURE END LIST*
D10*
%TO.N,+3V0*%
%TO.C,J2*%
X165480000Y-95070000D03*
%TO.N,GND*%
X167080000Y-95070000D03*
%TD*%
D11*
%TO.N,GND*%
X151930000Y-102770000D03*
X151930000Y-102240000D03*
X151565954Y-98778557D03*
X150965954Y-98778557D03*
X162430000Y-100380000D03*
X160780000Y-96750000D03*
X164310000Y-97410000D03*
X158560000Y-105090000D03*
X158540000Y-104260000D03*
X157320000Y-103720000D03*
X156580000Y-103720000D03*
X157845000Y-104450000D03*
X145850000Y-99200000D03*
X159940000Y-98810000D03*
X162830000Y-103070000D03*
X140174791Y-100282707D03*
X145556824Y-106363784D03*
X167832791Y-96464370D03*
X163260000Y-95090001D03*
X167948428Y-95649789D03*
X167671581Y-97271170D03*
X151709590Y-108543764D03*
X148510174Y-107801021D03*
X168010000Y-94840000D03*
X146993070Y-107165478D03*
X158111156Y-96180002D03*
X166583318Y-100370140D03*
X155511928Y-97669994D03*
X165740000Y-98810000D03*
X166920316Y-99619575D03*
X158020000Y-103520000D03*
X154994071Y-108554639D03*
X167214622Y-98851267D03*
X156031544Y-97369993D03*
X159670000Y-97080000D03*
X156430000Y-103010000D03*
X158967765Y-107541734D03*
X141908027Y-103072657D03*
X142435781Y-103703838D03*
X146263680Y-106784815D03*
X156359200Y-107521581D03*
X165327473Y-102491993D03*
X158630771Y-96480002D03*
X155809089Y-108442121D03*
X164831647Y-103148553D03*
X157590386Y-96469999D03*
X140962929Y-101726437D03*
X153400000Y-107370000D03*
X157070770Y-96770000D03*
X143593376Y-104872382D03*
X149293098Y-108053893D03*
X150895336Y-108425853D03*
X156616499Y-108284001D03*
X140548570Y-101015648D03*
X139842771Y-99529927D03*
X152529183Y-108615753D03*
X162526202Y-104986315D03*
X166204694Y-101100590D03*
X142998156Y-104304378D03*
X152740000Y-107370000D03*
X150088989Y-108262390D03*
X157413754Y-108080779D03*
X158198335Y-107833096D03*
X144219560Y-105406055D03*
X139540000Y-98780000D03*
X154174020Y-108621199D03*
X167465307Y-98067640D03*
X147742691Y-107504570D03*
X153351525Y-108641592D03*
X159150385Y-96780000D03*
X156551154Y-97070001D03*
X153382512Y-103412512D03*
X144800000Y-98450000D03*
X147660000Y-101350000D03*
X165785638Y-101808620D03*
X141416558Y-102412829D03*
X144480000Y-102550000D03*
X144874732Y-105903713D03*
%TO.N,+3.3V*%
X148840000Y-101780000D03*
X144800000Y-99950000D03*
X150710000Y-104170000D03*
X159135000Y-106470000D03*
X146380000Y-102550000D03*
X160190000Y-102420000D03*
X154370000Y-101860000D03*
X158135000Y-106870000D03*
X146900000Y-99950000D03*
X161930000Y-99420000D03*
X157690000Y-100210000D03*
X158392122Y-98953911D03*
X156135000Y-101870000D03*
%TO.N,Net-(C20-Pad2)*%
X163380000Y-102070000D03*
%TO.N,+3V0*%
X161580000Y-97590000D03*
X155450000Y-101500000D03*
X162840000Y-99420000D03*
%TO.N,/Peripherals/VDDIO*%
X152070847Y-104384273D03*
%TO.N,Net-(IC2-CRST)*%
X146710000Y-101360000D03*
%TO.N,/Power/Charge +*%
X164393692Y-96037382D03*
X146555002Y-97999998D03*
%TO.N,/NRST*%
X157635000Y-101470000D03*
%TO.N,+1V8*%
X152774641Y-104064641D03*
X158830000Y-98250000D03*
%TO.N,Net-(D1-VCAP)*%
X158135000Y-101670000D03*
%TO.N,/I2C_SCL*%
X149897012Y-103110719D03*
X157135000Y-101870000D03*
%TO.N,/SWDIO*%
X155190000Y-104920000D03*
%TO.N,/H_Tim2*%
X155580000Y-102420000D03*
X148983266Y-98778557D03*
%TO.N,/Button press*%
X162070000Y-102220000D03*
X160180000Y-105420000D03*
%TO.N,/DEBLED*%
X157635000Y-106470000D03*
%TO.N,/H_on_GPIO*%
X156630000Y-106470000D03*
X147700000Y-99201000D03*
%TO.N,/H_Tim1*%
X148534974Y-98999999D03*
X155190000Y-102920000D03*
%TO.N,/Select dial*%
X156130000Y-106870000D03*
X148460000Y-100294323D03*
%TO.N,/I2C_SDA*%
X156640000Y-101470000D03*
X153149592Y-102240000D03*
X150000000Y-103600000D03*
%TO.N,/PCF_Reset*%
X157135000Y-106870000D03*
X156370000Y-99680000D03*
%TO.N,/SWCLK*%
X155580000Y-104420000D03*
%TO.N,/BMP581_INT*%
X155580000Y-103420000D03*
%TO.N,/Dial/MOT1*%
X152329119Y-100779693D03*
X143400000Y-98351003D03*
X148847277Y-100973924D03*
%TO.N,/Dial/VDD PROG*%
X151256277Y-99961251D03*
%TO.N,/Dial/MOT2*%
X143160000Y-98870000D03*
X151657420Y-99369628D03*
%TO.N,Net-(IC1-RESET)*%
X154540000Y-99499999D03*
X152950000Y-99210000D03*
%TO.N,/Power/STAT*%
X148074517Y-99549495D03*
X161190000Y-94830000D03*
%TO.N,Net-(IC5-PROG)*%
X161190000Y-96340000D03*
%TO.N,Net-(IC8-1D-)*%
X142482000Y-101340000D03*
%TO.N,Net-(IC8-1D+)*%
X141982169Y-101326916D03*
%TO.N,Net-(LDLN025PU1-EN)*%
X162040000Y-101570000D03*
X163720000Y-97940000D03*
X166044763Y-99650018D03*
%TO.N,Net-(TPS3424A11C13ADRLR1-~INT~)*%
X166074763Y-100210018D03*
X161120000Y-103880000D03*
%TO.N,Net-(TPS3424A11C13ADRLR1-kill)*%
X162600000Y-102490000D03*
X165624763Y-100560018D03*
%TD*%
%TA.AperFunction,Conductor*%
%TO.N,GND*%
G36*
X164822539Y-94650185D02*
G01*
X164868294Y-94702989D01*
X164879500Y-94754500D01*
X164879500Y-95479894D01*
X164879501Y-95479902D01*
X164885330Y-95509212D01*
X164907542Y-95542457D01*
X164924219Y-95553599D01*
X164940787Y-95564669D01*
X164940790Y-95564669D01*
X164940791Y-95564670D01*
X164950647Y-95566630D01*
X164970101Y-95570500D01*
X165989898Y-95570499D01*
X166019213Y-95564669D01*
X166052457Y-95542457D01*
X166074669Y-95509213D01*
X166080500Y-95479899D01*
X166080499Y-94754499D01*
X166100183Y-94687461D01*
X166152987Y-94641706D01*
X166204499Y-94630500D01*
X168093515Y-94630500D01*
X168160554Y-94650185D01*
X168206309Y-94702989D01*
X168217300Y-94761806D01*
X168186732Y-95279683D01*
X168186198Y-95285987D01*
X168103750Y-96032641D01*
X168102895Y-96038908D01*
X167982485Y-96780349D01*
X167981313Y-96786565D01*
X167823235Y-97520960D01*
X167821746Y-97527108D01*
X167626433Y-98252447D01*
X167624633Y-98258511D01*
X167392582Y-98972954D01*
X167390475Y-98978919D01*
X167122293Y-99680599D01*
X167119885Y-99686448D01*
X166816270Y-100373535D01*
X166813567Y-100379254D01*
X166475296Y-101049989D01*
X166472304Y-101055562D01*
X166100285Y-101708142D01*
X166097013Y-101713556D01*
X165692191Y-102346331D01*
X165688647Y-102351571D01*
X165252085Y-102962871D01*
X165248279Y-102967923D01*
X164781105Y-103556176D01*
X164777046Y-103561027D01*
X164280489Y-104124680D01*
X164276196Y-104129309D01*
X164111569Y-104297999D01*
X163751533Y-104666916D01*
X163747001Y-104671328D01*
X163195610Y-105181474D01*
X163190859Y-105185650D01*
X162614177Y-105667007D01*
X162609219Y-105670936D01*
X162008719Y-106122274D01*
X162003567Y-106125944D01*
X161380848Y-106546060D01*
X161375515Y-106549463D01*
X160732184Y-106937275D01*
X160726686Y-106940401D01*
X160064405Y-107294907D01*
X160058754Y-107297749D01*
X159379273Y-107618013D01*
X159373484Y-107620563D01*
X158678543Y-107905763D01*
X158672631Y-107908015D01*
X157964048Y-108157404D01*
X157958030Y-108159351D01*
X157237659Y-108372280D01*
X157231549Y-108373918D01*
X156501250Y-108549835D01*
X156495065Y-108551159D01*
X155756745Y-108689605D01*
X155750500Y-108690612D01*
X155006082Y-108791226D01*
X154999793Y-108791913D01*
X154251205Y-108854434D01*
X154244890Y-108854799D01*
X153494106Y-108879063D01*
X153487781Y-108879106D01*
X152736740Y-108865052D01*
X152730420Y-108864773D01*
X151981036Y-108812433D01*
X151974740Y-108811831D01*
X151229035Y-108721350D01*
X151222776Y-108720428D01*
X150482637Y-108592031D01*
X150476435Y-108590791D01*
X149743833Y-108424824D01*
X149737701Y-108423270D01*
X149014487Y-108220150D01*
X149008443Y-108218285D01*
X148296541Y-107978554D01*
X148290599Y-107976383D01*
X147591838Y-107700654D01*
X147586016Y-107698183D01*
X146902240Y-107387187D01*
X146896550Y-107384422D01*
X146229506Y-107038950D01*
X146223965Y-107035898D01*
X146041684Y-106929367D01*
X145872410Y-106830438D01*
X155829500Y-106830438D01*
X155829500Y-106909562D01*
X155843152Y-106960513D01*
X155849979Y-106985990D01*
X155849982Y-106985995D01*
X155889535Y-107054504D01*
X155889539Y-107054509D01*
X155889540Y-107054511D01*
X155945489Y-107110460D01*
X155945491Y-107110461D01*
X155945495Y-107110464D01*
X156014004Y-107150017D01*
X156014011Y-107150021D01*
X156090438Y-107170500D01*
X156090440Y-107170500D01*
X156169560Y-107170500D01*
X156169562Y-107170500D01*
X156245989Y-107150021D01*
X156314511Y-107110460D01*
X156370460Y-107054511D01*
X156410021Y-106985989D01*
X156430500Y-106909562D01*
X156430500Y-106889244D01*
X156450185Y-106822205D01*
X156502989Y-106776450D01*
X156553435Y-106765249D01*
X156570300Y-106765104D01*
X156590438Y-106770500D01*
X156669562Y-106770500D01*
X156693653Y-106764044D01*
X156709435Y-106763909D01*
X156728466Y-106769320D01*
X156748251Y-106769790D01*
X156761387Y-106778680D01*
X156776641Y-106783017D01*
X156789726Y-106797859D01*
X156806115Y-106808950D01*
X156812358Y-106823528D01*
X156822848Y-106835426D01*
X156825832Y-106854988D01*
X156833622Y-106873177D01*
X156834500Y-106887904D01*
X156834500Y-106909562D01*
X156848152Y-106960513D01*
X156854979Y-106985990D01*
X156854982Y-106985995D01*
X156894535Y-107054504D01*
X156894539Y-107054509D01*
X156894540Y-107054511D01*
X156950489Y-107110460D01*
X156950491Y-107110461D01*
X156950495Y-107110464D01*
X157019004Y-107150017D01*
X157019011Y-107150021D01*
X157095438Y-107170500D01*
X157095440Y-107170500D01*
X157174560Y-107170500D01*
X157174562Y-107170500D01*
X157250989Y-107150021D01*
X157319511Y-107110460D01*
X157375460Y-107054511D01*
X157415021Y-106985989D01*
X157435500Y-106909562D01*
X157435500Y-106889244D01*
X157455185Y-106822205D01*
X157507989Y-106776450D01*
X157559500Y-106765244D01*
X157575823Y-106765244D01*
X157595438Y-106770500D01*
X157674562Y-106770500D01*
X157694177Y-106765244D01*
X157710500Y-106765244D01*
X157728987Y-106770672D01*
X157748251Y-106771130D01*
X157761821Y-106780313D01*
X157777539Y-106784929D01*
X157790155Y-106799489D01*
X157806115Y-106810290D01*
X157812565Y-106825351D01*
X157823294Y-106837733D01*
X157826036Y-106856804D01*
X157833622Y-106874517D01*
X157834500Y-106889244D01*
X157834500Y-106909562D01*
X157848152Y-106960513D01*
X157854979Y-106985990D01*
X157854982Y-106985995D01*
X157894535Y-107054504D01*
X157894539Y-107054509D01*
X157894540Y-107054511D01*
X157950489Y-107110460D01*
X157950491Y-107110461D01*
X157950495Y-107110464D01*
X158019004Y-107150017D01*
X158019011Y-107150021D01*
X158095438Y-107170500D01*
X158095440Y-107170500D01*
X158174560Y-107170500D01*
X158174562Y-107170500D01*
X158250989Y-107150021D01*
X158319511Y-107110460D01*
X158375460Y-107054511D01*
X158415021Y-106985989D01*
X158435500Y-106909562D01*
X158435500Y-106830438D01*
X158415021Y-106754011D01*
X158412715Y-106750017D01*
X158375464Y-106685495D01*
X158375458Y-106685487D01*
X158319512Y-106629541D01*
X158319504Y-106629535D01*
X158250995Y-106589982D01*
X158250990Y-106589979D01*
X158225513Y-106583152D01*
X158174562Y-106569500D01*
X158095438Y-106569500D01*
X158095437Y-106569500D01*
X158091590Y-106570531D01*
X158088219Y-106570450D01*
X158087381Y-106570561D01*
X158087363Y-106570430D01*
X158066596Y-106569935D01*
X158041853Y-106573493D01*
X158032270Y-106569117D01*
X158021740Y-106568866D01*
X158001037Y-106554853D01*
X157978297Y-106544468D01*
X157972601Y-106535606D01*
X157963879Y-106529702D01*
X157954038Y-106506720D01*
X157940523Y-106485690D01*
X157938242Y-106469831D01*
X157936376Y-106465472D01*
X157935500Y-106450755D01*
X157935500Y-106430439D01*
X157935500Y-106430438D01*
X158834500Y-106430438D01*
X158834500Y-106509562D01*
X158841479Y-106535606D01*
X158854979Y-106585990D01*
X158854982Y-106585995D01*
X158894535Y-106654504D01*
X158894539Y-106654509D01*
X158894540Y-106654511D01*
X158950489Y-106710460D01*
X158950491Y-106710461D01*
X158950495Y-106710464D01*
X159019004Y-106750017D01*
X159019011Y-106750021D01*
X159095438Y-106770500D01*
X159095440Y-106770500D01*
X159174560Y-106770500D01*
X159174562Y-106770500D01*
X159250989Y-106750021D01*
X159319511Y-106710460D01*
X159375460Y-106654511D01*
X159415021Y-106585989D01*
X159435500Y-106509562D01*
X159435500Y-106430438D01*
X159415021Y-106354011D01*
X159415017Y-106354004D01*
X159375464Y-106285495D01*
X159375458Y-106285487D01*
X159319512Y-106229541D01*
X159319504Y-106229535D01*
X159250995Y-106189982D01*
X159250990Y-106189979D01*
X159225513Y-106183152D01*
X159174562Y-106169500D01*
X159095438Y-106169500D01*
X159057224Y-106179739D01*
X159019009Y-106189979D01*
X159019004Y-106189982D01*
X158950495Y-106229535D01*
X158950487Y-106229541D01*
X158894541Y-106285487D01*
X158894535Y-106285495D01*
X158854982Y-106354004D01*
X158854979Y-106354009D01*
X158841326Y-106404962D01*
X158834500Y-106430438D01*
X157935500Y-106430438D01*
X157915020Y-106354009D01*
X157915017Y-106354004D01*
X157875464Y-106285495D01*
X157875458Y-106285487D01*
X157819512Y-106229541D01*
X157819504Y-106229535D01*
X157750995Y-106189982D01*
X157750990Y-106189979D01*
X157725513Y-106183152D01*
X157674562Y-106169500D01*
X157595438Y-106169500D01*
X157557224Y-106179739D01*
X157519009Y-106189979D01*
X157519004Y-106189982D01*
X157450495Y-106229535D01*
X157450487Y-106229541D01*
X157394541Y-106285487D01*
X157394535Y-106285495D01*
X157354982Y-106354004D01*
X157354979Y-106354009D01*
X157334500Y-106430439D01*
X157334500Y-106450755D01*
X157314815Y-106517794D01*
X157262011Y-106563549D01*
X157211565Y-106574750D01*
X157194695Y-106574894D01*
X157174562Y-106569500D01*
X157095438Y-106569500D01*
X157071350Y-106575954D01*
X157055565Y-106576090D01*
X157036530Y-106570678D01*
X157016743Y-106570207D01*
X157003610Y-106561318D01*
X156988359Y-106556982D01*
X156975271Y-106542137D01*
X156958881Y-106531044D01*
X156952639Y-106516467D01*
X156942152Y-106504573D01*
X156939167Y-106485006D01*
X156931377Y-106466815D01*
X156930500Y-106452095D01*
X156930500Y-106430439D01*
X156910020Y-106354009D01*
X156910017Y-106354004D01*
X156870464Y-106285495D01*
X156870458Y-106285487D01*
X156814512Y-106229541D01*
X156814504Y-106229535D01*
X156745995Y-106189982D01*
X156745990Y-106189979D01*
X156720513Y-106183152D01*
X156669562Y-106169500D01*
X156590438Y-106169500D01*
X156552224Y-106179739D01*
X156514009Y-106189979D01*
X156514004Y-106189982D01*
X156445495Y-106229535D01*
X156445487Y-106229541D01*
X156389541Y-106285487D01*
X156389535Y-106285495D01*
X156349982Y-106354004D01*
X156349979Y-106354009D01*
X156329500Y-106430439D01*
X156329500Y-106450755D01*
X156309815Y-106517794D01*
X156257011Y-106563549D01*
X156187853Y-106573493D01*
X156173410Y-106570531D01*
X156169562Y-106569500D01*
X156090438Y-106569500D01*
X156052224Y-106579739D01*
X156014009Y-106589979D01*
X156014004Y-106589982D01*
X155945495Y-106629535D01*
X155945487Y-106629541D01*
X155889541Y-106685487D01*
X155889535Y-106685495D01*
X155849982Y-106754004D01*
X155849979Y-106754009D01*
X155841694Y-106784929D01*
X155829500Y-106830438D01*
X145872410Y-106830438D01*
X145575424Y-106656870D01*
X145570046Y-106653540D01*
X144941669Y-106241926D01*
X144936468Y-106238326D01*
X144329911Y-105795211D01*
X144324900Y-105791351D01*
X144234820Y-105718216D01*
X143818781Y-105380438D01*
X159879500Y-105380438D01*
X159879500Y-105459562D01*
X159881916Y-105468577D01*
X159899979Y-105535990D01*
X159899982Y-105535995D01*
X159939535Y-105604504D01*
X159939539Y-105604509D01*
X159939540Y-105604511D01*
X159995489Y-105660460D01*
X159995491Y-105660461D01*
X159995495Y-105660464D01*
X160064004Y-105700017D01*
X160064011Y-105700021D01*
X160140438Y-105720500D01*
X160140440Y-105720500D01*
X160219560Y-105720500D01*
X160219562Y-105720500D01*
X160295989Y-105700021D01*
X160364511Y-105660460D01*
X160420460Y-105604511D01*
X160460021Y-105535989D01*
X160480500Y-105459562D01*
X160480500Y-105380438D01*
X160460021Y-105304011D01*
X160460017Y-105304004D01*
X160420464Y-105235495D01*
X160420458Y-105235487D01*
X160364512Y-105179541D01*
X160364504Y-105179535D01*
X160295995Y-105139982D01*
X160295990Y-105139979D01*
X160270513Y-105133152D01*
X160219562Y-105119500D01*
X160140438Y-105119500D01*
X160102224Y-105129739D01*
X160064009Y-105139979D01*
X160064004Y-105139982D01*
X159995495Y-105179535D01*
X159995487Y-105179541D01*
X159939541Y-105235487D01*
X159939535Y-105235495D01*
X159899982Y-105304004D01*
X159899979Y-105304009D01*
X159886326Y-105354962D01*
X159879500Y-105380438D01*
X143818781Y-105380438D01*
X143741719Y-105317872D01*
X143736911Y-105313761D01*
X143348924Y-104964466D01*
X143255588Y-104880438D01*
X154889500Y-104880438D01*
X154889500Y-104959562D01*
X154903152Y-105010513D01*
X154909979Y-105035990D01*
X154909982Y-105035995D01*
X154949535Y-105104504D01*
X154949539Y-105104509D01*
X154949540Y-105104511D01*
X155005489Y-105160460D01*
X155005491Y-105160461D01*
X155005495Y-105160464D01*
X155074004Y-105200017D01*
X155074011Y-105200021D01*
X155150438Y-105220500D01*
X155150440Y-105220500D01*
X155229560Y-105220500D01*
X155229562Y-105220500D01*
X155305989Y-105200021D01*
X155374511Y-105160460D01*
X155430460Y-105104511D01*
X155470021Y-105035989D01*
X155490500Y-104959562D01*
X155490500Y-104880438D01*
X155489469Y-104876590D01*
X155489549Y-104873219D01*
X155489439Y-104872381D01*
X155489569Y-104872363D01*
X155491134Y-104806740D01*
X155530298Y-104748879D01*
X155594528Y-104721376D01*
X155609245Y-104720500D01*
X155619560Y-104720500D01*
X155619562Y-104720500D01*
X155695989Y-104700021D01*
X155764511Y-104660460D01*
X155820460Y-104604511D01*
X155860021Y-104535989D01*
X155880500Y-104459562D01*
X155880500Y-104380438D01*
X155860021Y-104304011D01*
X155856550Y-104297999D01*
X155820464Y-104235495D01*
X155820458Y-104235487D01*
X155764512Y-104179541D01*
X155764504Y-104179535D01*
X155695995Y-104139982D01*
X155695990Y-104139979D01*
X155660382Y-104130438D01*
X155619562Y-104119500D01*
X155540438Y-104119500D01*
X155503794Y-104129319D01*
X155464009Y-104139979D01*
X155464004Y-104139982D01*
X155395495Y-104179535D01*
X155395487Y-104179541D01*
X155339541Y-104235487D01*
X155339535Y-104235495D01*
X155299982Y-104304004D01*
X155299979Y-104304009D01*
X155279500Y-104380439D01*
X155279500Y-104459562D01*
X155280531Y-104463410D01*
X155280450Y-104466780D01*
X155280561Y-104467619D01*
X155280430Y-104467636D01*
X155278866Y-104533260D01*
X155239702Y-104591121D01*
X155175472Y-104618624D01*
X155160755Y-104619500D01*
X155150438Y-104619500D01*
X155112224Y-104629739D01*
X155074009Y-104639979D01*
X155074004Y-104639982D01*
X155005495Y-104679535D01*
X155005487Y-104679541D01*
X154949541Y-104735487D01*
X154949535Y-104735495D01*
X154909982Y-104804004D01*
X154909979Y-104804009D01*
X154896326Y-104854962D01*
X154889500Y-104880438D01*
X143255588Y-104880438D01*
X143178623Y-104811148D01*
X143174032Y-104806797D01*
X142789984Y-104423833D01*
X142642119Y-104276385D01*
X142637762Y-104271812D01*
X142577758Y-104205539D01*
X142577755Y-104205536D01*
X142509761Y-104130438D01*
X150409500Y-104130438D01*
X150409500Y-104209562D01*
X150420108Y-104249152D01*
X150429979Y-104285990D01*
X150429982Y-104285995D01*
X150469535Y-104354504D01*
X150469539Y-104354509D01*
X150469540Y-104354511D01*
X150525489Y-104410460D01*
X150525491Y-104410461D01*
X150525495Y-104410464D01*
X150548655Y-104423835D01*
X150594011Y-104450021D01*
X150670438Y-104470500D01*
X150670440Y-104470500D01*
X150749560Y-104470500D01*
X150749562Y-104470500D01*
X150825989Y-104450021D01*
X150894511Y-104410460D01*
X150950460Y-104354511D01*
X150956118Y-104344711D01*
X151770347Y-104344711D01*
X151770347Y-104423835D01*
X151777364Y-104450021D01*
X151790826Y-104500263D01*
X151790829Y-104500268D01*
X151830382Y-104568777D01*
X151830386Y-104568782D01*
X151830387Y-104568784D01*
X151886336Y-104624733D01*
X151886338Y-104624734D01*
X151886342Y-104624737D01*
X151912748Y-104639982D01*
X151954858Y-104664294D01*
X152031285Y-104684773D01*
X152031287Y-104684773D01*
X152110407Y-104684773D01*
X152110409Y-104684773D01*
X152186836Y-104664294D01*
X152255358Y-104624733D01*
X152311307Y-104568784D01*
X152350868Y-104500262D01*
X152371347Y-104423835D01*
X152371347Y-104385680D01*
X152391032Y-104318641D01*
X152443836Y-104272886D01*
X152512994Y-104262942D01*
X152576550Y-104291967D01*
X152583028Y-104297999D01*
X152590130Y-104305101D01*
X152590132Y-104305102D01*
X152590136Y-104305105D01*
X152658645Y-104344658D01*
X152658652Y-104344662D01*
X152735079Y-104365141D01*
X152735081Y-104365141D01*
X152814201Y-104365141D01*
X152814203Y-104365141D01*
X152890630Y-104344662D01*
X152959152Y-104305101D01*
X153015101Y-104249152D01*
X153054662Y-104180630D01*
X153075141Y-104104203D01*
X153075141Y-104025079D01*
X153054662Y-103948652D01*
X153020789Y-103889982D01*
X153015105Y-103880136D01*
X153015099Y-103880128D01*
X152975409Y-103840438D01*
X160819500Y-103840438D01*
X160819500Y-103919562D01*
X160827295Y-103948652D01*
X160839979Y-103995990D01*
X160839982Y-103995995D01*
X160879535Y-104064504D01*
X160879539Y-104064509D01*
X160879540Y-104064511D01*
X160935489Y-104120460D01*
X160935491Y-104120461D01*
X160935495Y-104120464D01*
X160988239Y-104150915D01*
X161004011Y-104160021D01*
X161080438Y-104180500D01*
X161080440Y-104180500D01*
X161159560Y-104180500D01*
X161159562Y-104180500D01*
X161235989Y-104160021D01*
X161304511Y-104120460D01*
X161360460Y-104064511D01*
X161400021Y-103995989D01*
X161420500Y-103919562D01*
X161420500Y-103840438D01*
X161400021Y-103764011D01*
X161372299Y-103715995D01*
X161360464Y-103695495D01*
X161360458Y-103695487D01*
X161304512Y-103639541D01*
X161304504Y-103639535D01*
X161235995Y-103599982D01*
X161235990Y-103599979D01*
X161210513Y-103593152D01*
X161159562Y-103579500D01*
X161080438Y-103579500D01*
X161042224Y-103589739D01*
X161004009Y-103599979D01*
X161004004Y-103599982D01*
X160935495Y-103639535D01*
X160935487Y-103639541D01*
X160879541Y-103695487D01*
X160879535Y-103695495D01*
X160839982Y-103764004D01*
X160839979Y-103764009D01*
X160834456Y-103784623D01*
X160819500Y-103840438D01*
X152975409Y-103840438D01*
X152959153Y-103824182D01*
X152959145Y-103824176D01*
X152890636Y-103784623D01*
X152890631Y-103784620D01*
X152865154Y-103777793D01*
X152814203Y-103764141D01*
X152735079Y-103764141D01*
X152696865Y-103774380D01*
X152658650Y-103784620D01*
X152658645Y-103784623D01*
X152590136Y-103824176D01*
X152590128Y-103824182D01*
X152534182Y-103880128D01*
X152534176Y-103880136D01*
X152494623Y-103948645D01*
X152494620Y-103948650D01*
X152474141Y-104025080D01*
X152474141Y-104063234D01*
X152454456Y-104130273D01*
X152401652Y-104176028D01*
X152332494Y-104185972D01*
X152268938Y-104156947D01*
X152262460Y-104150915D01*
X152255359Y-104143814D01*
X152255351Y-104143808D01*
X152186842Y-104104255D01*
X152186837Y-104104252D01*
X152161360Y-104097425D01*
X152110409Y-104083773D01*
X152031285Y-104083773D01*
X151993071Y-104094012D01*
X151954856Y-104104252D01*
X151954851Y-104104255D01*
X151886342Y-104143808D01*
X151886334Y-104143814D01*
X151830388Y-104199760D01*
X151830382Y-104199768D01*
X151790829Y-104268277D01*
X151790826Y-104268282D01*
X151777333Y-104318641D01*
X151770347Y-104344711D01*
X150956118Y-104344711D01*
X150990021Y-104285989D01*
X151010500Y-104209562D01*
X151010500Y-104130438D01*
X150990021Y-104054011D01*
X150956523Y-103995990D01*
X150950464Y-103985495D01*
X150950458Y-103985487D01*
X150894512Y-103929541D01*
X150894504Y-103929535D01*
X150825995Y-103889982D01*
X150825990Y-103889979D01*
X150789255Y-103880136D01*
X150749562Y-103869500D01*
X150670438Y-103869500D01*
X150632224Y-103879739D01*
X150594009Y-103889979D01*
X150594004Y-103889982D01*
X150525495Y-103929535D01*
X150525487Y-103929541D01*
X150469541Y-103985487D01*
X150469535Y-103985495D01*
X150429982Y-104054004D01*
X150429979Y-104054009D01*
X150427167Y-104064504D01*
X150409500Y-104130438D01*
X142509761Y-104130438D01*
X142133567Y-103714940D01*
X142129473Y-103710180D01*
X141665061Y-103141457D01*
X141654324Y-103128308D01*
X141650451Y-103123310D01*
X141626770Y-103091086D01*
X141612125Y-103071157D01*
X149596512Y-103071157D01*
X149596512Y-103150281D01*
X149609839Y-103200017D01*
X149616991Y-103226709D01*
X149616994Y-103226714D01*
X149656547Y-103295223D01*
X149656553Y-103295231D01*
X149698581Y-103337259D01*
X149732066Y-103398582D01*
X149727082Y-103468274D01*
X149722243Y-103478544D01*
X149719979Y-103484009D01*
X149706326Y-103534962D01*
X149699500Y-103560438D01*
X149699500Y-103639562D01*
X149705100Y-103660460D01*
X149719979Y-103715990D01*
X149719982Y-103715995D01*
X149759535Y-103784504D01*
X149759539Y-103784509D01*
X149759540Y-103784511D01*
X149815489Y-103840460D01*
X149815491Y-103840461D01*
X149815495Y-103840464D01*
X149865788Y-103869500D01*
X149884011Y-103880021D01*
X149960438Y-103900500D01*
X149960440Y-103900500D01*
X150039560Y-103900500D01*
X150039562Y-103900500D01*
X150115989Y-103880021D01*
X150184511Y-103840460D01*
X150240460Y-103784511D01*
X150280021Y-103715989D01*
X150300500Y-103639562D01*
X150300500Y-103560438D01*
X150280021Y-103484011D01*
X150270935Y-103468274D01*
X150240464Y-103415495D01*
X150240458Y-103415487D01*
X150198430Y-103373459D01*
X150164945Y-103312136D01*
X150169929Y-103242444D01*
X150174769Y-103232171D01*
X150177032Y-103226709D01*
X150177033Y-103226708D01*
X150197512Y-103150281D01*
X150197512Y-103071157D01*
X150188230Y-103036517D01*
X150188336Y-103032031D01*
X150186275Y-103028045D01*
X150189159Y-102997423D01*
X150189891Y-102966671D01*
X150192406Y-102962953D01*
X150192828Y-102958484D01*
X150211811Y-102934281D01*
X150229052Y-102908807D01*
X150233178Y-102907039D01*
X150235949Y-102903508D01*
X150265000Y-102893411D01*
X150293280Y-102881301D01*
X150298896Y-102881631D01*
X150301947Y-102880572D01*
X150337079Y-102883881D01*
X150359851Y-102889375D01*
X150359883Y-102889388D01*
X150360827Y-102889615D01*
X150360902Y-102889658D01*
X150360908Y-102889637D01*
X150402673Y-102899709D01*
X150402673Y-102899710D01*
X150558909Y-102937391D01*
X150873198Y-103004777D01*
X151189100Y-103064141D01*
X151336165Y-103087920D01*
X151343807Y-103091086D01*
X151355736Y-103091086D01*
X151374339Y-103094093D01*
X151382248Y-103091086D01*
X151383789Y-103091086D01*
X151401001Y-103083956D01*
X151424681Y-103074954D01*
X151438445Y-103058067D01*
X151448998Y-103047515D01*
X151451013Y-103042648D01*
X151458709Y-103033208D01*
X151461132Y-103018219D01*
X151464298Y-103010577D01*
X151464298Y-102998639D01*
X151467305Y-102980041D01*
X151467303Y-102980037D01*
X151465651Y-102963801D01*
X151466926Y-102963671D01*
X151464298Y-102949356D01*
X151464298Y-102880438D01*
X154889500Y-102880438D01*
X154889500Y-102959562D01*
X154899130Y-102995500D01*
X154909979Y-103035990D01*
X154909982Y-103035995D01*
X154949535Y-103104504D01*
X154949539Y-103104509D01*
X154949540Y-103104511D01*
X155005489Y-103160460D01*
X155005491Y-103160461D01*
X155005495Y-103160464D01*
X155038538Y-103179541D01*
X155074011Y-103200021D01*
X155150438Y-103220500D01*
X155150440Y-103220500D01*
X155160755Y-103220500D01*
X155227794Y-103240185D01*
X155273549Y-103292989D01*
X155283493Y-103362147D01*
X155280531Y-103376590D01*
X155279500Y-103380438D01*
X155279500Y-103459562D01*
X155293152Y-103510513D01*
X155299979Y-103535990D01*
X155299982Y-103535995D01*
X155339535Y-103604504D01*
X155339539Y-103604509D01*
X155339540Y-103604511D01*
X155395489Y-103660460D01*
X155395491Y-103660461D01*
X155395495Y-103660464D01*
X155456158Y-103695487D01*
X155464011Y-103700021D01*
X155540438Y-103720500D01*
X155540440Y-103720500D01*
X155619559Y-103720500D01*
X155619562Y-103720500D01*
X155695989Y-103700021D01*
X155764511Y-103660460D01*
X155820460Y-103604511D01*
X155860021Y-103535989D01*
X155880500Y-103459562D01*
X155880500Y-103380438D01*
X155860021Y-103304011D01*
X155854947Y-103295223D01*
X155820464Y-103235495D01*
X155820458Y-103235487D01*
X155764512Y-103179541D01*
X155764504Y-103179535D01*
X155695995Y-103139982D01*
X155695990Y-103139979D01*
X155670513Y-103133152D01*
X155619562Y-103119500D01*
X155609245Y-103119500D01*
X155542206Y-103099815D01*
X155496451Y-103047011D01*
X155485245Y-102995500D01*
X155485245Y-102979173D01*
X155490500Y-102959562D01*
X155490500Y-102880438D01*
X155485245Y-102860826D01*
X155485245Y-102844500D01*
X155490674Y-102826008D01*
X155491134Y-102806740D01*
X155500315Y-102793174D01*
X155504930Y-102777461D01*
X155519493Y-102764841D01*
X155530298Y-102748879D01*
X155545356Y-102742430D01*
X155557734Y-102731706D01*
X155576808Y-102728963D01*
X155594528Y-102721376D01*
X155609245Y-102720500D01*
X155619560Y-102720500D01*
X155619562Y-102720500D01*
X155695989Y-102700021D01*
X155764511Y-102660460D01*
X155820460Y-102604511D01*
X155860021Y-102535989D01*
X155880500Y-102459562D01*
X155880500Y-102380438D01*
X159889500Y-102380438D01*
X159889500Y-102459562D01*
X159895100Y-102480460D01*
X159909979Y-102535990D01*
X159909982Y-102535995D01*
X159949535Y-102604504D01*
X159949539Y-102604509D01*
X159949540Y-102604511D01*
X160005489Y-102660460D01*
X160005491Y-102660461D01*
X160005495Y-102660464D01*
X160038538Y-102679541D01*
X160074011Y-102700021D01*
X160150438Y-102720500D01*
X160150440Y-102720500D01*
X160229560Y-102720500D01*
X160229562Y-102720500D01*
X160305989Y-102700021D01*
X160374511Y-102660460D01*
X160430460Y-102604511D01*
X160470021Y-102535989D01*
X160490500Y-102459562D01*
X160490500Y-102380438D01*
X160470021Y-102304011D01*
X160458777Y-102284535D01*
X160430464Y-102235495D01*
X160430458Y-102235487D01*
X160374512Y-102179541D01*
X160374504Y-102179535D01*
X160305995Y-102139982D01*
X160305990Y-102139979D01*
X160257611Y-102127016D01*
X160229562Y-102119500D01*
X160150438Y-102119500D01*
X160122389Y-102127016D01*
X160074009Y-102139979D01*
X160074004Y-102139982D01*
X160005495Y-102179535D01*
X160005487Y-102179541D01*
X159949541Y-102235487D01*
X159949535Y-102235495D01*
X159909982Y-102304004D01*
X159909979Y-102304009D01*
X159906985Y-102315184D01*
X159889500Y-102380438D01*
X155880500Y-102380438D01*
X155860021Y-102304011D01*
X155859814Y-102303653D01*
X155858230Y-102297238D01*
X155859696Y-102263500D01*
X155860499Y-102229748D01*
X155861209Y-102228698D01*
X155861264Y-102227434D01*
X155880737Y-102199845D01*
X155899661Y-102171885D01*
X155900824Y-102171386D01*
X155901555Y-102170352D01*
X155932834Y-102157678D01*
X155963889Y-102144380D01*
X155965208Y-102144562D01*
X155966312Y-102144115D01*
X155978259Y-102146366D01*
X156010386Y-102150806D01*
X156011161Y-102147917D01*
X156019009Y-102150019D01*
X156019011Y-102150021D01*
X156095438Y-102170500D01*
X156095440Y-102170500D01*
X156174560Y-102170500D01*
X156174562Y-102170500D01*
X156250989Y-102150021D01*
X156319511Y-102110460D01*
X156375460Y-102054511D01*
X156415021Y-101985989D01*
X156435500Y-101909562D01*
X156435500Y-101887904D01*
X156455185Y-101820865D01*
X156507989Y-101775110D01*
X156561700Y-101763924D01*
X156576903Y-101764193D01*
X156600438Y-101770500D01*
X156679562Y-101770500D01*
X156695257Y-101766294D01*
X156712700Y-101766604D01*
X156730060Y-101772037D01*
X156748251Y-101772470D01*
X156762715Y-101782258D01*
X156779380Y-101787475D01*
X156791047Y-101801433D01*
X156806115Y-101811630D01*
X156812989Y-101827682D01*
X156824191Y-101841082D01*
X156826460Y-101859134D01*
X156833622Y-101875857D01*
X156834500Y-101890584D01*
X156834500Y-101909562D01*
X156846410Y-101954009D01*
X156854979Y-101985990D01*
X156854982Y-101985995D01*
X156894535Y-102054504D01*
X156894539Y-102054509D01*
X156894540Y-102054511D01*
X156950489Y-102110460D01*
X156950491Y-102110461D01*
X156950495Y-102110464D01*
X157011386Y-102145619D01*
X157019011Y-102150021D01*
X157095438Y-102170500D01*
X157095440Y-102170500D01*
X157174560Y-102170500D01*
X157174562Y-102170500D01*
X157250989Y-102150021D01*
X157319511Y-102110460D01*
X157375460Y-102054511D01*
X157415021Y-101985989D01*
X157435500Y-101909562D01*
X157435500Y-101889244D01*
X157455185Y-101822205D01*
X157507989Y-101776450D01*
X157550918Y-101765541D01*
X157571581Y-101764107D01*
X157595438Y-101770500D01*
X157674562Y-101770500D01*
X157742729Y-101752234D01*
X157754667Y-101751406D01*
X157777565Y-101756438D01*
X157801003Y-101756996D01*
X157811054Y-101763798D01*
X157822908Y-101766404D01*
X157839449Y-101783015D01*
X157858866Y-101796157D01*
X157870636Y-101813109D01*
X157894537Y-101854507D01*
X157894539Y-101854510D01*
X157894540Y-101854511D01*
X157950489Y-101910460D01*
X157950491Y-101910461D01*
X157950495Y-101910464D01*
X158019004Y-101950017D01*
X158019011Y-101950021D01*
X158095438Y-101970500D01*
X158095440Y-101970500D01*
X158174560Y-101970500D01*
X158174562Y-101970500D01*
X158250989Y-101950021D01*
X158319511Y-101910460D01*
X158375460Y-101854511D01*
X158415021Y-101785989D01*
X158435500Y-101709562D01*
X158435500Y-101630438D01*
X158415021Y-101554011D01*
X158401411Y-101530438D01*
X161739500Y-101530438D01*
X161739500Y-101609562D01*
X161751817Y-101655529D01*
X161759979Y-101685990D01*
X161759982Y-101685995D01*
X161799535Y-101754504D01*
X161799539Y-101754509D01*
X161799540Y-101754511D01*
X161855489Y-101810460D01*
X161855492Y-101810462D01*
X161855959Y-101810820D01*
X161856256Y-101811227D01*
X161861236Y-101816207D01*
X161860459Y-101816983D01*
X161897161Y-101867249D01*
X161901315Y-101936995D01*
X161868153Y-101996875D01*
X161829541Y-102035487D01*
X161829535Y-102035495D01*
X161789982Y-102104004D01*
X161789979Y-102104009D01*
X161781748Y-102134728D01*
X161769500Y-102180438D01*
X161769500Y-102259562D01*
X161781410Y-102304009D01*
X161789979Y-102335990D01*
X161789982Y-102335995D01*
X161829535Y-102404504D01*
X161829539Y-102404509D01*
X161829540Y-102404511D01*
X161885489Y-102460460D01*
X161885491Y-102460461D01*
X161885495Y-102460464D01*
X161920130Y-102480460D01*
X161954011Y-102500021D01*
X162030438Y-102520500D01*
X162030440Y-102520500D01*
X162109561Y-102520500D01*
X162109562Y-102520500D01*
X162164735Y-102505716D01*
X162234585Y-102507378D01*
X162292448Y-102546539D01*
X162316604Y-102593395D01*
X162319977Y-102605984D01*
X162319982Y-102605995D01*
X162359535Y-102674504D01*
X162359539Y-102674509D01*
X162359540Y-102674511D01*
X162415489Y-102730460D01*
X162415491Y-102730461D01*
X162415495Y-102730464D01*
X162475039Y-102764841D01*
X162484011Y-102770021D01*
X162560438Y-102790500D01*
X162560440Y-102790500D01*
X162639560Y-102790500D01*
X162639562Y-102790500D01*
X162715989Y-102770021D01*
X162784511Y-102730460D01*
X162840460Y-102674511D01*
X162880021Y-102605989D01*
X162900500Y-102529562D01*
X162900500Y-102450438D01*
X162880021Y-102374011D01*
X162869616Y-102355989D01*
X162840464Y-102305495D01*
X162840458Y-102305487D01*
X162784512Y-102249541D01*
X162784504Y-102249535D01*
X162715995Y-102209982D01*
X162715990Y-102209979D01*
X162678169Y-102199845D01*
X162639562Y-102189500D01*
X162560438Y-102189500D01*
X162560437Y-102189500D01*
X162505262Y-102204284D01*
X162435412Y-102202621D01*
X162377550Y-102163458D01*
X162359514Y-102134092D01*
X162355800Y-102125580D01*
X162350021Y-102104011D01*
X162324757Y-102060252D01*
X162310462Y-102035492D01*
X162310458Y-102035487D01*
X162305409Y-102030438D01*
X163079500Y-102030438D01*
X163079500Y-102109562D01*
X163090340Y-102150017D01*
X163099979Y-102185990D01*
X163099982Y-102185995D01*
X163139535Y-102254504D01*
X163139539Y-102254509D01*
X163139540Y-102254511D01*
X163195489Y-102310460D01*
X163195491Y-102310461D01*
X163195495Y-102310464D01*
X163239708Y-102335990D01*
X163264011Y-102350021D01*
X163340438Y-102370500D01*
X163340440Y-102370500D01*
X163419560Y-102370500D01*
X163419562Y-102370500D01*
X163495989Y-102350021D01*
X163564511Y-102310460D01*
X163620460Y-102254511D01*
X163660021Y-102185989D01*
X163680500Y-102109562D01*
X163680500Y-102030438D01*
X163660021Y-101954011D01*
X163650197Y-101936995D01*
X163620464Y-101885495D01*
X163620458Y-101885487D01*
X163564512Y-101829541D01*
X163564504Y-101829535D01*
X163495995Y-101789982D01*
X163495990Y-101789979D01*
X163450272Y-101777729D01*
X163419562Y-101769500D01*
X163340438Y-101769500D01*
X163314501Y-101776450D01*
X163264009Y-101789979D01*
X163264004Y-101789982D01*
X163195495Y-101829535D01*
X163195487Y-101829541D01*
X163139541Y-101885487D01*
X163139535Y-101885495D01*
X163099982Y-101954004D01*
X163099979Y-101954009D01*
X163093138Y-101979540D01*
X163079500Y-102030438D01*
X162305409Y-102030438D01*
X162254510Y-101979539D01*
X162254038Y-101979177D01*
X162253740Y-101978769D01*
X162248764Y-101973793D01*
X162249540Y-101973016D01*
X162212837Y-101922748D01*
X162208685Y-101853002D01*
X162241846Y-101793124D01*
X162280460Y-101754511D01*
X162320021Y-101685989D01*
X162340500Y-101609562D01*
X162340500Y-101530438D01*
X162320021Y-101454011D01*
X162314547Y-101444529D01*
X162280464Y-101385495D01*
X162280458Y-101385487D01*
X162224512Y-101329541D01*
X162224504Y-101329535D01*
X162155995Y-101289982D01*
X162155990Y-101289979D01*
X162130513Y-101283152D01*
X162079562Y-101269500D01*
X162000438Y-101269500D01*
X161962224Y-101279739D01*
X161924009Y-101289979D01*
X161924004Y-101289982D01*
X161855495Y-101329535D01*
X161855487Y-101329541D01*
X161799541Y-101385487D01*
X161799535Y-101385495D01*
X161759982Y-101454004D01*
X161759979Y-101454009D01*
X161751349Y-101486219D01*
X161739500Y-101530438D01*
X158401411Y-101530438D01*
X158397990Y-101524512D01*
X158375464Y-101485495D01*
X158375458Y-101485487D01*
X158319512Y-101429541D01*
X158319504Y-101429535D01*
X158250995Y-101389982D01*
X158250990Y-101389979D01*
X158212113Y-101379562D01*
X158174562Y-101369500D01*
X158095438Y-101369500D01*
X158038842Y-101384664D01*
X157968994Y-101383002D01*
X157911131Y-101343840D01*
X157899363Y-101326890D01*
X157875462Y-101285492D01*
X157875458Y-101285487D01*
X157819512Y-101229541D01*
X157819504Y-101229535D01*
X157750995Y-101189982D01*
X157750990Y-101189979D01*
X157725513Y-101183152D01*
X157674562Y-101169500D01*
X157595438Y-101169500D01*
X157557224Y-101179739D01*
X157519009Y-101189979D01*
X157519004Y-101189982D01*
X157450495Y-101229535D01*
X157450487Y-101229541D01*
X157394541Y-101285487D01*
X157394535Y-101285495D01*
X157354982Y-101354004D01*
X157354979Y-101354009D01*
X157345341Y-101389979D01*
X157334741Y-101429541D01*
X157334500Y-101430439D01*
X157334500Y-101450755D01*
X157314815Y-101517794D01*
X157262011Y-101563549D01*
X157209362Y-101574750D01*
X157193615Y-101574605D01*
X157174562Y-101569500D01*
X157095438Y-101569500D01*
X157080266Y-101573565D01*
X157063362Y-101573410D01*
X157045448Y-101567971D01*
X157026733Y-101567524D01*
X157012709Y-101558030D01*
X156996506Y-101553111D01*
X156984377Y-101538850D01*
X156968874Y-101528356D01*
X156962209Y-101512787D01*
X156951238Y-101499889D01*
X156948743Y-101481334D01*
X156941376Y-101464125D01*
X156940500Y-101449415D01*
X156940500Y-101430439D01*
X156940500Y-101430438D01*
X156920021Y-101354011D01*
X156913142Y-101342096D01*
X156880464Y-101285495D01*
X156880458Y-101285487D01*
X156824512Y-101229541D01*
X156824504Y-101229535D01*
X156755995Y-101189982D01*
X156755990Y-101189979D01*
X156730513Y-101183152D01*
X156679562Y-101169500D01*
X156600438Y-101169500D01*
X156562224Y-101179739D01*
X156524009Y-101189979D01*
X156524004Y-101189982D01*
X156455495Y-101229535D01*
X156455487Y-101229541D01*
X156399541Y-101285487D01*
X156399535Y-101285495D01*
X156359982Y-101354004D01*
X156359979Y-101354009D01*
X156350341Y-101389979D01*
X156339741Y-101429541D01*
X156339500Y-101430439D01*
X156339500Y-101452095D01*
X156319815Y-101519134D01*
X156267011Y-101564889D01*
X156197853Y-101574833D01*
X156183407Y-101571870D01*
X156174562Y-101569500D01*
X156095438Y-101569500D01*
X156064825Y-101577703D01*
X156019009Y-101589979D01*
X156019004Y-101589982D01*
X155950491Y-101629537D01*
X155949980Y-101629930D01*
X155949471Y-101630126D01*
X155943450Y-101633603D01*
X155942907Y-101632663D01*
X155884810Y-101655120D01*
X155816366Y-101641077D01*
X155766379Y-101592260D01*
X155750500Y-101531549D01*
X155750500Y-101460439D01*
X155746237Y-101444529D01*
X155730021Y-101384011D01*
X155730017Y-101384004D01*
X155690464Y-101315495D01*
X155690458Y-101315487D01*
X155634512Y-101259541D01*
X155634504Y-101259535D01*
X155565995Y-101219982D01*
X155565990Y-101219979D01*
X155532207Y-101210927D01*
X155489562Y-101199500D01*
X155410438Y-101199500D01*
X155372224Y-101209739D01*
X155334009Y-101219979D01*
X155334004Y-101219982D01*
X155265495Y-101259535D01*
X155265487Y-101259541D01*
X155209541Y-101315487D01*
X155209535Y-101315495D01*
X155169982Y-101384004D01*
X155169979Y-101384009D01*
X155165812Y-101399562D01*
X155149500Y-101460438D01*
X155149500Y-101539562D01*
X155159720Y-101577703D01*
X155169979Y-101615990D01*
X155169982Y-101615995D01*
X155209535Y-101684504D01*
X155209539Y-101684509D01*
X155209540Y-101684511D01*
X155265489Y-101740460D01*
X155265491Y-101740461D01*
X155265495Y-101740464D01*
X155310772Y-101766604D01*
X155334011Y-101780021D01*
X155410438Y-101800500D01*
X155410440Y-101800500D01*
X155489560Y-101800500D01*
X155489562Y-101800500D01*
X155565989Y-101780021D01*
X155634511Y-101740460D01*
X155634516Y-101740454D01*
X155635011Y-101740076D01*
X155635515Y-101739880D01*
X155641550Y-101736397D01*
X155641581Y-101736451D01*
X155643780Y-101733930D01*
X155672385Y-101725625D01*
X155700179Y-101714880D01*
X155705583Y-101715988D01*
X155710880Y-101714451D01*
X155739438Y-101722931D01*
X155768625Y-101728917D01*
X155772571Y-101732770D01*
X155777858Y-101734340D01*
X155797297Y-101756913D01*
X155818616Y-101777729D01*
X155820805Y-101784210D01*
X155823452Y-101787284D01*
X155826303Y-101800490D01*
X155833291Y-101821179D01*
X155834561Y-101830209D01*
X155834500Y-101830438D01*
X155834500Y-101909562D01*
X155854979Y-101985989D01*
X155856953Y-101989408D01*
X155859178Y-102005225D01*
X155855157Y-102032593D01*
X155854499Y-102060252D01*
X155850150Y-102066676D01*
X155849023Y-102074353D01*
X155830841Y-102095206D01*
X155815337Y-102118114D01*
X155808205Y-102121167D01*
X155803107Y-102127016D01*
X155776540Y-102134728D01*
X155751109Y-102145619D01*
X155742911Y-102144490D01*
X155736007Y-102146495D01*
X155717457Y-102140986D01*
X155704606Y-102139217D01*
X155703839Y-102142083D01*
X155695990Y-102139980D01*
X155695989Y-102139979D01*
X155619562Y-102119500D01*
X155540438Y-102119500D01*
X155512389Y-102127016D01*
X155464009Y-102139979D01*
X155464004Y-102139982D01*
X155395495Y-102179535D01*
X155395487Y-102179541D01*
X155339541Y-102235487D01*
X155339535Y-102235495D01*
X155299982Y-102304004D01*
X155299979Y-102304009D01*
X155279500Y-102380439D01*
X155279500Y-102459562D01*
X155280531Y-102463410D01*
X155280450Y-102466780D01*
X155280561Y-102467619D01*
X155280430Y-102467636D01*
X155278866Y-102533260D01*
X155239702Y-102591121D01*
X155175472Y-102618624D01*
X155160755Y-102619500D01*
X155150438Y-102619500D01*
X155112224Y-102629739D01*
X155074009Y-102639979D01*
X155074004Y-102639982D01*
X155005495Y-102679535D01*
X155005487Y-102679541D01*
X154949541Y-102735487D01*
X154949535Y-102735495D01*
X154909982Y-102804004D01*
X154909979Y-102804009D01*
X154902828Y-102830698D01*
X154889500Y-102880438D01*
X151464298Y-102880438D01*
X151464298Y-102872310D01*
X151464298Y-102700017D01*
X151464299Y-102200438D01*
X152849092Y-102200438D01*
X152849092Y-102279562D01*
X152858637Y-102315184D01*
X152869571Y-102355990D01*
X152869574Y-102355995D01*
X152909127Y-102424504D01*
X152909131Y-102424509D01*
X152909132Y-102424511D01*
X152965081Y-102480460D01*
X152965083Y-102480461D01*
X152965087Y-102480464D01*
X153033596Y-102520017D01*
X153033603Y-102520021D01*
X153110030Y-102540500D01*
X153110032Y-102540500D01*
X153189152Y-102540500D01*
X153189154Y-102540500D01*
X153265581Y-102520021D01*
X153334103Y-102480460D01*
X153390052Y-102424511D01*
X153429613Y-102355989D01*
X153450092Y-102279562D01*
X153450092Y-102200438D01*
X153429613Y-102124011D01*
X153421792Y-102110464D01*
X153390056Y-102055495D01*
X153390050Y-102055487D01*
X153334104Y-101999541D01*
X153334096Y-101999535D01*
X153265587Y-101959982D01*
X153265582Y-101959979D01*
X153228403Y-101950017D01*
X153189154Y-101939500D01*
X153110030Y-101939500D01*
X153071816Y-101949739D01*
X153033601Y-101959979D01*
X153033596Y-101959982D01*
X152965087Y-101999535D01*
X152965079Y-101999541D01*
X152909133Y-102055487D01*
X152909127Y-102055495D01*
X152869574Y-102124004D01*
X152869571Y-102124009D01*
X152859001Y-102163458D01*
X152849092Y-102200438D01*
X151464299Y-102200438D01*
X151464300Y-101820438D01*
X154069500Y-101820438D01*
X154069500Y-101899562D01*
X154080202Y-101939500D01*
X154089979Y-101975990D01*
X154089982Y-101975995D01*
X154129535Y-102044504D01*
X154129539Y-102044509D01*
X154129540Y-102044511D01*
X154185489Y-102100460D01*
X154185491Y-102100461D01*
X154185495Y-102100464D01*
X154244843Y-102134728D01*
X154254011Y-102140021D01*
X154330438Y-102160500D01*
X154330440Y-102160500D01*
X154409560Y-102160500D01*
X154409562Y-102160500D01*
X154485989Y-102140021D01*
X154554511Y-102100460D01*
X154610460Y-102044511D01*
X154650021Y-101975989D01*
X154670500Y-101899562D01*
X154670500Y-101820438D01*
X154650021Y-101744011D01*
X154645625Y-101736397D01*
X154610464Y-101675495D01*
X154610458Y-101675487D01*
X154554512Y-101619541D01*
X154554504Y-101619535D01*
X154485995Y-101579982D01*
X154485990Y-101579979D01*
X154453689Y-101571324D01*
X154409562Y-101559500D01*
X154330438Y-101559500D01*
X154293118Y-101569500D01*
X154254009Y-101579979D01*
X154254004Y-101579982D01*
X154185495Y-101619535D01*
X154185487Y-101619541D01*
X154129541Y-101675487D01*
X154129535Y-101675495D01*
X154089982Y-101744004D01*
X154089979Y-101744009D01*
X154078729Y-101785995D01*
X154069500Y-101820438D01*
X151464300Y-101820438D01*
X151464301Y-100740131D01*
X152028619Y-100740131D01*
X152028619Y-100819255D01*
X152034187Y-100840035D01*
X152049098Y-100895683D01*
X152049101Y-100895688D01*
X152088654Y-100964197D01*
X152088658Y-100964202D01*
X152088659Y-100964204D01*
X152144608Y-101020153D01*
X152144610Y-101020154D01*
X152144614Y-101020157D01*
X152201161Y-101052804D01*
X152213130Y-101059714D01*
X152289557Y-101080193D01*
X152289559Y-101080193D01*
X152368679Y-101080193D01*
X152368681Y-101080193D01*
X152445108Y-101059714D01*
X152513630Y-101020153D01*
X152569579Y-100964204D01*
X152609140Y-100895682D01*
X152629619Y-100819255D01*
X152629619Y-100740131D01*
X152609140Y-100663704D01*
X152591853Y-100633762D01*
X152569583Y-100595188D01*
X152569577Y-100595180D01*
X152513631Y-100539234D01*
X152513623Y-100539228D01*
X152481108Y-100520456D01*
X165324263Y-100520456D01*
X165324263Y-100599580D01*
X165333422Y-100633762D01*
X165344742Y-100676008D01*
X165344745Y-100676013D01*
X165384298Y-100744522D01*
X165384302Y-100744527D01*
X165384303Y-100744529D01*
X165440252Y-100800478D01*
X165440254Y-100800479D01*
X165440258Y-100800482D01*
X165508767Y-100840035D01*
X165508774Y-100840039D01*
X165585201Y-100860518D01*
X165585203Y-100860518D01*
X165664323Y-100860518D01*
X165664325Y-100860518D01*
X165740752Y-100840039D01*
X165809274Y-100800478D01*
X165865223Y-100744529D01*
X165904784Y-100676007D01*
X165924501Y-100602421D01*
X165960865Y-100542764D01*
X166023712Y-100512235D01*
X166044275Y-100510518D01*
X166114323Y-100510518D01*
X166114325Y-100510518D01*
X166190752Y-100490039D01*
X166259274Y-100450478D01*
X166315223Y-100394529D01*
X166354784Y-100326007D01*
X166375263Y-100249580D01*
X166375263Y-100170456D01*
X166354784Y-100094029D01*
X166354770Y-100094004D01*
X166315227Y-100025513D01*
X166315221Y-100025505D01*
X166292224Y-100002508D01*
X166258739Y-99941185D01*
X166263723Y-99871493D01*
X166281537Y-99839330D01*
X166285213Y-99834538D01*
X166285223Y-99834529D01*
X166324784Y-99766007D01*
X166345263Y-99689580D01*
X166345263Y-99610456D01*
X166324784Y-99534029D01*
X166306616Y-99502561D01*
X166285227Y-99465513D01*
X166285221Y-99465505D01*
X166229275Y-99409559D01*
X166229267Y-99409553D01*
X166160758Y-99370000D01*
X166160753Y-99369997D01*
X166124309Y-99360232D01*
X166084325Y-99349518D01*
X166005201Y-99349518D01*
X165966987Y-99359757D01*
X165928772Y-99369997D01*
X165928767Y-99370000D01*
X165860258Y-99409553D01*
X165860250Y-99409559D01*
X165804304Y-99465505D01*
X165804298Y-99465513D01*
X165764745Y-99534022D01*
X165764742Y-99534027D01*
X165751089Y-99584980D01*
X165744263Y-99610456D01*
X165744263Y-99689580D01*
X165757896Y-99740457D01*
X165764742Y-99766008D01*
X165764745Y-99766013D01*
X165804298Y-99834522D01*
X165804304Y-99834530D01*
X165827301Y-99857527D01*
X165860786Y-99918850D01*
X165855802Y-99988542D01*
X165852980Y-99995463D01*
X165843927Y-100015882D01*
X165834303Y-100025507D01*
X165794742Y-100094029D01*
X165774263Y-100170456D01*
X165774263Y-100173023D01*
X165768611Y-100185773D01*
X165752020Y-100205354D01*
X165738661Y-100227272D01*
X165729807Y-100231572D01*
X165723445Y-100239082D01*
X165698901Y-100246585D01*
X165675814Y-100257801D01*
X165657110Y-100259362D01*
X165656629Y-100259510D01*
X165656335Y-100259427D01*
X165655251Y-100259518D01*
X165585201Y-100259518D01*
X165546987Y-100269757D01*
X165508772Y-100279997D01*
X165508767Y-100280000D01*
X165440258Y-100319553D01*
X165440250Y-100319559D01*
X165384304Y-100375505D01*
X165384298Y-100375513D01*
X165344745Y-100444022D01*
X165344742Y-100444027D01*
X165333530Y-100485873D01*
X165324263Y-100520456D01*
X152481108Y-100520456D01*
X152445114Y-100499675D01*
X152445109Y-100499672D01*
X152409143Y-100490035D01*
X152368681Y-100479193D01*
X152289557Y-100479193D01*
X152251343Y-100489432D01*
X152213128Y-100499672D01*
X152213123Y-100499675D01*
X152144614Y-100539228D01*
X152144606Y-100539234D01*
X152088660Y-100595180D01*
X152088654Y-100595188D01*
X152049101Y-100663697D01*
X152049098Y-100663702D01*
X152035445Y-100714655D01*
X152028619Y-100740131D01*
X151464301Y-100740131D01*
X151464301Y-100699143D01*
X151465362Y-100682973D01*
X151466052Y-100677742D01*
X151466051Y-100677740D01*
X151466052Y-100677736D01*
X151465612Y-100671039D01*
X151464302Y-100664456D01*
X151464303Y-100664453D01*
X151462206Y-100659392D01*
X151459170Y-100652062D01*
X151455704Y-100639123D01*
X151451590Y-100633762D01*
X151449003Y-100627515D01*
X151449002Y-100627514D01*
X151448999Y-100627510D01*
X151439516Y-100618027D01*
X151431365Y-100607404D01*
X151425515Y-100604026D01*
X151420733Y-100599244D01*
X151415851Y-100597222D01*
X151401315Y-100590054D01*
X151326147Y-100546656D01*
X151321988Y-100544255D01*
X151321987Y-100544254D01*
X151308128Y-100536253D01*
X151288066Y-100523063D01*
X151264845Y-100521714D01*
X151248655Y-100519583D01*
X151248589Y-100519600D01*
X151248556Y-100519589D01*
X151246652Y-100519714D01*
X151235190Y-100519756D01*
X151234294Y-100519941D01*
X151230739Y-100521728D01*
X151230738Y-100521727D01*
X151219410Y-100527418D01*
X151210036Y-100529931D01*
X151201733Y-100536301D01*
X151191240Y-100541574D01*
X151191236Y-100541577D01*
X151186176Y-100544119D01*
X151185887Y-100544376D01*
X151183439Y-100547864D01*
X151179088Y-100553677D01*
X151178317Y-100554270D01*
X151177208Y-100556190D01*
X151172785Y-100562101D01*
X151150475Y-100578808D01*
X151130305Y-100598033D01*
X151121946Y-100600172D01*
X151116859Y-100603982D01*
X151103251Y-100604957D01*
X151076647Y-100611767D01*
X151048054Y-100612491D01*
X151047480Y-100612581D01*
X150981442Y-100614296D01*
X150981433Y-100614297D01*
X150766116Y-100653449D01*
X150559389Y-100725280D01*
X150366188Y-100828074D01*
X150191113Y-100959383D01*
X150038347Y-101116067D01*
X150038331Y-101116086D01*
X149911502Y-101294423D01*
X149911500Y-101294426D01*
X149813629Y-101490174D01*
X149747060Y-101698644D01*
X149713373Y-101914884D01*
X149713372Y-101914887D01*
X149713335Y-101972990D01*
X149713288Y-101973149D01*
X149713293Y-102024310D01*
X149713298Y-102074353D01*
X149713302Y-102110386D01*
X149713302Y-102110388D01*
X149745914Y-102279410D01*
X149786406Y-102380439D01*
X149809959Y-102439205D01*
X149903113Y-102583971D01*
X149913160Y-102594492D01*
X149921384Y-102603103D01*
X149953448Y-102665181D01*
X149946860Y-102734739D01*
X149903712Y-102789694D01*
X149863802Y-102808516D01*
X149781027Y-102830696D01*
X149781016Y-102830701D01*
X149712507Y-102870254D01*
X149712499Y-102870260D01*
X149656553Y-102926206D01*
X149656547Y-102926214D01*
X149616994Y-102994723D01*
X149616991Y-102994728D01*
X149605935Y-103035989D01*
X149596512Y-103071157D01*
X141612125Y-103071157D01*
X141205609Y-102517987D01*
X141202024Y-102512838D01*
X141200442Y-102510438D01*
X146079500Y-102510438D01*
X146079500Y-102589562D01*
X146087522Y-102619500D01*
X146099979Y-102665990D01*
X146099982Y-102665995D01*
X146139535Y-102734504D01*
X146139539Y-102734509D01*
X146139540Y-102734511D01*
X146195489Y-102790460D01*
X146195491Y-102790461D01*
X146195495Y-102790464D01*
X146257060Y-102826008D01*
X146264011Y-102830021D01*
X146340438Y-102850500D01*
X146340440Y-102850500D01*
X146419560Y-102850500D01*
X146419562Y-102850500D01*
X146495989Y-102830021D01*
X146564511Y-102790460D01*
X146620460Y-102734511D01*
X146660021Y-102665989D01*
X146680500Y-102589562D01*
X146680500Y-102510438D01*
X146660021Y-102434011D01*
X146642990Y-102404512D01*
X146620464Y-102365495D01*
X146620458Y-102365487D01*
X146564512Y-102309541D01*
X146564504Y-102309535D01*
X146495995Y-102269982D01*
X146495990Y-102269979D01*
X146457113Y-102259562D01*
X146419562Y-102249500D01*
X146340438Y-102249500D01*
X146302894Y-102259560D01*
X146264009Y-102269979D01*
X146264004Y-102269982D01*
X146195495Y-102309535D01*
X146195487Y-102309541D01*
X146139541Y-102365487D01*
X146139535Y-102365495D01*
X146099982Y-102434004D01*
X146099979Y-102434009D01*
X146090969Y-102467636D01*
X146079500Y-102510438D01*
X141200442Y-102510438D01*
X140788612Y-101885590D01*
X140785274Y-101880231D01*
X140772864Y-101859134D01*
X140436526Y-101287354D01*
X141681669Y-101287354D01*
X141681669Y-101366478D01*
X141690534Y-101399562D01*
X141702148Y-101442906D01*
X141702151Y-101442911D01*
X141741704Y-101511420D01*
X141741708Y-101511425D01*
X141741709Y-101511427D01*
X141797658Y-101567376D01*
X141797660Y-101567377D01*
X141797664Y-101567380D01*
X141866173Y-101606933D01*
X141866176Y-101606935D01*
X141866180Y-101606937D01*
X141942607Y-101627416D01*
X141942609Y-101627416D01*
X142021729Y-101627416D01*
X142021731Y-101627416D01*
X142098158Y-101606937D01*
X142159842Y-101571323D01*
X142227741Y-101554851D01*
X142290374Y-101576528D01*
X142290450Y-101576397D01*
X142291131Y-101576790D01*
X142293768Y-101577703D01*
X142297336Y-101580342D01*
X142297496Y-101580465D01*
X142365169Y-101619535D01*
X142366011Y-101620021D01*
X142442438Y-101640500D01*
X142442440Y-101640500D01*
X142521560Y-101640500D01*
X142521562Y-101640500D01*
X142597989Y-101620021D01*
X142666511Y-101580460D01*
X142722460Y-101524511D01*
X142762021Y-101455989D01*
X142782500Y-101379562D01*
X142782500Y-101320438D01*
X146409500Y-101320438D01*
X146409500Y-101399562D01*
X146417774Y-101430439D01*
X146429979Y-101475990D01*
X146429982Y-101475995D01*
X146469535Y-101544504D01*
X146469539Y-101544509D01*
X146469540Y-101544511D01*
X146525489Y-101600460D01*
X146525491Y-101600461D01*
X146525495Y-101600464D01*
X146594004Y-101640017D01*
X146594011Y-101640021D01*
X146670438Y-101660500D01*
X146670440Y-101660500D01*
X146749560Y-101660500D01*
X146749562Y-101660500D01*
X146825989Y-101640021D01*
X146894511Y-101600460D01*
X146950460Y-101544511D01*
X146990021Y-101475989D01*
X147010500Y-101399562D01*
X147010500Y-101320438D01*
X146990021Y-101244011D01*
X146964323Y-101199500D01*
X146950464Y-101175495D01*
X146950458Y-101175487D01*
X146894512Y-101119541D01*
X146894504Y-101119535D01*
X146825995Y-101079982D01*
X146825990Y-101079979D01*
X146800513Y-101073152D01*
X146749562Y-101059500D01*
X146670438Y-101059500D01*
X146632224Y-101069739D01*
X146594009Y-101079979D01*
X146594004Y-101079982D01*
X146525495Y-101119535D01*
X146525487Y-101119541D01*
X146469541Y-101175487D01*
X146469535Y-101175495D01*
X146429982Y-101244004D01*
X146429979Y-101244009D01*
X146421610Y-101275242D01*
X146409500Y-101320438D01*
X142782500Y-101320438D01*
X142782500Y-101300438D01*
X142762021Y-101224011D01*
X142747870Y-101199500D01*
X142722464Y-101155495D01*
X142722458Y-101155487D01*
X142666512Y-101099541D01*
X142666504Y-101099535D01*
X142597995Y-101059982D01*
X142597990Y-101059979D01*
X142571212Y-101052804D01*
X142521562Y-101039500D01*
X142442438Y-101039500D01*
X142392788Y-101052804D01*
X142366010Y-101059979D01*
X142304326Y-101095592D01*
X142236425Y-101112063D01*
X142173795Y-101090385D01*
X142173719Y-101090519D01*
X142173027Y-101090119D01*
X142170399Y-101089210D01*
X142166834Y-101086575D01*
X142166682Y-101086458D01*
X142166680Y-101086456D01*
X142166676Y-101086453D01*
X142166670Y-101086449D01*
X142098164Y-101046898D01*
X142098159Y-101046895D01*
X142070560Y-101039500D01*
X142021731Y-101026416D01*
X141942607Y-101026416D01*
X141904393Y-101036655D01*
X141866178Y-101046895D01*
X141866173Y-101046898D01*
X141797664Y-101086451D01*
X141797656Y-101086457D01*
X141741710Y-101142403D01*
X141741704Y-101142411D01*
X141702151Y-101210920D01*
X141702148Y-101210925D01*
X141693283Y-101244011D01*
X141681669Y-101287354D01*
X140436526Y-101287354D01*
X140404402Y-101232743D01*
X140401358Y-101227253D01*
X140053992Y-100561165D01*
X140051215Y-100555491D01*
X140050655Y-100554270D01*
X139763459Y-99927525D01*
X141379500Y-99927525D01*
X141379500Y-99954381D01*
X141379500Y-100072475D01*
X141414129Y-100201709D01*
X141417017Y-100212488D01*
X141489488Y-100338011D01*
X141489490Y-100338013D01*
X141489491Y-100338015D01*
X141591985Y-100440509D01*
X141591986Y-100440510D01*
X141591988Y-100440511D01*
X141717511Y-100512982D01*
X141717512Y-100512982D01*
X141717515Y-100512984D01*
X141857525Y-100550500D01*
X141857528Y-100550500D01*
X142002472Y-100550500D01*
X142002475Y-100550500D01*
X142142485Y-100512984D01*
X142268015Y-100440509D01*
X142370509Y-100338015D01*
X142418576Y-100254761D01*
X148159500Y-100254761D01*
X148159500Y-100333885D01*
X148170902Y-100376438D01*
X148179979Y-100410313D01*
X148179982Y-100410318D01*
X148219535Y-100478827D01*
X148219539Y-100478832D01*
X148219540Y-100478834D01*
X148275489Y-100534783D01*
X148275491Y-100534784D01*
X148275495Y-100534787D01*
X148321198Y-100561173D01*
X148344011Y-100574344D01*
X148420438Y-100594823D01*
X148420440Y-100594823D01*
X148504684Y-100594823D01*
X148571723Y-100614508D01*
X148617478Y-100667312D01*
X148627422Y-100736470D01*
X148608632Y-100781076D01*
X148610880Y-100782374D01*
X148567259Y-100857928D01*
X148567256Y-100857933D01*
X148557141Y-100895683D01*
X148546777Y-100934362D01*
X148546777Y-101013486D01*
X148559107Y-101059500D01*
X148567256Y-101089914D01*
X148567259Y-101089919D01*
X148606812Y-101158428D01*
X148606816Y-101158433D01*
X148606817Y-101158435D01*
X148662766Y-101214384D01*
X148662768Y-101214385D01*
X148662772Y-101214388D01*
X148731281Y-101253941D01*
X148731288Y-101253945D01*
X148731292Y-101253946D01*
X148739751Y-101256213D01*
X148799411Y-101292578D01*
X148829939Y-101355426D01*
X148821644Y-101424801D01*
X148777158Y-101478678D01*
X148739751Y-101495761D01*
X148724015Y-101499977D01*
X148724004Y-101499982D01*
X148655495Y-101539535D01*
X148655487Y-101539541D01*
X148599541Y-101595487D01*
X148599535Y-101595495D01*
X148559982Y-101664004D01*
X148559979Y-101664009D01*
X148554088Y-101685995D01*
X148539500Y-101740438D01*
X148539500Y-101819562D01*
X148548863Y-101854504D01*
X148559979Y-101895990D01*
X148559982Y-101895995D01*
X148599535Y-101964504D01*
X148599539Y-101964509D01*
X148599540Y-101964511D01*
X148655489Y-102020460D01*
X148655491Y-102020461D01*
X148655495Y-102020464D01*
X148697148Y-102044512D01*
X148724011Y-102060021D01*
X148800438Y-102080500D01*
X148800440Y-102080500D01*
X148879560Y-102080500D01*
X148879562Y-102080500D01*
X148955989Y-102060021D01*
X149024511Y-102020460D01*
X149080460Y-101964511D01*
X149120021Y-101895989D01*
X149140500Y-101819562D01*
X149140500Y-101740438D01*
X149120021Y-101664011D01*
X149106447Y-101640500D01*
X149080464Y-101595495D01*
X149080458Y-101595487D01*
X149024512Y-101539541D01*
X149024504Y-101539535D01*
X148955995Y-101499982D01*
X148955991Y-101499980D01*
X148955989Y-101499979D01*
X148955987Y-101499978D01*
X148955984Y-101499977D01*
X148947520Y-101497709D01*
X148887862Y-101461341D01*
X148857336Y-101398492D01*
X148865634Y-101329117D01*
X148910123Y-101275242D01*
X148947524Y-101258163D01*
X148963266Y-101253945D01*
X149031788Y-101214384D01*
X149087737Y-101158435D01*
X149127298Y-101089913D01*
X149147777Y-101013486D01*
X149147777Y-100934362D01*
X149127298Y-100857935D01*
X149116965Y-100840038D01*
X149087741Y-100789419D01*
X149087735Y-100789411D01*
X149031789Y-100733465D01*
X149031781Y-100733459D01*
X148963272Y-100693906D01*
X148963267Y-100693903D01*
X148937790Y-100687076D01*
X148886839Y-100673424D01*
X148807715Y-100673424D01*
X148802593Y-100673424D01*
X148735554Y-100653739D01*
X148689799Y-100600935D01*
X148679855Y-100531777D01*
X148698644Y-100487170D01*
X148696397Y-100485873D01*
X148724268Y-100437595D01*
X148740021Y-100410312D01*
X148760500Y-100333885D01*
X148760500Y-100254761D01*
X148740021Y-100178334D01*
X148721216Y-100145762D01*
X148700464Y-100109818D01*
X148700458Y-100109810D01*
X148644512Y-100053864D01*
X148644507Y-100053860D01*
X148597613Y-100026786D01*
X148597612Y-100026786D01*
X148575989Y-100014302D01*
X148575990Y-100014302D01*
X148541636Y-100005097D01*
X148499562Y-99993823D01*
X148420438Y-99993823D01*
X148420437Y-99993823D01*
X148378361Y-100005097D01*
X148378357Y-100005098D01*
X148344011Y-100014302D01*
X148275489Y-100053863D01*
X148270552Y-100058799D01*
X148270551Y-100058800D01*
X148219541Y-100109810D01*
X148219535Y-100109818D01*
X148179982Y-100178327D01*
X148179979Y-100178332D01*
X148173715Y-100201711D01*
X148159500Y-100254761D01*
X142418576Y-100254761D01*
X142442984Y-100212485D01*
X142480500Y-100072475D01*
X142480500Y-99927525D01*
X142475921Y-99910438D01*
X144499500Y-99910438D01*
X144499500Y-99989562D01*
X144513152Y-100040513D01*
X144519979Y-100065990D01*
X144519982Y-100065995D01*
X144559535Y-100134504D01*
X144559539Y-100134509D01*
X144559540Y-100134511D01*
X144615489Y-100190460D01*
X144615491Y-100190461D01*
X144615495Y-100190464D01*
X144684004Y-100230017D01*
X144684011Y-100230021D01*
X144760438Y-100250500D01*
X144760440Y-100250500D01*
X144839560Y-100250500D01*
X144839562Y-100250500D01*
X144915989Y-100230021D01*
X144984511Y-100190460D01*
X145040460Y-100134511D01*
X145080021Y-100065989D01*
X145100500Y-99989562D01*
X145100500Y-99910438D01*
X146599500Y-99910438D01*
X146599500Y-99989562D01*
X146613152Y-100040513D01*
X146619979Y-100065990D01*
X146619982Y-100065995D01*
X146659535Y-100134504D01*
X146659539Y-100134509D01*
X146659540Y-100134511D01*
X146715489Y-100190460D01*
X146715491Y-100190461D01*
X146715495Y-100190464D01*
X146784004Y-100230017D01*
X146784011Y-100230021D01*
X146860438Y-100250500D01*
X146860440Y-100250500D01*
X146939560Y-100250500D01*
X146939562Y-100250500D01*
X147015989Y-100230021D01*
X147084511Y-100190460D01*
X147140460Y-100134511D01*
X147180021Y-100065989D01*
X147200500Y-99989562D01*
X147200500Y-99927525D01*
X149449500Y-99927525D01*
X149449500Y-99954381D01*
X149449500Y-100072475D01*
X149484129Y-100201709D01*
X149487017Y-100212488D01*
X149559488Y-100338011D01*
X149559490Y-100338013D01*
X149559491Y-100338015D01*
X149661985Y-100440509D01*
X149661986Y-100440510D01*
X149661988Y-100440511D01*
X149787511Y-100512982D01*
X149787512Y-100512982D01*
X149787515Y-100512984D01*
X149927525Y-100550500D01*
X149927528Y-100550500D01*
X150072472Y-100550500D01*
X150072475Y-100550500D01*
X150212485Y-100512984D01*
X150338015Y-100440509D01*
X150440509Y-100338015D01*
X150512984Y-100212485D01*
X150550500Y-100072475D01*
X150550500Y-99927525D01*
X150512984Y-99787515D01*
X150508654Y-99780016D01*
X150440511Y-99661988D01*
X150440506Y-99661982D01*
X150338017Y-99559493D01*
X150338011Y-99559488D01*
X150212488Y-99487017D01*
X150212489Y-99487017D01*
X150201006Y-99483940D01*
X150072475Y-99449500D01*
X149927525Y-99449500D01*
X149798993Y-99483940D01*
X149787511Y-99487017D01*
X149661988Y-99559488D01*
X149661982Y-99559493D01*
X149559493Y-99661982D01*
X149559488Y-99661988D01*
X149487017Y-99787511D01*
X149487016Y-99787515D01*
X149449500Y-99927525D01*
X147200500Y-99927525D01*
X147200500Y-99910438D01*
X147180021Y-99834011D01*
X147154588Y-99789959D01*
X147140464Y-99765495D01*
X147140458Y-99765487D01*
X147084512Y-99709541D01*
X147084504Y-99709535D01*
X147015995Y-99669982D01*
X147015990Y-99669979D01*
X146986167Y-99661988D01*
X146939562Y-99649500D01*
X146860438Y-99649500D01*
X146822224Y-99659739D01*
X146784009Y-99669979D01*
X146784004Y-99669982D01*
X146715495Y-99709535D01*
X146715487Y-99709541D01*
X146659541Y-99765487D01*
X146659535Y-99765495D01*
X146619982Y-99834004D01*
X146619979Y-99834009D01*
X146609639Y-99872599D01*
X146599500Y-99910438D01*
X145100500Y-99910438D01*
X145080021Y-99834011D01*
X145054588Y-99789959D01*
X145040464Y-99765495D01*
X145040458Y-99765487D01*
X144984512Y-99709541D01*
X144984504Y-99709535D01*
X144915995Y-99669982D01*
X144915990Y-99669979D01*
X144886167Y-99661988D01*
X144839562Y-99649500D01*
X144760438Y-99649500D01*
X144722224Y-99659739D01*
X144684009Y-99669979D01*
X144684004Y-99669982D01*
X144615495Y-99709535D01*
X144615487Y-99709541D01*
X144559541Y-99765487D01*
X144559535Y-99765495D01*
X144519982Y-99834004D01*
X144519979Y-99834009D01*
X144509639Y-99872599D01*
X144499500Y-99910438D01*
X142475921Y-99910438D01*
X142442984Y-99787515D01*
X142438654Y-99780016D01*
X142370511Y-99661988D01*
X142370506Y-99661982D01*
X142268017Y-99559493D01*
X142268011Y-99559488D01*
X142142488Y-99487017D01*
X142142489Y-99487017D01*
X142131006Y-99483940D01*
X142002475Y-99449500D01*
X141857525Y-99449500D01*
X141728993Y-99483940D01*
X141717511Y-99487017D01*
X141591988Y-99559488D01*
X141591982Y-99559493D01*
X141489493Y-99661982D01*
X141489488Y-99661988D01*
X141417017Y-99787511D01*
X141417016Y-99787515D01*
X141379500Y-99927525D01*
X139763459Y-99927525D01*
X139738280Y-99872578D01*
X139735810Y-99866805D01*
X139458098Y-99168799D01*
X139455914Y-99162875D01*
X139454547Y-99158854D01*
X139366734Y-98900500D01*
X139313188Y-98742962D01*
X139310252Y-98673154D01*
X139345522Y-98612840D01*
X139407802Y-98581169D01*
X139430592Y-98579057D01*
X142345486Y-98579057D01*
X142365476Y-98579077D01*
X142365524Y-98579057D01*
X142365578Y-98579057D01*
X142384321Y-98571293D01*
X142402430Y-98563814D01*
X142402432Y-98563811D01*
X142402506Y-98563760D01*
X142402516Y-98563757D01*
X142416754Y-98549517D01*
X142416870Y-98549454D01*
X142416844Y-98549428D01*
X143045266Y-97922271D01*
X143106623Y-97888848D01*
X143132859Y-97886041D01*
X143142774Y-97886041D01*
X143209813Y-97905726D01*
X143255568Y-97958530D01*
X143265512Y-98027688D01*
X143236487Y-98091244D01*
X143218261Y-98108417D01*
X143215484Y-98110547D01*
X143159541Y-98166490D01*
X143159535Y-98166498D01*
X143119982Y-98235007D01*
X143119979Y-98235012D01*
X143099500Y-98311442D01*
X143099500Y-98390565D01*
X143113906Y-98444330D01*
X143112243Y-98514180D01*
X143073080Y-98572042D01*
X143050782Y-98585452D01*
X143051049Y-98585915D01*
X142975495Y-98629535D01*
X142975487Y-98629541D01*
X142919541Y-98685487D01*
X142919535Y-98685495D01*
X142879982Y-98754004D01*
X142879979Y-98754009D01*
X142870138Y-98790738D01*
X142859500Y-98830438D01*
X142859500Y-98909562D01*
X142862560Y-98920982D01*
X142879979Y-98985990D01*
X142879982Y-98985995D01*
X142919535Y-99054504D01*
X142919539Y-99054509D01*
X142919540Y-99054511D01*
X142975489Y-99110460D01*
X142975491Y-99110461D01*
X142975495Y-99110464D01*
X143026623Y-99139982D01*
X143044011Y-99150021D01*
X143120438Y-99170500D01*
X143120440Y-99170500D01*
X143199560Y-99170500D01*
X143199562Y-99170500D01*
X143275989Y-99150021D01*
X143344511Y-99110460D01*
X143400460Y-99054511D01*
X143440021Y-98985989D01*
X143460500Y-98909562D01*
X143460500Y-98830438D01*
X143446093Y-98776671D01*
X143447756Y-98706823D01*
X143486918Y-98648961D01*
X143509218Y-98635551D01*
X143508951Y-98635088D01*
X143584504Y-98591467D01*
X143584503Y-98591467D01*
X143584511Y-98591463D01*
X143640460Y-98535514D01*
X143680021Y-98466992D01*
X143700500Y-98390565D01*
X143700500Y-98311441D01*
X143680021Y-98235014D01*
X143648527Y-98180464D01*
X143640464Y-98166498D01*
X143640458Y-98166490D01*
X143584515Y-98110547D01*
X143584511Y-98110543D01*
X143584506Y-98110540D01*
X143581739Y-98108417D01*
X143579990Y-98106022D01*
X143578764Y-98104796D01*
X143578955Y-98104604D01*
X143540537Y-98051989D01*
X143536382Y-97982243D01*
X143570594Y-97921323D01*
X143632312Y-97888570D01*
X143657226Y-97886041D01*
X145279644Y-97886041D01*
X145299526Y-97886133D01*
X145299751Y-97886041D01*
X145299991Y-97886041D01*
X145318236Y-97878483D01*
X145336534Y-97871003D01*
X145336641Y-97870895D01*
X145336783Y-97870837D01*
X145336923Y-97870743D01*
X145336929Y-97870741D01*
X145350991Y-97856678D01*
X145409875Y-97798335D01*
X145415197Y-97794801D01*
X145429997Y-97779999D01*
X145430000Y-97780000D01*
X145604314Y-97605685D01*
X145683622Y-97527108D01*
X145695110Y-97515726D01*
X145756587Y-97482525D01*
X145782384Y-97479812D01*
X146395433Y-97479812D01*
X146462472Y-97499497D01*
X146508227Y-97552301D01*
X146518171Y-97621459D01*
X146489146Y-97685015D01*
X146442884Y-97718374D01*
X146439006Y-97719979D01*
X146370497Y-97759533D01*
X146370489Y-97759539D01*
X146314543Y-97815485D01*
X146314537Y-97815493D01*
X146274984Y-97884002D01*
X146274981Y-97884007D01*
X146261328Y-97934960D01*
X146254502Y-97960436D01*
X146254502Y-98039560D01*
X146262922Y-98070982D01*
X146274981Y-98115988D01*
X146274984Y-98115993D01*
X146314537Y-98184502D01*
X146314541Y-98184507D01*
X146314542Y-98184509D01*
X146370491Y-98240458D01*
X146370493Y-98240459D01*
X146370497Y-98240462D01*
X146439006Y-98280015D01*
X146439013Y-98280019D01*
X146515440Y-98300498D01*
X146515442Y-98300498D01*
X146594562Y-98300498D01*
X146594564Y-98300498D01*
X146670991Y-98280019D01*
X146739513Y-98240458D01*
X146795462Y-98184509D01*
X146835023Y-98115987D01*
X146855502Y-98039560D01*
X146855502Y-97960436D01*
X146835023Y-97884009D01*
X146826947Y-97870021D01*
X146795466Y-97815493D01*
X146795460Y-97815485D01*
X146739514Y-97759539D01*
X146739506Y-97759533D01*
X146670997Y-97719979D01*
X146667120Y-97718374D01*
X146664351Y-97716143D01*
X146663953Y-97715913D01*
X146663988Y-97715850D01*
X146612716Y-97674533D01*
X146590650Y-97608239D01*
X146607928Y-97540540D01*
X146659065Y-97492929D01*
X146714571Y-97479812D01*
X147138391Y-97479812D01*
X147205430Y-97499497D01*
X147251185Y-97552301D01*
X147262391Y-97603812D01*
X147262391Y-98498549D01*
X147277690Y-98535485D01*
X147277691Y-98535486D01*
X147305962Y-98563757D01*
X147342900Y-98579057D01*
X147382882Y-98579057D01*
X148231583Y-98579057D01*
X148298622Y-98598742D01*
X148344377Y-98651546D01*
X148354321Y-98720704D01*
X148325296Y-98784260D01*
X148319264Y-98790738D01*
X148294515Y-98815486D01*
X148294509Y-98815494D01*
X148254956Y-98884003D01*
X148254953Y-98884008D01*
X148246823Y-98914350D01*
X148234474Y-98960437D01*
X148234474Y-99039561D01*
X148242604Y-99069901D01*
X148249015Y-99093827D01*
X148248290Y-99124263D01*
X148249862Y-99154667D01*
X148247466Y-99158854D01*
X148247352Y-99163677D01*
X148230289Y-99188886D01*
X148215173Y-99215317D01*
X148210893Y-99217544D01*
X148208190Y-99221540D01*
X148180203Y-99233524D01*
X148153200Y-99247584D01*
X148146903Y-99247784D01*
X148143961Y-99249044D01*
X148117953Y-99249406D01*
X148114401Y-99249081D01*
X148114079Y-99248995D01*
X148113456Y-99248995D01*
X148107822Y-99248480D01*
X148106652Y-99248017D01*
X148106020Y-99247934D01*
X148106040Y-99247775D01*
X148080382Y-99237623D01*
X148052070Y-99229310D01*
X148048261Y-99224914D01*
X148042853Y-99222775D01*
X148025635Y-99198803D01*
X148006315Y-99176506D01*
X148003001Y-99167289D01*
X148002094Y-99166026D01*
X148002017Y-99164554D01*
X147999336Y-99157096D01*
X147980021Y-99085011D01*
X147980017Y-99085004D01*
X147940464Y-99016495D01*
X147940458Y-99016487D01*
X147884512Y-98960541D01*
X147884504Y-98960535D01*
X147815995Y-98920982D01*
X147815990Y-98920979D01*
X147790513Y-98914152D01*
X147739562Y-98900500D01*
X147660438Y-98900500D01*
X147626619Y-98909562D01*
X147584009Y-98920979D01*
X147584004Y-98920982D01*
X147515495Y-98960535D01*
X147515487Y-98960541D01*
X147459541Y-99016487D01*
X147459535Y-99016495D01*
X147419982Y-99085004D01*
X147419979Y-99085009D01*
X147410737Y-99119500D01*
X147399500Y-99161438D01*
X147399500Y-99240562D01*
X147407247Y-99269474D01*
X147419979Y-99316990D01*
X147419982Y-99316995D01*
X147459535Y-99385504D01*
X147459539Y-99385509D01*
X147459540Y-99385511D01*
X147515489Y-99441460D01*
X147515491Y-99441461D01*
X147515495Y-99441464D01*
X147557150Y-99465513D01*
X147584011Y-99481021D01*
X147660438Y-99501500D01*
X147660440Y-99501500D01*
X147668497Y-99502561D01*
X147668144Y-99505239D01*
X147722447Y-99521185D01*
X147768202Y-99573989D01*
X147775180Y-99593398D01*
X147787785Y-99640438D01*
X147794496Y-99665485D01*
X147794499Y-99665490D01*
X147834052Y-99733999D01*
X147834056Y-99734004D01*
X147834057Y-99734006D01*
X147890006Y-99789955D01*
X147890008Y-99789956D01*
X147890012Y-99789959D01*
X147958521Y-99829512D01*
X147958528Y-99829516D01*
X148034955Y-99849995D01*
X148034957Y-99849995D01*
X148114078Y-99849995D01*
X148114079Y-99849995D01*
X148190506Y-99829516D01*
X148259028Y-99789955D01*
X148314977Y-99734006D01*
X148354538Y-99665484D01*
X148375017Y-99589057D01*
X148375017Y-99509933D01*
X148360476Y-99455666D01*
X148362137Y-99385817D01*
X148401299Y-99327954D01*
X148465527Y-99300449D01*
X148487284Y-99300579D01*
X148487284Y-99300499D01*
X148574534Y-99300499D01*
X148574536Y-99300499D01*
X148650963Y-99280020D01*
X148719485Y-99240459D01*
X148775434Y-99184510D01*
X148803129Y-99136539D01*
X148853695Y-99088323D01*
X148922302Y-99075099D01*
X148942613Y-99078764D01*
X148943704Y-99079057D01*
X148943706Y-99079057D01*
X149022826Y-99079057D01*
X149022828Y-99079057D01*
X149099255Y-99058578D01*
X149167777Y-99019017D01*
X149223726Y-98963068D01*
X149263287Y-98894546D01*
X149283766Y-98818119D01*
X149283766Y-98738995D01*
X149282735Y-98735147D01*
X149282815Y-98731776D01*
X149282705Y-98730938D01*
X149282835Y-98730920D01*
X149284400Y-98665297D01*
X149323564Y-98607436D01*
X149387794Y-98579933D01*
X149402511Y-98579057D01*
X151626684Y-98579057D01*
X151693723Y-98598742D01*
X151739478Y-98651546D01*
X151743206Y-98660647D01*
X151831799Y-98904056D01*
X151836230Y-98973785D01*
X151802260Y-99034840D01*
X151740673Y-99067838D01*
X151699098Y-99069406D01*
X151696986Y-99069128D01*
X151696982Y-99069128D01*
X151617858Y-99069128D01*
X151581889Y-99078766D01*
X151541429Y-99089607D01*
X151541424Y-99089610D01*
X151472915Y-99129163D01*
X151472907Y-99129169D01*
X151416961Y-99185115D01*
X151416955Y-99185123D01*
X151377402Y-99253632D01*
X151377399Y-99253637D01*
X151373156Y-99269474D01*
X151356920Y-99330066D01*
X151356920Y-99409190D01*
X151372012Y-99465513D01*
X151377400Y-99485621D01*
X151378924Y-99489299D01*
X151379284Y-99492651D01*
X151379503Y-99493467D01*
X151379375Y-99493501D01*
X151386393Y-99558768D01*
X151355118Y-99621247D01*
X151295029Y-99656899D01*
X151264363Y-99660751D01*
X151216715Y-99660751D01*
X151182265Y-99669982D01*
X151140286Y-99681230D01*
X151140281Y-99681233D01*
X151071772Y-99720786D01*
X151071764Y-99720792D01*
X151015818Y-99776738D01*
X151015812Y-99776746D01*
X150976259Y-99845255D01*
X150976256Y-99845260D01*
X150970489Y-99866783D01*
X150955777Y-99921689D01*
X150955777Y-100000813D01*
X150962737Y-100026786D01*
X150976256Y-100077241D01*
X150976259Y-100077246D01*
X151015812Y-100145755D01*
X151015816Y-100145760D01*
X151015817Y-100145762D01*
X151071766Y-100201711D01*
X151071768Y-100201712D01*
X151071772Y-100201715D01*
X151123487Y-100231572D01*
X151140288Y-100241272D01*
X151216715Y-100261751D01*
X151216717Y-100261751D01*
X151295837Y-100261751D01*
X151295839Y-100261751D01*
X151372266Y-100241272D01*
X151440788Y-100201711D01*
X151472061Y-100170438D01*
X157389500Y-100170438D01*
X157389500Y-100249562D01*
X157397655Y-100279997D01*
X157409979Y-100325990D01*
X157409982Y-100325995D01*
X157449535Y-100394504D01*
X157449539Y-100394509D01*
X157449540Y-100394511D01*
X157505489Y-100450460D01*
X157505491Y-100450461D01*
X157505495Y-100450464D01*
X157554622Y-100478827D01*
X157574011Y-100490021D01*
X157650438Y-100510500D01*
X157650440Y-100510500D01*
X157729560Y-100510500D01*
X157729562Y-100510500D01*
X157805989Y-100490021D01*
X157874511Y-100450460D01*
X157930460Y-100394511D01*
X157970021Y-100325989D01*
X157990500Y-100249562D01*
X157990500Y-100170438D01*
X157970021Y-100094011D01*
X157949692Y-100058800D01*
X157930464Y-100025495D01*
X157930458Y-100025487D01*
X157874512Y-99969541D01*
X157874504Y-99969535D01*
X157805995Y-99929982D01*
X157805990Y-99929979D01*
X157780513Y-99923152D01*
X157729562Y-99909500D01*
X157650438Y-99909500D01*
X157615544Y-99918850D01*
X157574009Y-99929979D01*
X157574004Y-99929982D01*
X157505495Y-99969535D01*
X157505487Y-99969541D01*
X157449541Y-100025487D01*
X157449535Y-100025495D01*
X157409982Y-100094004D01*
X157409979Y-100094009D01*
X157396326Y-100144962D01*
X157389500Y-100170438D01*
X151472061Y-100170438D01*
X151496737Y-100145762D01*
X151536298Y-100077240D01*
X151556777Y-100000813D01*
X151556777Y-99921689D01*
X151536298Y-99845262D01*
X151536296Y-99845259D01*
X151536296Y-99845257D01*
X151534773Y-99841580D01*
X151534412Y-99838227D01*
X151534194Y-99837412D01*
X151534321Y-99837377D01*
X151527304Y-99772111D01*
X151558579Y-99709632D01*
X151618668Y-99673980D01*
X151649334Y-99670128D01*
X151696980Y-99670128D01*
X151696982Y-99670128D01*
X151773409Y-99649649D01*
X151841931Y-99610088D01*
X151897880Y-99554139D01*
X151937441Y-99485617D01*
X151937443Y-99485606D01*
X151940550Y-99478110D01*
X151943853Y-99479478D01*
X151971562Y-99433815D01*
X152034348Y-99403161D01*
X152055776Y-99401405D01*
X152071788Y-99401485D01*
X152076321Y-99402700D01*
X152085038Y-99401551D01*
X152093481Y-99401594D01*
X152094434Y-99401879D01*
X152098275Y-99401711D01*
X152098613Y-99401726D01*
X152098617Y-99401724D01*
X152104325Y-99400846D01*
X152110494Y-99399337D01*
X152115955Y-99397482D01*
X152115960Y-99397482D01*
X152116256Y-99397310D01*
X152135864Y-99388168D01*
X152136183Y-99388052D01*
X152136186Y-99388049D01*
X152141094Y-99385072D01*
X152154567Y-99375192D01*
X152472400Y-99191700D01*
X152540299Y-99175230D01*
X152606325Y-99198083D01*
X152649515Y-99253005D01*
X152654170Y-99266993D01*
X152669978Y-99325986D01*
X152669982Y-99325995D01*
X152709535Y-99394504D01*
X152709539Y-99394509D01*
X152709540Y-99394511D01*
X152765489Y-99450460D01*
X152765491Y-99450461D01*
X152765495Y-99450464D01*
X152818422Y-99481021D01*
X152834011Y-99490021D01*
X152910438Y-99510500D01*
X152910440Y-99510500D01*
X152989560Y-99510500D01*
X152989562Y-99510500D01*
X153065989Y-99490021D01*
X153117230Y-99460437D01*
X154239500Y-99460437D01*
X154239500Y-99539561D01*
X154244841Y-99559493D01*
X154259979Y-99615989D01*
X154259982Y-99615994D01*
X154299535Y-99684503D01*
X154299539Y-99684508D01*
X154299540Y-99684510D01*
X154355489Y-99740459D01*
X154355491Y-99740460D01*
X154355495Y-99740463D01*
X154399741Y-99766008D01*
X154424011Y-99780020D01*
X154500438Y-99800499D01*
X154500440Y-99800499D01*
X154579560Y-99800499D01*
X154579562Y-99800499D01*
X154655989Y-99780020D01*
X154724511Y-99740459D01*
X154780460Y-99684510D01*
X154805905Y-99640438D01*
X156069500Y-99640438D01*
X156069500Y-99719562D01*
X156075101Y-99740463D01*
X156089979Y-99795990D01*
X156089982Y-99795995D01*
X156129534Y-99864503D01*
X156129539Y-99864509D01*
X156129540Y-99864511D01*
X156185489Y-99920460D01*
X156185491Y-99920461D01*
X156185495Y-99920464D01*
X156244242Y-99954381D01*
X156254011Y-99960021D01*
X156330438Y-99980500D01*
X156330440Y-99980500D01*
X156409560Y-99980500D01*
X156409562Y-99980500D01*
X156485989Y-99960021D01*
X156554511Y-99920460D01*
X156610460Y-99864511D01*
X156610462Y-99864507D01*
X156610466Y-99864503D01*
X156647417Y-99800499D01*
X156650021Y-99795989D01*
X156670500Y-99719562D01*
X156670500Y-99640438D01*
X156650021Y-99564011D01*
X156644322Y-99554140D01*
X156610464Y-99495495D01*
X156610458Y-99495487D01*
X156554512Y-99439541D01*
X156554504Y-99439535D01*
X156485995Y-99399982D01*
X156485990Y-99399979D01*
X156460513Y-99393152D01*
X156413063Y-99380438D01*
X161629500Y-99380438D01*
X161629500Y-99459562D01*
X161641022Y-99502561D01*
X161649979Y-99535990D01*
X161649982Y-99535995D01*
X161689535Y-99604504D01*
X161689539Y-99604509D01*
X161689540Y-99604511D01*
X161745489Y-99660460D01*
X161745491Y-99660461D01*
X161745495Y-99660464D01*
X161814004Y-99700017D01*
X161814011Y-99700021D01*
X161890438Y-99720500D01*
X161890440Y-99720500D01*
X161969560Y-99720500D01*
X161969562Y-99720500D01*
X162045989Y-99700021D01*
X162114511Y-99660460D01*
X162170460Y-99604511D01*
X162210021Y-99535989D01*
X162230500Y-99459562D01*
X162230500Y-99380438D01*
X162539500Y-99380438D01*
X162539500Y-99459562D01*
X162551022Y-99502561D01*
X162559979Y-99535990D01*
X162559982Y-99535995D01*
X162599535Y-99604504D01*
X162599539Y-99604509D01*
X162599540Y-99604511D01*
X162655489Y-99660460D01*
X162655491Y-99660461D01*
X162655495Y-99660464D01*
X162724004Y-99700017D01*
X162724011Y-99700021D01*
X162800438Y-99720500D01*
X162800440Y-99720500D01*
X162879560Y-99720500D01*
X162879562Y-99720500D01*
X162955989Y-99700021D01*
X163024511Y-99660460D01*
X163080460Y-99604511D01*
X163120021Y-99535989D01*
X163140500Y-99459562D01*
X163140500Y-99380438D01*
X163120021Y-99304011D01*
X163117993Y-99300499D01*
X163080464Y-99235495D01*
X163080458Y-99235487D01*
X163024512Y-99179541D01*
X163024504Y-99179535D01*
X162955995Y-99139982D01*
X162955990Y-99139979D01*
X162915646Y-99129169D01*
X162879562Y-99119500D01*
X162800438Y-99119500D01*
X162764376Y-99129163D01*
X162724009Y-99139979D01*
X162724004Y-99139982D01*
X162655495Y-99179535D01*
X162655487Y-99179541D01*
X162599541Y-99235487D01*
X162599535Y-99235495D01*
X162559982Y-99304004D01*
X162559979Y-99304009D01*
X162554089Y-99325991D01*
X162539500Y-99380438D01*
X162230500Y-99380438D01*
X162210021Y-99304011D01*
X162207993Y-99300499D01*
X162170464Y-99235495D01*
X162170458Y-99235487D01*
X162114512Y-99179541D01*
X162114504Y-99179535D01*
X162045995Y-99139982D01*
X162045990Y-99139979D01*
X162005646Y-99129169D01*
X161969562Y-99119500D01*
X161890438Y-99119500D01*
X161854376Y-99129163D01*
X161814009Y-99139979D01*
X161814004Y-99139982D01*
X161745495Y-99179535D01*
X161745487Y-99179541D01*
X161689541Y-99235487D01*
X161689535Y-99235495D01*
X161649982Y-99304004D01*
X161649979Y-99304009D01*
X161644089Y-99325991D01*
X161629500Y-99380438D01*
X156413063Y-99380438D01*
X156409562Y-99379500D01*
X156330438Y-99379500D01*
X156292224Y-99389739D01*
X156254009Y-99399979D01*
X156254004Y-99399982D01*
X156185495Y-99439535D01*
X156185487Y-99439541D01*
X156129541Y-99495487D01*
X156129535Y-99495495D01*
X156089982Y-99564004D01*
X156089979Y-99564009D01*
X156077633Y-99610086D01*
X156069500Y-99640438D01*
X154805905Y-99640438D01*
X154820021Y-99615988D01*
X154840500Y-99539561D01*
X154840500Y-99460437D01*
X154820021Y-99384010D01*
X154814719Y-99374827D01*
X154780464Y-99315494D01*
X154780458Y-99315486D01*
X154724512Y-99259540D01*
X154724504Y-99259534D01*
X154655995Y-99219981D01*
X154655990Y-99219978D01*
X154630513Y-99213151D01*
X154579562Y-99199499D01*
X154500438Y-99199499D01*
X154462224Y-99209738D01*
X154424009Y-99219978D01*
X154424004Y-99219981D01*
X154355495Y-99259534D01*
X154355487Y-99259540D01*
X154299541Y-99315486D01*
X154299535Y-99315494D01*
X154259982Y-99384003D01*
X154259979Y-99384008D01*
X154253133Y-99409558D01*
X154239500Y-99460437D01*
X153117230Y-99460437D01*
X153134511Y-99450460D01*
X153190460Y-99394511D01*
X153230021Y-99325989D01*
X153250500Y-99249562D01*
X153250500Y-99170438D01*
X153230021Y-99094011D01*
X153216101Y-99069900D01*
X153190464Y-99025495D01*
X153190458Y-99025487D01*
X153147286Y-98982315D01*
X153113801Y-98920992D01*
X153114276Y-98914349D01*
X158091622Y-98914349D01*
X158091622Y-98993473D01*
X158103971Y-99039559D01*
X158112101Y-99069901D01*
X158112104Y-99069906D01*
X158151657Y-99138415D01*
X158151661Y-99138420D01*
X158151662Y-99138422D01*
X158207611Y-99194371D01*
X158207613Y-99194372D01*
X158207617Y-99194375D01*
X158251969Y-99219981D01*
X158276133Y-99233932D01*
X158352560Y-99254411D01*
X158352562Y-99254411D01*
X158431683Y-99254411D01*
X158431684Y-99254411D01*
X158508111Y-99233932D01*
X158576633Y-99194371D01*
X158632582Y-99138422D01*
X158672143Y-99069900D01*
X158692622Y-98993473D01*
X158692622Y-98914349D01*
X158672143Y-98837922D01*
X158647574Y-98795367D01*
X158632586Y-98769406D01*
X158632580Y-98769398D01*
X158612827Y-98749645D01*
X158576633Y-98713451D01*
X158508111Y-98673890D01*
X158481197Y-98666678D01*
X158465106Y-98662366D01*
X158431684Y-98653411D01*
X158352560Y-98653411D01*
X158314346Y-98663650D01*
X158276131Y-98673890D01*
X158276126Y-98673893D01*
X158207617Y-98713446D01*
X158207609Y-98713452D01*
X158151663Y-98769398D01*
X158151657Y-98769406D01*
X158112104Y-98837915D01*
X158112101Y-98837920D01*
X158099753Y-98884003D01*
X158091622Y-98914349D01*
X153114276Y-98914349D01*
X153118785Y-98851300D01*
X153160657Y-98795367D01*
X153172961Y-98787251D01*
X154172077Y-98210438D01*
X158529500Y-98210438D01*
X158529500Y-98289562D01*
X158535363Y-98311441D01*
X158549979Y-98365990D01*
X158549982Y-98365995D01*
X158589535Y-98434504D01*
X158589539Y-98434509D01*
X158589540Y-98434511D01*
X158645489Y-98490460D01*
X158714011Y-98530021D01*
X158790438Y-98550500D01*
X158790439Y-98550500D01*
X158869560Y-98550500D01*
X158869562Y-98550500D01*
X158945989Y-98530021D01*
X159014511Y-98490460D01*
X159070460Y-98434511D01*
X159110021Y-98365989D01*
X159130500Y-98289562D01*
X159130500Y-98210438D01*
X159110021Y-98134011D01*
X159104532Y-98124504D01*
X159070464Y-98065495D01*
X159070458Y-98065487D01*
X159014512Y-98009541D01*
X159014504Y-98009535D01*
X158945995Y-97969982D01*
X158945990Y-97969979D01*
X158920513Y-97963152D01*
X158869562Y-97949500D01*
X158790438Y-97949500D01*
X158752224Y-97959739D01*
X158714009Y-97969979D01*
X158714004Y-97969982D01*
X158645495Y-98009535D01*
X158645487Y-98009541D01*
X158589541Y-98065487D01*
X158589535Y-98065495D01*
X158549982Y-98134004D01*
X158549979Y-98134009D01*
X158541274Y-98166498D01*
X158529500Y-98210438D01*
X154172077Y-98210438D01*
X154709038Y-97900438D01*
X163419500Y-97900438D01*
X163419500Y-97979562D01*
X163427533Y-98009540D01*
X163439979Y-98055990D01*
X163439982Y-98055995D01*
X163479535Y-98124504D01*
X163479539Y-98124509D01*
X163479540Y-98124511D01*
X163535489Y-98180460D01*
X163535491Y-98180461D01*
X163535495Y-98180464D01*
X163587414Y-98210439D01*
X163604011Y-98220021D01*
X163680438Y-98240500D01*
X163680440Y-98240500D01*
X163759560Y-98240500D01*
X163759562Y-98240500D01*
X163835989Y-98220021D01*
X163904511Y-98180460D01*
X163960460Y-98124511D01*
X164000021Y-98055989D01*
X164020500Y-97979562D01*
X164020500Y-97900438D01*
X164000021Y-97824011D01*
X163988831Y-97804629D01*
X163960464Y-97755495D01*
X163960458Y-97755487D01*
X163904512Y-97699541D01*
X163904504Y-97699535D01*
X163835995Y-97659982D01*
X163835990Y-97659979D01*
X163810513Y-97653152D01*
X163759562Y-97639500D01*
X163680438Y-97639500D01*
X163642224Y-97649739D01*
X163604009Y-97659979D01*
X163604004Y-97659982D01*
X163535495Y-97699535D01*
X163535487Y-97699541D01*
X163479541Y-97755487D01*
X163479535Y-97755495D01*
X163439982Y-97824004D01*
X163439979Y-97824009D01*
X163427651Y-97870017D01*
X163419500Y-97900438D01*
X154709038Y-97900438D01*
X155315284Y-97550438D01*
X161279500Y-97550438D01*
X161279500Y-97629562D01*
X161287651Y-97659982D01*
X161299979Y-97705990D01*
X161299982Y-97705995D01*
X161339535Y-97774504D01*
X161339539Y-97774509D01*
X161339540Y-97774511D01*
X161395489Y-97830460D01*
X161395491Y-97830461D01*
X161395495Y-97830464D01*
X161440708Y-97856567D01*
X161464011Y-97870021D01*
X161540438Y-97890500D01*
X161540440Y-97890500D01*
X161619560Y-97890500D01*
X161619562Y-97890500D01*
X161695989Y-97870021D01*
X161764511Y-97830460D01*
X161820460Y-97774511D01*
X161860021Y-97705989D01*
X161880500Y-97629562D01*
X161880500Y-97550438D01*
X161860021Y-97474011D01*
X161837453Y-97434922D01*
X161820464Y-97405495D01*
X161820458Y-97405487D01*
X161764512Y-97349541D01*
X161764504Y-97349535D01*
X161695995Y-97309982D01*
X161695990Y-97309979D01*
X161670513Y-97303152D01*
X161619562Y-97289500D01*
X161540438Y-97289500D01*
X161502224Y-97299739D01*
X161464009Y-97309979D01*
X161464004Y-97309982D01*
X161395495Y-97349535D01*
X161395487Y-97349541D01*
X161339541Y-97405487D01*
X161339535Y-97405495D01*
X161299982Y-97474004D01*
X161299979Y-97474009D01*
X161293150Y-97499497D01*
X161279500Y-97550438D01*
X155315284Y-97550438D01*
X158049522Y-95971899D01*
X158117422Y-95955429D01*
X158173604Y-95971950D01*
X160219646Y-97155447D01*
X160219645Y-97155447D01*
X160238220Y-97166191D01*
X160242327Y-97171585D01*
X160261218Y-97179494D01*
X160266754Y-97182695D01*
X160272962Y-97186287D01*
X160272963Y-97186287D01*
X160272965Y-97186288D01*
X160284530Y-97190224D01*
X160284358Y-97190727D01*
X160288967Y-97191973D01*
X160292002Y-97192384D01*
X160292003Y-97192383D01*
X160292006Y-97192385D01*
X160305743Y-97190629D01*
X160312597Y-97191537D01*
X160325406Y-97188116D01*
X160345429Y-97185557D01*
X160351070Y-97181262D01*
X160351225Y-97181221D01*
X160367376Y-97168848D01*
X160388281Y-97152933D01*
X160395296Y-97136176D01*
X160396194Y-97134032D01*
X160402983Y-97122298D01*
X160403847Y-97115775D01*
X160484762Y-96922576D01*
X160633219Y-96502398D01*
X160659759Y-96411052D01*
X160697365Y-96352169D01*
X160760838Y-96322963D01*
X160830024Y-96332709D01*
X160882958Y-96378314D01*
X160898608Y-96413555D01*
X160909977Y-96455984D01*
X160909982Y-96455995D01*
X160949535Y-96524504D01*
X160949539Y-96524509D01*
X160949540Y-96524511D01*
X161005489Y-96580460D01*
X161005491Y-96580461D01*
X161005495Y-96580464D01*
X161074004Y-96620017D01*
X161074011Y-96620021D01*
X161150438Y-96640500D01*
X161150440Y-96640500D01*
X161229560Y-96640500D01*
X161229562Y-96640500D01*
X161305989Y-96620021D01*
X161374511Y-96580460D01*
X161430460Y-96524511D01*
X161470021Y-96455989D01*
X161490500Y-96379562D01*
X161490500Y-96300438D01*
X161470021Y-96224011D01*
X161468794Y-96221886D01*
X161430464Y-96155495D01*
X161430458Y-96155487D01*
X161374512Y-96099541D01*
X161374507Y-96099537D01*
X161370249Y-96097079D01*
X161370247Y-96097077D01*
X161305995Y-96059982D01*
X161305990Y-96059979D01*
X161280513Y-96053152D01*
X161229562Y-96039500D01*
X161150438Y-96039500D01*
X161112224Y-96049739D01*
X161074009Y-96059979D01*
X161074004Y-96059982D01*
X161005495Y-96099535D01*
X161005491Y-96099538D01*
X160981293Y-96123736D01*
X160919969Y-96157220D01*
X160850278Y-96152234D01*
X160794345Y-96110362D01*
X160769929Y-96044897D01*
X160772763Y-96008280D01*
X160775167Y-95997820D01*
X164093192Y-95997820D01*
X164093192Y-96076944D01*
X164099246Y-96099537D01*
X164113671Y-96153372D01*
X164113674Y-96153377D01*
X164153227Y-96221886D01*
X164153231Y-96221891D01*
X164153232Y-96221893D01*
X164209181Y-96277842D01*
X164209183Y-96277843D01*
X164209187Y-96277846D01*
X164248320Y-96300439D01*
X164277703Y-96317403D01*
X164354130Y-96337882D01*
X164354132Y-96337882D01*
X164433252Y-96337882D01*
X164433254Y-96337882D01*
X164509681Y-96317403D01*
X164578203Y-96277842D01*
X164634152Y-96221893D01*
X164673713Y-96153371D01*
X164694192Y-96076944D01*
X164694192Y-95997820D01*
X164673713Y-95921393D01*
X164673709Y-95921386D01*
X164634156Y-95852877D01*
X164634150Y-95852869D01*
X164578204Y-95796923D01*
X164578196Y-95796917D01*
X164509687Y-95757364D01*
X164509682Y-95757361D01*
X164484205Y-95750534D01*
X164433254Y-95736882D01*
X164354130Y-95736882D01*
X164315916Y-95747121D01*
X164277701Y-95757361D01*
X164277696Y-95757364D01*
X164209187Y-95796917D01*
X164209179Y-95796923D01*
X164153233Y-95852869D01*
X164153227Y-95852877D01*
X164113674Y-95921386D01*
X164113671Y-95921391D01*
X164109737Y-95936073D01*
X164093192Y-95997820D01*
X160775167Y-95997820D01*
X160781124Y-95971900D01*
X160857366Y-95640149D01*
X160930461Y-95211820D01*
X160961141Y-95149051D01*
X161020890Y-95112831D01*
X161084785Y-95112907D01*
X161150438Y-95130500D01*
X161150440Y-95130500D01*
X161229560Y-95130500D01*
X161229562Y-95130500D01*
X161305989Y-95110021D01*
X161374511Y-95070460D01*
X161430460Y-95014511D01*
X161470021Y-94945989D01*
X161490500Y-94869562D01*
X161490500Y-94790438D01*
X161489469Y-94786590D01*
X161489549Y-94783219D01*
X161489439Y-94782381D01*
X161489569Y-94782363D01*
X161491134Y-94716740D01*
X161530298Y-94658879D01*
X161594528Y-94631376D01*
X161609245Y-94630500D01*
X164755500Y-94630500D01*
X164822539Y-94650185D01*
G37*
%TD.AperFunction*%
%TD*%
M02*
