%TF.GenerationSoftware,KiCad,Pcbnew,9.0.5*%
%TF.CreationDate,2025-10-30T22:03:55+01:00*%
%TF.ProjectId,36mm PCB,33366d6d-2050-4434-922e-6b696361645f,rev?*%
%TF.SameCoordinates,Original*%
%TF.FileFunction,Copper,L1,Top*%
%TF.FilePolarity,Positive*%
%FSLAX46Y46*%
G04 Gerber Fmt 4.6, Leading zero omitted, Abs format (unit mm)*
G04 Created by KiCad (PCBNEW 9.0.5) date 2025-10-30 22:03:55*
%MOMM*%
%LPD*%
G01*
G04 APERTURE LIST*
G04 Aperture macros list*
%AMRoundRect*
0 Rectangle with rounded corners*
0 $1 Rounding radius*
0 $2 $3 $4 $5 $6 $7 $8 $9 X,Y pos of 4 corners*
0 Add a 4 corners polygon primitive as box body*
4,1,4,$2,$3,$4,$5,$6,$7,$8,$9,$2,$3,0*
0 Add four circle primitives for the rounded corners*
1,1,$1+$1,$2,$3*
1,1,$1+$1,$4,$5*
1,1,$1+$1,$6,$7*
1,1,$1+$1,$8,$9*
0 Add four rect primitives between the rounded corners*
20,1,$1+$1,$2,$3,$4,$5,0*
20,1,$1+$1,$4,$5,$6,$7,0*
20,1,$1+$1,$6,$7,$8,$9,0*
20,1,$1+$1,$8,$9,$2,$3,0*%
%AMRotRect*
0 Rectangle, with rotation*
0 The origin of the aperture is its center*
0 $1 length*
0 $2 width*
0 $3 Rotation angle, in degrees counterclockwise*
0 Add horizontal line*
21,1,$1,$2,0,0,$3*%
%AMFreePoly0*
4,1,59,0.028499,0.147118,0.029264,0.147118,0.083336,0.124720,0.086045,0.122010,0.089073,0.120690,0.099600,0.108455,0.124720,0.083336,0.127970,0.075489,0.132617,0.070090,0.137032,0.053612,0.147118,0.029264,0.147118,0.015972,0.149895,0.005609,0.147118,-0.009067,0.147118,-0.029264,0.140082,-0.046248,0.137484,-0.059984,0.130440,-0.069525,0.124720,-0.083336,0.107652,-0.100403,
0.097843,-0.113696,0.090457,-0.117598,0.083336,-0.124720,0.053958,-0.136888,0.038823,-0.144889,-0.034562,-0.164553,-0.168307,-0.236668,-0.281816,-0.337682,-0.368970,-0.462151,-0.425070,-0.603363,-0.447092,-0.753706,-0.433849,-0.905077,-0.386055,-1.049313,-0.306285,-1.178638,-0.252564,-1.232360,-0.217047,-1.288884,-0.209573,-1.355221,-0.231621,-1.418231,-0.278825,-1.465435,-0.341835,-1.487484,
-0.408172,-1.480009,-0.464697,-1.444492,-0.579686,-1.305223,-0.666241,-1.146708,-0.721234,-0.974678,-0.742675,-0.795349,-0.729791,-0.615202,-0.683046,-0.440750,-0.604131,-0.278297,-0.495898,-0.133714,-0.362258,-0.012227,-0.208042,0.081772,-0.038823,0.144888,-0.038823,0.144889,-0.034232,0.145059,-0.029264,0.147118,0.020751,0.147118,0.027887,0.147385,0.028499,0.147118,0.028499,0.147118,
$1*%
%AMFreePoly1*
4,1,68,-0.020751,0.147118,0.029264,0.147118,0.034232,0.145059,0.038823,0.144889,0.213119,0.079288,0.371268,-0.019055,0.507193,-0.146362,0.615668,-0.297741,0.692529,-0.467373,0.734818,-0.648741,0.740911,-0.834874,0.710576,-1.018619,0.644974,-1.192915,0.546631,-1.351064,0.419324,-1.486989,0.267945,-1.595465,0.098313,-1.672325,-0.083055,-1.714614,-0.269188,-1.720707,-0.452933,-1.690371,
-0.511953,-1.659178,-0.551593,-1.605466,-0.564005,-1.539873,-0.546726,-1.475392,-0.503183,-1.424793,-0.441997,-1.398097,-0.375288,-1.400593,-0.304545,-1.419548,-0.158173,-1.425025,-0.014252,-1.397794,0.120002,-1.339219,0.237855,-1.252240,0.333399,-1.141216,0.401842,-1.011715,0.439752,-0.870231,0.445229,-0.723859,0.417998,-0.579938,0.359423,-0.445684,0.272444,-0.327831,0.161420,-0.232286,
0.031919,-0.163845,-0.038823,-0.144889,-0.053958,-0.136888,-0.083336,-0.124720,-0.090457,-0.117598,-0.097843,-0.113696,-0.107652,-0.100403,-0.124720,-0.083336,-0.130440,-0.069525,-0.137484,-0.059984,-0.140082,-0.046248,-0.147118,-0.029264,-0.147118,-0.009067,-0.149895,0.005609,-0.147118,0.015972,-0.147118,0.029264,-0.137032,0.053612,-0.132617,0.070090,-0.127970,0.075489,-0.124720,0.083336,
-0.099600,0.108455,-0.089073,0.120690,-0.086045,0.122010,-0.083336,0.124720,-0.029264,0.147118,-0.028499,0.147118,-0.027887,0.147385,-0.020751,0.147118,-0.020751,0.147118,$1*%
G04 Aperture macros list end*
%TA.AperFunction,SMDPad,CuDef*%
%ADD10RoundRect,0.140000X-0.140000X-0.170000X0.140000X-0.170000X0.140000X0.170000X-0.140000X0.170000X0*%
%TD*%
%TA.AperFunction,SMDPad,CuDef*%
%ADD11FreePoly0,210.000000*%
%TD*%
%TA.AperFunction,SMDPad,CuDef*%
%ADD12FreePoly1,210.000000*%
%TD*%
%TA.AperFunction,SMDPad,CuDef*%
%ADD13RoundRect,0.100000X-0.032506X-0.160759X0.163718X0.009817X0.032506X0.160759X-0.163718X-0.009817X0*%
%TD*%
%TA.AperFunction,SMDPad,CuDef*%
%ADD14RoundRect,0.100000X0.130000X0.100000X-0.130000X0.100000X-0.130000X-0.100000X0.130000X-0.100000X0*%
%TD*%
%TA.AperFunction,ComponentPad*%
%ADD15R,1.000000X0.800000*%
%TD*%
%TA.AperFunction,SMDPad,CuDef*%
%ADD16RoundRect,0.100000X-0.100000X0.130000X-0.100000X-0.130000X0.100000X-0.130000X0.100000X0.130000X0*%
%TD*%
%TA.AperFunction,SMDPad,CuDef*%
%ADD17RoundRect,0.200000X-0.102845X0.489309X-0.440940X-0.235738X0.102845X-0.489309X0.440940X0.235738X0*%
%TD*%
%TA.AperFunction,SMDPad,CuDef*%
%ADD18RoundRect,0.100000X0.032506X0.160759X-0.163718X-0.009817X-0.032506X-0.160759X0.163718X0.009817X0*%
%TD*%
%TA.AperFunction,SMDPad,CuDef*%
%ADD19R,0.450000X0.600000*%
%TD*%
%TA.AperFunction,SMDPad,CuDef*%
%ADD20RoundRect,0.140000X-0.198728X-0.094906X0.055038X-0.213239X0.198728X0.094906X-0.055038X0.213239X0*%
%TD*%
%TA.AperFunction,SMDPad,CuDef*%
%ADD21C,0.320000*%
%TD*%
%TA.AperFunction,SMDPad,CuDef*%
%ADD22RoundRect,0.218750X0.218750X0.381250X-0.218750X0.381250X-0.218750X-0.381250X0.218750X-0.381250X0*%
%TD*%
%TA.AperFunction,SMDPad,CuDef*%
%ADD23RoundRect,0.140000X0.140000X0.170000X-0.140000X0.170000X-0.140000X-0.170000X0.140000X-0.170000X0*%
%TD*%
%TA.AperFunction,SMDPad,CuDef*%
%ADD24RotRect,1.000000X1.800000X150.000000*%
%TD*%
%TA.AperFunction,SMDPad,CuDef*%
%ADD25RoundRect,0.100000X0.100000X-0.130000X0.100000X0.130000X-0.100000X0.130000X-0.100000X-0.130000X0*%
%TD*%
%TA.AperFunction,SMDPad,CuDef*%
%ADD26R,0.800000X0.300000*%
%TD*%
%TA.AperFunction,SMDPad,CuDef*%
%ADD27R,1.750000X1.550000*%
%TD*%
%TA.AperFunction,SMDPad,CuDef*%
%ADD28RoundRect,0.147500X-0.147500X-0.172500X0.147500X-0.172500X0.147500X0.172500X-0.147500X0.172500X0*%
%TD*%
%TA.AperFunction,SMDPad,CuDef*%
%ADD29RotRect,0.600000X1.100000X223.000000*%
%TD*%
%TA.AperFunction,SMDPad,CuDef*%
%ADD30RoundRect,0.140000X0.170000X-0.140000X0.170000X0.140000X-0.170000X0.140000X-0.170000X-0.140000X0*%
%TD*%
%TA.AperFunction,SMDPad,CuDef*%
%ADD31R,0.300000X0.800000*%
%TD*%
%TA.AperFunction,SMDPad,CuDef*%
%ADD32R,3.800000X3.800000*%
%TD*%
%TA.AperFunction,SMDPad,CuDef*%
%ADD33C,0.200000*%
%TD*%
%TA.AperFunction,SMDPad,CuDef*%
%ADD34RoundRect,0.090000X0.077320X0.345466X-0.352865X-0.028488X-0.077320X-0.345466X0.352865X0.028488X0*%
%TD*%
%TA.AperFunction,SMDPad,CuDef*%
%ADD35RoundRect,0.100000X-0.130000X-0.100000X0.130000X-0.100000X0.130000X0.100000X-0.130000X0.100000X0*%
%TD*%
%TA.AperFunction,SMDPad,CuDef*%
%ADD36RoundRect,0.100000X-0.160759X0.032506X0.009817X-0.163718X0.160759X-0.032506X-0.009817X0.163718X0*%
%TD*%
%TA.AperFunction,ViaPad*%
%ADD37C,0.400000*%
%TD*%
%TA.AperFunction,Conductor*%
%ADD38C,0.100000*%
%TD*%
%TA.AperFunction,Conductor*%
%ADD39C,0.190000*%
%TD*%
%TA.AperFunction,Conductor*%
%ADD40C,0.172300*%
%TD*%
G04 APERTURE END LIST*
D10*
%TO.P,C18,2*%
%TO.N,GND*%
X147670000Y-101360000D03*
%TO.P,C18,1*%
%TO.N,Net-(IC2-CRST)*%
X146710000Y-101360000D03*
%TD*%
D11*
%TO.P,L2,1,1*%
%TO.N,Net-(IC8-1D-)*%
X142495685Y-100565686D03*
D12*
%TO.P,L2,2,2*%
%TO.N,Net-(IC8-1D+)*%
X142137056Y-100772741D03*
%TD*%
D11*
%TO.P,L3,1,1*%
%TO.N,/Dial/MOT2*%
X150565685Y-100565686D03*
D12*
%TO.P,L3,2,2*%
%TO.N,/Dial/MOT1*%
X150207056Y-100772741D03*
%TD*%
D13*
%TO.P,C7,1*%
%TO.N,/32mhz+*%
X161778493Y-103669939D03*
%TO.P,C7,2*%
%TO.N,GND*%
X162261507Y-103250061D03*
%TD*%
D14*
%TO.P,C33,1*%
%TO.N,GND*%
X159200000Y-100780000D03*
%TO.P,C33,2*%
%TO.N,Net-(D1-VFBSD)*%
X158560000Y-100780000D03*
%TD*%
D15*
%TO.P,J2,1,Pin_1*%
%TO.N,+3V0*%
X165480000Y-95070000D03*
%TO.P,J2,2,Pin_2*%
%TO.N,GND*%
X167080000Y-95070000D03*
%TD*%
D16*
%TO.P,R25,1*%
%TO.N,Net-(TPS3424A11C13ADRLR1-~INT~)*%
X161120000Y-104370000D03*
%TO.P,R25,2*%
%TO.N,/L-S press INT*%
X161120000Y-105010000D03*
%TD*%
D17*
%TO.P,SW5,1,1*%
%TO.N,GND*%
X164877030Y-102496886D03*
%TO.P,SW5,2,2*%
%TO.N,Net-(C20-Pad2)*%
X163336308Y-101778435D03*
%TO.P,SW5,3,3*%
%TO.N,GND*%
X167243692Y-97421565D03*
%TO.P,SW5,4,4*%
%TO.N,Net-(C20-Pad2)*%
X165702970Y-96703114D03*
%TD*%
D18*
%TO.P,R26,1*%
%TO.N,Net-(TPS3424A11C13ADRLR1-kill)*%
X161801507Y-102720061D03*
%TO.P,R26,2*%
%TO.N,/Kill*%
X161318493Y-103139939D03*
%TD*%
D14*
%TO.P,R2,1*%
%TO.N,GND*%
X156160000Y-98980000D03*
%TO.P,R2,2*%
%TO.N,Net-(IC1-RESET)*%
X155520000Y-98980000D03*
%TD*%
D19*
%TO.P,LED1,1,K*%
%TO.N,Net-(LED1-K)*%
X146030000Y-97780000D03*
%TO.P,LED1,2,A*%
%TO.N,/Power/Charge +*%
X147030000Y-97780000D03*
%TD*%
D20*
%TO.P,C15,1*%
%TO.N,+3V0*%
X166354972Y-95867143D03*
%TO.P,C15,2*%
%TO.N,GND*%
X167225028Y-96272857D03*
%TD*%
D21*
%TO.P,IC4,A1,OUT*%
%TO.N,Net-(IC4-OUT)*%
X153953000Y-108052500D03*
%TO.P,IC4,A2,GND4*%
%TO.N,GND*%
X154530000Y-108052500D03*
%TO.P,IC4,A3,IN*%
%TO.N,/ANT*%
X155107000Y-108052500D03*
%TO.P,IC4,B1,GND3*%
%TO.N,GND*%
X153953000Y-107552500D03*
%TO.P,IC4,B2,GND2*%
X154530000Y-107552500D03*
%TO.P,IC4,B3,GND1*%
X155107000Y-107552500D03*
%TD*%
D22*
%TO.P,L4,1*%
%TO.N,Net-(L1-Pad2)*%
X160902500Y-99830000D03*
%TO.P,L4,2*%
%TO.N,Net-(D1-VFBSD)*%
X158777500Y-99830000D03*
%TD*%
D23*
%TO.P,C34,1*%
%TO.N,Net-(D1-VFBSD)*%
X157750000Y-100840000D03*
%TO.P,C34,2*%
%TO.N,GND*%
X156790000Y-100840000D03*
%TD*%
D24*
%TO.P,ANT1,1,FEED*%
%TO.N,Net-(ANT1-FEED)*%
X148122339Y-105905000D03*
%TO.P,ANT1,2,NC*%
%TO.N,unconnected-(ANT1-NC-Pad2)*%
X145437661Y-104355000D03*
%TD*%
D25*
%TO.P,C32,1*%
%TO.N,Net-(ANT1-FEED)*%
X151980001Y-108040000D03*
%TO.P,C32,2*%
%TO.N,GND*%
X151979999Y-107400000D03*
%TD*%
%TO.P,C28,1*%
%TO.N,GND*%
X154680000Y-104560000D03*
%TO.P,C28,2*%
%TO.N,/ADC*%
X154680000Y-103920000D03*
%TD*%
D16*
%TO.P,R1,1*%
%TO.N,/Dial/VDD PROG*%
X152880000Y-102810000D03*
%TO.P,R1,2*%
%TO.N,+1V8*%
X152880000Y-103450000D03*
%TD*%
D14*
%TO.P,R6,1*%
%TO.N,/Power/STAT*%
X146550000Y-98530000D03*
%TO.P,R6,2*%
%TO.N,Net-(LED1-K)*%
X145910000Y-98530000D03*
%TD*%
D26*
%TO.P,IC5,1,VDD_1*%
%TO.N,/Power/Charge +*%
X164390000Y-96340000D03*
%TO.P,IC5,2,VDD_2*%
X164390000Y-95840000D03*
%TO.P,IC5,3,VBAT_1*%
%TO.N,+3V0*%
X164390000Y-95339999D03*
%TO.P,IC5,4,VBAT_2*%
X164390001Y-94840000D03*
%TO.P,IC5,5,STAT*%
%TO.N,/Power/STAT*%
X161390000Y-94840000D03*
%TO.P,IC5,6,VSS*%
%TO.N,GND*%
X161390000Y-95340000D03*
%TO.P,IC5,7,NC*%
%TO.N,unconnected-(IC5-NC-Pad7)*%
X161390000Y-95840001D03*
%TO.P,IC5,8,PROG*%
%TO.N,Net-(IC5-PROG)*%
X161389999Y-96340000D03*
D27*
%TO.P,IC5,9,EP*%
%TO.N,GND*%
X162890000Y-95590000D03*
%TD*%
D28*
%TO.P,L1,1*%
%TO.N,Net-(D1-VLXSD)*%
X160025000Y-100900000D03*
%TO.P,L1,2*%
%TO.N,Net-(L1-Pad2)*%
X160995000Y-100900000D03*
%TD*%
D29*
%TO.P,Y1,1,1*%
%TO.N,/Dial/OSCIN*%
X154431948Y-100682602D03*
%TO.P,Y1,2,2*%
%TO.N,/Dial/OSCOUT*%
X153408052Y-101637398D03*
%TD*%
D30*
%TO.P,C25,1*%
%TO.N,/Peripherals/VDDIO*%
X152070000Y-104380000D03*
%TO.P,C25,2*%
%TO.N,GND*%
X152070000Y-103420000D03*
%TD*%
D25*
%TO.P,R20,1*%
%TO.N,GND*%
X153980000Y-104560000D03*
%TO.P,R20,2*%
%TO.N,/ADC*%
X153980000Y-103920000D03*
%TD*%
D26*
%TO.P,D1,1,PB3*%
%TO.N,/H_Tim2*%
X155385000Y-102420000D03*
%TO.P,D1,2,PB2*%
%TO.N,/H_Tim1*%
X155385000Y-102920000D03*
%TO.P,D1,3,PB1*%
%TO.N,/BMP581_INT*%
X155385000Y-103420000D03*
%TO.P,D1,4,PB0*%
%TO.N,/ADC*%
X155385000Y-103920000D03*
%TO.P,D1,5,PA3*%
%TO.N,/SWCLK*%
X155385000Y-104420000D03*
%TO.P,D1,6,PA2*%
%TO.N,/SWDIO*%
X155385000Y-104920000D03*
%TO.P,D1,7,PA1*%
%TO.N,unconnected-(D1-PA1-Pad7)*%
X155385000Y-105420000D03*
%TO.P,D1,8,PA0*%
%TO.N,unconnected-(D1-PA0-Pad8)*%
X155385000Y-105920000D03*
D31*
%TO.P,D1,9,PA8*%
%TO.N,/Select dial*%
X156135000Y-106670000D03*
%TO.P,D1,10,PA9*%
%TO.N,/H_on_GPIO*%
X156635000Y-106670000D03*
%TO.P,D1,11,PA10*%
%TO.N,/PCF_Reset*%
X157135000Y-106670000D03*
%TO.P,D1,12,PA11*%
%TO.N,/DEBLED*%
X157635000Y-106670000D03*
%TO.P,D1,13,VDD2*%
%TO.N,+3.3V*%
X158135000Y-106670000D03*
%TO.P,D1,14,RF1*%
%TO.N,/ANT*%
X158635000Y-106670000D03*
%TO.P,D1,15,VDDRF*%
%TO.N,+3.3V*%
X159135000Y-106670000D03*
%TO.P,D1,16,OSCOUT*%
%TO.N,/32mhz-*%
X159635000Y-106670000D03*
D26*
%TO.P,D1,17,OSCIN*%
%TO.N,/32mhz+*%
X160385000Y-105920000D03*
%TO.P,D1,18,PB15*%
%TO.N,/Button press*%
X160385000Y-105420000D03*
%TO.P,D1,19,PB14*%
%TO.N,/L-S press INT*%
X160385000Y-104920000D03*
%TO.P,D1,20,PB13/XTALI*%
%TO.N,unconnected-(D1-PB13{slash}XTALI-Pad20)*%
X160385000Y-104420000D03*
%TO.P,D1,21,PB12/XTALO*%
%TO.N,unconnected-(D1-PB12{slash}XTALO-Pad21)*%
X160385000Y-103920000D03*
%TO.P,D1,22,PB7*%
%TO.N,/Kill*%
X160385000Y-103420000D03*
%TO.P,D1,23,PB6*%
%TO.N,/KeepOn*%
X160385000Y-102920000D03*
%TO.P,D1,24,VDDSD*%
%TO.N,+3.3V*%
X160385000Y-102420000D03*
D31*
%TO.P,D1,25,VLXSD*%
%TO.N,Net-(D1-VLXSD)*%
X159635000Y-101670000D03*
%TO.P,D1,26,VSS*%
%TO.N,GND*%
X159135000Y-101670000D03*
%TO.P,D1,27,VFBSD*%
%TO.N,Net-(D1-VFBSD)*%
X158635000Y-101670000D03*
%TO.P,D1,28,VCAP*%
%TO.N,Net-(D1-VCAP)*%
X158135000Y-101670000D03*
%TO.P,D1,29,RSTN*%
%TO.N,/NRST*%
X157635000Y-101670000D03*
%TO.P,D1,30,PB5*%
%TO.N,/I2C_SCL*%
X157135000Y-101670000D03*
%TO.P,D1,31,PB4*%
%TO.N,/I2C_SDA*%
X156635000Y-101670000D03*
%TO.P,D1,32,VDD1*%
%TO.N,+3.3V*%
X156135000Y-101670000D03*
D32*
%TO.P,D1,33,GND*%
%TO.N,GND*%
X157885000Y-104170000D03*
%TD*%
D33*
%TO.P,IC1,A1,VSS*%
%TO.N,GND*%
X152830000Y-99760000D03*
%TO.P,IC1,A3,I.C.*%
%TO.N,unconnected-(IC1-I.C.-PadA3)*%
X152400000Y-99760000D03*
%TO.P,IC1,A5,RESET*%
%TO.N,Net-(IC1-RESET)*%
X151970000Y-99760000D03*
%TO.P,IC1,B2,OSCIN*%
%TO.N,/Dial/OSCIN*%
X152625000Y-100040000D03*
%TO.P,IC1,B4,MOT2*%
%TO.N,/Dial/MOT2*%
X152175000Y-100040000D03*
%TO.P,IC1,C1,OSCOUT*%
%TO.N,/Dial/OSCOUT*%
X152830000Y-100320000D03*
%TO.P,IC1,C3,MOT1*%
%TO.N,/Dial/MOT1*%
X152400000Y-100320000D03*
%TO.P,IC1,C5,VDD*%
%TO.N,/Dial/VDD PROG*%
X151970000Y-100320000D03*
%TD*%
D18*
%TO.P,R24,1*%
%TO.N,Net-(LDLN025PU1-EN)*%
X161681506Y-101890060D03*
%TO.P,R24,2*%
%TO.N,/KeepOn*%
X161198494Y-102309940D03*
%TD*%
D16*
%TO.P,R19,1*%
%TO.N,+3V0*%
X154680000Y-102510000D03*
%TO.P,R19,2*%
%TO.N,/ADC*%
X154680000Y-103150000D03*
%TD*%
D34*
%TO.P,Y3,1,1*%
%TO.N,/32mhz-*%
X163318646Y-104297453D03*
%TO.P,Y3,2,2*%
%TO.N,GND*%
X162793798Y-103693685D03*
%TO.P,Y3,3,3*%
%TO.N,/32mhz+*%
X162001354Y-104382547D03*
%TO.P,Y3,4,4*%
%TO.N,GND*%
X162526202Y-104986315D03*
%TD*%
D35*
%TO.P,R30,1*%
%TO.N,Net-(IC1-RESET)*%
X155190000Y-99680000D03*
%TO.P,R30,2*%
%TO.N,/PCF_Reset*%
X155830000Y-99680000D03*
%TD*%
D36*
%TO.P,C8,1*%
%TO.N,GND*%
X163380061Y-103178493D03*
%TO.P,C8,2*%
%TO.N,/32mhz-*%
X163799939Y-103661507D03*
%TD*%
D14*
%TO.P,R7,1*%
%TO.N,Net-(IC4-OUT)*%
X153350000Y-108070001D03*
%TO.P,R7,2*%
%TO.N,Net-(ANT1-FEED)*%
X152710000Y-108069999D03*
%TD*%
D37*
%TO.N,GND*%
X151930000Y-102770000D03*
X151930000Y-102240000D03*
X151565954Y-98778557D03*
X150965954Y-98778557D03*
X162430000Y-100380000D03*
X160780000Y-96750000D03*
X164310000Y-97410000D03*
X158560000Y-105090000D03*
X158540000Y-104260000D03*
X157320000Y-103720000D03*
X156580000Y-103720000D03*
X157845000Y-104450000D03*
X145850000Y-99200000D03*
X159940000Y-98810000D03*
X162830000Y-103070000D03*
X140174791Y-100282707D03*
X145556824Y-106363784D03*
X167832791Y-96464370D03*
X163260000Y-95090001D03*
X167948428Y-95649789D03*
X167671581Y-97271170D03*
X151709590Y-108543764D03*
X148510174Y-107801021D03*
X168010000Y-94840000D03*
X146993070Y-107165478D03*
X158111156Y-96180002D03*
X166583318Y-100370140D03*
X155511928Y-97669994D03*
X165740000Y-98810000D03*
X166920316Y-99619575D03*
X158020000Y-103520000D03*
X154994071Y-108554639D03*
X167214622Y-98851267D03*
X156031544Y-97369993D03*
X159670000Y-97080000D03*
X156430000Y-103010000D03*
X158967765Y-107541734D03*
X141908027Y-103072657D03*
X142435781Y-103703838D03*
X146263680Y-106784815D03*
X156359200Y-107521581D03*
X165327473Y-102491993D03*
X158630771Y-96480002D03*
X155809089Y-108442121D03*
X164831647Y-103148553D03*
X157590386Y-96469999D03*
X140962929Y-101726437D03*
X153400000Y-107370000D03*
X157070770Y-96770000D03*
X143593376Y-104872382D03*
X149293098Y-108053893D03*
X150895336Y-108425853D03*
X156616499Y-108284001D03*
X140548570Y-101015648D03*
X139842771Y-99529927D03*
X152529183Y-108615753D03*
X162526202Y-104986315D03*
X166204694Y-101100590D03*
X142998156Y-104304378D03*
X152740000Y-107370000D03*
X150088989Y-108262390D03*
X157413754Y-108080779D03*
X158198335Y-107833096D03*
X144219560Y-105406055D03*
X139540000Y-98780000D03*
X154174020Y-108621199D03*
X167465307Y-98067640D03*
X147742691Y-107504570D03*
X153351525Y-108641592D03*
X159150385Y-96780000D03*
X156551154Y-97070001D03*
X153382512Y-103412512D03*
X144800000Y-98450000D03*
X147660000Y-101350000D03*
X165785638Y-101808620D03*
X141416558Y-102412829D03*
X144480000Y-102550000D03*
X144874732Y-105903713D03*
%TO.N,+3.3V*%
X148840000Y-101780000D03*
X144800000Y-99950000D03*
X150710000Y-104170000D03*
X159135000Y-106470000D03*
X146380000Y-102550000D03*
X160190000Y-102420000D03*
X154370000Y-101860000D03*
X158135000Y-106870000D03*
X146900000Y-99950000D03*
X161930000Y-99420000D03*
X157690000Y-100210000D03*
X158392122Y-98953911D03*
X156135000Y-101870000D03*
%TO.N,Net-(C20-Pad2)*%
X163380000Y-102070000D03*
%TO.N,+3V0*%
X161580000Y-97590000D03*
X155450000Y-101500000D03*
X162840000Y-99420000D03*
%TO.N,/Peripherals/VDDIO*%
X152070847Y-104384273D03*
%TO.N,Net-(IC2-CRST)*%
X146710000Y-101360000D03*
%TO.N,/Power/Charge +*%
X164393692Y-96037382D03*
X146555002Y-97999998D03*
%TO.N,/NRST*%
X157635000Y-101470000D03*
%TO.N,+1V8*%
X152774641Y-104064641D03*
X158830000Y-98250000D03*
%TO.N,Net-(D1-VCAP)*%
X158135000Y-101670000D03*
%TO.N,/I2C_SCL*%
X149897012Y-103110719D03*
X157135000Y-101870000D03*
%TO.N,/SWDIO*%
X155190000Y-104920000D03*
%TO.N,/H_Tim2*%
X155580000Y-102420000D03*
X148983266Y-98778557D03*
%TO.N,/Button press*%
X162070000Y-102220000D03*
X160180000Y-105420000D03*
%TO.N,/DEBLED*%
X157635000Y-106470000D03*
%TO.N,/H_on_GPIO*%
X156630000Y-106470000D03*
X147700000Y-99201000D03*
%TO.N,/H_Tim1*%
X148534974Y-98999999D03*
X155190000Y-102920000D03*
%TO.N,/Select dial*%
X156130000Y-106870000D03*
X148460000Y-100294323D03*
%TO.N,/I2C_SDA*%
X156640000Y-101470000D03*
X153149592Y-102240000D03*
X150000000Y-103600000D03*
%TO.N,/PCF_Reset*%
X157135000Y-106870000D03*
X156370000Y-99680000D03*
%TO.N,/SWCLK*%
X155580000Y-104420000D03*
%TO.N,/BMP581_INT*%
X155580000Y-103420000D03*
%TO.N,/Dial/MOT1*%
X152329119Y-100779693D03*
X143400000Y-98351003D03*
X148847277Y-100973924D03*
%TO.N,/Dial/VDD PROG*%
X151256277Y-99961251D03*
%TO.N,/Dial/MOT2*%
X143160000Y-98870000D03*
X151657420Y-99369628D03*
%TO.N,Net-(IC1-RESET)*%
X154540000Y-99499999D03*
X152950000Y-99210000D03*
%TO.N,/Power/STAT*%
X148074517Y-99549495D03*
X161190000Y-94830000D03*
%TO.N,Net-(IC5-PROG)*%
X161190000Y-96340000D03*
%TO.N,Net-(IC8-1D-)*%
X142482000Y-101340000D03*
%TO.N,Net-(IC8-1D+)*%
X141982169Y-101326916D03*
%TO.N,Net-(LDLN025PU1-EN)*%
X162040000Y-101570000D03*
X163720000Y-97940000D03*
X166044763Y-99650018D03*
%TO.N,Net-(TPS3424A11C13ADRLR1-~INT~)*%
X166074763Y-100210018D03*
X161120000Y-103880000D03*
%TO.N,Net-(TPS3424A11C13ADRLR1-kill)*%
X162600000Y-102490000D03*
X165624763Y-100560018D03*
%TD*%
D38*
%TO.N,/Dial/VDD PROG*%
X152798592Y-102438592D02*
X152798592Y-101808592D01*
X152880000Y-102520000D02*
X152798592Y-102438592D01*
X152798592Y-101808592D02*
X151970000Y-100980000D01*
X152880000Y-102810000D02*
X152880000Y-102520000D01*
X151970000Y-100980000D02*
X151970000Y-100320000D01*
D39*
%TO.N,/ANT*%
X158296181Y-107319369D02*
X158424186Y-107228701D01*
D40*
%TO.N,Net-(ANT1-FEED)*%
X151814935Y-108040000D02*
G75*
G02*
X151592039Y-107978492I-35J434500D01*
G01*
X152010000Y-108069999D02*
X151980001Y-108040000D01*
X152710000Y-108069999D02*
X152010000Y-108069999D01*
X151980001Y-108040000D02*
X151814935Y-108040000D01*
X148122339Y-105905000D02*
X151592048Y-107978477D01*
D38*
%TO.N,+3V0*%
X155450000Y-101500000D02*
X155123000Y-101827000D01*
X155123000Y-101830000D02*
X154680000Y-102273000D01*
X154680000Y-102273000D02*
X154680000Y-102510000D01*
X155123000Y-101827000D02*
X155123000Y-101830000D01*
%TO.N,/32mhz+*%
X161190000Y-105920000D02*
X161640000Y-105470000D01*
X160385000Y-105920000D02*
X161190000Y-105920000D01*
X161640000Y-104743901D02*
X162001354Y-104382547D01*
X161640000Y-105470000D02*
X161640000Y-104743901D01*
X161778493Y-103669939D02*
X162001354Y-104382547D01*
%TO.N,/32mhz-*%
X163200000Y-105010000D02*
X163318646Y-104297453D01*
X162140000Y-105910000D02*
X163200000Y-105010000D01*
X163318646Y-104142800D02*
X163799939Y-103661507D01*
X159635000Y-106670000D02*
X162140000Y-105910000D01*
X163318646Y-104297453D02*
X163318646Y-104142800D01*
%TO.N,/Peripherals/VDDIO*%
X152070847Y-104384273D02*
X152070847Y-104380847D01*
X152070847Y-104380847D02*
X152070000Y-104380000D01*
%TO.N,/ADC*%
X154680000Y-103920000D02*
X154680000Y-103150000D01*
X153980000Y-103920000D02*
X154680000Y-103920000D01*
X154680000Y-103920000D02*
X155190000Y-103920000D01*
%TO.N,+1V8*%
X152880000Y-103959282D02*
X152774641Y-104064641D01*
X152880000Y-103450000D02*
X152880000Y-103959282D01*
D39*
%TO.N,/ANT*%
X156901229Y-107798549D02*
X156935000Y-107790000D01*
X158628564Y-106850194D02*
X158635000Y-106670000D01*
X155465011Y-108046134D02*
X155107000Y-108052500D01*
X156174999Y-107964999D02*
X156154360Y-107969240D01*
X156935000Y-107790000D02*
X157059548Y-107758469D01*
X156154360Y-107969240D02*
X156147901Y-107970567D01*
X157957759Y-107488495D02*
X157595710Y-107604711D01*
X156147901Y-107970567D02*
G75*
G02*
X155465011Y-108046130I-749001J3645467D01*
G01*
X158628564Y-106850194D02*
G75*
G02*
X158424198Y-107228718I-484764J17294D01*
G01*
X157595710Y-107604711D02*
G75*
G02*
X157059548Y-107758467I-2721610J8478811D01*
G01*
X156901229Y-107798549D02*
G75*
G02*
X156174999Y-107964997I-4037329J15947749D01*
G01*
X158296181Y-107319369D02*
G75*
G02*
X157957761Y-107488503I-718181J1013869D01*
G01*
D38*
%TO.N,/Kill*%
X160385000Y-103420000D02*
X161038432Y-103420000D01*
X161038432Y-103420000D02*
X161318493Y-103139939D01*
%TO.N,/KeepOn*%
X161198494Y-102371506D02*
X161198494Y-102309940D01*
X160385000Y-102920000D02*
X160650000Y-102920000D01*
X160650000Y-102920000D02*
X161198494Y-102371506D01*
%TO.N,/L-S press INT*%
X161030000Y-104920000D02*
X160385000Y-104920000D01*
X161120000Y-105010000D02*
X161030000Y-104920000D01*
%TO.N,/PCF_Reset*%
X155830000Y-99680000D02*
X156370000Y-99680000D01*
%TO.N,/Dial/OSCIN*%
X154431948Y-100682602D02*
X153789346Y-100040000D01*
X153789346Y-100040000D02*
X152625000Y-100040000D01*
%TO.N,/Dial/MOT1*%
X149048460Y-100772741D02*
X150207056Y-100772741D01*
X148847277Y-100973924D02*
X149048460Y-100772741D01*
X152400000Y-100708812D02*
X152329119Y-100779693D01*
X152400000Y-100320000D02*
X152400000Y-100708812D01*
%TO.N,/Dial/VDD PROG*%
X151256277Y-99961251D02*
X151615026Y-100320000D01*
X151615026Y-100320000D02*
X151970000Y-100320000D01*
%TO.N,/Dial/MOT2*%
X151690000Y-99530000D02*
X151550000Y-99390000D01*
X152175000Y-100040000D02*
X152144999Y-100010000D01*
X151690000Y-99859986D02*
X151690000Y-99530000D01*
X152144999Y-100010000D02*
X151840004Y-100009990D01*
X150800000Y-99760000D02*
X150800000Y-100331371D01*
X150800000Y-100331371D02*
X150565685Y-100565686D01*
X151550000Y-99390000D02*
X151170000Y-99390000D01*
X151170000Y-99390000D02*
X150800000Y-99760000D01*
X151840004Y-100009990D02*
X151690000Y-99859986D01*
%TO.N,Net-(IC1-RESET)*%
X152541706Y-99210000D02*
X152950000Y-99210000D01*
X155520000Y-99350000D02*
X155520000Y-98980000D01*
X152490352Y-99239648D02*
X152541706Y-99210000D01*
X155190000Y-99680000D02*
X155520000Y-99350000D01*
X154720001Y-99680000D02*
X154540000Y-99499999D01*
X155190000Y-99680000D02*
X154720001Y-99680000D01*
X151970000Y-99760000D02*
X152490352Y-99239648D01*
%TO.N,/Dial/OSCOUT*%
X153760000Y-101285450D02*
X153760000Y-100640000D01*
X153440000Y-100320000D02*
X152830000Y-100320000D01*
X153760000Y-100640000D02*
X153440000Y-100320000D01*
X153408052Y-101637398D02*
X153760000Y-101285450D01*
D39*
%TO.N,Net-(IC4-OUT)*%
X153953000Y-108052500D02*
X153367501Y-108052500D01*
X153367501Y-108052500D02*
X153350000Y-108070001D01*
D38*
%TO.N,/Power/STAT*%
X146550000Y-98860000D02*
X146550000Y-98530000D01*
X148069438Y-99554575D02*
X147244575Y-99554575D01*
X148074517Y-99549495D02*
X148069438Y-99554575D01*
X147244575Y-99554575D02*
X146550000Y-98860000D01*
%TO.N,Net-(IC8-1D-)*%
X142482000Y-100579371D02*
X142495685Y-100565686D01*
X142482000Y-101340000D02*
X142482000Y-100579371D01*
%TO.N,Net-(IC8-1D+)*%
X141982169Y-100927628D02*
X142137056Y-100772741D01*
X141982169Y-101326916D02*
X141982169Y-100927628D01*
%TO.N,Net-(LDLN025PU1-EN)*%
X161681506Y-101890060D02*
X162040000Y-101570000D01*
%TO.N,Net-(TPS3424A11C13ADRLR1-~INT~)*%
X161120000Y-104370000D02*
X161120000Y-103880000D01*
%TO.N,Net-(TPS3424A11C13ADRLR1-kill)*%
X162600000Y-102490000D02*
X161921568Y-102600000D01*
X161921568Y-102600000D02*
X161801507Y-102720061D01*
%TD*%
%TA.AperFunction,Conductor*%
%TO.N,Net-(D1-VFBSD)*%
G36*
X159161992Y-99249685D02*
G01*
X159207747Y-99302489D01*
X159218949Y-99355042D01*
X159210727Y-100333397D01*
X159204212Y-100354910D01*
X159202297Y-100377304D01*
X159194283Y-100387703D01*
X159190479Y-100400269D01*
X159173369Y-100414844D01*
X159159650Y-100432649D01*
X159140760Y-100442623D01*
X159137293Y-100445578D01*
X159128440Y-100449130D01*
X159043398Y-100479505D01*
X159025881Y-100484347D01*
X158991768Y-100491132D01*
X158991767Y-100491133D01*
X158982606Y-100497254D01*
X158955430Y-100510923D01*
X158870000Y-100541436D01*
X158869999Y-100541439D01*
X158870654Y-100641594D01*
X158870061Y-100654546D01*
X158869500Y-100660247D01*
X158869500Y-100899751D01*
X158870140Y-100902967D01*
X158872517Y-100926334D01*
X158879183Y-101945189D01*
X158876577Y-101954282D01*
X158877924Y-101963647D01*
X158867108Y-101987328D01*
X158859938Y-102012356D01*
X158852828Y-102018597D01*
X158848899Y-102027203D01*
X158826997Y-102041278D01*
X158807434Y-102058455D01*
X158796515Y-102060867D01*
X158790121Y-102064977D01*
X158755186Y-102070000D01*
X158604000Y-102070000D01*
X158536961Y-102050315D01*
X158491206Y-101997511D01*
X158480000Y-101946000D01*
X158480000Y-101170000D01*
X158306067Y-101170000D01*
X158295888Y-101169500D01*
X157974105Y-101169500D01*
X157963945Y-101170000D01*
X157806067Y-101170000D01*
X157795889Y-101169500D01*
X157794899Y-101169500D01*
X157674563Y-101169500D01*
X157674562Y-101169500D01*
X157596057Y-101169500D01*
X157529018Y-101149815D01*
X157483263Y-101097011D01*
X157472074Y-101043468D01*
X157478949Y-100624108D01*
X157499728Y-100557404D01*
X157553275Y-100512521D01*
X157622587Y-100503712D01*
X157635013Y-100506366D01*
X157650438Y-100510500D01*
X157650440Y-100510500D01*
X157729560Y-100510500D01*
X157729562Y-100510500D01*
X157805989Y-100490021D01*
X157874511Y-100450460D01*
X157930460Y-100394511D01*
X157970021Y-100325989D01*
X157990500Y-100249562D01*
X157990500Y-100170438D01*
X157970021Y-100094011D01*
X157970017Y-100094004D01*
X157930466Y-100025498D01*
X157930462Y-100025493D01*
X157930460Y-100025489D01*
X157930456Y-100025485D01*
X157926807Y-100020730D01*
X157901610Y-99955562D01*
X157915644Y-99887116D01*
X157921035Y-99877934D01*
X158287572Y-99311079D01*
X158340504Y-99265473D01*
X158391700Y-99254411D01*
X158431682Y-99254411D01*
X158431684Y-99254411D01*
X158507019Y-99234224D01*
X158539110Y-99230000D01*
X159094953Y-99230000D01*
X159161992Y-99249685D01*
G37*
%TD.AperFunction*%
%TD*%
%TA.AperFunction,Conductor*%
%TO.N,Net-(L1-Pad2)*%
G36*
X161283039Y-99249685D02*
G01*
X161328794Y-99302489D01*
X161340000Y-99354000D01*
X161340000Y-101106000D01*
X161320315Y-101173039D01*
X161267511Y-101218794D01*
X161216000Y-101230000D01*
X160593381Y-101230000D01*
X160526342Y-101210315D01*
X160480587Y-101157511D01*
X160469383Y-101106620D01*
X160460623Y-99354620D01*
X160479972Y-99287483D01*
X160532546Y-99241465D01*
X160584621Y-99230000D01*
X161216000Y-99230000D01*
X161283039Y-99249685D01*
G37*
%TD.AperFunction*%
%TD*%
%TA.AperFunction,Conductor*%
%TO.N,Net-(D1-VLXSD)*%
G36*
X160261262Y-100600683D02*
G01*
X160307905Y-100652704D01*
X160320000Y-100706119D01*
X160320000Y-101184508D01*
X160301221Y-101250116D01*
X159826409Y-102011608D01*
X159819015Y-102018193D01*
X159814901Y-102027203D01*
X159793354Y-102041049D01*
X159774235Y-102058080D01*
X159762887Y-102060629D01*
X159756123Y-102064977D01*
X159721188Y-102070000D01*
X159612459Y-102070000D01*
X159545420Y-102050315D01*
X159499665Y-101997511D01*
X159488469Y-101947550D01*
X159480285Y-101292867D01*
X159487890Y-101248538D01*
X159700680Y-100669750D01*
X159742287Y-100613624D01*
X159807636Y-100588900D01*
X159814927Y-100588560D01*
X160193900Y-100582137D01*
X160261262Y-100600683D01*
G37*
%TD.AperFunction*%
%TD*%
%TA.AperFunction,Conductor*%
%TO.N,/Power/Charge +*%
G36*
X147205430Y-97499497D02*
G01*
X147251185Y-97552301D01*
X147262391Y-97603812D01*
X147262391Y-98056000D01*
X147242706Y-98123039D01*
X147189902Y-98168794D01*
X147138391Y-98180000D01*
X146485862Y-98180000D01*
X146480901Y-98178543D01*
X146475840Y-98179594D01*
X146447719Y-98168800D01*
X146418823Y-98160315D01*
X146415438Y-98156408D01*
X146410611Y-98154556D01*
X146392785Y-98130266D01*
X146373068Y-98107511D01*
X146371506Y-98101270D01*
X146369273Y-98098227D01*
X146366625Y-98081761D01*
X146362099Y-98063670D01*
X146361752Y-98058079D01*
X146361980Y-98050112D01*
X146360448Y-98037043D01*
X146360239Y-98033656D01*
X146360406Y-98032919D01*
X146360002Y-98025986D01*
X146360002Y-97987812D01*
X146361306Y-97969875D01*
X146361440Y-97968959D01*
X146364991Y-97944668D01*
X146365406Y-97930144D01*
X146365404Y-97930114D01*
X146365402Y-97929667D01*
X146365466Y-97924618D01*
X146365500Y-97923590D01*
X146365500Y-97603812D01*
X146385185Y-97536773D01*
X146437989Y-97491018D01*
X146489500Y-97479812D01*
X147138391Y-97479812D01*
X147205430Y-97499497D01*
G37*
%TD.AperFunction*%
%TD*%
%TA.AperFunction,Conductor*%
%TO.N,Net-(LED1-K)*%
G36*
X146203039Y-97499685D02*
G01*
X146248794Y-97552489D01*
X146260000Y-97604000D01*
X146260000Y-97923592D01*
X146259755Y-97925447D01*
X146259949Y-97927131D01*
X146259534Y-97941655D01*
X146254502Y-97960436D01*
X146254502Y-98039560D01*
X146256523Y-98047102D01*
X146256057Y-98063427D01*
X146243897Y-98113546D01*
X146140000Y-98330000D01*
X146140000Y-98606000D01*
X146137449Y-98614685D01*
X146138738Y-98623647D01*
X146127759Y-98647687D01*
X146120315Y-98673039D01*
X146113474Y-98678966D01*
X146109713Y-98687203D01*
X146087478Y-98701492D01*
X146067511Y-98718794D01*
X146056996Y-98721081D01*
X146050935Y-98724977D01*
X146016000Y-98730000D01*
X145804000Y-98730000D01*
X145736961Y-98710315D01*
X145691206Y-98657511D01*
X145680000Y-98606000D01*
X145680000Y-98338706D01*
X145681218Y-98321372D01*
X145717634Y-98063427D01*
X145784941Y-97586665D01*
X145813803Y-97523037D01*
X145872485Y-97485112D01*
X145907723Y-97480000D01*
X146136000Y-97480000D01*
X146203039Y-97499685D01*
G37*
%TD.AperFunction*%
%TD*%
%TA.AperFunction,Conductor*%
%TO.N,Net-(C20-Pad2)*%
G36*
X165614169Y-96004039D02*
G01*
X166294800Y-96316457D01*
X166347515Y-96362312D01*
X166367071Y-96429389D01*
X166355527Y-96481398D01*
X163602361Y-102407297D01*
X163556262Y-102459801D01*
X163489095Y-102479047D01*
X163437412Y-102467391D01*
X162742613Y-102142732D01*
X162690210Y-102096518D01*
X162671111Y-102029309D01*
X162682794Y-101977836D01*
X163899635Y-99377510D01*
X165189357Y-96621443D01*
X165235600Y-96569066D01*
X165301668Y-96550000D01*
X165430000Y-96550000D01*
X165430000Y-96549999D01*
X165429590Y-96499898D01*
X165426668Y-96142915D01*
X165429197Y-96131323D01*
X165428095Y-96123118D01*
X165438350Y-96089355D01*
X165450133Y-96064174D01*
X165496374Y-96011801D01*
X165563594Y-95992740D01*
X165614169Y-96004039D01*
G37*
%TD.AperFunction*%
%TD*%
%TA.AperFunction,Conductor*%
%TO.N,+3V0*%
G36*
X165981184Y-94689685D02*
G01*
X166016878Y-94724560D01*
X166458233Y-95377524D01*
X166479467Y-95444089D01*
X166479500Y-95446961D01*
X166479500Y-95479894D01*
X166479501Y-95479903D01*
X166485330Y-95509212D01*
X166507542Y-95542457D01*
X166524219Y-95553599D01*
X166540787Y-95564669D01*
X166541557Y-95564822D01*
X166543076Y-95565616D01*
X166552072Y-95569343D01*
X166551738Y-95570147D01*
X166568467Y-95578897D01*
X166596377Y-95590870D01*
X166600918Y-95595871D01*
X166603469Y-95597206D01*
X166620102Y-95617000D01*
X166670905Y-95692161D01*
X166692139Y-95758726D01*
X166680825Y-95813421D01*
X166531380Y-96138303D01*
X166485481Y-96190982D01*
X166418387Y-96210483D01*
X166367870Y-96199574D01*
X165239542Y-95692161D01*
X164790000Y-95490000D01*
X164789999Y-95490000D01*
X164114000Y-95490000D01*
X164046961Y-95470315D01*
X164001206Y-95417511D01*
X163990000Y-95366000D01*
X163990000Y-94794000D01*
X164009685Y-94726961D01*
X164062489Y-94681206D01*
X164114000Y-94670000D01*
X165914145Y-94670000D01*
X165981184Y-94689685D01*
G37*
%TD.AperFunction*%
%TD*%
%TA.AperFunction,Conductor*%
%TO.N,/Power/Charge +*%
G36*
X164733039Y-95709685D02*
G01*
X164778794Y-95762489D01*
X164790000Y-95814000D01*
X164790000Y-96366000D01*
X164770315Y-96433039D01*
X164717511Y-96478794D01*
X164666000Y-96490000D01*
X164114000Y-96490000D01*
X164046961Y-96470315D01*
X164001206Y-96417511D01*
X163990000Y-96366000D01*
X163990000Y-95814000D01*
X164009685Y-95746961D01*
X164062489Y-95701206D01*
X164114000Y-95690000D01*
X164666000Y-95690000D01*
X164733039Y-95709685D01*
G37*
%TD.AperFunction*%
%TD*%
%TA.AperFunction,Conductor*%
%TO.N,GND*%
G36*
X154166319Y-102101676D02*
G01*
X154166728Y-102101605D01*
X154168920Y-102102325D01*
X154199759Y-102110024D01*
X154207588Y-102113218D01*
X154254011Y-102140021D01*
X154310094Y-102155048D01*
X154317314Y-102157995D01*
X154338777Y-102175106D01*
X154362219Y-102189395D01*
X154365706Y-102196575D01*
X154371947Y-102201550D01*
X154380752Y-102227549D01*
X154392747Y-102252242D01*
X154391799Y-102260166D01*
X154394360Y-102267727D01*
X154392082Y-102296994D01*
X154379500Y-102360252D01*
X154379500Y-102659752D01*
X154391131Y-102718229D01*
X154391132Y-102718230D01*
X154419783Y-102761109D01*
X154440661Y-102827786D01*
X154422177Y-102895167D01*
X154419783Y-102898891D01*
X154391132Y-102941769D01*
X154391131Y-102941770D01*
X154379500Y-103000247D01*
X154379500Y-103299752D01*
X154391131Y-103358229D01*
X154391132Y-103358230D01*
X154435448Y-103424553D01*
X154446442Y-103431899D01*
X154491246Y-103485511D01*
X154499953Y-103554836D01*
X154469798Y-103617864D01*
X154462850Y-103625000D01*
X154455202Y-103632248D01*
X154435448Y-103645448D01*
X154425384Y-103660509D01*
X154415300Y-103670067D01*
X154396065Y-103679909D01*
X154379488Y-103693764D01*
X154365578Y-103695510D01*
X154353101Y-103701896D01*
X154331600Y-103699777D01*
X154310163Y-103702470D01*
X154297519Y-103696420D01*
X154283568Y-103695046D01*
X154266624Y-103681638D01*
X154247136Y-103672314D01*
X154230330Y-103652919D01*
X154228777Y-103651690D01*
X154228457Y-103650757D01*
X154226899Y-103648959D01*
X154224553Y-103645448D01*
X154158230Y-103601132D01*
X154158229Y-103601131D01*
X154099752Y-103589500D01*
X154099748Y-103589500D01*
X153860252Y-103589500D01*
X153860247Y-103589500D01*
X153801770Y-103601131D01*
X153801769Y-103601132D01*
X153735447Y-103645447D01*
X153691132Y-103711769D01*
X153691131Y-103711770D01*
X153679500Y-103770247D01*
X153679500Y-104069752D01*
X153691131Y-104128229D01*
X153691132Y-104128230D01*
X153735447Y-104194552D01*
X153801769Y-104238867D01*
X153801770Y-104238868D01*
X153860247Y-104250499D01*
X153860250Y-104250500D01*
X153860252Y-104250500D01*
X154099750Y-104250500D01*
X154099751Y-104250499D01*
X154114568Y-104247552D01*
X154158229Y-104238868D01*
X154158229Y-104238867D01*
X154158231Y-104238867D01*
X154224552Y-104194552D01*
X154226897Y-104191043D01*
X154280508Y-104146237D01*
X154349833Y-104137528D01*
X154412861Y-104167682D01*
X154433103Y-104191043D01*
X154435447Y-104194552D01*
X154501769Y-104238867D01*
X154501770Y-104238868D01*
X154560247Y-104250499D01*
X154560250Y-104250500D01*
X154760500Y-104250500D01*
X154827539Y-104270185D01*
X154873294Y-104322989D01*
X154884500Y-104374499D01*
X154884500Y-104579894D01*
X154884501Y-104579902D01*
X154890330Y-104609212D01*
X154895004Y-104620496D01*
X154891449Y-104621968D01*
X154905795Y-104667805D01*
X154891950Y-104718241D01*
X154895004Y-104719507D01*
X154890329Y-104730791D01*
X154884500Y-104760098D01*
X154884500Y-105079894D01*
X154884501Y-105079902D01*
X154890330Y-105109212D01*
X154895004Y-105120496D01*
X154891449Y-105121968D01*
X154905795Y-105167805D01*
X154891950Y-105218241D01*
X154895004Y-105219507D01*
X154890329Y-105230791D01*
X154884500Y-105260098D01*
X154884500Y-105579894D01*
X154884501Y-105579902D01*
X154890330Y-105609212D01*
X154895004Y-105620496D01*
X154891449Y-105621968D01*
X154905795Y-105667805D01*
X154891950Y-105718241D01*
X154895004Y-105719507D01*
X154890329Y-105730791D01*
X154884500Y-105760098D01*
X154884500Y-106079894D01*
X154884501Y-106079902D01*
X154890330Y-106109212D01*
X154912542Y-106142457D01*
X154923555Y-106149815D01*
X154945787Y-106164669D01*
X154945790Y-106164669D01*
X154945791Y-106164670D01*
X154955647Y-106166630D01*
X154975101Y-106170500D01*
X155760500Y-106170499D01*
X155827539Y-106190183D01*
X155873294Y-106242987D01*
X155884500Y-106294499D01*
X155884500Y-106660992D01*
X155867889Y-106722988D01*
X155849979Y-106754011D01*
X155829500Y-106830438D01*
X155829500Y-106909562D01*
X155849979Y-106985989D01*
X155864130Y-107010501D01*
X155867890Y-107017013D01*
X155883138Y-107073910D01*
X155883904Y-107073835D01*
X155884360Y-107078471D01*
X155884500Y-107078991D01*
X155884500Y-107079886D01*
X155884501Y-107079903D01*
X155890330Y-107109212D01*
X155912542Y-107142457D01*
X155928497Y-107153117D01*
X155945787Y-107164669D01*
X155945790Y-107164669D01*
X155945791Y-107164670D01*
X155955647Y-107166630D01*
X155975101Y-107170500D01*
X156090436Y-107170499D01*
X156090438Y-107170500D01*
X156169562Y-107170500D01*
X156169564Y-107170499D01*
X156294898Y-107170499D01*
X156324213Y-107164669D01*
X156324214Y-107164667D01*
X156335496Y-107159996D01*
X156336969Y-107163553D01*
X156382763Y-107149205D01*
X156433244Y-107163043D01*
X156434507Y-107159996D01*
X156445784Y-107164667D01*
X156445787Y-107164669D01*
X156445790Y-107164669D01*
X156445791Y-107164670D01*
X156455647Y-107166630D01*
X156475101Y-107170500D01*
X156794898Y-107170499D01*
X156824213Y-107164669D01*
X156824214Y-107164667D01*
X156835496Y-107159996D01*
X156836969Y-107163553D01*
X156882763Y-107149205D01*
X156898406Y-107149912D01*
X156928617Y-107153197D01*
X156945787Y-107164669D01*
X156975101Y-107170500D01*
X157087717Y-107170499D01*
X157087726Y-107170500D01*
X157095438Y-107170500D01*
X157188996Y-107170500D01*
X157189004Y-107170499D01*
X157294895Y-107170499D01*
X157294898Y-107170499D01*
X157324213Y-107164669D01*
X157324214Y-107164667D01*
X157335496Y-107159996D01*
X157335833Y-107160810D01*
X157339872Y-107157689D01*
X157361776Y-107155780D01*
X157382763Y-107149205D01*
X157395904Y-107152807D01*
X157409478Y-107151625D01*
X157433788Y-107161729D01*
X157434507Y-107159996D01*
X157445784Y-107164667D01*
X157445787Y-107164669D01*
X157445790Y-107164669D01*
X157445791Y-107164670D01*
X157460444Y-107167584D01*
X157475101Y-107170500D01*
X157516745Y-107170499D01*
X157583783Y-107190182D01*
X157629539Y-107242985D01*
X157639484Y-107312143D01*
X157610461Y-107375700D01*
X157554648Y-107412564D01*
X157536550Y-107418374D01*
X157535311Y-107418765D01*
X157363461Y-107471954D01*
X157360980Y-107472694D01*
X157188613Y-107522124D01*
X157186117Y-107522811D01*
X157012194Y-107568780D01*
X157010943Y-107569104D01*
X156940672Y-107586895D01*
X156911745Y-107594219D01*
X156890949Y-107599484D01*
X156890948Y-107599484D01*
X156885306Y-107600912D01*
X156880397Y-107602155D01*
X156880395Y-107602155D01*
X156853640Y-107608927D01*
X156852737Y-107609152D01*
X156615789Y-107667238D01*
X156613968Y-107667670D01*
X156376551Y-107722084D01*
X156374768Y-107722478D01*
X156247219Y-107749692D01*
X156135850Y-107773454D01*
X156134941Y-107773644D01*
X156119776Y-107776761D01*
X156119771Y-107776762D01*
X156110457Y-107778676D01*
X156106699Y-107779388D01*
X155898259Y-107815560D01*
X155890695Y-107816634D01*
X155682344Y-107839689D01*
X155674728Y-107840295D01*
X155463265Y-107850576D01*
X155459447Y-107850702D01*
X155426146Y-107851293D01*
X155423782Y-107851336D01*
X155423729Y-107851336D01*
X155326447Y-107853066D01*
X155259068Y-107834577D01*
X155255352Y-107832188D01*
X155254564Y-107831662D01*
X155254561Y-107831659D01*
X155158817Y-107792000D01*
X155055183Y-107792000D01*
X155055182Y-107792000D01*
X154995712Y-107816634D01*
X154961849Y-107830661D01*
X154959437Y-107831660D01*
X154886160Y-107904937D01*
X154886159Y-107904938D01*
X154886159Y-107904939D01*
X154884885Y-107908015D01*
X154847772Y-107997613D01*
X154846500Y-108000683D01*
X154846500Y-108104317D01*
X154886159Y-108200061D01*
X154959439Y-108273341D01*
X155055183Y-108313000D01*
X155055184Y-108313000D01*
X155158816Y-108313000D01*
X155158817Y-108313000D01*
X155254561Y-108273341D01*
X155254566Y-108273335D01*
X155264716Y-108266555D01*
X155266875Y-108269787D01*
X155273564Y-108266129D01*
X155298226Y-108249654D01*
X155305998Y-108248395D01*
X155308842Y-108246840D01*
X155333057Y-108244011D01*
X155507368Y-108240912D01*
X155507379Y-108240906D01*
X155516990Y-108240735D01*
X155589200Y-108239452D01*
X155829909Y-108220302D01*
X155829918Y-108220300D01*
X155829926Y-108220300D01*
X155976911Y-108199433D01*
X156068982Y-108186363D01*
X156137213Y-108172344D01*
X156141985Y-108171365D01*
X156141993Y-108171365D01*
X156155617Y-108168565D01*
X156155619Y-108168566D01*
X156187247Y-108162067D01*
X156204825Y-108158455D01*
X156231795Y-108152914D01*
X156231795Y-108152912D01*
X156246051Y-108149983D01*
X156252440Y-108148671D01*
X156252440Y-108148670D01*
X156259739Y-108147171D01*
X156259743Y-108147171D01*
X156259760Y-108147166D01*
X156267439Y-108145589D01*
X156267468Y-108145579D01*
X156337441Y-108131203D01*
X156582837Y-108076906D01*
X156827386Y-108018911D01*
X156896592Y-108001389D01*
X156911507Y-107997613D01*
X156911508Y-107997614D01*
X156923670Y-107994535D01*
X156923673Y-107994535D01*
X156945281Y-107989064D01*
X156945282Y-107989065D01*
X156989593Y-107977847D01*
X157020674Y-107969979D01*
X157020675Y-107969977D01*
X157048210Y-107963006D01*
X157048216Y-107963006D01*
X157069830Y-107957534D01*
X157107528Y-107947990D01*
X157107527Y-107947989D01*
X157134710Y-107941108D01*
X157134710Y-107941107D01*
X157145225Y-107938446D01*
X157145225Y-107938445D01*
X157145568Y-107938359D01*
X157161474Y-107934332D01*
X157161477Y-107934331D01*
X157177460Y-107930284D01*
X157177479Y-107930277D01*
X157199643Y-107924667D01*
X157382861Y-107874190D01*
X157564985Y-107819897D01*
X157618434Y-107802740D01*
X157618435Y-107802741D01*
X157663075Y-107788412D01*
X157692487Y-107778971D01*
X157692487Y-107778970D01*
X157957344Y-107693952D01*
X157957353Y-107693951D01*
X157967488Y-107690698D01*
X157967569Y-107690695D01*
X158017515Y-107674645D01*
X158017516Y-107674646D01*
X158040504Y-107667259D01*
X158054537Y-107662755D01*
X158054545Y-107662747D01*
X158087325Y-107652215D01*
X158221671Y-107593421D01*
X158349340Y-107521266D01*
X158377420Y-107501386D01*
X158377449Y-107501380D01*
X158493407Y-107419243D01*
X158493414Y-107419241D01*
X158493423Y-107419237D01*
X158505457Y-107410713D01*
X158505510Y-107410676D01*
X158537208Y-107388246D01*
X158588398Y-107352023D01*
X158675770Y-107262043D01*
X158700006Y-107225603D01*
X158753521Y-107180685D01*
X158772277Y-107174207D01*
X158786649Y-107170499D01*
X158794898Y-107170499D01*
X158824213Y-107164669D01*
X158833626Y-107158379D01*
X158854023Y-107153117D01*
X158868723Y-107153603D01*
X158882763Y-107149205D01*
X158902944Y-107154737D01*
X158923854Y-107155430D01*
X158933608Y-107162165D01*
X158934507Y-107159996D01*
X158945784Y-107164667D01*
X158945787Y-107164669D01*
X158945790Y-107164669D01*
X158945791Y-107164670D01*
X158955647Y-107166630D01*
X158975101Y-107170500D01*
X159294898Y-107170499D01*
X159324213Y-107164669D01*
X159324214Y-107164667D01*
X159335496Y-107159996D01*
X159336969Y-107163553D01*
X159340117Y-107162567D01*
X159362595Y-107151226D01*
X159372887Y-107152299D01*
X159382763Y-107149205D01*
X159407044Y-107155861D01*
X159432088Y-107158473D01*
X159436491Y-107160818D01*
X159445784Y-107164667D01*
X159445787Y-107164669D01*
X159445790Y-107164669D01*
X159445791Y-107164670D01*
X159455647Y-107166630D01*
X159475101Y-107170500D01*
X159774810Y-107170499D01*
X159841849Y-107190183D01*
X159887604Y-107242987D01*
X159897548Y-107312146D01*
X159868523Y-107375701D01*
X159827677Y-107406664D01*
X159379272Y-107618013D01*
X159373484Y-107620563D01*
X158678543Y-107905763D01*
X158672631Y-107908015D01*
X157964048Y-108157404D01*
X157958030Y-108159351D01*
X157237659Y-108372280D01*
X157231549Y-108373918D01*
X156501250Y-108549835D01*
X156495065Y-108551159D01*
X155756745Y-108689605D01*
X155750500Y-108690612D01*
X155006082Y-108791226D01*
X154999793Y-108791913D01*
X154251205Y-108854434D01*
X154244890Y-108854799D01*
X153494106Y-108879063D01*
X153487781Y-108879106D01*
X152736740Y-108865052D01*
X152730420Y-108864773D01*
X151981036Y-108812433D01*
X151974740Y-108811831D01*
X151728897Y-108782001D01*
X151664716Y-108754385D01*
X151625655Y-108696454D01*
X151619833Y-108659028D01*
X151619649Y-108469126D01*
X151639269Y-108402071D01*
X151692028Y-108356265D01*
X151761177Y-108346254D01*
X151791104Y-108354449D01*
X151801772Y-108358868D01*
X151860248Y-108370499D01*
X151860251Y-108370500D01*
X151860253Y-108370500D01*
X152099751Y-108370500D01*
X152099752Y-108370499D01*
X152114569Y-108367552D01*
X152158230Y-108358868D01*
X152158230Y-108358867D01*
X152158232Y-108358867D01*
X152224553Y-108314552D01*
X152226419Y-108311760D01*
X152232062Y-108307043D01*
X152232572Y-108306533D01*
X152235809Y-108299446D01*
X152258939Y-108284580D01*
X152280031Y-108266954D01*
X152289405Y-108265002D01*
X152294587Y-108261672D01*
X152329522Y-108256649D01*
X152330480Y-108256649D01*
X152397519Y-108276334D01*
X152433579Y-108311754D01*
X152434411Y-108312999D01*
X152435448Y-108314551D01*
X152435450Y-108314553D01*
X152501769Y-108358866D01*
X152501770Y-108358867D01*
X152560247Y-108370498D01*
X152560250Y-108370499D01*
X152560252Y-108370499D01*
X152859750Y-108370499D01*
X152859751Y-108370498D01*
X152879418Y-108366586D01*
X152918228Y-108358867D01*
X152918228Y-108358866D01*
X152918231Y-108358866D01*
X152961107Y-108330216D01*
X153027782Y-108309338D01*
X153095163Y-108327821D01*
X153098862Y-108330198D01*
X153141769Y-108358868D01*
X153141771Y-108358868D01*
X153141772Y-108358869D01*
X153141770Y-108358869D01*
X153200247Y-108370500D01*
X153200250Y-108370501D01*
X153200252Y-108370501D01*
X153499750Y-108370501D01*
X153499751Y-108370500D01*
X153514568Y-108367553D01*
X153558229Y-108358869D01*
X153558229Y-108358868D01*
X153558231Y-108358868D01*
X153624552Y-108314553D01*
X153630529Y-108305608D01*
X153684139Y-108260801D01*
X153753464Y-108252091D01*
X153802523Y-108271392D01*
X153805437Y-108273339D01*
X153805439Y-108273341D01*
X153901183Y-108313000D01*
X153901184Y-108313000D01*
X154004816Y-108313000D01*
X154004817Y-108313000D01*
X154100561Y-108273341D01*
X154173841Y-108200061D01*
X154213500Y-108104317D01*
X154213500Y-108000683D01*
X154173841Y-107904939D01*
X154100561Y-107831659D01*
X154004817Y-107792000D01*
X153901183Y-107792000D01*
X153901182Y-107792000D01*
X153805434Y-107831661D01*
X153798789Y-107836102D01*
X153780744Y-107841752D01*
X153764834Y-107851977D01*
X153733872Y-107856428D01*
X153732112Y-107856980D01*
X153729899Y-107857000D01*
X153707466Y-107857000D01*
X153640427Y-107837315D01*
X153631280Y-107829944D01*
X153558230Y-107781133D01*
X153558229Y-107781132D01*
X153499752Y-107769501D01*
X153499748Y-107769501D01*
X153200252Y-107769501D01*
X153200247Y-107769501D01*
X153141770Y-107781132D01*
X153141766Y-107781134D01*
X153098891Y-107809783D01*
X153032214Y-107830661D01*
X152964834Y-107812176D01*
X152961110Y-107809783D01*
X152918230Y-107781131D01*
X152918229Y-107781130D01*
X152859752Y-107769499D01*
X152859748Y-107769499D01*
X152560252Y-107769499D01*
X152560247Y-107769499D01*
X152501770Y-107781130D01*
X152501769Y-107781131D01*
X152425293Y-107832232D01*
X152423697Y-107829844D01*
X152378560Y-107854484D01*
X152308869Y-107849492D01*
X152252940Y-107807614D01*
X152249124Y-107802221D01*
X152224553Y-107765448D01*
X152160262Y-107722489D01*
X152158231Y-107721132D01*
X152158230Y-107721131D01*
X152099753Y-107709500D01*
X152099749Y-107709500D01*
X151860253Y-107709500D01*
X151860248Y-107709500D01*
X151801771Y-107721131D01*
X151790488Y-107725806D01*
X151788784Y-107721693D01*
X151744768Y-107735374D01*
X151677428Y-107716746D01*
X151630848Y-107664668D01*
X151618818Y-107611511D01*
X151616144Y-104851686D01*
X151635764Y-104784630D01*
X151688523Y-104738824D01*
X151757672Y-104728813D01*
X151794460Y-104742889D01*
X151794881Y-104741873D01*
X151806158Y-104746544D01*
X151806161Y-104746546D01*
X151806164Y-104746546D01*
X151806165Y-104746547D01*
X151876307Y-104760499D01*
X151876310Y-104760500D01*
X151876312Y-104760500D01*
X152263690Y-104760500D01*
X152263691Y-104760499D01*
X152333839Y-104746546D01*
X152413391Y-104693391D01*
X152466546Y-104613839D01*
X152480500Y-104543688D01*
X152480500Y-104456448D01*
X152500185Y-104389409D01*
X152552989Y-104343654D01*
X152622147Y-104333710D01*
X152651952Y-104341887D01*
X152658647Y-104344660D01*
X152658649Y-104344660D01*
X152658652Y-104344662D01*
X152735079Y-104365141D01*
X152735081Y-104365141D01*
X152814201Y-104365141D01*
X152814203Y-104365141D01*
X152890630Y-104344662D01*
X152959152Y-104305101D01*
X153015101Y-104249152D01*
X153054662Y-104180630D01*
X153075141Y-104104203D01*
X153075141Y-104025079D01*
X153054662Y-103948652D01*
X153054658Y-103948645D01*
X153047111Y-103935571D01*
X153042961Y-103920084D01*
X153035523Y-103908510D01*
X153030500Y-103873575D01*
X153030500Y-103853675D01*
X153050185Y-103786636D01*
X153085610Y-103750573D01*
X153124551Y-103724553D01*
X153131388Y-103714321D01*
X153168867Y-103658231D01*
X153168867Y-103658229D01*
X153168868Y-103658229D01*
X153178618Y-103609208D01*
X153180500Y-103599748D01*
X153180500Y-103300252D01*
X153180500Y-103300249D01*
X153180499Y-103300247D01*
X153168868Y-103241770D01*
X153168867Y-103241768D01*
X153140217Y-103198892D01*
X153119338Y-103132215D01*
X153137822Y-103064835D01*
X153140217Y-103061108D01*
X153168867Y-103018231D01*
X153168868Y-103018229D01*
X153180499Y-102959752D01*
X153180500Y-102959750D01*
X153180500Y-102892906D01*
X153200185Y-102825867D01*
X153225683Y-102797177D01*
X153981494Y-102174925D01*
X154005303Y-102159524D01*
X154097915Y-102113695D01*
X154131796Y-102107742D01*
X154165516Y-102101476D01*
X154166319Y-102101676D01*
G37*
%TD.AperFunction*%
%TA.AperFunction,Conductor*%
G36*
X163831943Y-94650185D02*
G01*
X163877698Y-94702989D01*
X163887642Y-94772146D01*
X163884500Y-94793998D01*
X163884500Y-95365999D01*
X163884501Y-95366018D01*
X163886909Y-95388424D01*
X163887441Y-95391702D01*
X163887410Y-95391707D01*
X163888604Y-95398780D01*
X163889500Y-95406193D01*
X163889501Y-95499897D01*
X163895331Y-95529212D01*
X163906365Y-95545726D01*
X163909918Y-95575119D01*
X163908842Y-95581565D01*
X163910795Y-95587804D01*
X163903163Y-95615606D01*
X163899229Y-95639186D01*
X163900004Y-95639507D01*
X163898617Y-95642854D01*
X163898420Y-95644037D01*
X163897881Y-95644630D01*
X163895329Y-95650791D01*
X163889500Y-95680098D01*
X163889500Y-95770358D01*
X163888238Y-95788001D01*
X163884500Y-95814000D01*
X163884500Y-95814002D01*
X163884500Y-96365999D01*
X163884501Y-96366018D01*
X163886909Y-96388424D01*
X163887441Y-96391702D01*
X163887144Y-96391749D01*
X163889500Y-96413659D01*
X163889500Y-96499893D01*
X163889501Y-96499903D01*
X163895330Y-96529212D01*
X163917542Y-96562457D01*
X163933456Y-96573089D01*
X163950787Y-96584669D01*
X163980101Y-96590500D01*
X164070351Y-96590499D01*
X164087994Y-96591760D01*
X164114000Y-96595500D01*
X164114003Y-96595500D01*
X164666000Y-96595500D01*
X164688427Y-96593089D01*
X164688436Y-96593086D01*
X164689238Y-96592957D01*
X164692687Y-96592287D01*
X164703103Y-96590499D01*
X164799898Y-96590499D01*
X164829213Y-96584669D01*
X164861072Y-96563381D01*
X164887060Y-96558921D01*
X164896632Y-96560032D01*
X164905829Y-96557153D01*
X164930770Y-96563996D01*
X164956463Y-96566979D01*
X164963914Y-96573089D01*
X164973208Y-96575639D01*
X164990491Y-96594881D01*
X165010492Y-96611281D01*
X165013457Y-96620449D01*
X165019897Y-96627619D01*
X165024033Y-96653151D01*
X165031993Y-96677760D01*
X165029530Y-96687076D01*
X165031072Y-96696589D01*
X165020350Y-96733690D01*
X162587239Y-101933116D01*
X162579912Y-101954478D01*
X162579911Y-101954483D01*
X162568227Y-102005959D01*
X162568508Y-102016418D01*
X162550630Y-102083961D01*
X162499072Y-102131117D01*
X162430205Y-102142912D01*
X162365894Y-102115603D01*
X162349037Y-102098819D01*
X162342382Y-102090781D01*
X162310460Y-102035489D01*
X162254511Y-101979540D01*
X162246424Y-101974871D01*
X162234012Y-101959878D01*
X162225519Y-101940118D01*
X162212837Y-101922748D01*
X162211998Y-101908655D01*
X162206424Y-101895686D01*
X162209963Y-101874471D01*
X162208685Y-101853002D01*
X162215639Y-101840444D01*
X162217921Y-101826769D01*
X162231520Y-101811769D01*
X162241846Y-101793124D01*
X162280460Y-101754511D01*
X162320021Y-101685989D01*
X162340500Y-101609562D01*
X162340500Y-101530438D01*
X162320021Y-101454011D01*
X162311932Y-101440000D01*
X162280464Y-101385495D01*
X162280458Y-101385487D01*
X162224512Y-101329541D01*
X162224504Y-101329535D01*
X162155995Y-101289982D01*
X162155990Y-101289979D01*
X162130513Y-101283152D01*
X162079562Y-101269500D01*
X162000438Y-101269500D01*
X161962224Y-101279739D01*
X161924009Y-101289979D01*
X161924004Y-101289982D01*
X161855495Y-101329535D01*
X161855487Y-101329541D01*
X161816704Y-101368324D01*
X161793000Y-101381267D01*
X161771218Y-101397243D01*
X161762791Y-101397762D01*
X161755381Y-101401809D01*
X161728438Y-101399881D01*
X161701481Y-101401544D01*
X161689993Y-101397130D01*
X161685689Y-101396823D01*
X161668537Y-101388888D01*
X161495765Y-101292339D01*
X161446848Y-101242454D01*
X161432665Y-101174039D01*
X161437282Y-101149154D01*
X161441224Y-101135731D01*
X161441224Y-101135730D01*
X161441226Y-101135724D01*
X161445500Y-101106000D01*
X161445500Y-99644595D01*
X161465185Y-99577556D01*
X161517989Y-99531801D01*
X161587147Y-99521857D01*
X161650703Y-99550882D01*
X161676888Y-99582597D01*
X161689537Y-99604507D01*
X161689539Y-99604510D01*
X161689540Y-99604511D01*
X161745489Y-99660460D01*
X161745491Y-99660461D01*
X161745495Y-99660464D01*
X161814004Y-99700017D01*
X161814011Y-99700021D01*
X161890438Y-99720500D01*
X161890440Y-99720500D01*
X161969560Y-99720500D01*
X161969562Y-99720500D01*
X162045989Y-99700021D01*
X162114511Y-99660460D01*
X162170460Y-99604511D01*
X162210021Y-99535989D01*
X162230500Y-99459562D01*
X162230500Y-99380438D01*
X162539500Y-99380438D01*
X162539500Y-99459562D01*
X162550810Y-99501769D01*
X162559979Y-99535990D01*
X162559982Y-99535995D01*
X162599535Y-99604504D01*
X162599539Y-99604509D01*
X162599540Y-99604511D01*
X162655489Y-99660460D01*
X162655491Y-99660461D01*
X162655495Y-99660464D01*
X162724004Y-99700017D01*
X162724011Y-99700021D01*
X162800438Y-99720500D01*
X162800440Y-99720500D01*
X162879560Y-99720500D01*
X162879562Y-99720500D01*
X162955989Y-99700021D01*
X163024511Y-99660460D01*
X163080460Y-99604511D01*
X163120021Y-99535989D01*
X163140500Y-99459562D01*
X163140500Y-99380438D01*
X163120021Y-99304011D01*
X163106441Y-99280489D01*
X163080464Y-99235495D01*
X163080461Y-99235491D01*
X163080460Y-99235489D01*
X163024511Y-99179540D01*
X163024509Y-99179539D01*
X163024504Y-99179535D01*
X162955995Y-99139982D01*
X162955990Y-99139979D01*
X162930513Y-99133152D01*
X162879562Y-99119500D01*
X162800438Y-99119500D01*
X162772568Y-99126968D01*
X162724009Y-99139979D01*
X162724004Y-99139982D01*
X162655495Y-99179535D01*
X162655487Y-99179541D01*
X162599541Y-99235487D01*
X162599535Y-99235495D01*
X162559982Y-99304004D01*
X162559979Y-99304009D01*
X162552198Y-99333048D01*
X162539500Y-99380438D01*
X162230500Y-99380438D01*
X162210021Y-99304011D01*
X162196441Y-99280489D01*
X162170464Y-99235495D01*
X162170461Y-99235491D01*
X162170460Y-99235489D01*
X162114511Y-99179540D01*
X162114509Y-99179539D01*
X162114504Y-99179535D01*
X162045995Y-99139982D01*
X162045990Y-99139979D01*
X162020513Y-99133152D01*
X161969562Y-99119500D01*
X161890438Y-99119500D01*
X161862568Y-99126968D01*
X161814009Y-99139979D01*
X161814004Y-99139982D01*
X161745495Y-99179535D01*
X161745487Y-99179541D01*
X161689541Y-99235487D01*
X161689539Y-99235490D01*
X161654545Y-99296101D01*
X161603977Y-99344316D01*
X161535370Y-99357538D01*
X161470505Y-99331570D01*
X161437724Y-99285812D01*
X161435355Y-99286998D01*
X161408525Y-99233399D01*
X161362770Y-99180596D01*
X161333950Y-99162075D01*
X161312763Y-99148459D01*
X161245729Y-99128775D01*
X161245725Y-99128774D01*
X161245724Y-99128774D01*
X161216000Y-99124500D01*
X160584621Y-99124500D01*
X160584613Y-99124500D01*
X160561939Y-99126967D01*
X160509861Y-99138432D01*
X160509857Y-99138434D01*
X160463066Y-99162075D01*
X160463062Y-99162078D01*
X160410487Y-99208097D01*
X160410484Y-99208100D01*
X160378600Y-99258262D01*
X160378597Y-99258268D01*
X160359249Y-99325402D01*
X160359248Y-99325404D01*
X160355123Y-99355150D01*
X160360130Y-100356613D01*
X160357396Y-100366096D01*
X160358722Y-100375878D01*
X160347881Y-100399113D01*
X160340781Y-100423750D01*
X160333353Y-100430250D01*
X160329181Y-100439195D01*
X160307500Y-100452880D01*
X160288207Y-100469768D01*
X160276868Y-100472215D01*
X160270098Y-100476490D01*
X160250004Y-100478016D01*
X160235124Y-100481229D01*
X160224521Y-100481142D01*
X160221904Y-100480422D01*
X160192112Y-100476652D01*
X160024073Y-100479500D01*
X159853072Y-100479500D01*
X159848078Y-100480493D01*
X159825995Y-100482857D01*
X159813126Y-100483075D01*
X159809996Y-100483175D01*
X159802733Y-100483513D01*
X159802722Y-100483515D01*
X159770302Y-100490226D01*
X159704957Y-100514948D01*
X159704954Y-100514950D01*
X159657536Y-100550795D01*
X159657535Y-100550796D01*
X159615927Y-100606923D01*
X159615923Y-100606929D01*
X159601658Y-100633348D01*
X159388868Y-101212138D01*
X159383910Y-101230695D01*
X159383908Y-101230700D01*
X159376305Y-101275017D01*
X159376302Y-101275038D01*
X159374792Y-101294193D01*
X159382976Y-101948857D01*
X159382977Y-101948876D01*
X159383661Y-101954719D01*
X159383609Y-101955020D01*
X159384500Y-101969119D01*
X159384500Y-102079894D01*
X159384501Y-102079902D01*
X159390330Y-102109212D01*
X159412542Y-102142457D01*
X159428518Y-102153131D01*
X159445787Y-102164669D01*
X159475101Y-102170500D01*
X159568836Y-102170499D01*
X159569918Y-102170504D01*
X159580601Y-102170599D01*
X159582735Y-102171226D01*
X159612459Y-102175500D01*
X159721188Y-102175500D01*
X159736203Y-102174426D01*
X159752184Y-102172128D01*
X159761605Y-102172212D01*
X159786376Y-102179725D01*
X159811999Y-102183407D01*
X159819265Y-102189702D01*
X159828466Y-102192493D01*
X159845242Y-102212205D01*
X159864808Y-102229156D01*
X159867517Y-102238381D01*
X159873749Y-102245703D01*
X159877204Y-102271357D01*
X159884500Y-102296193D01*
X159884500Y-102579894D01*
X159884501Y-102579902D01*
X159890330Y-102609212D01*
X159895004Y-102620496D01*
X159891449Y-102621968D01*
X159905795Y-102667805D01*
X159891950Y-102718241D01*
X159895004Y-102719507D01*
X159890329Y-102730791D01*
X159884500Y-102760098D01*
X159884500Y-103079894D01*
X159884501Y-103079902D01*
X159890330Y-103109212D01*
X159895004Y-103120496D01*
X159891449Y-103121968D01*
X159905795Y-103167805D01*
X159891950Y-103218241D01*
X159895004Y-103219507D01*
X159890329Y-103230791D01*
X159884500Y-103260098D01*
X159884500Y-103579894D01*
X159884501Y-103579902D01*
X159890330Y-103609212D01*
X159895004Y-103620496D01*
X159891449Y-103621968D01*
X159905795Y-103667805D01*
X159891950Y-103718241D01*
X159895004Y-103719507D01*
X159890329Y-103730791D01*
X159884500Y-103760098D01*
X159884500Y-104079894D01*
X159884501Y-104079902D01*
X159890330Y-104109212D01*
X159895004Y-104120496D01*
X159891449Y-104121968D01*
X159905795Y-104167805D01*
X159891950Y-104218241D01*
X159895004Y-104219507D01*
X159890329Y-104230791D01*
X159884500Y-104260098D01*
X159884500Y-104579894D01*
X159884501Y-104579902D01*
X159890330Y-104609212D01*
X159895004Y-104620496D01*
X159891449Y-104621968D01*
X159905795Y-104667805D01*
X159891950Y-104718241D01*
X159895004Y-104719507D01*
X159890329Y-104730791D01*
X159884500Y-104760098D01*
X159884500Y-105079894D01*
X159884501Y-105079902D01*
X159890330Y-105109212D01*
X159895004Y-105120496D01*
X159891449Y-105121968D01*
X159905795Y-105167805D01*
X159904909Y-105184954D01*
X159901343Y-105214305D01*
X159890331Y-105230787D01*
X159884500Y-105260101D01*
X159884500Y-105352955D01*
X159883595Y-105360405D01*
X159882063Y-105363963D01*
X159880276Y-105377541D01*
X159879500Y-105380435D01*
X159879500Y-105459564D01*
X159880276Y-105462459D01*
X159884500Y-105494548D01*
X159884500Y-105579893D01*
X159884501Y-105579903D01*
X159890330Y-105609212D01*
X159895004Y-105620496D01*
X159891449Y-105621968D01*
X159905795Y-105667805D01*
X159891950Y-105718241D01*
X159895004Y-105719507D01*
X159890329Y-105730791D01*
X159884500Y-105760098D01*
X159884500Y-106045500D01*
X159864815Y-106112539D01*
X159812011Y-106158294D01*
X159760500Y-106169500D01*
X159475105Y-106169500D01*
X159475097Y-106169501D01*
X159445787Y-106175330D01*
X159434504Y-106180004D01*
X159433032Y-106176452D01*
X159387166Y-106190795D01*
X159336759Y-106176946D01*
X159335493Y-106180004D01*
X159324208Y-106175329D01*
X159294901Y-106169500D01*
X159294899Y-106169500D01*
X159174563Y-106169500D01*
X159174562Y-106169500D01*
X159095438Y-106169500D01*
X159095435Y-106169500D01*
X158975105Y-106169500D01*
X158975097Y-106169501D01*
X158945787Y-106175330D01*
X158934504Y-106180004D01*
X158933032Y-106176452D01*
X158887166Y-106190795D01*
X158836759Y-106176946D01*
X158835493Y-106180004D01*
X158824208Y-106175329D01*
X158794901Y-106169500D01*
X158475105Y-106169500D01*
X158475097Y-106169501D01*
X158445787Y-106175330D01*
X158434504Y-106180004D01*
X158433032Y-106176452D01*
X158387166Y-106190795D01*
X158336759Y-106176946D01*
X158335493Y-106180004D01*
X158324208Y-106175329D01*
X158294901Y-106169500D01*
X157975105Y-106169500D01*
X157975097Y-106169501D01*
X157945787Y-106175330D01*
X157934504Y-106180004D01*
X157933032Y-106176452D01*
X157887166Y-106190795D01*
X157836759Y-106176946D01*
X157835493Y-106180004D01*
X157824208Y-106175329D01*
X157794901Y-106169500D01*
X157794899Y-106169500D01*
X157674563Y-106169500D01*
X157674562Y-106169500D01*
X157595438Y-106169500D01*
X157595435Y-106169500D01*
X157475105Y-106169500D01*
X157475097Y-106169501D01*
X157445787Y-106175330D01*
X157434504Y-106180004D01*
X157433032Y-106176452D01*
X157387166Y-106190795D01*
X157336759Y-106176946D01*
X157335493Y-106180004D01*
X157324208Y-106175329D01*
X157294901Y-106169500D01*
X156975105Y-106169500D01*
X156975097Y-106169501D01*
X156945787Y-106175330D01*
X156934504Y-106180004D01*
X156933032Y-106176452D01*
X156887166Y-106190795D01*
X156836759Y-106176946D01*
X156835493Y-106180004D01*
X156824208Y-106175329D01*
X156794901Y-106169500D01*
X156794899Y-106169500D01*
X156669563Y-106169500D01*
X156669562Y-106169500D01*
X156590438Y-106169500D01*
X156590435Y-106169500D01*
X156475105Y-106169500D01*
X156475097Y-106169501D01*
X156445787Y-106175330D01*
X156434504Y-106180004D01*
X156433032Y-106176452D01*
X156387166Y-106190795D01*
X156336759Y-106176946D01*
X156335493Y-106180004D01*
X156324208Y-106175329D01*
X156294901Y-106169500D01*
X156009499Y-106169500D01*
X155942460Y-106149815D01*
X155896705Y-106097011D01*
X155885499Y-106045504D01*
X155885499Y-105760102D01*
X155879669Y-105730787D01*
X155874996Y-105719504D01*
X155878551Y-105718031D01*
X155864205Y-105672208D01*
X155878047Y-105621756D01*
X155874996Y-105620493D01*
X155879666Y-105609217D01*
X155879669Y-105609213D01*
X155885500Y-105579899D01*
X155885499Y-105260102D01*
X155879669Y-105230787D01*
X155874996Y-105219504D01*
X155878551Y-105218031D01*
X155864205Y-105172208D01*
X155878047Y-105121756D01*
X155874996Y-105120493D01*
X155879666Y-105109217D01*
X155879669Y-105109213D01*
X155885500Y-105079899D01*
X155885499Y-104760102D01*
X155879669Y-104730787D01*
X155874996Y-104719504D01*
X155878551Y-104718031D01*
X155864205Y-104672208D01*
X155878047Y-104621756D01*
X155874996Y-104620493D01*
X155879666Y-104609217D01*
X155879669Y-104609213D01*
X155885500Y-104579899D01*
X155885499Y-104260102D01*
X155879669Y-104230787D01*
X155874996Y-104219504D01*
X155878551Y-104218031D01*
X155864205Y-104172208D01*
X155878047Y-104121756D01*
X155874996Y-104120493D01*
X155879666Y-104109217D01*
X155879669Y-104109213D01*
X155885500Y-104079899D01*
X155885499Y-103760102D01*
X155879669Y-103730787D01*
X155874996Y-103719504D01*
X155878551Y-103718031D01*
X155864205Y-103672208D01*
X155878047Y-103621756D01*
X155874996Y-103620493D01*
X155879666Y-103609217D01*
X155879669Y-103609213D01*
X155885500Y-103579899D01*
X155885499Y-103260102D01*
X155879669Y-103230787D01*
X155874996Y-103219504D01*
X155878551Y-103218031D01*
X155864205Y-103172208D01*
X155878047Y-103121756D01*
X155874996Y-103120493D01*
X155879666Y-103109217D01*
X155879669Y-103109213D01*
X155885500Y-103079899D01*
X155885499Y-102760102D01*
X155879669Y-102730787D01*
X155874996Y-102719504D01*
X155878551Y-102718031D01*
X155864205Y-102672208D01*
X155878047Y-102621756D01*
X155874996Y-102620493D01*
X155879666Y-102609217D01*
X155879669Y-102609213D01*
X155885500Y-102579899D01*
X155885499Y-102294498D01*
X155888049Y-102285812D01*
X155886761Y-102276852D01*
X155897738Y-102252815D01*
X155905183Y-102227460D01*
X155912025Y-102221531D01*
X155915786Y-102213296D01*
X155938017Y-102199009D01*
X155957987Y-102181705D01*
X155968502Y-102179417D01*
X155974564Y-102175522D01*
X156009494Y-102170499D01*
X156080996Y-102170499D01*
X156081004Y-102170500D01*
X156095438Y-102170500D01*
X156188996Y-102170500D01*
X156189004Y-102170499D01*
X156294895Y-102170499D01*
X156294898Y-102170499D01*
X156324213Y-102164669D01*
X156324214Y-102164667D01*
X156335496Y-102159996D01*
X156336969Y-102163553D01*
X156382763Y-102149205D01*
X156433244Y-102163043D01*
X156434507Y-102159996D01*
X156445784Y-102164667D01*
X156445787Y-102164669D01*
X156445790Y-102164669D01*
X156445791Y-102164670D01*
X156451744Y-102165854D01*
X156475101Y-102170500D01*
X156794898Y-102170499D01*
X156824213Y-102164669D01*
X156824214Y-102164667D01*
X156835496Y-102159996D01*
X156836969Y-102163553D01*
X156882763Y-102149205D01*
X156898406Y-102149912D01*
X156928617Y-102153197D01*
X156945787Y-102164669D01*
X156975101Y-102170500D01*
X157087717Y-102170499D01*
X157087726Y-102170500D01*
X157095438Y-102170500D01*
X157188996Y-102170500D01*
X157189004Y-102170499D01*
X157294895Y-102170499D01*
X157294898Y-102170499D01*
X157324213Y-102164669D01*
X157324214Y-102164667D01*
X157335496Y-102159996D01*
X157336969Y-102163553D01*
X157382763Y-102149205D01*
X157433244Y-102163043D01*
X157434507Y-102159996D01*
X157445784Y-102164667D01*
X157445787Y-102164669D01*
X157445790Y-102164669D01*
X157445791Y-102164670D01*
X157451744Y-102165854D01*
X157475101Y-102170500D01*
X157794898Y-102170499D01*
X157824213Y-102164669D01*
X157824214Y-102164667D01*
X157835496Y-102159996D01*
X157836969Y-102163553D01*
X157882763Y-102149205D01*
X157933244Y-102163043D01*
X157934507Y-102159996D01*
X157945784Y-102164667D01*
X157945787Y-102164669D01*
X157945790Y-102164669D01*
X157945791Y-102164670D01*
X157951744Y-102165854D01*
X157975101Y-102170500D01*
X158294898Y-102170499D01*
X158324213Y-102164669D01*
X158324214Y-102164667D01*
X158335496Y-102159996D01*
X158336969Y-102163553D01*
X158382763Y-102149205D01*
X158399962Y-102150091D01*
X158429306Y-102153657D01*
X158445787Y-102164669D01*
X158475101Y-102170500D01*
X158567862Y-102170499D01*
X158575316Y-102171405D01*
X158575774Y-102171602D01*
X158578003Y-102171761D01*
X158604000Y-102175500D01*
X158604001Y-102175500D01*
X158755186Y-102175500D01*
X158770201Y-102174426D01*
X158805136Y-102169403D01*
X158805138Y-102169402D01*
X158805397Y-102169336D01*
X158810975Y-102167300D01*
X158824213Y-102164669D01*
X158828409Y-102161865D01*
X158830190Y-102161472D01*
X158838513Y-102157254D01*
X158842192Y-102155912D01*
X158847028Y-102153793D01*
X158847164Y-102153725D01*
X158847163Y-102153725D01*
X158847167Y-102153724D01*
X158848091Y-102153129D01*
X158859118Y-102146813D01*
X158877042Y-102137732D01*
X158890671Y-102125764D01*
X158905935Y-102115956D01*
X158918937Y-102100947D01*
X158925302Y-102095360D01*
X158925303Y-102095359D01*
X158925314Y-102095349D01*
X158929535Y-102091644D01*
X158936432Y-102080756D01*
X158944870Y-102071018D01*
X158948799Y-102062412D01*
X158948220Y-102062148D01*
X158961358Y-102041411D01*
X158963796Y-102032900D01*
X158970209Y-102015530D01*
X158973888Y-102007477D01*
X158975511Y-101996185D01*
X158979045Y-101979679D01*
X158980600Y-101974255D01*
X158984681Y-101944499D01*
X158978015Y-100925644D01*
X158977475Y-100915657D01*
X158976359Y-100904682D01*
X158975637Y-100897582D01*
X158975000Y-100885034D01*
X158975000Y-100702242D01*
X158994685Y-100635203D01*
X159047489Y-100589448D01*
X159065958Y-100582725D01*
X159071506Y-100581192D01*
X159071526Y-100581185D01*
X159071532Y-100581184D01*
X159078888Y-100578857D01*
X159113117Y-100566630D01*
X159163926Y-100548483D01*
X159167725Y-100547043D01*
X159176578Y-100543491D01*
X159179748Y-100541574D01*
X159185986Y-100538046D01*
X159190019Y-100535916D01*
X159190020Y-100535917D01*
X159208910Y-100525943D01*
X159243220Y-100497041D01*
X159250193Y-100487991D01*
X159258892Y-100480581D01*
X159275766Y-100454800D01*
X159277846Y-100452101D01*
X159277847Y-100452102D01*
X159285861Y-100441703D01*
X159285863Y-100441695D01*
X159288873Y-100436363D01*
X159291453Y-100430837D01*
X159291452Y-100430837D01*
X159291454Y-100430836D01*
X159294866Y-100419565D01*
X159297983Y-100410536D01*
X159307414Y-100386290D01*
X159308379Y-100382132D01*
X159311024Y-100368360D01*
X159310720Y-100368292D01*
X159311691Y-100363995D01*
X159311698Y-100363975D01*
X159316223Y-100334284D01*
X159324445Y-99355929D01*
X159322131Y-99333048D01*
X159322130Y-99333043D01*
X159322129Y-99333035D01*
X159310930Y-99280498D01*
X159310927Y-99280489D01*
X159287483Y-99233408D01*
X159287480Y-99233404D01*
X159287479Y-99233401D01*
X159241724Y-99180597D01*
X159191716Y-99148459D01*
X159124682Y-99128775D01*
X159124678Y-99128774D01*
X159124677Y-99128774D01*
X159094953Y-99124500D01*
X159094949Y-99124500D01*
X158816622Y-99124500D01*
X158749583Y-99104815D01*
X158703828Y-99052011D01*
X158692622Y-99000500D01*
X158692622Y-98914350D01*
X158692622Y-98914349D01*
X158672143Y-98837922D01*
X158647574Y-98795367D01*
X158632586Y-98769406D01*
X158632580Y-98769398D01*
X158612827Y-98749645D01*
X158576633Y-98713451D01*
X158508111Y-98673890D01*
X158481197Y-98666678D01*
X158465106Y-98662366D01*
X158431684Y-98653411D01*
X158352560Y-98653411D01*
X158314346Y-98663650D01*
X158276131Y-98673890D01*
X158276126Y-98673893D01*
X158207617Y-98713446D01*
X158207609Y-98713452D01*
X158151663Y-98769398D01*
X158151657Y-98769406D01*
X158112104Y-98837915D01*
X158112101Y-98837920D01*
X158098448Y-98888873D01*
X158091622Y-98914349D01*
X158091622Y-98993473D01*
X158105274Y-99044424D01*
X158112101Y-99069901D01*
X158112104Y-99069906D01*
X158151657Y-99138415D01*
X158151663Y-99138423D01*
X158154843Y-99141603D01*
X158188328Y-99202926D01*
X158183344Y-99272618D01*
X158171290Y-99296614D01*
X157832432Y-99820664D01*
X157830058Y-99824514D01*
X157824665Y-99833701D01*
X157822452Y-99838297D01*
X157820467Y-99837341D01*
X157783676Y-99885494D01*
X157717975Y-99909265D01*
X157710346Y-99909500D01*
X157650438Y-99909500D01*
X157615544Y-99918850D01*
X157574009Y-99929979D01*
X157574004Y-99929982D01*
X157505495Y-99969535D01*
X157505487Y-99969541D01*
X157449541Y-100025487D01*
X157449535Y-100025495D01*
X157409982Y-100094004D01*
X157409979Y-100094009D01*
X157404307Y-100115177D01*
X157389500Y-100170438D01*
X157389500Y-100249562D01*
X157392166Y-100259510D01*
X157409979Y-100325990D01*
X157409981Y-100325993D01*
X157428257Y-100357649D01*
X157444728Y-100425549D01*
X157437202Y-100462573D01*
X157432083Y-100476443D01*
X157431957Y-100476550D01*
X157399002Y-100526027D01*
X157378223Y-100592731D01*
X157373463Y-100622379D01*
X157373391Y-100626748D01*
X157369612Y-100645746D01*
X157369612Y-100645748D01*
X157369500Y-100646309D01*
X157369500Y-100863116D01*
X157369485Y-100864999D01*
X157366588Y-101041739D01*
X157366696Y-101042880D01*
X157366625Y-101047444D01*
X157357227Y-101077684D01*
X157349503Y-101108399D01*
X157346935Y-101110806D01*
X157345891Y-101114167D01*
X157321636Y-101134526D01*
X157298534Y-101156188D01*
X157294761Y-101157086D01*
X157292377Y-101159088D01*
X157279386Y-101160748D01*
X157242640Y-101169500D01*
X156975105Y-101169500D01*
X156975097Y-101169501D01*
X156945787Y-101175330D01*
X156934504Y-101180004D01*
X156933032Y-101176452D01*
X156887166Y-101190795D01*
X156836759Y-101176946D01*
X156835493Y-101180004D01*
X156824208Y-101175329D01*
X156794901Y-101169500D01*
X156794899Y-101169500D01*
X156679563Y-101169500D01*
X156679562Y-101169500D01*
X156600438Y-101169500D01*
X156600435Y-101169500D01*
X156475105Y-101169500D01*
X156475097Y-101169501D01*
X156445787Y-101175330D01*
X156434504Y-101180004D01*
X156433032Y-101176452D01*
X156387166Y-101190795D01*
X156336759Y-101176946D01*
X156335493Y-101180004D01*
X156324208Y-101175329D01*
X156294901Y-101169500D01*
X155975105Y-101169500D01*
X155975097Y-101169501D01*
X155945787Y-101175330D01*
X155912542Y-101197542D01*
X155890332Y-101230785D01*
X155890329Y-101230791D01*
X155888375Y-101240618D01*
X155855989Y-101302529D01*
X155795273Y-101337102D01*
X155725503Y-101333361D01*
X155679077Y-101304106D01*
X155634512Y-101259541D01*
X155634504Y-101259535D01*
X155565995Y-101219982D01*
X155565990Y-101219979D01*
X155540513Y-101213152D01*
X155489562Y-101199500D01*
X155410438Y-101199500D01*
X155334011Y-101219979D01*
X155334009Y-101219980D01*
X155326161Y-101222083D01*
X155325560Y-101219842D01*
X155267938Y-101226024D01*
X155205466Y-101194735D01*
X155169827Y-101134638D01*
X155165986Y-101105040D01*
X155165756Y-101077684D01*
X155164433Y-100920000D01*
X155151099Y-100904681D01*
X155127943Y-100855340D01*
X155126711Y-100855801D01*
X155122434Y-100844364D01*
X155122433Y-100844362D01*
X155122433Y-100844361D01*
X155106705Y-100818946D01*
X154343005Y-99999979D01*
X154318748Y-99982515D01*
X154279831Y-99973351D01*
X154271764Y-99974664D01*
X154271763Y-99974664D01*
X154240370Y-99979777D01*
X154214951Y-99995507D01*
X154214949Y-99995509D01*
X154169406Y-100037979D01*
X154106952Y-100069303D01*
X154037476Y-100061889D01*
X153997160Y-100034974D01*
X153874598Y-99912412D01*
X153874597Y-99912411D01*
X153841967Y-99898897D01*
X153841967Y-99898895D01*
X153841960Y-99898894D01*
X153819282Y-99889500D01*
X153819281Y-99889500D01*
X152805336Y-99889500D01*
X152755449Y-99879022D01*
X152741396Y-99872846D01*
X152738574Y-99870024D01*
X152675868Y-99844050D01*
X152674613Y-99843499D01*
X152648857Y-99821821D01*
X152622643Y-99800696D01*
X152622208Y-99799391D01*
X152621158Y-99798507D01*
X152611213Y-99766353D01*
X152600579Y-99734401D01*
X152600532Y-99731821D01*
X152600513Y-99731757D01*
X152600530Y-99731693D01*
X152600500Y-99729977D01*
X152600500Y-99720119D01*
X152600499Y-99720116D01*
X152600269Y-99719560D01*
X152569976Y-99646426D01*
X152520876Y-99597326D01*
X152516538Y-99589382D01*
X152509292Y-99583958D01*
X152500055Y-99559196D01*
X152487391Y-99536003D01*
X152488036Y-99526975D01*
X152484873Y-99518494D01*
X152490489Y-99492670D01*
X152492375Y-99466311D01*
X152498192Y-99457259D01*
X152499723Y-99450221D01*
X152520874Y-99421966D01*
X152530078Y-99412762D01*
X152541253Y-99401586D01*
X152602573Y-99368101D01*
X152672265Y-99373084D01*
X152716615Y-99401586D01*
X152765489Y-99450460D01*
X152765491Y-99450461D01*
X152765495Y-99450464D01*
X152826383Y-99485617D01*
X152834011Y-99490021D01*
X152910438Y-99510500D01*
X152910440Y-99510500D01*
X152989560Y-99510500D01*
X152989562Y-99510500D01*
X153065989Y-99490021D01*
X153117230Y-99460437D01*
X154239500Y-99460437D01*
X154239500Y-99539561D01*
X154244843Y-99559500D01*
X154259979Y-99615989D01*
X154259982Y-99615994D01*
X154299535Y-99684503D01*
X154299539Y-99684508D01*
X154299540Y-99684510D01*
X154355489Y-99740459D01*
X154424011Y-99780020D01*
X154500438Y-99800499D01*
X154500439Y-99800499D01*
X154587690Y-99800499D01*
X154587690Y-99802638D01*
X154591396Y-99803126D01*
X154604947Y-99800681D01*
X154639140Y-99809406D01*
X154663153Y-99819352D01*
X154663154Y-99819353D01*
X154668409Y-99821529D01*
X154690065Y-99830500D01*
X154786324Y-99830500D01*
X154853363Y-99850185D01*
X154889425Y-99885608D01*
X154915446Y-99924551D01*
X154981769Y-99968867D01*
X154981770Y-99968868D01*
X155040247Y-99980499D01*
X155040250Y-99980500D01*
X155040252Y-99980500D01*
X155339750Y-99980500D01*
X155339751Y-99980499D01*
X155354568Y-99977552D01*
X155398229Y-99968868D01*
X155398231Y-99968867D01*
X155441108Y-99940217D01*
X155507785Y-99919338D01*
X155575165Y-99937822D01*
X155578892Y-99940217D01*
X155621768Y-99968867D01*
X155621770Y-99968868D01*
X155680247Y-99980499D01*
X155680250Y-99980500D01*
X155680252Y-99980500D01*
X155979750Y-99980500D01*
X155979751Y-99980499D01*
X155994568Y-99977552D01*
X156038229Y-99968868D01*
X156038231Y-99968867D01*
X156051476Y-99960017D01*
X156081240Y-99940128D01*
X156147916Y-99919249D01*
X156212131Y-99935841D01*
X156254011Y-99960021D01*
X156330438Y-99980500D01*
X156330440Y-99980500D01*
X156409560Y-99980500D01*
X156409562Y-99980500D01*
X156485989Y-99960021D01*
X156554511Y-99920460D01*
X156610460Y-99864511D01*
X156650021Y-99795989D01*
X156670500Y-99719562D01*
X156670500Y-99640438D01*
X156650021Y-99564011D01*
X156647241Y-99559196D01*
X156610464Y-99495495D01*
X156610458Y-99495487D01*
X156554512Y-99439541D01*
X156554504Y-99439535D01*
X156485995Y-99399982D01*
X156485990Y-99399979D01*
X156460513Y-99393152D01*
X156409562Y-99379500D01*
X156330438Y-99379500D01*
X156279486Y-99393152D01*
X156254010Y-99399979D01*
X156212131Y-99424158D01*
X156144230Y-99440629D01*
X156117836Y-99436490D01*
X156098173Y-99431185D01*
X156038231Y-99391133D01*
X155979748Y-99379500D01*
X155906577Y-99379500D01*
X155890711Y-99375220D01*
X155874359Y-99365215D01*
X155855968Y-99359815D01*
X155845175Y-99347359D01*
X155831112Y-99338755D01*
X155822763Y-99321495D01*
X155810213Y-99307011D01*
X155807867Y-99290696D01*
X155800689Y-99275856D01*
X155802996Y-99256825D01*
X155800269Y-99237853D01*
X155807626Y-99218652D01*
X155809101Y-99206495D01*
X155815025Y-99199344D01*
X155819906Y-99186608D01*
X155838867Y-99158231D01*
X155838868Y-99158229D01*
X155850499Y-99099752D01*
X155850500Y-99099750D01*
X155850500Y-98860249D01*
X155850499Y-98860247D01*
X155838868Y-98801770D01*
X155838867Y-98801769D01*
X155794552Y-98735447D01*
X155728230Y-98691132D01*
X155728229Y-98691131D01*
X155669752Y-98679500D01*
X155669748Y-98679500D01*
X155370252Y-98679500D01*
X155370247Y-98679500D01*
X155311770Y-98691131D01*
X155311769Y-98691132D01*
X155245447Y-98735447D01*
X155201132Y-98801769D01*
X155201131Y-98801770D01*
X155189500Y-98860247D01*
X155189500Y-99099752D01*
X155201131Y-99158229D01*
X155201132Y-99158231D01*
X155220094Y-99186608D01*
X155240973Y-99253285D01*
X155222489Y-99320665D01*
X155170511Y-99367356D01*
X155137580Y-99377779D01*
X155127358Y-99379500D01*
X155040252Y-99379500D01*
X154981769Y-99391133D01*
X154956003Y-99408349D01*
X154929793Y-99412762D01*
X154920419Y-99411643D01*
X154911412Y-99414463D01*
X154886289Y-99407569D01*
X154860416Y-99404481D01*
X154853134Y-99398471D01*
X154844033Y-99395974D01*
X154819561Y-99370762D01*
X154806529Y-99360006D01*
X154805254Y-99356022D01*
X154801818Y-99352482D01*
X154800107Y-99349518D01*
X154780460Y-99315488D01*
X154724511Y-99259539D01*
X154724509Y-99259538D01*
X154724504Y-99259534D01*
X154655995Y-99219981D01*
X154655990Y-99219978D01*
X154629820Y-99212966D01*
X154579562Y-99199499D01*
X154500438Y-99199499D01*
X154462224Y-99209738D01*
X154424009Y-99219978D01*
X154424004Y-99219981D01*
X154355495Y-99259534D01*
X154355487Y-99259540D01*
X154299541Y-99315486D01*
X154299535Y-99315494D01*
X154259982Y-99384003D01*
X154259979Y-99384008D01*
X154252275Y-99412762D01*
X154239500Y-99460437D01*
X153117230Y-99460437D01*
X153134511Y-99450460D01*
X153190460Y-99394511D01*
X153230021Y-99325989D01*
X153250500Y-99249562D01*
X153250500Y-99170438D01*
X153230021Y-99094011D01*
X153215655Y-99069128D01*
X153190464Y-99025495D01*
X153190458Y-99025487D01*
X153147286Y-98982315D01*
X153113801Y-98920992D01*
X153118785Y-98851300D01*
X153160657Y-98795367D01*
X153172961Y-98787251D01*
X154172077Y-98210438D01*
X158529500Y-98210438D01*
X158529500Y-98289562D01*
X158543152Y-98340513D01*
X158549979Y-98365990D01*
X158549982Y-98365995D01*
X158589535Y-98434504D01*
X158589539Y-98434509D01*
X158589540Y-98434511D01*
X158645489Y-98490460D01*
X158714011Y-98530021D01*
X158790438Y-98550500D01*
X158790439Y-98550500D01*
X158869560Y-98550500D01*
X158869562Y-98550500D01*
X158945989Y-98530021D01*
X159014511Y-98490460D01*
X159070460Y-98434511D01*
X159110021Y-98365989D01*
X159130500Y-98289562D01*
X159130500Y-98210438D01*
X159110021Y-98134011D01*
X159104532Y-98124504D01*
X159070464Y-98065495D01*
X159070458Y-98065487D01*
X159014512Y-98009541D01*
X159014504Y-98009535D01*
X158945995Y-97969982D01*
X158945990Y-97969979D01*
X158920513Y-97963152D01*
X158869562Y-97949500D01*
X158790438Y-97949500D01*
X158752224Y-97959739D01*
X158714009Y-97969979D01*
X158714004Y-97969982D01*
X158645495Y-98009535D01*
X158645487Y-98009541D01*
X158589541Y-98065487D01*
X158589535Y-98065495D01*
X158549982Y-98134004D01*
X158549979Y-98134009D01*
X158537533Y-98180458D01*
X158529500Y-98210438D01*
X154172077Y-98210438D01*
X154709038Y-97900438D01*
X163419500Y-97900438D01*
X163419500Y-97979562D01*
X163427533Y-98009540D01*
X163439979Y-98055990D01*
X163439982Y-98055995D01*
X163479535Y-98124504D01*
X163479539Y-98124509D01*
X163479540Y-98124511D01*
X163535489Y-98180460D01*
X163535491Y-98180461D01*
X163535495Y-98180464D01*
X163587414Y-98210439D01*
X163604011Y-98220021D01*
X163680438Y-98240500D01*
X163680440Y-98240500D01*
X163759560Y-98240500D01*
X163759562Y-98240500D01*
X163835989Y-98220021D01*
X163904511Y-98180460D01*
X163960460Y-98124511D01*
X164000021Y-98055989D01*
X164020500Y-97979562D01*
X164020500Y-97900438D01*
X164000021Y-97824011D01*
X163971443Y-97774512D01*
X163960464Y-97755495D01*
X163960458Y-97755487D01*
X163904512Y-97699541D01*
X163904504Y-97699535D01*
X163835995Y-97659982D01*
X163835990Y-97659979D01*
X163810513Y-97653152D01*
X163759562Y-97639500D01*
X163680438Y-97639500D01*
X163642224Y-97649739D01*
X163604009Y-97659979D01*
X163604004Y-97659982D01*
X163535495Y-97699535D01*
X163535487Y-97699541D01*
X163479541Y-97755487D01*
X163479535Y-97755495D01*
X163439982Y-97824004D01*
X163439979Y-97824009D01*
X163427651Y-97870017D01*
X163419500Y-97900438D01*
X154709038Y-97900438D01*
X155315284Y-97550438D01*
X161279500Y-97550438D01*
X161279500Y-97629562D01*
X161287651Y-97659982D01*
X161299979Y-97705990D01*
X161299982Y-97705995D01*
X161339535Y-97774504D01*
X161339539Y-97774509D01*
X161339540Y-97774511D01*
X161395489Y-97830460D01*
X161395491Y-97830461D01*
X161395495Y-97830464D01*
X161464004Y-97870017D01*
X161464011Y-97870021D01*
X161540438Y-97890500D01*
X161540440Y-97890500D01*
X161619560Y-97890500D01*
X161619562Y-97890500D01*
X161695989Y-97870021D01*
X161764511Y-97830460D01*
X161820460Y-97774511D01*
X161860021Y-97705989D01*
X161880500Y-97629562D01*
X161880500Y-97550438D01*
X161860021Y-97474011D01*
X161837453Y-97434922D01*
X161820464Y-97405495D01*
X161820458Y-97405487D01*
X161764512Y-97349541D01*
X161764504Y-97349535D01*
X161695995Y-97309982D01*
X161695990Y-97309979D01*
X161670513Y-97303152D01*
X161619562Y-97289500D01*
X161540438Y-97289500D01*
X161502224Y-97299739D01*
X161464009Y-97309979D01*
X161464004Y-97309982D01*
X161395495Y-97349535D01*
X161395487Y-97349541D01*
X161339541Y-97405487D01*
X161339535Y-97405495D01*
X161299982Y-97474004D01*
X161299979Y-97474009D01*
X161290708Y-97508611D01*
X161279500Y-97550438D01*
X155315284Y-97550438D01*
X158049522Y-95971899D01*
X158117422Y-95955429D01*
X158173604Y-95971950D01*
X160219646Y-97155447D01*
X160219645Y-97155447D01*
X160238220Y-97166191D01*
X160242327Y-97171585D01*
X160261218Y-97179494D01*
X160266754Y-97182695D01*
X160272962Y-97186287D01*
X160272963Y-97186287D01*
X160272965Y-97186288D01*
X160284530Y-97190224D01*
X160284358Y-97190727D01*
X160288967Y-97191973D01*
X160292002Y-97192384D01*
X160292003Y-97192383D01*
X160292006Y-97192385D01*
X160305743Y-97190629D01*
X160312597Y-97191537D01*
X160325406Y-97188116D01*
X160345429Y-97185557D01*
X160351070Y-97181262D01*
X160351225Y-97181221D01*
X160367376Y-97168848D01*
X160388281Y-97152933D01*
X160395296Y-97136176D01*
X160396194Y-97134032D01*
X160402983Y-97122298D01*
X160403847Y-97115775D01*
X160484762Y-96922576D01*
X160633219Y-96502398D01*
X160646424Y-96456946D01*
X160684028Y-96398065D01*
X160747501Y-96368858D01*
X160816687Y-96378604D01*
X160869622Y-96424207D01*
X160889498Y-96491190D01*
X160889499Y-96491536D01*
X160889499Y-96499890D01*
X160889500Y-96499902D01*
X160895329Y-96529212D01*
X160917541Y-96562457D01*
X160933455Y-96573089D01*
X160950786Y-96584669D01*
X160980100Y-96590500D01*
X160989646Y-96590499D01*
X161051654Y-96607113D01*
X161074009Y-96620020D01*
X161074010Y-96620020D01*
X161074011Y-96620021D01*
X161150438Y-96640500D01*
X161150440Y-96640500D01*
X161229560Y-96640500D01*
X161229562Y-96640500D01*
X161305989Y-96620021D01*
X161328346Y-96607112D01*
X161390347Y-96590499D01*
X161799894Y-96590499D01*
X161799897Y-96590499D01*
X161829212Y-96584669D01*
X161862456Y-96562457D01*
X161884668Y-96529213D01*
X161890499Y-96499899D01*
X161890498Y-96180102D01*
X161884668Y-96150787D01*
X161879995Y-96139504D01*
X161883551Y-96138030D01*
X161869205Y-96092224D01*
X161883045Y-96041757D01*
X161879996Y-96040494D01*
X161884666Y-96029218D01*
X161884669Y-96029214D01*
X161890500Y-95999900D01*
X161890499Y-95680103D01*
X161884669Y-95650788D01*
X161872831Y-95633070D01*
X161862457Y-95617543D01*
X161829214Y-95595333D01*
X161829215Y-95595333D01*
X161829213Y-95595332D01*
X161829211Y-95595331D01*
X161829208Y-95595330D01*
X161799901Y-95589501D01*
X161012962Y-95589501D01*
X160994330Y-95584030D01*
X160974919Y-95583521D01*
X160961497Y-95574389D01*
X160945923Y-95569816D01*
X160933207Y-95555141D01*
X160917152Y-95544218D01*
X160910797Y-95529279D01*
X160900168Y-95517012D01*
X160897404Y-95497792D01*
X160889804Y-95479924D01*
X160890579Y-95450329D01*
X160890224Y-95447854D01*
X160890718Y-95444707D01*
X160930461Y-95211820D01*
X160961142Y-95149051D01*
X161020890Y-95112831D01*
X161084785Y-95112907D01*
X161150438Y-95130500D01*
X161150440Y-95130500D01*
X161229560Y-95130500D01*
X161229562Y-95130500D01*
X161305989Y-95110021D01*
X161305992Y-95110019D01*
X161305993Y-95110019D01*
X161311029Y-95107112D01*
X161373028Y-95090499D01*
X161799895Y-95090499D01*
X161799898Y-95090499D01*
X161829213Y-95084669D01*
X161862457Y-95062457D01*
X161884669Y-95029213D01*
X161890500Y-94999899D01*
X161890499Y-94754499D01*
X161910183Y-94687461D01*
X161962987Y-94641706D01*
X162014499Y-94630500D01*
X163764904Y-94630500D01*
X163831943Y-94650185D01*
G37*
%TD.AperFunction*%
%TA.AperFunction,Conductor*%
G36*
X168160554Y-94650185D02*
G01*
X168206309Y-94702989D01*
X168217300Y-94761806D01*
X168186732Y-95279683D01*
X168186198Y-95285987D01*
X168103750Y-96032641D01*
X168102895Y-96038908D01*
X167982485Y-96780349D01*
X167981313Y-96786565D01*
X167823235Y-97520960D01*
X167821746Y-97527108D01*
X167626433Y-98252447D01*
X167624633Y-98258511D01*
X167392582Y-98972954D01*
X167390475Y-98978919D01*
X167122293Y-99680599D01*
X167119885Y-99686448D01*
X166816270Y-100373535D01*
X166813567Y-100379254D01*
X166475296Y-101049989D01*
X166472304Y-101055562D01*
X166100285Y-101708142D01*
X166097013Y-101713556D01*
X165692191Y-102346331D01*
X165688647Y-102351571D01*
X165252085Y-102962871D01*
X165248279Y-102967923D01*
X164781105Y-103556176D01*
X164777046Y-103561027D01*
X164280489Y-104124680D01*
X164276188Y-104129318D01*
X164074762Y-104335713D01*
X164013851Y-104369943D01*
X163944104Y-104365808D01*
X163887665Y-104324621D01*
X163866937Y-104283681D01*
X163864233Y-104274371D01*
X163855705Y-104207334D01*
X163833481Y-104168450D01*
X163829370Y-104154290D01*
X163829432Y-104133502D01*
X163824619Y-104113275D01*
X163829536Y-104099265D01*
X163829581Y-104084421D01*
X163840873Y-104066966D01*
X163847759Y-104047349D01*
X163861681Y-104034803D01*
X163867534Y-104025757D01*
X163875953Y-104021942D01*
X163886922Y-104012059D01*
X163908896Y-103999500D01*
X163926392Y-103989500D01*
X164107141Y-103832377D01*
X164143647Y-103785229D01*
X164164627Y-103708273D01*
X164154562Y-103629147D01*
X164124973Y-103577378D01*
X163928486Y-103351345D01*
X163905457Y-103333514D01*
X163881340Y-103314840D01*
X163881335Y-103314837D01*
X163804382Y-103293859D01*
X163725254Y-103303925D01*
X163673486Y-103333514D01*
X163492741Y-103490633D01*
X163492729Y-103490646D01*
X163456232Y-103537782D01*
X163456230Y-103537786D01*
X163435251Y-103614740D01*
X163435250Y-103614744D01*
X163437155Y-103629718D01*
X163426086Y-103698706D01*
X163379476Y-103750757D01*
X163345538Y-103762789D01*
X163345916Y-103763918D01*
X163334334Y-103767793D01*
X163285149Y-103795904D01*
X163285136Y-103795913D01*
X162826640Y-104194479D01*
X162826639Y-104194480D01*
X162791958Y-104239272D01*
X162791956Y-104239276D01*
X162782428Y-104274221D01*
X162782428Y-104274224D01*
X162772022Y-104312392D01*
X162781587Y-104387572D01*
X162785360Y-104394175D01*
X162785361Y-104394176D01*
X162809695Y-104436753D01*
X162809707Y-104436769D01*
X163050989Y-104714332D01*
X163051627Y-104715723D01*
X163052897Y-104716580D01*
X163066138Y-104747364D01*
X163080115Y-104777841D01*
X163080094Y-104779812D01*
X163080504Y-104780764D01*
X163079721Y-104816049D01*
X163068048Y-104886155D01*
X163037620Y-104949051D01*
X163025989Y-104960313D01*
X162457949Y-105442611D01*
X162394104Y-105470996D01*
X162325049Y-105460358D01*
X162285225Y-105430705D01*
X161979379Y-105088386D01*
X161949394Y-105025281D01*
X161958286Y-104955979D01*
X162003234Y-104902487D01*
X162010296Y-104898129D01*
X162034854Y-104884094D01*
X162493358Y-104485522D01*
X162528043Y-104440725D01*
X162547978Y-104367608D01*
X162538413Y-104292428D01*
X162528007Y-104274221D01*
X162510304Y-104243246D01*
X162510292Y-104243230D01*
X162266298Y-103962548D01*
X162210137Y-103897942D01*
X162210136Y-103897941D01*
X162210135Y-103897940D01*
X162210134Y-103897939D01*
X162172483Y-103868787D01*
X162131526Y-103812180D01*
X162127675Y-103742417D01*
X162128763Y-103738127D01*
X162135948Y-103711769D01*
X162146141Y-103674382D01*
X162136075Y-103595256D01*
X162106486Y-103543486D01*
X161949363Y-103362737D01*
X161949353Y-103362729D01*
X161902217Y-103326232D01*
X161902213Y-103326230D01*
X161844678Y-103310545D01*
X161785177Y-103273921D01*
X161754922Y-103210941D01*
X161763518Y-103141603D01*
X161808238Y-103087919D01*
X161825873Y-103079252D01*
X161833864Y-103074684D01*
X161833867Y-103074684D01*
X161885636Y-103045095D01*
X162111669Y-102848608D01*
X162148175Y-102801460D01*
X162148176Y-102801457D01*
X162151635Y-102788770D01*
X162161027Y-102773509D01*
X162165767Y-102756227D01*
X162178961Y-102744372D01*
X162188258Y-102729268D01*
X162204409Y-102721508D01*
X162217741Y-102709531D01*
X162251069Y-102699092D01*
X162251234Y-102699013D01*
X162302866Y-102690641D01*
X162372187Y-102699341D01*
X162410390Y-102725361D01*
X162415489Y-102730460D01*
X162415491Y-102730461D01*
X162415495Y-102730464D01*
X162466836Y-102760105D01*
X162484011Y-102770021D01*
X162560438Y-102790500D01*
X162560440Y-102790500D01*
X162639560Y-102790500D01*
X162639562Y-102790500D01*
X162715989Y-102770021D01*
X162784511Y-102730460D01*
X162840460Y-102674511D01*
X162880021Y-102605989D01*
X162900500Y-102529562D01*
X162900500Y-102529555D01*
X162900929Y-102526297D01*
X162902058Y-102523742D01*
X162902603Y-102521712D01*
X162902919Y-102521796D01*
X162929193Y-102462399D01*
X162987516Y-102423926D01*
X163057380Y-102423091D01*
X163076273Y-102430094D01*
X163352817Y-102559049D01*
X163360556Y-102561621D01*
X163376821Y-102567027D01*
X163377796Y-102567046D01*
X163389423Y-102567285D01*
X163414163Y-102570297D01*
X163414200Y-102570305D01*
X163414202Y-102570306D01*
X163465885Y-102581962D01*
X163465886Y-102581961D01*
X163465887Y-102581962D01*
X163483308Y-102581463D01*
X163518155Y-102580466D01*
X163585322Y-102561220D01*
X163635540Y-102529408D01*
X163681639Y-102476904D01*
X163698039Y-102451749D01*
X164595316Y-100520456D01*
X165324263Y-100520456D01*
X165324263Y-100599580D01*
X165335336Y-100640904D01*
X165344742Y-100676008D01*
X165344745Y-100676013D01*
X165384298Y-100744522D01*
X165384302Y-100744527D01*
X165384303Y-100744529D01*
X165440252Y-100800478D01*
X165440254Y-100800479D01*
X165440258Y-100800482D01*
X165508767Y-100840035D01*
X165508774Y-100840039D01*
X165585201Y-100860518D01*
X165585203Y-100860518D01*
X165664323Y-100860518D01*
X165664325Y-100860518D01*
X165740752Y-100840039D01*
X165809274Y-100800478D01*
X165865223Y-100744529D01*
X165904784Y-100676007D01*
X165924501Y-100602421D01*
X165960865Y-100542764D01*
X166023712Y-100512235D01*
X166044275Y-100510518D01*
X166114323Y-100510518D01*
X166114325Y-100510518D01*
X166190752Y-100490039D01*
X166259274Y-100450478D01*
X166315223Y-100394529D01*
X166354784Y-100326007D01*
X166375263Y-100249580D01*
X166375263Y-100170456D01*
X166354784Y-100094029D01*
X166320688Y-100034972D01*
X166315227Y-100025513D01*
X166315221Y-100025505D01*
X166292224Y-100002508D01*
X166258739Y-99941185D01*
X166263723Y-99871493D01*
X166281537Y-99839330D01*
X166285213Y-99834538D01*
X166285223Y-99834529D01*
X166324784Y-99766007D01*
X166345263Y-99689580D01*
X166345263Y-99610456D01*
X166324784Y-99534029D01*
X166306159Y-99501769D01*
X166285227Y-99465513D01*
X166285221Y-99465505D01*
X166229275Y-99409559D01*
X166229267Y-99409553D01*
X166160758Y-99370000D01*
X166160753Y-99369997D01*
X166124309Y-99360232D01*
X166084325Y-99349518D01*
X166005201Y-99349518D01*
X165975271Y-99357538D01*
X165928772Y-99369997D01*
X165928767Y-99370000D01*
X165860258Y-99409553D01*
X165860250Y-99409559D01*
X165804304Y-99465505D01*
X165804298Y-99465513D01*
X165764745Y-99534022D01*
X165764742Y-99534027D01*
X165756708Y-99564011D01*
X165744263Y-99610456D01*
X165744263Y-99689580D01*
X165752297Y-99719562D01*
X165764742Y-99766008D01*
X165764745Y-99766013D01*
X165804298Y-99834522D01*
X165804304Y-99834530D01*
X165827301Y-99857527D01*
X165860786Y-99918850D01*
X165855802Y-99988542D01*
X165852980Y-99995463D01*
X165843927Y-100015882D01*
X165834303Y-100025507D01*
X165794742Y-100094029D01*
X165774263Y-100170456D01*
X165774263Y-100173023D01*
X165768611Y-100185773D01*
X165752020Y-100205354D01*
X165738661Y-100227272D01*
X165729807Y-100231572D01*
X165723445Y-100239082D01*
X165698901Y-100246585D01*
X165675814Y-100257801D01*
X165657110Y-100259362D01*
X165656629Y-100259510D01*
X165656335Y-100259427D01*
X165655251Y-100259518D01*
X165585201Y-100259518D01*
X165546987Y-100269757D01*
X165508772Y-100279997D01*
X165508767Y-100280000D01*
X165440258Y-100319553D01*
X165440250Y-100319559D01*
X165384304Y-100375505D01*
X165384298Y-100375513D01*
X165344745Y-100444022D01*
X165344742Y-100444027D01*
X165332962Y-100487991D01*
X165324263Y-100520456D01*
X164595316Y-100520456D01*
X166451205Y-96525850D01*
X166458520Y-96504259D01*
X166470064Y-96452250D01*
X166468364Y-96400170D01*
X166485851Y-96332525D01*
X166527968Y-96290118D01*
X166575672Y-96261171D01*
X166617966Y-96203490D01*
X166628873Y-96180101D01*
X166699234Y-96029209D01*
X166781678Y-95852408D01*
X166798679Y-95782933D01*
X166794009Y-95752593D01*
X166792649Y-95726664D01*
X166787565Y-95710727D01*
X166784124Y-95688370D01*
X166783990Y-95688149D01*
X166773089Y-95664196D01*
X166773057Y-95664209D01*
X166772781Y-95663520D01*
X166771861Y-95661497D01*
X166771801Y-95661310D01*
X166771415Y-95660099D01*
X166758311Y-95633081D01*
X166758304Y-95633070D01*
X166707519Y-95557935D01*
X166707106Y-95557388D01*
X166700872Y-95549129D01*
X166684239Y-95529335D01*
X166684233Y-95529330D01*
X166679916Y-95525106D01*
X166680046Y-95524972D01*
X166678542Y-95523556D01*
X166674484Y-95519950D01*
X166660392Y-95509903D01*
X166660392Y-95509902D01*
X166657470Y-95507819D01*
X166652386Y-95503732D01*
X166649948Y-95502456D01*
X166637969Y-95493915D01*
X166637966Y-95493913D01*
X166632557Y-95490057D01*
X166633792Y-95488324D01*
X166592014Y-95445475D01*
X166580979Y-95416227D01*
X166579980Y-95412047D01*
X166579977Y-95412027D01*
X166558743Y-95345462D01*
X166545639Y-95318444D01*
X166211390Y-94823939D01*
X166190157Y-94757375D01*
X166208282Y-94689897D01*
X166260011Y-94642930D01*
X166314124Y-94630500D01*
X168093515Y-94630500D01*
X168160554Y-94650185D01*
G37*
%TD.AperFunction*%
%TA.AperFunction,Conductor*%
G36*
X151976587Y-101939685D02*
G01*
X151996119Y-101955222D01*
X152425572Y-102374011D01*
X152554007Y-102499257D01*
X152588260Y-102560155D01*
X152589053Y-102612224D01*
X152579500Y-102660252D01*
X152579500Y-102959752D01*
X152591131Y-103018229D01*
X152591132Y-103018230D01*
X152619783Y-103061109D01*
X152640661Y-103127786D01*
X152622177Y-103195167D01*
X152619783Y-103198891D01*
X152591132Y-103241769D01*
X152591131Y-103241770D01*
X152579500Y-103300247D01*
X152579500Y-103599752D01*
X152591131Y-103658229D01*
X152591132Y-103658231D01*
X152600663Y-103672494D01*
X152621542Y-103739171D01*
X152603058Y-103806552D01*
X152597231Y-103815157D01*
X152590866Y-103823755D01*
X152590130Y-103824181D01*
X152534181Y-103880130D01*
X152494620Y-103948652D01*
X152492461Y-103956706D01*
X152480724Y-103972565D01*
X152464520Y-103984832D01*
X152451770Y-104000653D01*
X152437234Y-104005490D01*
X152425018Y-104014739D01*
X152404755Y-104016298D01*
X152385475Y-104022715D01*
X152366311Y-104019257D01*
X152355355Y-104020101D01*
X152347490Y-104015861D01*
X152345870Y-104015569D01*
X152345818Y-104015836D01*
X152263691Y-103999500D01*
X152263688Y-103999500D01*
X151876312Y-103999500D01*
X151876309Y-103999500D01*
X151806165Y-104013452D01*
X151794881Y-104018127D01*
X151794207Y-104016501D01*
X151741433Y-104033021D01*
X151674055Y-104014531D01*
X151627369Y-103962548D01*
X151615231Y-103909161D01*
X151615230Y-103908510D01*
X151613424Y-102044119D01*
X151615983Y-102035373D01*
X151614686Y-102026353D01*
X151625640Y-102002365D01*
X151633044Y-101977062D01*
X151639924Y-101971088D01*
X151643711Y-101962797D01*
X151665895Y-101948540D01*
X151685803Y-101931256D01*
X151696378Y-101928950D01*
X151702489Y-101925023D01*
X151737424Y-101920000D01*
X151909548Y-101920000D01*
X151976587Y-101939685D01*
G37*
%TD.AperFunction*%
%TD*%
M02*
